<svg width="120" height="57" viewBox="0 0 120 57" fill="none" xmlns="http://www.w3.org/2000/svg">
<path d="M1 56.5V0.5H-1V56.5H1Z" fill="black" mask="url(#path-1-inside-1_961_12371)"/>
<path fill-rule="evenodd" clip-rule="evenodd" d="M51.1908 0.792041C50.5381 1.11856 49.9703 1.6826 49.6698 2.30289L49.4844 2.68557V16.5V30.3144L49.7164 30.7548C50.0619 31.411 50.542 31.8834 51.1959 32.2105L51.7746 32.5H59.9998H68.2251L68.8038 32.2105C69.4577 31.8834 69.9377 31.411 70.2833 30.7548L70.5153 30.3144V16.5V2.68557L70.2833 2.24516C69.9377 1.58899 69.4577 1.11658 68.8038 0.789485L68.2251 0.5H59.9998H51.7746L51.1908 0.792041ZM51.9998 1.9165C51.588 2.03353 51.2027 2.35196 50.9888 2.75221L50.804 3.09794L50.7817 14.6237L50.7593 26.1495H59.9998H69.2403L69.218 14.6237L69.1957 3.09794L69.0109 2.75221C68.7898 2.33852 68.4084 2.03344 67.9586 1.91064C67.5236 1.79179 52.4191 1.79732 51.9998 1.9165ZM56.8658 2.9485C56.3477 3.14404 56.1904 3.80986 56.5883 4.12285C56.7996 4.28911 56.8932 4.29381 59.9998 4.29381C63.1065 4.29381 63.2001 4.28911 63.4114 4.12285C63.7127 3.8859 63.7148 3.41382 63.4159 3.13291L63.2032 2.93299L60.0963 2.9174C58.3876 2.90882 56.9339 2.92285 56.8658 2.9485ZM59.6143 6.12887C59.3283 6.42594 59.0926 6.75996 59.0926 6.86817C59.0926 6.88384 59.5009 6.8967 59.9998 6.8967C60.4988 6.8967 60.9071 6.88384 60.9071 6.86817C60.9071 6.70569 60.1351 5.77835 59.9998 5.77835C59.9734 5.77835 59.7998 5.93604 59.6143 6.12887ZM56.8846 6.95584C56.7662 7.46511 56.7526 7.92268 56.8558 7.92268C56.8957 7.92268 57.1357 7.79781 57.3892 7.64515C57.6426 7.4925 57.964 7.32045 58.1033 7.26272C58.2426 7.20507 58.3443 7.1165 58.3292 7.06602C58.2916 6.94058 57.6321 6.6294 57.2764 6.56928L56.9859 6.52021L56.8846 6.95584ZM62.4616 6.63509C62.0556 6.74445 61.6493 6.97192 61.6493 7.08986C61.6493 7.12862 61.7699 7.20878 61.9174 7.26784C62.0648 7.32697 62.381 7.49843 62.62 7.64895C62.8591 7.79955 63.091 7.92268 63.1354 7.92268C63.2463 7.92268 63.237 7.48012 63.1151 6.956C63.0046 6.48062 63.0153 6.4859 62.4616 6.63509ZM58.7844 7.38775C58.113 7.53365 57.4377 7.89975 56.8243 8.45052C56.2466 8.96936 56.2567 9.13588 56.8405 8.7165C58.8384 7.2812 61.1556 7.54858 62.0585 9.31847C62.2829 9.75839 62.4741 10.5115 62.4741 10.9558C62.4741 11.3673 62.5895 11.634 62.7677 11.634C62.9715 11.634 63.0407 11.2889 62.9677 10.6372C62.7713 8.88656 61.6952 7.64285 60.1257 7.3527C59.5348 7.24351 59.4366 7.24606 58.7844 7.38775ZM61.3194 7.40911C61.3194 7.44417 61.4521 7.54429 61.6144 7.63163C62.036 7.85868 62.7677 8.68021 63.0548 9.24895C63.3483 9.83039 63.5433 10.6071 63.545 11.201L63.5462 11.634H64.0411H64.5359V11.3214C64.5359 9.98322 63.4545 8.36012 62.0909 7.65159C61.503 7.34619 61.3194 7.28845 61.3194 7.40911ZM58.607 8.29555C57.9401 8.48227 57.2548 8.88012 56.6581 9.42676C56.2835 9.77002 56.1235 9.97621 56.1235 10.1156C56.1235 10.4155 56.2908 10.3613 56.9167 9.8581C57.229 9.60713 57.7598 9.26437 58.0964 9.09637C58.6504 8.81984 58.7717 8.7908 59.3748 8.79064C60.685 8.79014 61.3008 9.4167 61.5005 10.9536C61.5882 11.629 61.5906 11.634 61.8279 11.634C61.9593 11.634 62.0868 11.5821 62.1111 11.5188C62.1927 11.3061 61.9783 10.1211 61.7797 9.6873C61.5452 9.17505 61.0388 8.66091 60.5223 8.41093C60.0407 8.17786 59.2068 8.12755 58.607 8.29555ZM55.1751 8.52557C54.9937 8.57357 54.8389 8.6153 54.8313 8.61835C54.7736 8.64153 55.0826 9.57274 55.2008 9.73192C55.4164 10.0222 55.5239 10.0267 55.5852 9.74775C55.6148 9.61274 55.7852 9.29365 55.9638 9.03872C56.1424 8.78371 56.2885 8.53967 56.2885 8.49637C56.2885 8.39476 55.6015 8.41282 55.1751 8.52557ZM63.7112 8.4906C63.7112 8.53076 63.8567 8.78149 64.0345 9.04779C64.2122 9.31402 64.3837 9.63534 64.4154 9.76177C64.4817 10.0258 64.5867 10.0176 64.7988 9.73192C64.9162 9.57382 65.228 8.63584 65.1683 8.62033C64.3262 8.40136 63.7112 8.3466 63.7112 8.4906ZM58.6318 9.3052C58.4011 9.38775 58.0273 9.5739 57.8012 9.71897C57.2745 10.057 55.9586 11.3897 55.9586 11.5852C55.9586 11.612 56.088 11.634 56.2461 11.634C56.4964 11.634 56.6224 11.5453 57.2205 10.947C58.2784 9.88928 59.1236 9.54107 59.8733 9.85431C60.2336 10.0049 60.5895 10.6443 60.3131 10.6443C60.2585 10.6443 60.0977 10.5317 59.9556 10.3939C59.5894 10.0391 59.2166 9.99815 58.6621 10.252C58.245 10.4429 57.1132 11.3995 57.1132 11.561C57.1132 11.6012 57.2657 11.634 57.4519 11.634C57.7104 11.634 57.8271 11.5875 57.9452 11.4374C58.1381 11.1922 58.8106 10.7646 59.115 10.6936C59.4361 10.6187 59.7524 10.9402 59.7524 11.3417C59.7524 11.6208 59.7654 11.634 60.0411 11.634C60.3239 11.634 60.3297 11.6272 60.3297 11.2973C60.3297 10.8675 60.5248 10.896 60.5615 11.3311C60.5857 11.6164 60.6037 11.634 60.8708 11.634C61.1505 11.634 61.1545 11.629 61.1545 11.276C61.1545 10.5294 60.7965 9.76689 60.28 9.41299C59.9035 9.15501 59.1835 9.10792 58.6318 9.3052ZM55.7202 10.5279C55.5282 10.772 55.4997 10.9358 55.6348 11.0193C55.7657 11.1002 56.1343 10.7178 56.1064 10.5301C56.0696 10.2835 55.9131 10.2826 55.7202 10.5279ZM54.7937 10.8717C54.5874 11.0086 54.0617 11.5328 54.0617 11.6015C54.0617 11.6194 54.3215 11.634 54.639 11.634H55.2163V11.3109C55.2163 11.1332 55.2388 10.929 55.2664 10.8573C55.335 10.6786 55.0724 10.6866 54.7937 10.8717ZM64.7333 10.8573C64.7608 10.929 64.7833 11.1332 64.7833 11.3109V11.634H65.3607H65.938V11.913C65.938 12.1204 65.9793 12.2029 66.0988 12.2342C66.1872 12.2573 66.3355 12.4008 66.4284 12.553C66.5906 12.8191 66.5972 12.9517 66.5974 15.9474C66.5977 18.5524 66.5775 19.104 66.4746 19.3032C66.2036 19.8271 66.5714 19.799 59.9998 19.799C53.4283 19.799 53.796 19.8271 53.5251 19.3032C53.4222 19.104 53.402 18.5524 53.4022 15.9474C53.4025 12.9743 53.4101 12.8174 53.5676 12.5591C53.6585 12.4101 53.7882 12.267 53.856 12.2409C53.9518 12.2042 53.9792 12.0395 53.9792 11.5015C53.9792 10.7138 53.956 10.6937 53.378 10.9831C52.9019 11.2215 52.5212 11.5977 52.2605 12.0876L52.0411 12.5V15.9639V19.4278L52.2608 19.8441C52.5395 20.3721 52.929 20.7614 53.4019 20.9846C53.7701 21.1584 53.8232 21.1598 59.9998 21.1598H66.2266L66.6023 20.9746C67.0912 20.7337 67.4662 20.3607 67.7389 19.8441L67.9586 19.4278V15.9639V12.5L67.7641 12.1289C67.4999 11.6245 67.1278 11.246 66.6624 11.0081C66.0798 10.7104 65.938 10.736 65.938 11.1392C65.938 11.5167 65.8363 11.5598 65.6427 11.2644C65.3896 10.8781 64.6068 10.5276 64.7333 10.8573ZM58.5728 11.2835C58.4084 11.4082 58.2725 11.5361 58.2708 11.5676C58.2692 11.5992 58.5277 11.6226 58.8452 11.6196C59.3817 11.6145 59.4225 11.6014 59.4225 11.4344C59.4225 11.011 59.025 10.9404 58.5728 11.2835ZM55.645 12.6089C55.5453 12.9183 55.4638 13.1967 55.4638 13.2275C55.4638 13.3396 55.8002 13.28 55.8463 13.1598C55.8724 13.0918 55.9601 13.0361 56.0411 13.0361C56.1221 13.0361 56.2097 13.0918 56.2359 13.1598C56.2619 13.2278 56.3747 13.2835 56.4864 13.2835H56.6896L56.4816 12.665C56.2911 12.0983 56.2548 12.0464 56.0498 12.0464C55.8461 12.0464 55.8099 12.0966 55.645 12.6089ZM56.9645 12.6089C56.7433 13.2956 56.7435 13.2835 56.956 13.2835C57.0572 13.2835 57.1459 13.2176 57.1703 13.1242C57.2156 12.9511 57.433 12.9798 57.5504 13.1742C57.6148 13.2811 57.938 13.3313 57.938 13.2344C57.938 13.2075 57.8601 12.9291 57.765 12.6159C57.6066 12.0945 57.5732 12.0464 57.3688 12.0464C57.1659 12.0464 57.1294 12.0971 56.9645 12.6089ZM58.1854 12.665V13.2835H58.5603C59.0218 13.2835 59.34 13.0157 59.34 12.6274C59.34 12.2428 59.0892 12.0464 58.5978 12.0464H58.1854V12.665ZM59.505 12.665C59.505 13.2697 59.5096 13.2835 59.7112 13.2835C59.8853 13.2835 59.9174 13.245 59.9174 13.0361C59.9174 12.832 59.951 12.7887 60.1093 12.7887C60.2755 12.7887 60.2963 12.8217 60.2648 13.0361C60.2324 13.2571 60.2515 13.2835 60.4441 13.2835C60.6573 13.2835 60.6596 13.2769 60.6596 12.665C60.6596 12.0528 60.6574 12.0464 60.4438 12.0464C60.2581 12.0464 60.2335 12.0752 60.2675 12.2526C60.3005 12.4254 60.2754 12.4588 60.1121 12.4588C59.9593 12.4588 59.9174 12.4143 59.9174 12.2526C59.9174 12.0876 59.8761 12.0464 59.7112 12.0464C59.5096 12.0464 59.505 12.0602 59.505 12.665ZM61.0554 12.5207C60.9782 12.7852 60.8908 13.065 60.861 13.1426C60.8189 13.2522 60.8525 13.2835 61.0123 13.2835C61.1421 13.2835 61.2323 13.2278 61.2572 13.1323C61.279 13.0491 61.357 12.9811 61.4306 12.9811C61.5043 12.9811 61.5861 13.0491 61.6125 13.1323C61.6421 13.2258 61.7391 13.2835 61.8666 13.2835C62.0933 13.2835 62.0963 13.3295 61.8155 12.5C61.6948 12.1435 61.6433 12.0844 61.4358 12.0637C61.2087 12.0411 61.1881 12.0659 61.0554 12.5207ZM62.3524 12.5575C62.2735 12.8386 62.1904 13.117 62.1678 13.176C62.1407 13.2466 62.197 13.2835 62.3319 13.2835C62.4617 13.2835 62.5518 13.2278 62.5768 13.1323C62.5986 13.0491 62.6766 12.9811 62.7502 12.9811C62.8238 12.9811 62.9057 13.0491 62.932 13.1323C62.962 13.2266 63.0588 13.2835 63.1894 13.2835C63.3565 13.2835 63.387 13.2542 63.34 13.1392C63.3075 13.0598 63.2073 12.7814 63.1174 12.5206C62.9711 12.0965 62.9296 12.0464 62.7248 12.0464C62.5145 12.0464 62.484 12.0882 62.3524 12.5575ZM63.5462 12.665C63.5462 13.2285 63.5609 13.2835 63.7112 13.2835C63.8322 13.2835 63.8761 13.2285 63.8761 13.0773C63.8761 12.8173 64.1019 12.7995 64.1384 13.0567C64.1554 13.176 64.2311 13.2517 64.3504 13.2687C64.5574 13.298 64.5753 13.2329 64.4504 12.9043C64.3913 12.7489 64.3913 12.6528 64.4504 12.5938C64.6984 12.3458 64.4037 12.0464 63.9115 12.0464H63.5462V12.665ZM58.5153 12.665C58.5153 13.0655 58.5276 13.0795 58.7682 12.9507C58.9659 12.8449 58.9864 12.4165 58.7972 12.3439C58.5533 12.2503 58.5153 12.2935 58.5153 12.665ZM63.8761 12.4107C63.8761 12.4824 63.9348 12.5412 64.0067 12.5412C64.1523 12.5412 64.127 12.3637 63.9741 12.3127C63.9202 12.2947 63.8761 12.3388 63.8761 12.4107ZM61.372 12.5825C61.346 12.6505 61.3606 12.7062 61.4045 12.7062C61.4484 12.7062 61.4844 12.6505 61.4844 12.5825C61.4844 12.5144 61.4698 12.4588 61.452 12.4588C61.4341 12.4588 61.3982 12.5144 61.372 12.5825ZM62.6916 12.5825C62.6656 12.6505 62.6802 12.7062 62.724 12.7062C62.768 12.7062 62.804 12.6505 62.804 12.5825C62.804 12.5144 62.7894 12.4588 62.7715 12.4588C62.7537 12.4588 62.7178 12.5144 62.6916 12.5825ZM55.9586 12.6237C55.9586 12.6691 55.9957 12.7062 56.0411 12.7062C56.0864 12.7062 56.1235 12.6691 56.1235 12.6237C56.1235 12.5784 56.0864 12.5412 56.0411 12.5412C55.9957 12.5412 55.9586 12.5784 55.9586 12.6237ZM57.2782 12.6237C57.2782 12.6691 57.3175 12.7062 57.3655 12.7062C57.4135 12.7062 57.4299 12.6691 57.4019 12.6237C57.3739 12.5784 57.3346 12.5412 57.3146 12.5412C57.2945 12.5412 57.2782 12.5784 57.2782 12.6237ZM55.0808 13.5303C54.6624 13.6991 54.639 13.8301 54.639 16.0091C54.639 18.0071 54.6419 18.041 54.8246 18.2115C55.1063 18.4744 55.3818 18.5082 55.6906 18.3175C55.9534 18.1551 55.9586 18.1402 55.9586 17.5489V16.9459L56.4914 16.8546C57.6117 16.6627 58.1923 15.8332 57.9838 14.722C57.9015 14.2838 57.268 13.672 56.7651 13.5454C56.3228 13.4339 55.3412 13.4251 55.0808 13.5303ZM59.6184 13.6062C59.4515 13.708 59.3156 13.8896 59.2329 14.1214C59.1626 14.3183 59.0253 14.6835 58.9278 14.933C58.8302 15.1825 58.7188 15.4794 58.6801 15.5928C58.6415 15.7062 58.4587 16.1886 58.2739 16.6647C57.8277 17.8146 57.8292 18.1289 58.282 18.363C58.6801 18.5688 59.1958 18.2886 59.3011 17.8092C59.3529 17.5732 59.3559 17.5722 59.9879 17.5722H60.6227L60.7855 17.9227C61.0063 18.398 61.3195 18.5492 61.7037 18.366C62.0074 18.2212 62.178 17.8994 62.0975 17.6231C62.0512 17.4645 61.9424 17.1722 61.3574 15.634C60.6515 13.7784 60.6464 13.7679 60.3832 13.6074C60.0586 13.4094 59.9414 13.4093 59.6184 13.6062ZM62.1029 13.5417C61.5667 13.8414 61.6015 14.2001 62.2659 15.2236L62.7999 16.0464L62.802 16.8795C62.8043 17.8599 62.899 18.1915 63.2246 18.36C63.5231 18.5144 63.8272 18.4438 64.0424 18.1704C64.1833 17.9912 64.206 17.8348 64.2062 17.0456L64.2064 16.1289L64.7833 15.2629C65.3834 14.3623 65.4573 14.1181 65.2286 13.7915C64.8747 13.2862 64.3533 13.4128 63.9017 14.1139C63.7289 14.3821 63.5635 14.6019 63.5342 14.6024C63.5049 14.6028 63.3653 14.4229 63.224 14.2027C63.0826 13.9824 62.9025 13.744 62.8237 13.673C62.6228 13.4919 62.2978 13.4328 62.1029 13.5417ZM55.9586 15.1804C55.9586 15.4902 55.9734 15.5103 56.2002 15.5103C56.4087 15.5103 56.7009 15.3353 56.7009 15.2104C56.7009 15.0111 56.4972 14.8505 56.2444 14.8505C55.9659 14.8505 55.9586 14.859 55.9586 15.1804ZM59.9586 16.0876C59.9306 16.133 59.947 16.1701 59.995 16.1701C60.043 16.1701 60.0823 16.133 60.0823 16.0876C60.0823 16.0423 60.066 16.0052 60.0459 16.0052C60.0259 16.0052 59.9866 16.0423 59.9586 16.0876ZM50.7791 28.7268C50.8106 29.7244 50.8433 29.9544 50.9949 30.2478C51.2076 30.6594 51.5884 30.9657 52.0411 31.0894C52.5032 31.2156 67.4965 31.2156 67.9586 31.0894C68.4113 30.9657 68.7921 30.6594 69.0048 30.2478C69.1564 29.9544 69.189 29.7244 69.2205 28.7268L69.2577 27.5515H59.9998H50.7419L50.7791 28.7268ZM59.107 28.897C58.8454 29.1755 58.8636 29.6335 59.145 29.8548C59.3222 29.9943 59.4798 30.0258 59.9998 30.0258C60.7991 30.0258 61.072 29.86 61.072 29.3744C61.072 28.8532 60.8337 28.7062 59.9883 28.7062C59.3612 28.7062 59.2672 28.7266 59.107 28.897Z" fill="#C52031"/>
<path d="M28.5957 53.5L31.7337 44.824H32.9877L36.1257 53.5H34.9917L34.1397 51.124H30.5817L29.7237 53.5H28.5957ZM30.8757 50.104H33.8337L32.3577 45.91L30.8757 50.104ZM39.2752 53.62C38.8712 53.62 38.5152 53.55 38.2072 53.41C37.9032 53.266 37.6632 53.06 37.4872 52.792C37.3152 52.524 37.2292 52.2 37.2292 51.82C37.2292 51.132 37.4692 50.62 37.9492 50.284C38.4292 49.948 39.1992 49.768 40.2592 49.744L41.3632 49.714V49.228C41.3632 48.848 41.2492 48.548 41.0212 48.328C40.7932 48.104 40.4412 47.992 39.9652 47.992C39.6092 47.996 39.2952 48.08 39.0232 48.244C38.7512 48.408 38.5772 48.676 38.5012 49.048H37.5232C37.5472 48.644 37.6592 48.304 37.8592 48.028C38.0632 47.748 38.3492 47.536 38.7172 47.392C39.0852 47.248 39.5192 47.176 40.0192 47.176C40.5592 47.176 41.0072 47.252 41.3632 47.404C41.7232 47.556 41.9912 47.78 42.1672 48.076C42.3472 48.372 42.4372 48.736 42.4372 49.168V53.5H41.4892L41.4052 52.336C41.1692 52.82 40.8652 53.156 40.4932 53.344C40.1252 53.528 39.7192 53.62 39.2752 53.62ZM39.6052 52.822C39.8172 52.822 40.0252 52.784 40.2292 52.708C40.4372 52.632 40.6252 52.53 40.7932 52.402C40.9652 52.27 41.1032 52.124 41.2072 51.964C41.3112 51.8 41.3632 51.632 41.3632 51.46V50.398L40.4452 50.416C39.9692 50.424 39.5732 50.472 39.2572 50.56C38.9412 50.648 38.7032 50.786 38.5432 50.974C38.3832 51.162 38.3032 51.408 38.3032 51.712C38.3032 52.06 38.4252 52.332 38.6692 52.528C38.9132 52.724 39.2252 52.822 39.6052 52.822ZM46.43 53.62C45.622 53.62 44.982 53.344 44.51 52.792C44.042 52.24 43.808 51.434 43.808 50.374C43.808 49.73 43.902 49.168 44.09 48.688C44.278 48.208 44.56 47.836 44.936 47.572C45.312 47.308 45.78 47.176 46.34 47.176C46.64 47.176 46.904 47.214 47.132 47.29C47.36 47.366 47.558 47.462 47.726 47.578C47.894 47.694 48.03 47.814 48.134 47.938C48.242 48.062 48.322 48.176 48.374 48.28V44.584H49.496V53.5H48.644L48.524 52.228C48.484 52.348 48.42 52.488 48.332 52.648C48.244 52.804 48.12 52.958 47.96 53.11C47.804 53.258 47.6 53.38 47.348 53.476C47.096 53.572 46.79 53.62 46.43 53.62ZM46.628 52.768C47.252 52.768 47.698 52.578 47.966 52.198C48.238 51.814 48.374 51.188 48.374 50.32C48.37 49.836 48.31 49.424 48.194 49.084C48.078 48.744 47.894 48.486 47.642 48.31C47.394 48.13 47.062 48.04 46.646 48.04C46.138 48.04 45.724 48.222 45.404 48.586C45.084 48.95 44.924 49.528 44.924 50.32C44.924 51.096 45.068 51.698 45.356 52.126C45.644 52.554 46.068 52.768 46.628 52.768ZM51.4102 53.5V44.584H52.4902V48.208C52.5942 48.036 52.7342 47.876 52.9102 47.728C53.0862 47.576 53.3002 47.454 53.5522 47.362C53.8042 47.266 54.0962 47.218 54.4282 47.218C54.8322 47.218 55.1982 47.294 55.5262 47.446C55.8542 47.594 56.1142 47.806 56.3062 48.082C56.4982 48.358 56.5942 48.686 56.5942 49.066V53.5H55.4842V49.288C55.4842 48.916 55.3562 48.63 55.1002 48.43C54.8482 48.226 54.5182 48.124 54.1102 48.124C53.8342 48.124 53.5742 48.17 53.3302 48.262C53.0862 48.35 52.8882 48.486 52.7362 48.67C52.5882 48.85 52.5142 49.08 52.5142 49.36V53.5H51.4102ZM60.0408 53.62C59.6368 53.62 59.2808 53.55 58.9728 53.41C58.6688 53.266 58.4288 53.06 58.2528 52.792C58.0808 52.524 57.9948 52.2 57.9948 51.82C57.9948 51.132 58.2348 50.62 58.7148 50.284C59.1948 49.948 59.9648 49.768 61.0248 49.744L62.1288 49.714V49.228C62.1288 48.848 62.0148 48.548 61.7868 48.328C61.5588 48.104 61.2068 47.992 60.7308 47.992C60.3748 47.996 60.0608 48.08 59.7888 48.244C59.5168 48.408 59.3428 48.676 59.2668 49.048H58.2888C58.3128 48.644 58.4248 48.304 58.6248 48.028C58.8288 47.748 59.1148 47.536 59.4828 47.392C59.8508 47.248 60.2848 47.176 60.7848 47.176C61.3248 47.176 61.7728 47.252 62.1288 47.404C62.4888 47.556 62.7568 47.78 62.9328 48.076C63.1128 48.372 63.2028 48.736 63.2028 49.168V53.5H62.2548L62.1708 52.336C61.9348 52.82 61.6308 53.156 61.2588 53.344C60.8908 53.528 60.4848 53.62 60.0408 53.62ZM60.3708 52.822C60.5828 52.822 60.7908 52.784 60.9948 52.708C61.2028 52.632 61.3908 52.53 61.5588 52.402C61.7308 52.27 61.8688 52.124 61.9728 51.964C62.0768 51.8 62.1288 51.632 62.1288 51.46V50.398L61.2108 50.416C60.7348 50.424 60.3388 50.472 60.0228 50.56C59.7068 50.648 59.4688 50.786 59.3088 50.974C59.1488 51.162 59.0688 51.408 59.0688 51.712C59.0688 52.06 59.1908 52.332 59.4348 52.528C59.6788 52.724 59.9908 52.822 60.3708 52.822ZM64.9336 53.5V47.296H65.9896V48.49C66.0936 48.194 66.2396 47.95 66.4276 47.758C66.6156 47.562 66.8296 47.416 67.0696 47.32C67.3136 47.224 67.5656 47.176 67.8256 47.176C67.9176 47.176 68.0076 47.182 68.0956 47.194C68.1836 47.206 68.2516 47.226 68.2996 47.254V48.328C68.2396 48.3 68.1616 48.282 68.0656 48.274C67.9736 48.262 67.8956 48.256 67.8316 48.256C67.5836 48.24 67.3516 48.256 67.1356 48.304C66.9196 48.348 66.7296 48.426 66.5656 48.538C66.4016 48.65 66.2716 48.798 66.1756 48.982C66.0836 49.162 66.0376 49.382 66.0376 49.642V53.5H64.9336ZM72.7671 53.5V44.824H75.7011C76.3211 44.824 76.8731 44.928 77.3571 45.136C77.8411 45.344 78.2211 45.652 78.4971 46.06C78.7771 46.468 78.9171 46.97 78.9171 47.566C78.9171 48.142 78.7871 48.634 78.5271 49.042C78.2711 49.45 77.9131 49.76 77.4531 49.972C76.9931 50.184 76.4591 50.29 75.8511 50.29H73.9071V53.5H72.7671ZM73.9011 49.354H75.8271C76.4231 49.354 76.9071 49.188 77.2791 48.856C77.6511 48.524 77.8371 48.072 77.8371 47.5C77.8371 46.924 77.6451 46.488 77.2611 46.192C76.8771 45.896 76.3811 45.748 75.7731 45.748H73.9011V49.354ZM81.8025 53.62C81.3985 53.62 81.0425 53.55 80.7345 53.41C80.4305 53.266 80.1905 53.06 80.0145 52.792C79.8425 52.524 79.7565 52.2 79.7565 51.82C79.7565 51.132 79.9965 50.62 80.4765 50.284C80.9565 49.948 81.7265 49.768 82.7865 49.744L83.8905 49.714V49.228C83.8905 48.848 83.7765 48.548 83.5485 48.328C83.3205 48.104 82.9685 47.992 82.4925 47.992C82.1365 47.996 81.8225 48.08 81.5505 48.244C81.2785 48.408 81.1045 48.676 81.0285 49.048H80.0505C80.0745 48.644 80.1865 48.304 80.3865 48.028C80.5905 47.748 80.8765 47.536 81.2445 47.392C81.6125 47.248 82.0465 47.176 82.5465 47.176C83.0865 47.176 83.5345 47.252 83.8905 47.404C84.2505 47.556 84.5185 47.78 84.6945 48.076C84.8745 48.372 84.9645 48.736 84.9645 49.168V53.5H84.0165L83.9325 52.336C83.6965 52.82 83.3925 53.156 83.0205 53.344C82.6525 53.528 82.2465 53.62 81.8025 53.62ZM82.1325 52.822C82.3445 52.822 82.5525 52.784 82.7565 52.708C82.9645 52.632 83.1525 52.53 83.3205 52.402C83.4925 52.27 83.6305 52.124 83.7345 51.964C83.8385 51.8 83.8905 51.632 83.8905 51.46V50.398L82.9725 50.416C82.4965 50.424 82.1005 50.472 81.7845 50.56C81.4685 50.648 81.2305 50.786 81.0705 50.974C80.9105 51.162 80.8305 51.408 80.8305 51.712C80.8305 52.06 80.9525 52.332 81.1965 52.528C81.4405 52.724 81.7525 52.822 82.1325 52.822ZM87.1141 55.48C86.7501 55.48 86.5001 55.454 86.3641 55.402C86.2281 55.35 86.1601 55.324 86.1601 55.324V54.604L86.7961 54.616C87.0241 54.624 87.2141 54.608 87.3661 54.568C87.5181 54.528 87.6401 54.474 87.7321 54.406C87.8241 54.338 87.8941 54.262 87.9421 54.178C87.9941 54.094 88.0361 54.014 88.0681 53.938L88.2841 53.35L85.8601 47.296H86.9821L88.8121 52.084L90.6301 47.296H91.7161L89.1061 53.968C88.9421 54.36 88.7601 54.666 88.5601 54.886C88.3641 55.106 88.1441 55.26 87.9001 55.348C87.6601 55.436 87.3981 55.48 87.1141 55.48Z" fill="black"/>
</svg>
