<svg width="120" height="57" viewBox="0 0 120 57" fill="none" xmlns="http://www.w3.org/2000/svg">
<path d="M1 56.5V0.5H-1V56.5H1Z" fill="black" mask="url(#path-1-inside-1_961_12356)"/>
<path fill-rule="evenodd" clip-rule="evenodd" d="M45.3292 0.544567C44.7585 0.719394 44.2446 1.14237 43.9694 1.66388L43.7752 2.03191L43.7561 11.7307L43.737 21.4295L43.4669 21.4784C42.718 21.6142 42.0517 22.1263 41.7228 22.8189C41.4476 23.3982 41.4523 24.2075 41.7341 24.7814C41.9678 25.2573 42.4522 25.7312 42.931 25.9525L43.2691 26.1087L55.2171 26.1278L67.1651 26.147V28.1552C67.1651 30.433 67.2157 30.7751 67.6461 31.4047C67.965 31.8711 68.6177 32.3225 69.1361 32.4352C69.3993 32.4923 70.5975 32.5105 73.0594 32.4944L76.6039 32.4713L77.0873 32.2333C77.6388 31.9617 78.0092 31.5788 78.2907 30.9891L78.4805 30.5915V22.6743V14.7572L78.2874 14.3453C78.0399 13.8172 77.5351 13.3142 77.0129 13.0751C76.6742 12.92 76.4642 12.881 75.826 12.8547L75.0505 12.8228L75.0303 7.49965L75.0099 2.17651L74.821 1.77885C74.5946 1.3023 74.2046 0.900513 73.7519 0.677459L73.4193 0.513549L59.4649 0.50133C51.7899 0.494605 45.4289 0.514055 45.3292 0.544567ZM73.4468 1.56577C73.5921 1.64747 73.7918 1.83213 73.8905 1.97616L74.07 2.23811L74.0895 7.53964L74.1089 12.8412H73.1697H72.2305L72.2103 8.32976C72.191 4.01032 72.1843 3.81193 72.0524 3.66624L71.9147 3.51411H59.3814C46.9444 3.51411 46.847 3.5152 46.7034 3.65872C46.5606 3.80151 46.5588 3.8997 46.5588 11.612C46.5588 19.3243 46.5606 19.4225 46.7034 19.5653C46.8467 19.7085 46.9444 19.7099 57.0066 19.7099H67.1651V20.5775V21.4452H65.536C63.8353 21.4452 63.5775 21.484 63.2376 21.7914C63.0395 21.9705 62.8269 22.4189 62.8269 22.6576C62.8269 22.7709 62.7808 22.9267 62.7243 23.004C62.6256 23.1391 62.4919 23.1449 59.1273 23.1624C56.4433 23.1763 55.5921 23.1596 55.4573 23.0901C55.3294 23.0242 55.2594 22.8998 55.1991 22.6315C55.0817 22.109 54.8489 21.7703 54.4866 21.5949C54.1834 21.4481 54.0837 21.4452 49.4281 21.4452H44.679V11.8615C44.679 1.51964 44.6577 2.09683 45.0517 1.72896C45.145 1.6419 45.3026 1.53822 45.4021 1.49853C45.5198 1.4516 50.3933 1.42492 59.3827 1.42189C73.1723 1.41733 73.1829 1.41748 73.4468 1.56577ZM71.2864 8.6476V12.8412H70.3529C68.9558 12.8412 68.2784 13.1074 67.696 13.8853C67.2289 14.5093 67.2068 14.6337 67.1796 16.7997L67.1548 18.77H57.3267H47.4988V11.612V4.45405H59.3926H71.2864V8.6476ZM56.2911 7.45736C56.1467 7.60182 56.1404 7.95183 56.2798 8.09123C56.3564 8.1678 56.6719 8.20981 57.4547 8.2477C58.5871 8.30243 58.987 8.40683 59.3419 8.74029C59.5375 8.92409 59.7519 9.26254 59.8247 9.50258L59.8758 9.67076L58.1771 9.61877L56.4784 9.56686L56.2906 9.75463C56.0656 9.97964 56.0514 10.1869 56.2474 10.3829C56.3838 10.5192 56.4884 10.5275 58.079 10.5275C59.007 10.5275 59.7872 10.5486 59.813 10.5743C59.9079 10.6693 59.4643 11.3411 59.1784 11.5353C58.7161 11.8495 58.4657 11.9012 57.4095 11.9012C56.3017 11.9012 56.1028 11.9664 56.1028 12.3298C56.1028 12.539 56.3543 12.8006 59.2208 15.5734C60.2191 16.539 60.3775 16.6156 60.6526 16.2658C60.735 16.161 60.8035 16.0227 60.8048 15.9585C60.8061 15.8943 60.1188 15.1717 59.2775 14.3527L57.7479 12.8637L58.2087 12.8182C58.8671 12.7531 59.1437 12.6587 59.6316 12.3329C60.1088 12.0142 60.5162 11.4842 60.6996 10.9432L60.8161 10.5998H61.4158C61.8831 10.5998 62.0479 10.5718 62.1619 10.4732C62.3887 10.2772 62.4163 10.0702 62.2445 9.85195C62.1015 9.67011 62.0596 9.65984 61.4594 9.65984H60.8254L60.7356 9.35255C60.6862 9.18351 60.5506 8.87442 60.4343 8.66568L60.2228 8.28609H61.1633C62.0075 8.28609 62.1187 8.27127 62.2485 8.14148C62.4301 7.95986 62.4322 7.77194 62.2549 7.55301L62.1168 7.38231L59.262 7.36184C56.7205 7.34362 56.3944 7.35411 56.2911 7.45736ZM76.7177 13.9831C77.1335 14.2003 77.4617 14.6276 77.5482 15.0645L77.5948 15.2995H72.8442H68.0935L68.1441 15.0645C68.2536 14.5563 68.5926 14.141 69.0811 13.917C69.3488 13.7942 69.63 13.7841 72.8507 13.7827L76.3311 13.7811L76.7177 13.9831ZM77.5767 21.8428V27.4463H72.8409H68.105V21.8428V16.2394H72.8409H77.5767V21.8428ZM70.6036 18.7138C70.4521 18.9301 70.4619 19.1024 70.6356 19.2761C70.7581 19.3986 70.877 19.4208 71.4129 19.4211C72.2262 19.4216 72.5557 19.517 72.8736 19.8439L73.1301 20.1076L71.913 20.1437C70.8154 20.1763 70.6859 20.1937 70.5935 20.3202C70.5372 20.3974 70.491 20.5295 70.491 20.6137C70.491 20.6979 70.5372 20.83 70.5935 20.9072C70.6858 21.0337 70.8154 21.0511 71.9088 21.0837L73.1218 21.1198L72.885 21.3892C72.5889 21.7261 72.3097 21.8058 71.4241 21.8063C70.6596 21.8068 70.491 21.8883 70.491 22.2577C70.491 22.5299 73.3177 25.2772 73.5978 25.2772C73.8877 25.2772 74.0579 25.1164 74.0579 24.8423C74.0579 24.6301 73.9529 24.5045 73.106 23.7044C72.5824 23.2097 72.154 22.7756 72.154 22.7396C72.154 22.7037 72.2435 22.674 72.3528 22.6736C72.8944 22.6717 73.6812 22.0621 73.9613 21.4271L74.113 21.0837H74.5322C75.0008 21.0837 75.1907 20.955 75.1907 20.6373C75.1907 20.3572 74.988 20.227 74.5131 20.2021L74.091 20.1799L73.961 19.8364L73.8309 19.493H74.3582C74.9742 19.493 75.2088 19.3634 75.2088 19.023C75.2088 18.8948 75.1467 18.7646 75.0471 18.6839C74.8995 18.5644 74.705 18.5531 72.8008 18.5531C70.7285 18.5531 70.7155 18.554 70.6036 18.7138ZM54.1661 22.5116C54.2266 22.5812 54.2941 22.7803 54.3161 22.954C54.3633 23.3276 54.6632 23.7378 55.0234 23.9214C55.25 24.037 55.5946 24.0479 59.035 24.0479L62.7986 24.0481L63.1253 23.8409C63.4715 23.6213 63.6487 23.3345 63.7342 22.8551C63.7625 22.696 63.818 22.5252 63.8575 22.4755C63.911 22.408 64.3392 22.3851 65.5471 22.3851H67.1651V23.795V25.2049L55.3617 25.2033C44.027 25.2018 43.5468 25.1965 43.2691 25.0678C42.7196 24.8135 42.4376 24.3794 42.4376 23.788C42.4376 23.3893 42.5699 23.064 42.8432 22.7908C43.2574 22.3768 43.0479 22.391 48.7709 22.3879C53.7161 22.3853 54.063 22.3933 54.1661 22.5116ZM77.5651 29.422C77.5414 30.4911 77.5335 30.5408 77.3411 30.8314C77.2314 30.997 77.0061 31.2222 76.8404 31.3319L76.539 31.5314L72.9485 31.5514L69.3581 31.5714L68.9677 31.3674C68.6826 31.2186 68.5184 31.0685 68.3592 30.8112C68.1461 30.4669 68.1407 30.4347 68.1179 29.3865L68.0946 28.3139H72.8422H77.5896L77.5651 29.422ZM71.5506 29.6753C71.4007 29.841 71.3981 30.0425 71.5435 30.25C71.652 30.4049 71.6987 30.4107 72.8338 30.4107C73.8829 30.4107 74.0245 30.3963 74.1311 30.2785C74.2822 30.1115 74.2853 29.8048 74.1372 29.6567C74.0432 29.5628 73.8201 29.5431 72.8469 29.5431C71.7988 29.5431 71.6572 29.5575 71.5506 29.6753Z" fill="#C52031"/>
<path d="M45.6851 53.5V44.824C45.7131 44.824 45.7971 44.826 45.9371 44.83C46.0811 44.83 46.2551 44.83 46.4591 44.83C46.6631 44.826 46.8751 44.826 47.0951 44.83C47.3151 44.83 47.5171 44.832 47.7011 44.836C48.7651 44.852 49.6271 45.026 50.2871 45.358C50.9511 45.686 51.4371 46.164 51.7451 46.792C52.0571 47.42 52.2131 48.192 52.2131 49.108C52.2131 50.068 52.0451 50.874 51.7091 51.526C51.3771 52.178 50.8691 52.67 50.1851 53.002C49.5051 53.334 48.6391 53.5 47.5871 53.5H45.6851ZM46.8251 52.546H47.5871C48.3031 52.546 48.9191 52.436 49.4351 52.216C49.9511 51.992 50.3471 51.63 50.6231 51.13C50.9031 50.63 51.0431 49.962 51.0431 49.126C51.0431 48.29 50.9071 47.628 50.6351 47.14C50.3671 46.652 49.9791 46.304 49.4711 46.096C48.9631 45.884 48.3511 45.778 47.6351 45.778H46.8251V52.546ZM54.0054 53.5V44.824H55.5414L58.1574 51.988L60.8094 44.824H62.3394V53.5H61.1934V46.486L58.6794 53.5H57.6414L55.1454 46.552V53.5H54.0054ZM66.5663 53.5V45.844H63.7643V44.824H70.3283V45.844H67.6823V53.5H66.5663ZM72.8453 53.5V46.594H71.1713V45.868C71.6913 45.868 72.0953 45.83 72.3833 45.754C72.6713 45.678 72.8753 45.562 72.9953 45.406C73.1193 45.25 73.1873 45.056 73.1993 44.824H73.9913V53.5H72.8453Z" fill="black"/>
</svg>
