<svg width="120" height="57" viewBox="0 0 120 57" fill="none" xmlns="http://www.w3.org/2000/svg">
<path d="M1 56.5V0.5H-1V56.5H1Z" fill="black" mask="url(#path-1-inside-1_961_12375)"/>
<path fill-rule="evenodd" clip-rule="evenodd" d="M45.0489 0.549734C44.3383 0.721063 43.7123 1.23949 43.3872 1.92567L43.1782 2.36667V10.1815V17.9963L43.3872 18.4373C43.6467 18.985 44.0428 19.379 44.6021 19.6455L45.0326 19.8506H48.7082H52.3838L52.8243 19.6419C53.3833 19.3771 53.7646 18.9958 54.0295 18.4367L54.2381 17.9963V10.1815V2.36667L54.0295 1.9262C53.7646 1.36717 53.3833 0.985839 52.8243 0.720997L52.3838 0.512316L48.8406 0.501057C46.8919 0.494832 45.1856 0.516753 45.0489 0.549734ZM45.041 1.37115C44.9 1.42141 44.6765 1.54831 44.5443 1.65301C44.2844 1.85904 43.9398 2.46144 43.9398 2.70966V2.86338H48.7155H53.4913L53.4459 2.61503C53.3437 2.0568 52.9186 1.57367 52.3544 1.37459C51.9511 1.23234 45.4391 1.22929 45.041 1.37115ZM43.9398 9.32052V14.9829H48.7082H53.4765V9.32052V3.6581H48.7082H43.9398V9.32052ZM48.0128 5.68856C47.2503 5.85135 46.3483 6.38858 45.8872 6.95462C45.2982 7.67769 45.0409 8.39698 45.0409 9.32052C45.0409 11.4584 46.7842 13.0935 48.94 12.9776C50.503 12.8936 51.7985 11.8524 52.2579 10.3111C52.4144 9.78603 52.4143 8.85587 52.2578 8.32711C51.8843 7.06502 50.8654 6.07606 49.5988 5.74611C49.2428 5.65339 48.3322 5.62035 48.0128 5.68856ZM47.7792 6.59044C47.0126 6.85177 46.4253 7.38225 46.0888 8.11724C45.3625 9.70377 46.1818 11.556 47.8376 12.0706C49.3175 12.5305 50.8582 11.7695 51.4295 10.2966C51.6365 9.76278 51.6365 8.87825 51.4295 8.3444C50.8495 6.84906 49.2604 6.08546 47.7792 6.59044ZM47.2512 7.23437C47.1783 7.30722 47.1187 7.42642 47.1187 7.49927C47.1187 7.78273 47.343 7.89664 47.9008 7.89664C48.253 7.89664 48.459 7.92763 48.5465 7.99386C48.6624 8.08154 48.6116 8.09134 48.0294 8.0932C47.4736 8.09505 47.3652 8.1138 47.2512 8.22777C47.1783 8.30062 47.1187 8.41983 47.1187 8.49268C47.1187 8.56553 47.1783 8.68474 47.2512 8.75759C47.3652 8.87157 47.4737 8.89037 48.0294 8.89223L48.6751 8.89448L48.5187 9.02468C48.3943 9.12833 48.2625 9.15495 47.873 9.15495C47.4719 9.15495 47.3597 9.17886 47.2512 9.28741C46.9709 9.56768 47.0044 9.61821 48.236 10.7718C49.1029 11.5838 49.2513 11.6583 49.5029 11.4067C49.7412 11.1684 49.6644 11.0159 48.9855 10.3797L48.5012 9.92584L48.7512 9.80418C49.0719 9.64821 49.3364 9.39357 49.4699 9.11237C49.5595 8.92336 49.6097 8.89004 49.804 8.89004C49.9444 8.89004 50.0839 8.83892 50.1652 8.75759C50.4365 8.48626 50.2715 8.16075 49.8324 8.10101C49.4503 8.04909 49.398 7.89664 49.7623 7.89664C50.063 7.89664 50.2976 7.72246 50.2976 7.49927C50.2976 7.42642 50.238 7.30722 50.1652 7.23437C50.0415 7.11072 49.9444 7.10191 48.7082 7.10191C47.4719 7.10191 47.3748 7.11072 47.2512 7.23437ZM43.9398 16.7262C43.9398 17.8622 44.0252 18.1845 44.4348 18.594C44.9322 19.0915 44.9106 19.089 48.7082 19.089C52.5133 19.089 52.4672 19.0944 52.9746 18.5871C53.3964 18.1653 53.4765 17.8682 53.4765 16.7262V15.7777H48.7082H43.9398V16.7262ZM47.4547 17.2105C47.3792 17.3064 47.3174 17.4067 47.3174 17.4333C47.3174 17.46 47.3792 17.5602 47.4547 17.6562L47.5919 17.8307H48.7028C49.6947 17.8307 49.8252 17.8177 49.9231 17.7096C50.0679 17.5496 50.0624 17.2821 49.9116 17.1456C49.8091 17.0529 49.6212 17.036 48.6912 17.036H47.5919L47.4547 17.2105Z" fill="#C52031"/>
<path fill-rule="evenodd" clip-rule="evenodd" d="M67.6324 13.1991C66.9218 13.3705 66.2958 13.8889 65.9707 14.5751L65.7617 15.0161V22.8309V30.6457L65.9707 31.0867C66.2302 31.6345 66.6263 32.0284 67.1856 32.2949L67.6161 32.5H71.2917H74.9673L75.4078 32.2914C75.9668 32.0265 76.3481 31.6452 76.613 31.0862L76.8216 30.6457V22.8309V15.0161L76.613 14.5756C76.3481 14.0166 75.9668 13.6353 75.4078 13.3704L74.9673 13.1617L71.4241 13.1505C69.4754 13.1442 67.7691 13.1662 67.6324 13.1991ZM67.6245 14.0206C67.4835 14.0708 67.26 14.1977 67.1278 14.3024C66.8679 14.5085 66.5233 15.1109 66.5233 15.3591V15.5128H71.299H76.0748L76.0294 15.2644C75.9272 14.7062 75.5021 14.2231 74.9379 14.024C74.5346 13.8818 68.0226 13.8787 67.6245 14.0206ZM66.5233 21.9699V27.6323H71.2917H76.06V21.9699V16.3075H71.2917H66.5233V21.9699ZM70.5963 18.338C69.8338 18.5008 68.9318 19.038 68.4707 19.604C67.8817 20.3271 67.6244 21.0464 67.6244 21.9699C67.6244 24.1078 69.3677 25.7429 71.5235 25.627C73.0865 25.543 74.382 24.5019 74.8414 22.9605C74.9979 22.4354 74.9978 21.5053 74.8413 20.9765C74.4678 19.7144 73.4489 18.7255 72.1823 18.3955C71.8263 18.3028 70.9157 18.2698 70.5963 18.338ZM70.3627 19.2399C69.5961 19.5012 69.0088 20.0317 68.6723 20.7667C67.946 22.3532 68.7653 24.2054 70.4211 24.72C71.901 25.1799 73.4417 24.4189 74.013 22.9461C74.22 22.4122 74.22 21.5277 74.013 20.9938C73.433 19.4985 71.8439 18.7349 70.3627 19.2399ZM69.8347 19.8838C69.7618 19.9566 69.7022 20.0758 69.7022 20.1487C69.7022 20.4321 69.9265 20.5461 70.4843 20.5461C70.8365 20.5461 71.0425 20.577 71.13 20.6433C71.2459 20.731 71.1951 20.7408 70.6129 20.7426C70.0571 20.7445 69.9487 20.7632 69.8347 20.8772C69.7618 20.95 69.7022 21.0692 69.7022 21.1421C69.7022 21.2149 69.7618 21.3342 69.8347 21.407C69.9487 21.521 70.0572 21.5398 70.6129 21.5416L71.2586 21.5439L71.1022 21.6741C70.9778 21.7777 70.846 21.8044 70.4565 21.8044C70.0554 21.8044 69.9432 21.8283 69.8347 21.9368C69.5544 22.2171 69.5879 22.2676 70.8195 23.4212C71.6864 24.2332 71.8348 24.3077 72.0864 24.0561C72.3247 23.8178 72.2479 23.6653 71.569 23.0291L71.0847 22.5752L71.3347 22.4536C71.6554 22.2976 71.9199 22.043 72.0534 21.7618C72.143 21.5728 72.1932 21.5395 72.3875 21.5395C72.5279 21.5395 72.6673 21.4883 72.7487 21.407C73.02 21.1357 72.855 20.8102 72.4159 20.7504C72.0338 20.6985 71.9815 20.5461 72.3458 20.5461C72.6465 20.5461 72.8811 20.3719 72.8811 20.1487C72.8811 20.0758 72.8215 19.9566 72.7487 19.8838C72.625 19.7601 72.5279 19.7513 71.2917 19.7513C70.0554 19.7513 69.9583 19.7601 69.8347 19.8838ZM66.5233 29.3756C66.5233 30.5116 66.6087 30.8339 67.0183 31.2434C67.5157 31.7409 67.4941 31.7384 71.2917 31.7384C75.0968 31.7384 75.0507 31.7439 75.5581 31.2365C75.9799 30.8147 76.06 30.5176 76.06 29.3756V28.4271H71.2917H66.5233V29.3756ZM70.0382 29.8599C69.9627 29.9559 69.9009 30.0561 69.9009 30.0828C69.9009 30.1094 69.9627 30.2096 70.0382 30.3056L70.1754 30.4801H71.2862C72.2782 30.4801 72.4087 30.4671 72.5066 30.359C72.6514 30.199 72.6459 29.9315 72.4951 29.795C72.3926 29.7023 72.2047 29.6854 71.2747 29.6854H70.1754L70.0382 29.8599Z" fill="#C52031"/>
<path fill-rule="evenodd" clip-rule="evenodd" d="M58.7597 0.578788C58.6391 0.672698 57.0011 3.16337 56.9223 3.37284C56.894 3.44788 56.8938 3.57066 56.9218 3.64557C56.9831 3.80941 59.7128 5.59549 59.902 5.59549C60.0326 5.59549 60.2978 5.38058 60.2978 5.27482C60.2978 5.24409 60.2122 4.8154 60.1077 4.32208L59.9175 3.42516L60.2898 3.38384C60.8211 3.32483 62.0131 3.45212 62.7482 3.64649C66.0629 4.52281 68.4537 7.34183 68.7663 10.7425C68.8286 11.4205 68.9079 11.5725 69.1992 11.5725C69.5453 11.5725 69.5918 11.4598 69.5479 10.729C69.391 8.12185 67.8385 5.51681 65.5542 4.02783C64.0808 3.06747 62.5239 2.60977 60.6674 2.5913L59.7455 2.58216L59.5354 1.62862C59.3855 0.948533 59.2901 0.649386 59.2029 0.585543C59.05 0.473818 58.8976 0.4715 58.7597 0.578788ZM58.311 2.63799C58.0742 3.00588 57.8805 3.33026 57.8805 3.35874C57.8805 3.40973 59.2503 4.34718 59.2805 4.31691C59.3074 4.29002 58.8238 2.05439 58.7816 2.01068C58.7595 1.9877 58.5477 2.27003 58.311 2.63799ZM48.8334 21.5633C48.7064 21.6903 48.698 21.7485 48.7399 22.209C48.9989 25.051 50.481 27.5339 52.8101 29.0276C54.2503 29.9512 56.0921 30.4649 57.7978 30.4187C58.2259 30.407 58.576 30.404 58.576 30.4118C58.575 30.566 58.9991 32.3357 59.0525 32.4C59.097 32.4538 59.2229 32.4823 59.3625 32.4705C59.5899 32.4512 59.6266 32.4059 60.5069 31.0598C61.4327 29.6439 61.5315 29.4178 61.3078 29.226C61.244 29.1713 60.6077 28.7495 59.8936 28.2885C58.4834 27.3781 58.2487 27.2903 58.0998 27.617C58.0385 27.7516 58.0579 27.9475 58.2006 28.6373C58.2977 29.1068 58.3772 29.5236 58.3772 29.5635C58.3772 29.6727 57.0659 29.6537 56.326 29.5337C55.981 29.4777 55.4322 29.3426 55.1064 29.2335C52.0315 28.2033 49.9199 25.5842 49.5595 22.3537C49.5123 21.931 49.4425 21.6098 49.3826 21.5397C49.2487 21.383 49.0032 21.3936 48.8334 21.5633ZM59.0395 28.7495C59.0395 28.7762 59.1487 29.3147 59.2822 29.9461L59.525 31.094L59.9775 30.4146C60.2264 30.041 60.43 29.7011 60.4301 29.6593C60.4302 29.6175 60.1545 29.4063 59.8176 29.19C59.0481 28.6957 59.0395 28.6909 59.0395 28.7495Z" fill="#C52031"/>
<path d="M31.4468 53.5V44.824H32.5568V53.5H31.4468ZM34.6172 53.5V47.296H35.6912V48.196C35.7912 48.024 35.9292 47.862 36.1052 47.71C36.2852 47.558 36.5012 47.436 36.7532 47.344C37.0092 47.252 37.3032 47.206 37.6352 47.206C38.0272 47.206 38.3872 47.284 38.7152 47.44C39.0472 47.596 39.3112 47.84 39.5072 48.172C39.7072 48.5 39.8072 48.924 39.8072 49.444V53.5H38.6972V49.552C38.6972 49.068 38.5692 48.71 38.3132 48.478C38.0612 48.242 37.7332 48.124 37.3292 48.124C37.0492 48.124 36.7872 48.17 36.5432 48.262C36.2992 48.35 36.1012 48.486 35.9492 48.67C35.7972 48.85 35.7212 49.078 35.7212 49.354V53.5H34.6172ZM43.805 53.62C42.997 53.62 42.357 53.344 41.885 52.792C41.417 52.24 41.183 51.434 41.183 50.374C41.183 49.73 41.277 49.168 41.465 48.688C41.653 48.208 41.935 47.836 42.311 47.572C42.687 47.308 43.155 47.176 43.715 47.176C44.015 47.176 44.279 47.214 44.507 47.29C44.735 47.366 44.933 47.462 45.101 47.578C45.269 47.694 45.405 47.814 45.509 47.938C45.617 48.062 45.697 48.176 45.749 48.28V44.584H46.871V53.5H46.019L45.899 52.228C45.859 52.348 45.795 52.488 45.707 52.648C45.619 52.804 45.495 52.958 45.335 53.11C45.179 53.258 44.975 53.38 44.723 53.476C44.471 53.572 44.165 53.62 43.805 53.62ZM44.003 52.768C44.627 52.768 45.073 52.578 45.341 52.198C45.613 51.814 45.749 51.188 45.749 50.32C45.745 49.836 45.685 49.424 45.569 49.084C45.453 48.744 45.269 48.486 45.017 48.31C44.769 48.13 44.437 48.04 44.021 48.04C43.513 48.04 43.099 48.222 42.779 48.586C42.459 48.95 42.299 49.528 42.299 50.32C42.299 51.096 42.443 51.698 42.731 52.126C43.019 52.554 43.443 52.768 44.003 52.768ZM51.1872 53.62C50.6152 53.62 50.1152 53.498 49.6872 53.254C49.2632 53.006 48.9332 52.644 48.6972 52.168C48.4612 51.692 48.3432 51.11 48.3432 50.422C48.3432 49.774 48.4532 49.206 48.6732 48.718C48.8932 48.23 49.2152 47.852 49.6392 47.584C50.0632 47.312 50.5812 47.176 51.1932 47.176C51.7652 47.176 52.2612 47.302 52.6812 47.554C53.1012 47.802 53.4272 48.168 53.6592 48.652C53.8952 49.136 54.0132 49.726 54.0132 50.422C54.0132 51.054 53.9052 51.61 53.6892 52.09C53.4732 52.57 53.1552 52.946 52.7352 53.218C52.3192 53.486 51.8032 53.62 51.1872 53.62ZM51.1932 52.744C51.5612 52.744 51.8732 52.65 52.1292 52.462C52.3852 52.274 52.5792 52.004 52.7112 51.652C52.8472 51.3 52.9152 50.882 52.9152 50.398C52.9152 49.954 52.8552 49.556 52.7352 49.204C52.6192 48.848 52.4352 48.566 52.1832 48.358C51.9312 48.15 51.6012 48.046 51.1932 48.046C50.8172 48.046 50.4992 48.14 50.2392 48.328C49.9792 48.512 49.7812 48.78 49.6452 49.132C49.5132 49.484 49.4472 49.906 49.4472 50.398C49.4472 50.834 49.5052 51.23 49.6212 51.586C49.7412 51.942 49.9292 52.224 50.1852 52.432C50.4452 52.64 50.7812 52.744 51.1932 52.744ZM58.5523 53.5V44.824H59.6143L64.1983 51.568V44.824H65.3083V53.5H64.3183L59.6623 46.66V53.5H58.5523ZM69.9111 53.62C69.3351 53.62 68.8271 53.494 68.3871 53.242C67.9471 52.99 67.6031 52.628 67.3551 52.156C67.1071 51.684 66.9831 51.118 66.9831 50.458C66.9831 49.806 67.0951 49.234 67.3191 48.742C67.5431 48.25 67.8671 47.866 68.2911 47.59C68.7191 47.314 69.2331 47.176 69.8331 47.176C70.4171 47.176 70.9111 47.302 71.3151 47.554C71.7191 47.806 72.0251 48.162 72.2331 48.622C72.4451 49.078 72.5511 49.62 72.5511 50.248V50.656H68.1051C68.1051 51.048 68.1691 51.404 68.2971 51.724C68.4291 52.04 68.6271 52.292 68.8911 52.48C69.1551 52.668 69.4891 52.762 69.8931 52.762C70.2891 52.762 70.6291 52.67 70.9131 52.486C71.2011 52.302 71.3851 52.036 71.4651 51.688H72.5091C72.4371 52.108 72.2691 52.462 72.0051 52.75C71.7451 53.038 71.4311 53.256 71.0631 53.404C70.6991 53.548 70.3151 53.62 69.9111 53.62ZM68.1111 49.906H71.4831C71.4831 49.55 71.4231 49.23 71.3031 48.946C71.1831 48.658 70.9991 48.432 70.7511 48.268C70.5071 48.1 70.1991 48.016 69.8271 48.016C69.4391 48.016 69.1171 48.11 68.8611 48.298C68.6051 48.482 68.4151 48.72 68.2911 49.012C68.1671 49.3 68.1071 49.598 68.1111 49.906ZM74.086 55.432V47.296H75.19L75.202 48.376C75.274 48.248 75.366 48.114 75.478 47.974C75.594 47.834 75.734 47.704 75.898 47.584C76.066 47.464 76.26 47.366 76.48 47.29C76.704 47.214 76.958 47.176 77.242 47.176C77.738 47.176 78.174 47.29 78.55 47.518C78.93 47.742 79.226 48.086 79.438 48.55C79.65 49.014 79.756 49.602 79.756 50.314C79.756 51.026 79.652 51.628 79.444 52.12C79.24 52.608 78.944 52.98 78.556 53.236C78.168 53.492 77.7 53.62 77.152 53.62C76.876 53.62 76.63 53.58 76.414 53.5C76.202 53.424 76.016 53.324 75.856 53.2C75.7 53.072 75.568 52.936 75.46 52.792C75.356 52.648 75.27 52.51 75.202 52.378V55.432H74.086ZM76.942 52.756C77.454 52.756 77.872 52.562 78.196 52.174C78.52 51.782 78.682 51.174 78.682 50.35C78.682 49.642 78.534 49.08 78.238 48.664C77.942 48.248 77.51 48.04 76.942 48.04C76.366 48.04 75.93 48.254 75.634 48.682C75.338 49.106 75.19 49.662 75.19 50.35C75.19 50.794 75.256 51.198 75.388 51.562C75.52 51.926 75.716 52.216 75.976 52.432C76.236 52.648 76.558 52.756 76.942 52.756ZM82.8924 53.62C82.4884 53.62 82.1324 53.55 81.8244 53.41C81.5204 53.266 81.2804 53.06 81.1044 52.792C80.9324 52.524 80.8464 52.2 80.8464 51.82C80.8464 51.132 81.0864 50.62 81.5664 50.284C82.0464 49.948 82.8164 49.768 83.8764 49.744L84.9804 49.714V49.228C84.9804 48.848 84.8664 48.548 84.6384 48.328C84.4104 48.104 84.0584 47.992 83.5824 47.992C83.2264 47.996 82.9124 48.08 82.6404 48.244C82.3684 48.408 82.1944 48.676 82.1184 49.048H81.1404C81.1644 48.644 81.2764 48.304 81.4764 48.028C81.6804 47.748 81.9664 47.536 82.3344 47.392C82.7024 47.248 83.1364 47.176 83.6364 47.176C84.1764 47.176 84.6244 47.252 84.9804 47.404C85.3404 47.556 85.6084 47.78 85.7844 48.076C85.9644 48.372 86.0544 48.736 86.0544 49.168V53.5H85.1064L85.0224 52.336C84.7864 52.82 84.4824 53.156 84.1104 53.344C83.7424 53.528 83.3364 53.62 82.8924 53.62ZM83.2224 52.822C83.4344 52.822 83.6424 52.784 83.8464 52.708C84.0544 52.632 84.2424 52.53 84.4104 52.402C84.5824 52.27 84.7204 52.124 84.8244 51.964C84.9284 51.8 84.9804 51.632 84.9804 51.46V50.398L84.0624 50.416C83.5864 50.424 83.1904 50.472 82.8744 50.56C82.5584 50.648 82.3204 50.786 82.1604 50.974C82.0004 51.162 81.9204 51.408 81.9204 51.712C81.9204 52.06 82.0424 52.332 82.2864 52.528C82.5304 52.724 82.8424 52.822 83.2224 52.822ZM89.3512 53.578C89.0152 53.578 88.7432 53.532 88.5352 53.44C88.3312 53.348 88.1732 53.224 88.0612 53.068C87.9532 52.912 87.8792 52.734 87.8392 52.534C87.8032 52.33 87.7852 52.12 87.7852 51.904V44.584H88.8772V51.796C88.8772 52.108 88.9372 52.342 89.0572 52.498C89.1812 52.654 89.3532 52.74 89.5732 52.756L89.9092 52.762V53.482C89.8172 53.51 89.7212 53.532 89.6212 53.548C89.5212 53.568 89.4312 53.578 89.3512 53.578Z" fill="black"/>
</svg>
