<svg width="120" height="57" viewBox="0 0 120 57" fill="none" xmlns="http://www.w3.org/2000/svg">
<path d="M1 56.5V0.5H-1V56.5H1Z" fill="black" mask="url(#path-1-inside-1_961_12368)"/>
<path fill-rule="evenodd" clip-rule="evenodd" d="M44.6222 0.572502C44.3084 0.656058 43.8741 1.03773 43.7288 1.35761C43.6155 1.60732 43.6108 2.15194 43.6099 15.5114C43.6091 25.0132 43.6301 29.4818 43.676 29.6472C43.76 29.9501 44.0656 30.3033 44.3838 30.4656C44.5905 30.5711 44.7628 30.5899 45.5218 30.5899C46.4884 30.5899 46.5735 30.5628 46.6577 30.2277C46.6852 30.118 46.6576 30.0122 46.5711 29.896C46.4472 29.7297 46.4233 29.7248 45.597 29.6935C44.8539 29.6654 44.7388 29.6463 44.6592 29.5372C44.5816 29.4309 44.5685 27.4051 44.5685 15.5348V1.65656L44.7108 1.55693C44.8386 1.46736 46.3958 1.45724 60.0135 1.45724C75.0885 1.45724 75.1745 1.45794 75.3019 1.58529C75.4262 1.70957 75.4299 1.7987 75.4299 4.58506C75.4299 6.42516 75.4541 7.52599 75.4972 7.64956C75.5619 7.83525 75.7799 7.98808 75.9801 7.98808C76.0329 7.98808 76.1467 7.91733 76.2332 7.83089L76.3904 7.67377V4.65946C76.3904 1.30684 76.3991 1.38156 75.9562 0.927088C75.5038 0.462822 76.7595 0.496117 59.9716 0.503416C50.3772 0.507642 44.771 0.532869 44.6222 0.572502ZM46.9696 3.29241C46.6883 3.44063 46.4928 3.63521 46.3551 3.90374C46.238 4.13194 46.2332 4.36282 46.2332 9.74949C46.2332 15.9405 46.206 15.5212 46.6388 15.9773C47.0413 16.4013 46.1825 16.3757 59.9992 16.3757C73.816 16.3757 72.9571 16.4013 73.3596 15.9773C73.7925 15.5212 73.7652 15.9405 73.7652 9.74885C73.7652 4.71011 73.7547 4.1192 73.6617 3.93512C73.5156 3.6459 73.3227 3.44902 73.0475 3.30784C72.8163 3.18926 72.468 3.18605 59.9858 3.18855C48.4195 3.19086 47.1428 3.20104 46.9696 3.29241ZM72.7361 4.25109C72.868 4.41872 72.8688 4.45406 72.8688 9.7895C72.8688 15.0738 72.8668 15.1612 72.7408 15.2873C72.6136 15.4144 72.5274 15.4153 59.9992 15.4153C47.4711 15.4153 47.3848 15.4144 47.2577 15.2873C47.1317 15.1612 47.1296 15.0738 47.1296 9.7895C47.1296 4.45406 47.1305 4.41872 47.2624 4.25109L47.395 4.08238H59.9992H72.6034L72.7361 4.25109ZM52.9433 7.1326C52.6525 7.2533 52.6991 7.13401 51.8377 9.96532C51.3252 11.6498 51.1828 12.1946 51.2316 12.2857C51.3248 12.4599 51.6324 12.5981 51.927 12.5981C52.239 12.5981 52.3145 12.4992 52.4781 11.8759L52.592 11.4419L53.3925 11.4597L54.193 11.4776L54.3269 11.9582C54.5106 12.6176 54.5108 12.6177 54.9178 12.584C55.2738 12.5545 55.5813 12.3592 55.5813 12.1627C55.5813 12.005 54.1672 7.45255 54.0717 7.30298C53.9793 7.15815 53.6238 7.02613 53.3403 7.03131C53.2523 7.03291 53.0736 7.0785 52.9433 7.1326ZM57.6018 7.23402C57.4687 7.42399 57.4752 7.8136 57.6142 7.97995C57.7103 8.09501 57.8081 8.11646 58.3025 8.13112L58.8787 8.14815L58.8945 10.2611C58.9099 12.3247 58.9134 12.3766 59.0457 12.486C59.1329 12.5582 59.2899 12.5981 59.487 12.5981C59.6841 12.5981 59.8411 12.5582 59.9283 12.486C60.0606 12.3766 60.0641 12.3247 60.0795 10.2611L60.0953 8.14815L60.6715 8.13112C61.1659 8.11646 61.2637 8.09501 61.3598 7.97995C61.4988 7.8136 61.5053 7.42399 61.3722 7.23402C61.2732 7.09271 61.2595 7.09169 59.487 7.09169C57.7145 7.09169 57.7008 7.09271 57.6018 7.23402ZM64.4122 7.27884L64.2251 7.466V9.90399C64.2251 12.2566 64.2295 12.3465 64.3531 12.47C64.5453 12.6622 65.1403 12.6355 65.3776 12.4242C65.3952 12.4084 65.424 11.7309 65.4416 10.9184L65.4736 9.44119L65.8414 10.1162C66.2083 10.7899 66.2839 10.8693 66.5574 10.8693C66.7486 10.8693 66.8685 10.7278 67.2766 10.0202L67.6177 9.42871L67.6182 10.8853C67.6185 12.2563 67.6261 12.3495 67.7466 12.47C67.9299 12.6533 68.4988 12.6503 68.6978 12.4649L68.8407 12.3317L68.8219 9.86615L68.8031 7.40062L68.6234 7.24613C68.4861 7.12806 68.3694 7.09169 68.1282 7.09169C67.7118 7.09169 67.5388 7.25387 67.0695 8.08412C66.8704 8.43627 66.6654 8.79169 66.6138 8.87391C66.5223 9.0197 66.5077 9.00241 66.0214 8.17005C65.4755 7.23588 65.3233 7.09259 64.8764 7.09201C64.6553 7.09175 64.5616 7.12947 64.4122 7.27884ZM53.6614 9.53198C53.8006 10.0386 53.915 10.4748 53.9156 10.5012C53.9161 10.5276 53.6686 10.5492 53.3655 10.5492C52.9201 10.5492 52.821 10.532 52.8487 10.4598C52.8676 10.4106 52.9919 9.96526 53.125 9.47001C53.2581 8.97481 53.3762 8.57893 53.3876 8.5902C53.3988 8.60153 53.522 9.02533 53.6614 9.53198ZM75.6131 10.0954L75.462 10.2177L75.4299 19.8542C75.4123 25.1543 75.3835 29.5037 75.3659 29.5194C75.1819 29.6842 74.8196 29.6935 68.5903 29.6935C62.5272 29.6935 62.1181 29.7005 61.9939 29.8056C61.7897 29.9784 61.7617 30.2139 61.9211 30.4166L62.0574 30.5899H68.7142C75.1773 30.5899 75.3781 30.5863 75.6147 30.4656C75.9329 30.3033 76.2384 29.9501 76.3225 29.6472C76.3679 29.4835 76.3898 26.3191 76.39 19.8464L76.3904 10.2873L76.2332 10.1301C76.0447 9.94157 75.8186 9.92889 75.6131 10.0954ZM47.1296 18.9475C46.8079 19.0397 46.5087 19.2881 46.3539 19.5916C46.1716 19.9489 46.2038 20.5532 46.4221 20.8719C46.7108 21.2931 46.9473 21.3992 47.6529 21.4239C48.1861 21.4426 48.2824 21.4621 48.284 21.552C48.2851 21.6103 48.0495 23.8766 47.7605 26.5882C47.437 29.6229 47.2533 31.5905 47.2825 31.7061C47.3511 31.9773 47.7591 32.3576 48.0719 32.4419C48.2605 32.4926 50.0828 32.5083 54.3764 32.496C60.1312 32.4796 60.4267 32.4731 60.6568 32.3588C60.9906 32.1929 61.1697 31.9179 61.2002 31.5242C61.2141 31.3449 60.9928 29.036 60.7084 26.3933C60.424 23.7506 60.1913 21.5567 60.1913 21.5179C60.1913 21.4746 60.3861 21.4387 60.6978 21.4245C61.1508 21.4039 61.2304 21.3805 61.4502 21.2036C62.1959 20.603 62.1599 19.5825 61.3759 19.0969L61.0658 18.9048L54.2098 18.894C49.7812 18.887 47.2744 18.906 47.1296 18.9475ZM64.8952 19.0007C64.4124 19.2398 64.3851 19.3458 64.3851 20.9857C64.3851 23.1273 64.3566 23.0988 66.497 23.0984C68.0702 23.0981 68.1856 23.0708 68.4512 22.635C68.5683 22.4431 68.5785 22.3103 68.5787 20.9792C68.579 19.581 68.574 19.5247 68.4336 19.3145C68.1626 18.9088 68.0058 18.873 66.4981 18.8729C65.2832 18.8729 65.1286 18.8852 64.8952 19.0007ZM70.1476 18.9632C70.042 19.0102 69.8835 19.1266 69.7955 19.2218L69.6354 19.3951L69.6163 20.9501L69.5971 22.5051L69.768 22.7081C70.0822 23.0816 70.166 23.0987 71.6837 23.0987C72.9198 23.0987 73.0914 23.0857 73.3066 22.9759C73.7511 22.7491 73.777 22.6296 73.7537 20.9108C73.7332 19.3959 73.7331 19.395 73.5731 19.2218C73.2786 18.9028 73.1129 18.8726 71.6704 18.8753C70.7049 18.8772 70.287 18.9012 70.1476 18.9632ZM48.4735 19.9453C48.4731 20.0069 48.4549 20.1654 48.4331 20.2974L48.3934 20.5375H47.8896C47.4711 20.5375 47.364 20.5158 47.2577 20.4095C47.1019 20.2537 47.0948 20.1059 47.2356 19.9503C47.3231 19.8537 47.4405 19.8332 47.9079 19.8332C48.4048 19.8332 48.4741 19.8469 48.4735 19.9453ZM54.6854 19.9453C54.6857 20.0069 54.8151 22.5784 54.973 25.6598C55.1309 28.7411 55.2603 31.327 55.2606 31.4063L55.2612 31.5503H51.7449C49.2815 31.5503 48.2219 31.5296 48.2057 31.4811C48.1895 31.4326 49.3918 20.0192 49.4309 19.8492C49.433 19.8405 50.6159 19.8332 52.0598 19.8332C54.517 19.8332 54.685 19.8404 54.6854 19.9453ZM57.2044 25.3556C57.4434 28.393 57.6554 31.0293 57.6754 31.2142L57.7118 31.5503H56.9667C56.5569 31.5503 56.2197 31.5431 56.2174 31.5343C56.215 31.5256 56.078 28.8892 55.9128 25.6758L55.6124 19.8332H56.1912H56.7699L57.2044 25.3556ZM59.6912 25.6278C60.0326 28.7971 60.3002 31.4263 60.2857 31.4703C60.2665 31.5286 60.0424 31.5503 59.4582 31.5503C58.6788 31.5503 58.6563 31.5464 58.6276 31.4063C58.6114 31.327 58.409 28.8131 58.1779 25.8198C57.9468 22.8265 57.7415 20.254 57.7218 20.1031L57.6857 19.8288L58.3781 19.847L59.0704 19.8652L59.6912 25.6278ZM60.9919 19.9847C61.0651 20.0965 61.0751 20.178 61.0303 20.2961C60.9543 20.4959 60.8472 20.5375 60.4102 20.5375C60.0876 20.5375 60.0633 20.5268 60.0633 20.3855C60.0633 20.3019 60.0453 20.1434 60.0232 20.0333L59.9832 19.8332H60.4379C60.8454 19.8332 60.903 19.849 60.9919 19.9847ZM67.6826 20.9857V22.1382H66.4981H65.3135V20.9857V19.8332H66.4981H67.6826V20.9857ZM72.8688 20.9857V22.1382H71.6843H70.4998V20.9857V19.8332H71.6843H72.8688V20.9857ZM64.8306 24.1143C64.4001 24.3768 64.3851 24.443 64.3851 26.0873C64.3851 27.4862 64.3927 27.5814 64.5172 27.748C64.5898 27.8453 64.7287 27.9842 64.826 28.0568C64.9924 28.1811 65.0882 28.1889 66.4547 28.1889C67.7986 28.1889 67.9233 28.1792 68.1308 28.0586C68.5548 27.8122 68.5845 27.6719 68.5646 26.0119C68.5396 23.9252 68.6125 23.9949 66.4564 23.9953C65.1755 23.9955 65.005 24.008 64.8306 24.1143ZM70.0689 24.09C69.9551 24.1394 69.8039 24.2752 69.7329 24.3916C69.6134 24.5877 69.6038 24.7121 69.6038 26.0759C69.6038 28.2336 69.5598 28.1889 71.6843 28.1889C73.8088 28.1889 73.7648 28.2336 73.7648 26.0759C73.7648 23.9283 73.8297 23.9938 71.7035 23.9975C70.623 23.9995 70.2254 24.0219 70.0689 24.09ZM67.668 26.092L67.6854 27.2605H66.4995H65.3135V26.0745V24.8886L66.482 24.906L67.6506 24.9234L67.668 26.092ZM72.8688 26.0759V27.2605H71.6843H70.4998V26.0759V24.8914H71.6843H72.8688V26.0759Z" fill="#C52031"/>
<path d="M43.3282 53.5V47.296H44.3962V48.196C44.5682 47.924 44.8042 47.686 45.1042 47.482C45.4042 47.278 45.7942 47.176 46.2742 47.176C46.4982 47.176 46.7262 47.214 46.9582 47.29C47.1942 47.366 47.4102 47.48 47.6062 47.632C47.8022 47.784 47.9542 47.97 48.0622 48.19C48.2542 47.886 48.5142 47.642 48.8422 47.458C49.1702 47.27 49.5402 47.176 49.9522 47.176C50.1682 47.176 50.3942 47.21 50.6302 47.278C50.8662 47.342 51.0842 47.458 51.2842 47.626C51.4882 47.79 51.6542 48.02 51.7822 48.316C51.9102 48.608 51.9742 48.984 51.9742 49.444V53.5H50.8582V49.552C50.8582 49.176 50.7982 48.886 50.6782 48.682C50.5582 48.474 50.4002 48.328 50.2042 48.244C50.0122 48.16 49.8062 48.118 49.5862 48.118C49.3942 48.118 49.1902 48.156 48.9742 48.232C48.7582 48.308 48.5742 48.436 48.4222 48.616C48.2702 48.796 48.1942 49.042 48.1942 49.354V53.5H47.0902V49.228C47.0902 48.984 47.0242 48.78 46.8922 48.616C46.7642 48.452 46.6022 48.328 46.4062 48.244C46.2142 48.16 46.0222 48.118 45.8302 48.118C45.6182 48.118 45.4042 48.16 45.1882 48.244C44.9762 48.328 44.7962 48.462 44.6482 48.646C44.5042 48.826 44.4322 49.062 44.4322 49.354V53.5H43.3282ZM53.291 53.5L56.429 44.824H57.683L60.821 53.5H59.687L58.835 51.124H55.277L54.419 53.5H53.291ZM55.571 50.104H58.529L57.053 45.91L55.571 50.104ZM63.3241 53.5V45.844H60.5221V44.824H67.0861V45.844H64.4401V53.5H63.3241ZM68.5171 53.5V44.824H70.0531L72.6691 51.988L75.3211 44.824H76.8511V53.5H75.7051V46.486L73.1911 53.5H72.1531L69.6571 46.552V53.5H68.5171Z" fill="black"/>
</svg>
