<svg width="21" height="21" viewBox="0 0 21 21" fill="none" xmlns="http://www.w3.org/2000/svg">
<circle cx="10.5" cy="10.5" r="10.5" fill="#919EAB"/>
<path d="M8.404 6.324H13.582L13.552 7.284H9.352L9.13 10.086C9.418 9.818 9.732 9.628 10.072 9.516C10.416 9.4 10.788 9.342 11.188 9.342C11.712 9.342 12.194 9.45 12.634 9.666C13.078 9.878 13.434 10.194 13.702 10.614C13.97 11.03 14.104 11.546 14.104 12.162C14.104 12.762 13.974 13.284 13.714 13.728C13.454 14.172 13.088 14.518 12.616 14.766C12.144 15.01 11.59 15.132 10.954 15.132C10.418 15.132 9.922 15.038 9.466 14.85C9.01 14.662 8.618 14.4 8.29 14.064C7.966 13.728 7.728 13.342 7.576 12.906L8.536 12.504C8.68 12.832 8.86 13.124 9.076 13.38C9.296 13.636 9.556 13.836 9.856 13.98C10.156 14.124 10.496 14.196 10.876 14.196C11.492 14.196 11.986 14.018 12.358 13.662C12.734 13.302 12.922 12.814 12.922 12.198C12.922 11.814 12.834 11.48 12.658 11.196C12.482 10.908 12.244 10.684 11.944 10.524C11.648 10.364 11.32 10.284 10.96 10.284C10.724 10.284 10.504 10.306 10.3 10.35C10.096 10.39 9.894 10.47 9.694 10.59C9.494 10.71 9.284 10.892 9.064 11.136C9.04 11.148 9.022 11.154 9.01 11.154C8.998 11.15 8.978 11.142 8.95 11.13L8.014 10.836L8.404 6.324Z" fill="white"/>
</svg>
