<svg width="21" height="21" viewBox="0 0 21 21" fill="none" xmlns="http://www.w3.org/2000/svg">
<circle cx="10.5" cy="10.5" r="10.5" fill="#36B37E"/>
<path d="M9.642 15.132C9.046 15.128 8.52 15.018 8.064 14.802C7.612 14.586 7.256 14.284 6.996 13.896C6.736 13.504 6.596 13.04 6.576 12.504H7.686C7.77 13.044 7.99 13.458 8.346 13.746C8.702 14.034 9.148 14.178 9.684 14.178C10.108 14.178 10.478 14.112 10.794 13.98C11.11 13.844 11.354 13.658 11.526 13.422C11.698 13.186 11.784 12.91 11.784 12.594C11.784 12.246 11.688 11.952 11.496 11.712C11.304 11.472 11.042 11.29 10.71 11.166C10.378 11.038 10.008 10.972 9.6 10.968L8.82 10.95V10.008L9.564 9.99C9.944 9.982 10.284 9.91 10.584 9.774C10.884 9.634 11.12 9.452 11.292 9.228C11.468 9 11.556 8.75 11.556 8.478C11.556 8.238 11.482 8.016 11.334 7.812C11.186 7.604 10.972 7.438 10.692 7.314C10.416 7.19 10.08 7.128 9.684 7.128C9.372 7.128 9.074 7.19 8.79 7.314C8.506 7.434 8.272 7.62 8.088 7.872C7.904 8.124 7.806 8.45 7.794 8.85H6.69C6.69 8.29 6.826 7.814 7.098 7.422C7.37 7.026 7.732 6.724 8.184 6.516C8.64 6.308 9.142 6.204 9.69 6.204C10.29 6.204 10.82 6.292 11.28 6.468C11.74 6.64 12.1 6.892 12.36 7.224C12.62 7.556 12.75 7.962 12.75 8.442C12.75 8.87 12.614 9.258 12.342 9.606C12.07 9.95 11.654 10.22 11.094 10.416C11.474 10.52 11.806 10.672 12.09 10.872C12.374 11.072 12.594 11.318 12.75 11.61C12.906 11.898 12.984 12.23 12.984 12.606C12.984 13.002 12.9 13.358 12.732 13.674C12.568 13.986 12.336 14.252 12.036 14.472C11.736 14.688 11.382 14.854 10.974 14.97C10.566 15.082 10.122 15.136 9.642 15.132Z" fill="white"/>
</svg>
