<svg width="21" height="21" viewBox="0 0 21 21" fill="none" xmlns="http://www.w3.org/2000/svg">
<circle cx="10.5" cy="10.5" r="10.5" fill="#919EAB"/>
<path d="M7.744 15V14.322V13.968C7.744 13.524 7.826 13.14 7.99 12.816C8.158 12.492 8.378 12.21 8.65 11.97C8.926 11.726 9.226 11.508 9.55 11.316C9.878 11.124 10.204 10.94 10.528 10.764C10.856 10.584 11.156 10.398 11.428 10.206C11.7 10.01 11.918 9.79 12.082 9.546C12.25 9.298 12.334 9.006 12.334 8.67C12.334 8.23 12.178 7.872 11.866 7.596C11.558 7.32 11.14 7.182 10.612 7.182C10.044 7.182 9.588 7.342 9.244 7.662C8.9 7.982 8.706 8.408 8.662 8.94H7.558C7.57 8.44 7.694 7.984 7.93 7.572C8.166 7.156 8.512 6.824 8.968 6.576C9.424 6.328 9.986 6.204 10.654 6.204C11.234 6.204 11.738 6.308 12.166 6.516C12.594 6.72 12.924 7.008 13.156 7.38C13.392 7.748 13.51 8.178 13.51 8.67C13.51 9.118 13.428 9.502 13.264 9.822C13.1 10.142 12.882 10.42 12.61 10.656C12.342 10.888 12.048 11.096 11.728 11.28C11.408 11.464 11.086 11.642 10.762 11.814C10.438 11.982 10.142 12.16 9.874 12.348C9.606 12.532 9.39 12.744 9.226 12.984C9.062 13.224 8.98 13.51 8.98 13.842V14.016H13.558V15H7.744Z" fill="white"/>
</svg>
