<svg width="21" height="21" viewBox="0 0 21 21" fill="none" xmlns="http://www.w3.org/2000/svg">
<circle cx="10.5" cy="10.5" r="10.5" fill="#919EAB"/>
<path d="M9.972 6.204C10.452 6.204 10.894 6.294 11.298 6.474C11.706 6.654 12.044 6.912 12.312 7.248C12.58 7.584 12.746 7.99 12.81 8.466H11.766C11.65 8.054 11.44 7.728 11.136 7.488C10.832 7.248 10.45 7.128 9.99 7.128C9.478 7.128 9.05 7.274 8.706 7.566C8.366 7.854 8.118 8.278 7.962 8.838C7.806 9.394 7.752 10.078 7.8 10.89C7.908 10.598 8.072 10.342 8.292 10.122C8.516 9.898 8.776 9.726 9.072 9.606C9.368 9.482 9.688 9.42 10.032 9.42C10.604 9.42 11.104 9.532 11.532 9.756C11.96 9.976 12.294 10.292 12.534 10.704C12.774 11.112 12.894 11.6 12.894 12.168C12.894 12.748 12.77 13.262 12.522 13.71C12.278 14.154 11.93 14.502 11.478 14.754C11.026 15.006 10.492 15.132 9.876 15.132C9.204 15.132 8.62 14.958 8.124 14.61C7.632 14.262 7.25 13.766 6.978 13.122C6.71 12.474 6.576 11.698 6.576 10.794C6.576 9.866 6.706 9.058 6.966 8.37C7.23 7.682 7.614 7.15 8.118 6.774C8.622 6.394 9.24 6.204 9.972 6.204ZM9.852 10.32C9.536 10.32 9.232 10.396 8.94 10.548C8.652 10.696 8.416 10.892 8.232 11.136C8.052 11.38 7.962 11.65 7.962 11.946C7.958 12.386 8.034 12.778 8.19 13.122C8.35 13.462 8.574 13.73 8.862 13.926C9.15 14.118 9.484 14.214 9.864 14.214C10.22 14.214 10.536 14.13 10.812 13.962C11.088 13.794 11.304 13.56 11.46 13.26C11.62 12.96 11.7 12.614 11.7 12.222C11.7 11.826 11.628 11.486 11.484 11.202C11.344 10.918 11.136 10.7 10.86 10.548C10.584 10.396 10.248 10.32 9.852 10.32Z" fill="white"/>
</svg>
