<svg width="120" height="57" viewBox="0 0 120 57" fill="none" xmlns="http://www.w3.org/2000/svg">
<path d="M1 56.5V0.5H-1V56.5H1Z" fill="black" mask="url(#path-1-inside-1_961_12365)"/>
<path fill-rule="evenodd" clip-rule="evenodd" d="M58.5537 0.535051C57.371 0.680331 56.1256 0.984082 55.1204 1.37235C54.2901 1.69304 54.1806 1.77862 54.1806 2.10694C54.1806 2.38669 54.3184 2.58554 54.553 2.64443C54.6481 2.66831 54.9721 2.57967 55.468 2.39413C57.062 1.79788 58.3832 1.55126 59.9843 1.5512C61.6757 1.55101 62.9393 1.78469 64.4937 2.385C66.1829 3.03739 67.6219 4.00684 69.0321 5.44252C69.6574 6.07915 69.786 6.18198 69.957 6.18198C70.2308 6.18198 70.4625 5.94237 70.4625 5.65906C70.4625 5.381 70.194 5.03912 69.3268 4.21282C67.258 2.24147 64.5803 0.952263 61.7966 0.587374C61.1455 0.501981 59.0924 0.468912 58.5537 0.535051ZM52.484 2.73339C51.288 3.50986 49.3647 5.37863 49.2367 5.88861C49.1417 6.26725 49.4949 6.62414 49.8714 6.52962C49.9625 6.50674 50.1248 6.38653 50.232 6.2625C51.2397 5.09651 51.879 4.49501 52.8202 3.82724C53.4274 3.3964 53.5214 3.29007 53.5214 3.03432C53.5214 2.79434 53.4592 2.68463 53.2668 2.58517C53.003 2.4487 52.8893 2.47027 52.484 2.73339ZM58.2842 2.58804C56.1158 2.91855 54.0439 3.88807 52.3562 5.36212C51.0508 6.50211 49.9396 8.09213 49.2698 9.7783C48.9719 10.5281 49.0508 10.8966 49.5253 10.9726C49.8582 11.0258 50.0223 10.8366 50.3457 10.0265C50.8339 8.80341 51.5087 7.77263 52.4892 6.75235C54.1435 5.03099 56.295 3.93501 58.6405 3.61882C59.3117 3.5283 60.6676 3.52799 61.3425 3.61813C63.095 3.85231 64.8624 4.58402 66.3053 5.67288C66.8059 6.05064 67.7036 6.92314 68.1475 7.4635C68.8516 8.32056 69.5129 9.49937 69.889 10.5671C70.1401 11.2803 70.4878 11.9626 70.6624 12.0848C70.8555 12.2201 71.1016 12.2081 71.2979 12.0537C71.54 11.8633 71.5185 11.5605 71.2199 10.9559C71.0863 10.6854 70.9281 10.3094 70.8682 10.1203C70.6874 9.54938 70.1188 8.40351 69.696 7.75863C67.9714 5.12739 65.3672 3.35439 62.2354 2.67919C61.422 2.50384 59.1766 2.45201 58.2842 2.58804ZM58.4287 4.59134C55.6652 5.05831 53.2107 6.74523 51.8084 9.1416C51.2147 10.156 50.8702 11.0735 50.635 12.2667C50.4565 13.1721 50.443 14.7322 50.606 15.6122C50.8275 16.8076 51.5846 18.9709 51.8727 19.2316C52.0705 19.4107 52.412 19.4189 52.5821 19.2488C52.808 19.0229 52.7961 18.8681 52.4941 18.1047C52.0983 17.1039 51.8575 16.3468 51.6976 15.6005C51.5069 14.7103 51.5076 13.2938 51.6993 12.3903C52.0679 10.6523 52.8164 9.26182 54.0511 8.02162C57.1425 4.91628 62.0021 4.70017 65.4225 7.51595C65.7593 7.79326 65.8986 7.86984 66.0661 7.86984C66.355 7.86984 66.5866 7.63773 66.5866 7.34823C66.5866 7.10593 66.5121 7.00753 66.024 6.60532C64.7434 5.5501 63.0754 4.82001 61.3548 4.56164C60.7459 4.47019 59.0434 4.4875 58.4287 4.59134ZM59.6404 6.61289C59.529 6.70309 59.4942 6.79399 59.4942 6.99465C59.4942 7.3396 59.6575 7.47425 60.1338 7.52214C61.4037 7.64973 62.093 7.82233 62.8359 8.19884C64.4541 9.01908 65.5371 10.2869 66.2126 12.152C66.6085 13.2454 67.2867 14.4508 68.0995 15.5059C68.6264 16.1898 70.4881 18.1094 70.7059 18.1932C70.8959 18.2663 71.2531 18.1549 71.3381 17.9961C71.3722 17.9323 71.4002 17.791 71.4002 17.682C71.4002 17.5108 71.2651 17.3445 70.4064 16.4586C68.6463 14.6426 67.7454 13.2951 67.1418 11.575C66.3759 9.39291 64.6792 7.67317 62.5379 6.9087C61.4479 6.51962 59.9451 6.36615 59.6404 6.61289ZM57.1704 7.01535C54.8162 7.97023 53.108 10.061 52.6048 12.6036C52.457 13.3505 52.4596 14.7173 52.6103 15.4339C52.9078 16.849 53.6976 18.793 54.7047 20.5891C55.2071 21.485 56.124 22.9126 56.3284 23.117C56.5134 23.3019 56.8937 23.295 57.0738 23.1034C57.2904 22.8727 57.2535 22.5812 56.9534 22.1528C55.7923 20.4952 54.6787 18.3477 54.0691 16.5904C53.5848 15.1944 53.4554 14.3353 53.578 13.3285C53.8498 11.0967 55.1631 9.20455 57.1159 8.23135C57.3566 8.11139 57.6942 7.96292 57.8661 7.90134C58.2601 7.76019 58.3974 7.60772 58.3974 7.31122C58.3974 7.01072 58.1929 6.80668 57.8933 6.80818C57.7752 6.80874 57.4498 6.90195 57.1704 7.01535ZM67.0687 8.43321C66.7726 8.66613 66.7867 8.87817 67.1364 9.45248C67.5605 10.149 67.7136 10.4683 68.0259 11.3081C68.173 11.7035 68.3773 12.1957 68.4798 12.402C68.8926 13.2325 69.7081 14.3871 70.4114 15.137C70.7139 15.4596 70.7745 15.4964 71.0009 15.4964C71.3266 15.4964 71.5252 15.3015 71.5252 14.9817C71.5252 14.8007 71.4663 14.6908 71.2259 14.4231C70.1149 13.1863 69.4922 12.1897 69.0253 10.9017C68.5905 9.70197 67.8674 8.42608 67.5785 8.34875C67.3369 8.28405 67.2373 8.30062 67.0687 8.43321ZM59.4271 8.49578C57.0646 8.74571 55.1542 10.4441 54.6064 12.7818C54.4384 13.499 54.4537 14.5984 54.642 15.3402C55.0932 17.1171 56.4316 19.8312 57.8275 21.7999C58.366 22.5594 59.1018 23.4902 59.7271 24.2029C60.433 25.0074 62.286 26.8772 62.4732 26.974C62.8732 27.1809 63.2734 26.9564 63.2734 26.5252C63.2734 26.3106 63.1878 26.2088 61.9429 24.9439C59.2502 22.2078 57.6713 19.9805 56.4426 17.1843C55.7701 15.6538 55.4707 14.4759 55.55 13.6718C55.9263 9.8525 60.4467 8.15959 63.1172 10.8378C63.7128 11.4351 63.9548 11.8283 64.2815 12.7289C64.6542 13.7568 65.1065 14.6444 65.3032 14.734C65.5067 14.8267 65.6014 14.8278 65.7954 14.7394C65.9575 14.6655 66.0865 14.4451 66.0865 14.242C66.0865 14.1742 65.9632 13.8731 65.8125 13.5729C65.6618 13.2728 65.4494 12.774 65.3406 12.4646C64.804 10.9389 64.0555 9.97622 62.8257 9.23019C61.877 8.65469 60.5783 8.37407 59.4271 8.49578ZM59.1196 10.5658C58.5937 10.689 57.9543 11.0592 57.5292 11.4865C56.8217 12.1977 56.4985 12.9834 56.497 13.9961C56.4959 14.6995 56.6862 15.4292 56.9119 15.5873C57.1053 15.7227 57.4341 15.7096 57.5832 15.5605C57.7719 15.3718 57.7961 15.1618 57.6713 14.7962C57.5968 14.5781 57.5597 14.2942 57.5627 13.9649C57.5689 13.2755 57.7389 12.8529 58.2145 12.3445C59.171 11.3221 60.6184 11.2601 61.6842 12.1959C61.9809 12.4564 62.1665 12.7907 62.4951 13.657C63.0323 15.0727 63.7999 16.4418 64.806 17.7782C65.9458 19.2924 68.0241 21.3573 70.0155 22.9544C70.4339 23.29 70.5805 23.3731 70.7541 23.3731C71.0461 23.3731 71.1866 23.2875 71.2653 23.0618C71.3757 22.7451 71.2572 22.5568 70.6329 22.0569C69.1205 20.8459 66.8649 18.6483 65.9525 17.4969C64.8036 16.0471 63.9245 14.5023 63.3952 13.0036C63.2813 12.6812 63.0857 12.2593 62.9604 12.0659C62.5071 11.3659 61.7216 10.7982 60.9165 10.5885C60.5221 10.4858 59.5153 10.473 59.1196 10.5658ZM48.7759 11.9801C48.4034 12.2856 48.37 14.6391 48.7141 16.3365C49.1666 18.5685 50.7931 22.1053 52.5912 24.7676C53.9025 26.709 55.9951 29.1923 56.3935 29.2798C56.7216 29.3519 57.0167 29.1116 57.0201 28.7697C57.0223 28.5519 56.9343 28.4283 56.2485 27.6865C53.0666 24.2447 50.277 19.1372 49.6759 15.6527C49.5556 14.9557 49.5246 13.7165 49.6043 12.7956C49.6562 12.1969 49.6547 12.1867 49.4977 12.0298C49.3074 11.8394 48.9753 11.8165 48.7759 11.9801ZM59.2383 12.678C58.8483 12.9017 58.6054 13.2419 58.5096 13.6986C58.4476 13.9947 58.453 14.1079 58.5455 14.4439C58.933 15.8511 60.0708 18.07 61.23 19.6793C62.565 21.5327 65.1047 24.1373 67.3055 25.9101C68.6724 27.0111 69.1129 27.3114 69.3612 27.3114C69.7659 27.3114 70.0233 26.9087 69.8388 26.5639C69.8052 26.5012 69.4015 26.1661 68.9419 25.8193C66.7602 24.1738 64.2501 21.775 62.7592 19.9109C61.5505 18.3995 60.2093 16.0536 59.71 14.5771L59.4942 13.939L59.6241 13.7644C59.7712 13.5665 60.1098 13.4995 60.2838 13.6339C60.3415 13.6784 60.4917 13.9961 60.6177 14.3399C61.3941 16.4587 62.7081 18.5556 64.4831 20.5079C65.2029 21.2996 65.3656 21.3952 65.6993 21.2226C65.9101 21.1137 65.9615 21.0132 65.9615 20.7105C65.9615 20.5302 65.8891 20.4193 65.5057 20.0123C63.7242 18.1214 62.3904 16.0398 61.614 13.9389C61.1989 12.8158 60.8374 12.4952 59.9874 12.4964C59.6242 12.4969 59.5028 12.5263 59.2383 12.678ZM66.24 15.5874C65.9777 15.8496 66.0283 16.0929 66.4634 16.661C67.2625 17.7043 68.8202 19.3012 70.2437 20.5362C70.7583 20.9827 70.8501 21.0238 71.1288 20.9318C71.3743 20.8507 71.4627 20.7137 71.4627 20.4135C71.4627 20.1754 71.5246 20.2432 70.2437 19.0781C69.3354 18.252 68.075 16.9454 67.5618 16.298C66.9241 15.4935 66.8586 15.4339 66.6111 15.4339C66.4633 15.4339 66.3442 15.4832 66.24 15.5874ZM57.6132 16.6501C57.3838 16.8794 57.4185 17.1041 57.8006 17.8661C58.5922 19.4445 59.5639 20.9088 60.7693 22.34C62.462 24.3498 64.9892 26.7139 67.2372 28.3906C67.9175 28.898 68.0058 28.946 68.2006 28.9144C68.5179 28.8629 68.6496 28.714 68.6496 28.4066C68.6496 28.1062 68.6353 28.0902 67.8056 27.465C65.043 25.3831 62.0326 22.403 60.4825 20.216C59.8892 19.3787 59.3012 18.4198 58.8294 17.5198C58.6155 17.1118 58.3837 16.7147 58.3143 16.6373C58.1397 16.4426 57.8147 16.4486 57.6132 16.6501ZM52.8025 20.067C52.3689 20.3131 52.4095 20.5846 53.0466 21.7005C54.4461 24.1518 55.8704 26.0127 58.0536 28.2425C59.8378 30.0647 62.0214 32.0323 62.4331 32.1888C62.866 32.3534 63.289 31.8837 63.0743 31.477C63.0291 31.3913 62.6124 31.0004 62.1482 30.6084C58.5294 27.5518 55.794 24.3869 54.0036 21.1849C53.7441 20.7209 53.4802 20.2778 53.4172 20.2003C53.2814 20.0333 52.9778 19.9675 52.8025 20.067ZM48.6469 21.0585C48.3434 21.3621 48.4381 21.6421 49.4714 23.4953C51.0104 26.2553 52.663 28.443 55.1856 31.0594C55.6711 31.5631 55.9622 31.8167 56.0854 31.8438C56.4653 31.9273 56.8242 31.5733 56.7322 31.2059C56.7059 31.101 56.3478 30.6804 55.8382 30.1558C55.3705 29.6744 54.774 29.0415 54.5125 28.7492C52.7779 26.8109 50.9749 24.1606 49.8346 21.8728C49.6547 21.5118 49.4492 21.1531 49.3781 21.0757C49.2091 20.8921 48.8225 20.8829 48.6469 21.0585ZM66.6732 21.7122C66.4209 21.8223 66.307 22.1164 66.4164 22.3753C66.5293 22.6423 68.1121 24.0404 69.4796 25.0809C69.9336 25.4264 70.0694 25.4985 70.2658 25.4985C70.5726 25.4985 70.775 25.2967 70.775 24.9907C70.775 24.7229 70.7249 24.6593 70.2124 24.2773C69.6258 23.8402 68.5324 22.9316 67.7889 22.2635C67.435 21.9455 67.1204 21.6852 67.0899 21.6852C67.0594 21.6852 66.997 21.6722 66.9512 21.6562C66.9054 21.6403 66.7803 21.6655 66.6732 21.7122ZM57.6473 23.8291C57.4435 23.9321 57.3192 24.1961 57.3731 24.411C57.3965 24.5038 57.6701 24.8779 57.9813 25.2423C58.7225 26.1102 61.0944 28.483 62.0899 29.3525C62.9988 30.1463 64.3676 31.2582 64.5665 31.3644C65.0214 31.6072 65.4889 31.1573 65.2982 30.6603C65.2772 30.6055 65.0169 30.3688 64.7199 30.1343C63.0099 28.7839 61.1298 27.0581 59.7538 25.5757C59.2197 25.0003 58.6687 24.3903 58.5291 24.2201C58.1549 23.7634 57.9536 23.6741 57.6473 23.8291ZM49.6028 26.3116C49.2488 26.4543 49.2451 26.875 49.5935 27.393C50.25 28.3691 51.8182 30.3313 51.9966 30.3997C52.3422 30.5324 52.7337 30.2796 52.7337 29.9238C52.7337 29.6858 52.7477 29.707 51.8896 28.6469C51.5593 28.239 51.0414 27.5583 50.7386 27.1341C50.1248 26.2742 49.9713 26.1631 49.6028 26.3116ZM63.9095 27.5186C63.7776 27.659 63.7322 27.9437 63.8096 28.1453C63.8521 28.256 64.8357 29.0784 65.7992 29.8087C66.4279 30.2852 66.4982 30.3225 66.7056 30.2893C66.9896 30.2438 67.1493 30.0513 67.1493 29.7542C67.1493 29.4881 67.079 29.4114 66.2986 28.8252C66.0198 28.6158 65.4996 28.2036 65.1427 27.9092C64.5948 27.4574 64.4588 27.3739 64.2695 27.3739C64.1161 27.3739 64.0025 27.4196 63.9095 27.5186ZM57.5956 29.8941C57.5079 29.9875 57.4597 30.1188 57.4597 30.2645C57.4597 30.4671 57.5187 30.5472 58.038 31.0493C58.356 31.3568 58.8412 31.809 59.1161 32.0542C59.5669 32.4561 59.6418 32.5 59.8774 32.5C60.0853 32.5 60.1652 32.4663 60.2683 32.3353C60.3395 32.2447 60.3978 32.0884 60.3978 31.9878C60.3978 31.7742 60.2551 31.6188 59.0376 30.5066C58.2813 29.8157 58.1878 29.7494 57.9701 29.7494C57.8016 29.7494 57.6916 29.7919 57.5956 29.8941Z" fill="#C52031"/>
<path d="M44.6347 53.5L47.7727 44.824H49.0267L52.1647 53.5H51.0307L50.1787 51.124H46.6207L45.7627 53.5H44.6347ZM46.9147 50.104H49.8727L48.3967 45.91L46.9147 50.104ZM53.8023 53.5V44.824H59.2743L59.2682 45.802H54.9183V48.634H58.8363V49.606H54.9123V52.498L59.3883 52.51V53.5H53.8023ZM61.3257 53.5V44.824H64.2597C64.8797 44.824 65.4317 44.928 65.9157 45.136C66.3997 45.344 66.7797 45.652 67.0557 46.06C67.3357 46.468 67.4757 46.97 67.4757 47.566C67.4757 48.142 67.3457 48.634 67.0857 49.042C66.8297 49.45 66.4717 49.76 66.0117 49.972C65.5517 50.184 65.0177 50.29 64.4097 50.29H62.4657V53.5H61.3257ZM62.4597 49.354H64.3857C64.9817 49.354 65.4657 49.188 65.8377 48.856C66.2097 48.524 66.3957 48.072 66.3957 47.5C66.3957 46.924 66.2037 46.488 65.8197 46.192C65.4357 45.896 64.9397 45.748 64.3317 45.748H62.4597V49.354ZM72.0469 53.62C71.6229 53.62 71.2209 53.57 70.8409 53.47C70.4609 53.366 70.1149 53.212 69.8029 53.008C69.4949 52.804 69.2389 52.552 69.0349 52.252C68.8349 51.948 68.7089 51.596 68.6569 51.196H69.8209C69.8929 51.524 70.0349 51.8 70.2469 52.024C70.4629 52.248 70.7289 52.416 71.0449 52.528C71.3649 52.64 71.7149 52.696 72.0949 52.696C72.4629 52.696 72.8009 52.638 73.1089 52.522C73.4209 52.406 73.6709 52.238 73.8589 52.018C74.0469 51.794 74.1409 51.526 74.1409 51.214C74.1409 50.87 74.0289 50.594 73.8049 50.386C73.5809 50.174 73.2349 50.004 72.7669 49.876L70.9789 49.414C70.5749 49.314 70.2169 49.174 69.9049 48.994C69.5969 48.81 69.3549 48.57 69.1789 48.274C69.0029 47.974 68.9149 47.602 68.9149 47.158C68.9149 46.666 69.0509 46.238 69.3229 45.874C69.5949 45.506 69.9629 45.222 70.4269 45.022C70.8949 44.818 71.4229 44.716 72.0109 44.716C72.6909 44.716 73.2629 44.834 73.7269 45.07C74.1949 45.306 74.5489 45.616 74.7889 46C75.0289 46.384 75.1489 46.794 75.1489 47.23H74.0089C73.9729 46.834 73.8569 46.522 73.6609 46.294C73.4649 46.062 73.2209 45.896 72.9289 45.796C72.6369 45.692 72.3189 45.64 71.9749 45.64C71.3549 45.64 70.8849 45.782 70.5649 46.066C70.2489 46.346 70.0909 46.68 70.0909 47.068C70.0909 47.424 70.2049 47.704 70.4329 47.908C70.6609 48.112 70.9969 48.27 71.4409 48.382L73.1809 48.832C73.6969 48.952 74.1069 49.126 74.4109 49.354C74.7189 49.582 74.9389 49.848 75.0709 50.152C75.2069 50.452 75.2749 50.778 75.2749 51.13C75.2749 51.61 75.1409 52.038 74.8729 52.414C74.6049 52.79 74.2289 53.086 73.7449 53.302C73.2649 53.514 72.6989 53.62 72.0469 53.62Z" fill="black"/>
</svg>
