<svg width="120" height="57" viewBox="0 0 120 57" fill="none" xmlns="http://www.w3.org/2000/svg">
<path d="M1 56.5V0.5H-1V56.5H1Z" fill="black" mask="url(#path-1-inside-1_961_12362)"/>
<path fill-rule="evenodd" clip-rule="evenodd" d="M50.2626 0.626278C50.1307 0.70791 50.045 0.825732 50.0014 0.985433C49.9175 1.29227 49.9118 31.6084 49.9957 31.9757C50.0827 32.357 50.415 32.5709 50.7771 32.4786C50.8712 32.4546 51.1406 32.2186 51.408 31.9257C51.6647 31.6446 52.0148 31.2634 52.186 31.0788L52.4973 30.7429L53.2017 31.5245C54.3462 32.7945 54.4108 32.7957 55.5077 31.5681C55.908 31.1201 56.254 30.7613 56.2766 30.7708C56.2994 30.7803 56.6546 31.1585 57.0662 31.6113C58.1401 32.7926 58.1684 32.7925 59.2388 31.6089C59.6471 31.1575 60.0006 30.7806 60.0243 30.7715C60.048 30.7624 60.3917 31.1177 60.7882 31.561C61.8872 32.7901 61.9238 32.7906 63.0112 31.5908C63.4203 31.1394 63.7735 30.7671 63.7959 30.7634C63.8184 30.7598 64.1595 31.1154 64.554 31.5538C65.666 32.7895 65.7285 32.7899 66.8241 31.5697C67.2255 31.1226 67.5718 30.7594 67.5935 30.7625C67.6153 30.7656 67.9378 31.1146 68.3102 31.538C68.6826 31.9614 69.0787 32.3546 69.1903 32.4118C69.4427 32.541 69.6915 32.4937 69.9062 32.2757L70.0646 32.1149V16.5055V0.896176L69.9388 0.733787C69.7806 0.529582 69.4381 0.454826 69.2079 0.574211C69.1164 0.621653 68.7145 1.01994 68.3148 1.45922C67.762 2.0669 67.5695 2.24204 67.5095 2.19153C67.4662 2.15503 67.1321 1.78994 66.767 1.38022C66.4019 0.970494 66.0236 0.601776 65.9263 0.560835C65.5763 0.413635 65.3625 0.552272 64.5585 1.44772L63.823 2.26685L63.4228 1.83869C62.0786 0.400696 62.1544 0.461077 61.7821 0.53202C61.6143 0.56396 61.4281 0.7341 60.8179 1.41291C60.402 1.87563 60.0469 2.24723 60.0289 2.23866C60.0108 2.23016 59.6557 1.85138 59.2397 1.39697C58.2266 0.290437 58.1063 0.26756 57.3869 1.04425C57.1685 1.28015 56.8244 1.65149 56.6223 1.86951L56.2549 2.26592L55.7598 1.71324C54.4327 0.231807 54.3688 0.213431 53.5725 1.08557C53.3158 1.36665 52.966 1.74743 52.7951 1.93176L52.4845 2.26685L51.7557 1.46372C51.3549 1.02194 50.9683 0.62634 50.8967 0.584587C50.7067 0.473703 50.4855 0.488266 50.2626 0.626278ZM55.1444 3.00467C55.9498 3.9003 56.1198 4.01 56.4714 3.8608C56.5921 3.80961 56.9695 3.45214 57.3822 2.99829C57.7698 2.57194 58.1041 2.21541 58.1251 2.20591C58.146 2.19641 58.5147 2.56694 58.9444 3.02942C59.806 3.95662 59.9431 4.03844 60.2995 3.83799C60.4118 3.77492 60.8164 3.37763 61.1989 2.95522C61.5813 2.53275 61.914 2.19522 61.9383 2.20516C61.9626 2.21504 62.3055 2.57976 62.7004 3.0156C63.7841 4.21164 63.8388 4.21127 64.9248 3.00173C65.3246 2.55632 65.6701 2.19191 65.6926 2.19191C65.7151 2.19191 66.0493 2.546 66.4353 2.97879C66.8213 3.41158 67.2175 3.8078 67.3157 3.85936C67.6373 4.02831 67.8545 3.92906 68.3359 3.39301L68.7691 2.91072L68.7705 16.4905L68.7719 30.0703L68.2946 29.5697C67.5842 28.8247 67.4903 28.8468 66.461 30.0017C66.0602 30.4514 65.7162 30.8193 65.6966 30.8193C65.6769 30.8193 65.3452 30.466 64.9594 30.0343C63.8373 28.7785 63.8087 28.7775 62.7317 29.9623C62.3189 30.4165 61.9618 30.7961 61.9383 30.8059C61.9147 30.8157 61.5694 30.459 61.1707 30.0132C60.7722 29.5675 60.3684 29.1701 60.2733 29.1301C59.9806 29.007 59.7607 29.1076 59.3389 29.5578C59.1236 29.7875 58.7673 30.1683 58.547 30.4038L58.1467 30.8323L57.4476 30.0601C56.289 28.7803 56.2395 28.7792 55.1412 30.0075C54.7398 30.4564 54.3941 30.8157 54.373 30.8059C54.3519 30.7961 53.9957 30.4176 53.5813 29.9648C52.562 28.8508 52.466 28.8328 51.7371 29.6197L51.2916 30.1005L51.2921 16.5056L51.2927 2.91072L51.7259 3.39301C52.2089 3.93074 52.4242 4.02844 52.7496 3.85755C52.8497 3.80498 53.2473 3.40876 53.6331 2.97698C54.0188 2.54519 54.3523 2.19191 54.3741 2.19191C54.3958 2.19191 54.7425 2.55769 55.1444 3.00467ZM57.8388 7.19108C57.4902 7.33409 57.3312 7.87383 57.5459 8.1851C57.715 8.43012 57.9956 8.50494 58.7462 8.50494C59.3884 8.50494 59.4545 8.51663 59.7177 8.67683L60.0001 8.84872L58.9167 8.87997C57.8084 8.91198 57.7358 8.92823 57.5245 9.1925C57.4832 9.24407 57.4486 9.40796 57.4475 9.55672C57.4459 9.7738 57.4811 9.86324 57.6255 10.0099L57.8054 10.1926H58.8617C59.9847 10.1926 60.0408 10.2111 59.6995 10.47C59.5518 10.5821 59.4134 10.6029 58.6361 10.6301C57.7497 10.6611 57.7414 10.6627 57.594 10.8368C57.3627 11.1099 57.3858 11.5033 57.6489 11.7688C58.2589 12.3845 60.4923 14.4853 60.6058 14.5501C61.0361 14.7958 61.5397 14.4364 61.5271 13.8928C61.5222 13.6791 61.4529 13.5944 60.6114 12.7732C59.8634 12.0432 59.7223 11.8784 59.8199 11.8483C60.4596 11.6516 61.1008 11.0957 61.3269 10.5415L61.4694 10.1926H61.8534C62.1744 10.1926 62.2679 10.1666 62.4224 10.0346C62.6544 9.8363 62.7127 9.58578 62.5938 9.29688C62.4777 9.01461 62.2207 8.87997 61.7982 8.87997C61.5025 8.87997 61.4587 8.86272 61.3951 8.72077C61.3557 8.6332 61.3236 8.55188 61.3236 8.54007C61.3236 8.52826 61.53 8.50801 61.7823 8.49507C62.185 8.47444 62.2631 8.45006 62.422 8.29555C62.6517 8.07203 62.7072 7.80545 62.5805 7.5343C62.3977 7.14308 62.3101 7.12939 60.0216 7.13376C58.8925 7.13595 57.9103 7.16177 57.8388 7.19108ZM56.8283 19.5499C56.586 19.7194 56.5263 19.8315 56.5242 20.1201C56.5226 20.3372 56.5577 20.4266 56.7021 20.5733L56.8821 20.756H60.0125C63.478 20.756 63.339 20.7721 63.5127 20.35C63.632 20.06 63.5298 19.7236 63.2742 19.5654C63.0868 19.4493 62.9402 19.4438 60.0292 19.4436C57.2573 19.4434 56.9667 19.4531 56.8283 19.5499ZM53.9615 22.4061C53.6703 22.7018 53.6703 22.998 53.9615 23.2937L54.1707 23.5062H59.997C66.3255 23.5062 66.0765 23.5198 66.2361 23.1642C66.3688 22.8685 66.3273 22.6365 66.1004 22.4061L65.8911 22.1936H60.0309H54.1707L53.9615 22.4061ZM53.9615 25.2188C53.6703 25.5145 53.6703 25.8108 53.9615 26.1064L54.1707 26.3189H59.997C66.3255 26.3189 66.0765 26.3326 66.2361 25.9769C66.3296 25.7686 66.3296 25.5566 66.2361 25.3484C66.0765 24.9927 66.3255 25.0063 59.997 25.0063H54.1707L53.9615 25.2188Z" fill="#C52031"/>
<path d="M26.1499 53.5V44.824H28.9399C29.9959 44.824 30.7939 45.018 31.3339 45.406C31.8779 45.794 32.1499 46.354 32.1499 47.086C32.1499 47.546 32.0299 47.94 31.7899 48.268C31.5539 48.596 31.1379 48.866 30.5419 49.078C30.8819 49.15 31.1679 49.254 31.3999 49.39C31.6359 49.526 31.8239 49.686 31.9639 49.87C32.1079 50.05 32.2099 50.25 32.2699 50.47C32.3339 50.69 32.3659 50.922 32.3659 51.166C32.3659 51.95 32.0859 52.536 31.5259 52.924C30.9699 53.308 30.1379 53.5 29.0299 53.5H26.1499ZM27.2599 52.576H29.0179C29.7419 52.576 30.2919 52.458 30.6679 52.222C31.0479 51.982 31.2379 51.614 31.2379 51.118C31.2379 50.754 31.1439 50.46 30.9559 50.236C30.7719 50.008 30.5219 49.842 30.2059 49.738C29.8899 49.634 29.5379 49.582 29.1499 49.582H27.2599V52.576ZM27.2599 48.64H29.1499C29.3779 48.64 29.6039 48.618 29.8279 48.574C30.0519 48.53 30.2579 48.454 30.4459 48.346C30.6339 48.238 30.7859 48.094 30.9019 47.914C31.0179 47.73 31.0759 47.5 31.0759 47.224C31.0759 46.72 30.8819 46.348 30.4939 46.108C30.1099 45.864 29.6099 45.742 28.9939 45.742H27.2599V48.64ZM34.0027 53.5V47.296H35.0767V53.5H34.0027ZM33.9727 45.982V44.83H35.1067V45.982H33.9727ZM38.5856 53.578C38.2496 53.578 37.9776 53.532 37.7696 53.44C37.5656 53.348 37.4076 53.224 37.2956 53.068C37.1876 52.912 37.1136 52.734 37.0736 52.534C37.0376 52.33 37.0196 52.12 37.0196 51.904V44.584H38.1116V51.796C38.1116 52.108 38.1716 52.342 38.2916 52.498C38.4156 52.654 38.5876 52.74 38.8076 52.756L39.1436 52.762V53.482C39.0516 53.51 38.9556 53.532 38.8556 53.548C38.7556 53.568 38.6656 53.578 38.5856 53.578ZM42.0426 53.578C41.7066 53.578 41.4346 53.532 41.2266 53.44C41.0226 53.348 40.8646 53.224 40.7526 53.068C40.6446 52.912 40.5706 52.734 40.5306 52.534C40.4946 52.33 40.4766 52.12 40.4766 51.904V44.584H41.5686V51.796C41.5686 52.108 41.6286 52.342 41.7486 52.498C41.8726 52.654 42.0446 52.74 42.2646 52.756L42.6006 52.762V53.482C42.5086 53.51 42.4126 53.532 42.3126 53.548C42.2126 53.568 42.1226 53.578 42.0426 53.578ZM47.2554 53.5V44.824H50.1894C50.8094 44.824 51.3614 44.928 51.8454 45.136C52.3294 45.344 52.7094 45.652 52.9854 46.06C53.2654 46.468 53.4054 46.97 53.4054 47.566C53.4054 48.142 53.2754 48.634 53.0154 49.042C52.7594 49.45 52.4014 49.76 51.9414 49.972C51.4814 50.184 50.9474 50.29 50.3394 50.29H48.3954V53.5H47.2554ZM48.3894 49.354H50.3154C50.9114 49.354 51.3954 49.188 51.7674 48.856C52.1394 48.524 52.3254 48.072 52.3254 47.5C52.3254 46.924 52.1334 46.488 51.7494 46.192C51.3654 45.896 50.8694 45.748 50.2614 45.748H48.3894V49.354ZM56.2908 53.62C55.8868 53.62 55.5308 53.55 55.2228 53.41C54.9188 53.266 54.6788 53.06 54.5028 52.792C54.3308 52.524 54.2448 52.2 54.2448 51.82C54.2448 51.132 54.4848 50.62 54.9648 50.284C55.4448 49.948 56.2148 49.768 57.2748 49.744L58.3788 49.714V49.228C58.3788 48.848 58.2648 48.548 58.0368 48.328C57.8088 48.104 57.4568 47.992 56.9808 47.992C56.6248 47.996 56.3108 48.08 56.0388 48.244C55.7668 48.408 55.5928 48.676 55.5168 49.048H54.5388C54.5628 48.644 54.6748 48.304 54.8748 48.028C55.0788 47.748 55.3648 47.536 55.7328 47.392C56.1008 47.248 56.5348 47.176 57.0348 47.176C57.5748 47.176 58.0228 47.252 58.3788 47.404C58.7388 47.556 59.0068 47.78 59.1828 48.076C59.3628 48.372 59.4528 48.736 59.4528 49.168V53.5H58.5048L58.4208 52.336C58.1848 52.82 57.8808 53.156 57.5088 53.344C57.1408 53.528 56.7348 53.62 56.2908 53.62ZM56.6208 52.822C56.8328 52.822 57.0408 52.784 57.2448 52.708C57.4528 52.632 57.6408 52.53 57.8088 52.402C57.9808 52.27 58.1188 52.124 58.2228 51.964C58.3268 51.8 58.3788 51.632 58.3788 51.46V50.398L57.4608 50.416C56.9848 50.424 56.5888 50.472 56.2728 50.56C55.9568 50.648 55.7188 50.786 55.5588 50.974C55.3988 51.162 55.3188 51.408 55.3188 51.712C55.3188 52.06 55.4408 52.332 55.6848 52.528C55.9288 52.724 56.2408 52.822 56.6208 52.822ZM61.6024 55.48C61.2384 55.48 60.9884 55.454 60.8524 55.402C60.7164 55.35 60.6484 55.324 60.6484 55.324V54.604L61.2844 54.616C61.5124 54.624 61.7024 54.608 61.8544 54.568C62.0064 54.528 62.1284 54.474 62.2204 54.406C62.3124 54.338 62.3824 54.262 62.4304 54.178C62.4824 54.094 62.5244 54.014 62.5564 53.938L62.7724 53.35L60.3484 47.296H61.4704L63.3004 52.084L65.1184 47.296H66.2044L63.5944 53.968C63.4304 54.36 63.2484 54.666 63.0484 54.886C62.8524 55.106 62.6324 55.26 62.3884 55.348C62.1484 55.436 61.8864 55.48 61.6024 55.48ZM67.4063 53.5V47.296H68.4743V48.196C68.6463 47.924 68.8823 47.686 69.1823 47.482C69.4823 47.278 69.8723 47.176 70.3523 47.176C70.5763 47.176 70.8043 47.214 71.0363 47.29C71.2723 47.366 71.4883 47.48 71.6843 47.632C71.8803 47.784 72.0323 47.97 72.1403 48.19C72.3323 47.886 72.5923 47.642 72.9203 47.458C73.2483 47.27 73.6183 47.176 74.0303 47.176C74.2463 47.176 74.4723 47.21 74.7083 47.278C74.9443 47.342 75.1623 47.458 75.3623 47.626C75.5663 47.79 75.7323 48.02 75.8603 48.316C75.9883 48.608 76.0523 48.984 76.0523 49.444V53.5H74.9363V49.552C74.9363 49.176 74.8763 48.886 74.7563 48.682C74.6363 48.474 74.4783 48.328 74.2823 48.244C74.0903 48.16 73.8843 48.118 73.6643 48.118C73.4723 48.118 73.2683 48.156 73.0523 48.232C72.8363 48.308 72.6523 48.436 72.5003 48.616C72.3483 48.796 72.2723 49.042 72.2723 49.354V53.5H71.1683V49.228C71.1683 48.984 71.1023 48.78 70.9703 48.616C70.8423 48.452 70.6803 48.328 70.4843 48.244C70.2923 48.16 70.1003 48.118 69.9083 48.118C69.6963 48.118 69.4823 48.16 69.2663 48.244C69.0543 48.328 68.8743 48.462 68.7263 48.646C68.5823 48.826 68.5103 49.062 68.5103 49.354V53.5H67.4063ZM80.4111 53.62C79.8351 53.62 79.3271 53.494 78.8871 53.242C78.4471 52.99 78.1031 52.628 77.8551 52.156C77.6071 51.684 77.4831 51.118 77.4831 50.458C77.4831 49.806 77.5951 49.234 77.8191 48.742C78.0431 48.25 78.3671 47.866 78.7911 47.59C79.2191 47.314 79.7331 47.176 80.3331 47.176C80.9171 47.176 81.4111 47.302 81.8151 47.554C82.2191 47.806 82.5251 48.162 82.7331 48.622C82.9451 49.078 83.0511 49.62 83.0511 50.248V50.656H78.6051C78.6051 51.048 78.6691 51.404 78.7971 51.724C78.9291 52.04 79.1271 52.292 79.3911 52.48C79.6551 52.668 79.9891 52.762 80.3931 52.762C80.7891 52.762 81.1291 52.67 81.4131 52.486C81.7011 52.302 81.8851 52.036 81.9651 51.688H83.0091C82.9371 52.108 82.7691 52.462 82.5051 52.75C82.2451 53.038 81.9311 53.256 81.5631 53.404C81.1991 53.548 80.8151 53.62 80.4111 53.62ZM78.6111 49.906H81.9831C81.9831 49.55 81.9231 49.23 81.8031 48.946C81.6831 48.658 81.4991 48.432 81.2511 48.268C81.0071 48.1 80.6991 48.016 80.3271 48.016C79.9391 48.016 79.6171 48.11 79.3611 48.298C79.1051 48.482 78.9151 48.72 78.7911 49.012C78.6671 49.3 78.6071 49.598 78.6111 49.906ZM84.586 53.5V47.296H85.66V48.196C85.76 48.024 85.898 47.862 86.074 47.71C86.254 47.558 86.47 47.436 86.722 47.344C86.978 47.252 87.272 47.206 87.604 47.206C87.996 47.206 88.356 47.284 88.684 47.44C89.016 47.596 89.28 47.84 89.476 48.172C89.676 48.5 89.776 48.924 89.776 49.444V53.5H88.666V49.552C88.666 49.068 88.538 48.71 88.282 48.478C88.03 48.242 87.702 48.124 87.298 48.124C87.018 48.124 86.756 48.17 86.512 48.262C86.268 48.35 86.07 48.486 85.918 48.67C85.766 48.85 85.69 49.078 85.69 49.354V53.5H84.586ZM93.5279 53.53C93.0999 53.53 92.7679 53.472 92.5319 53.356C92.2959 53.24 92.1299 53.068 92.0339 52.84C91.9419 52.612 91.8959 52.332 91.8959 52V48.106H90.8879V47.296H91.9259L92.1959 45.49H93.0119V47.29H94.4099V48.106H93.0119V51.964C93.0119 52.184 93.0339 52.346 93.0779 52.45C93.1259 52.55 93.2039 52.614 93.3119 52.642C93.4199 52.67 93.5719 52.684 93.7679 52.684H94.4459V53.428C94.3699 53.456 94.2539 53.48 94.0979 53.5C93.9459 53.52 93.7559 53.53 93.5279 53.53Z" fill="black"/>
</svg>
