<svg width="120" height="57" viewBox="0 0 120 57" fill="none" xmlns="http://www.w3.org/2000/svg">
<path d="M1 56.5V0.5H-1V56.5H1Z" fill="black" mask="url(#path-1-inside-1_961_12353)"/>
<path d="M48.8106 8.21614C51.5317 4.43344 56.6385 2.00154 60.9924 2.41488C64.8345 2.77963 68.0285 4.50526 70.9607 7.80056L71.4357 8.33429M48.8106 8.21614L59.3292 0.53933C59.5423 0.526314 59.8212 0.509657 59.949 0.502452C60.3927 0.477272 62.0451 0.650819 62.8157 0.803524M48.8106 8.21614C47.6918 9.77132 46.7671 11.8304 46.5347 13.2836M48.8106 8.21614L46.5347 13.2836M71.4357 8.33429L71.8471 8.2947C72.3894 8.24264 72.6941 7.93475 72.6933 7.43991C72.6928 7.04865 72.6142 6.92182 71.7879 5.9777C69.5223 3.38891 66.2029 1.47462 62.8157 0.803524M71.4357 8.33429L71.4213 8.18498L71.4971 8.17769M71.4357 8.33429L71.5477 8.23458L71.4971 8.17769M62.8157 0.803524L62.7865 0.950664C66.1414 1.61535 69.4313 3.51271 71.6751 6.07648C72.0914 6.55216 72.3078 6.8094 72.4228 6.9951C72.4782 7.08459 72.5065 7.15227 72.5223 7.21542C72.5383 7.27958 72.5432 7.34669 72.5433 7.44011C72.5437 7.65543 72.4784 7.81552 72.3673 7.92782C72.2546 8.04166 72.0794 8.12171 71.8327 8.14539L71.8327 8.14539L71.4971 8.17769M62.8157 0.803524L62.7865 0.950663C62.4078 0.875622 61.8073 0.794617 61.2441 0.73546C60.6768 0.675873 60.1651 0.640431 59.9575 0.652211L59.9575 0.652214C59.83 0.659398 59.5514 0.676035 59.3384 0.689049M59.3384 0.689049C56.1346 0.885686 52.9277 2.138 50.3975 4.18143C49.3828 5.00092 48.8055 5.55386 48.1365 6.34517L48.1365 6.34518C46.5845 8.18057 45.4297 10.4927 44.9131 12.7977L44.9131 12.7977L44.7388 13.5752L44.713 13.69L44.5954 13.6924L42.6486 13.7311L40.7622 13.7686M59.3384 0.689049L50.3032 4.06473C49.283 4.88877 48.6984 5.44822 48.022 6.24832C46.4546 8.10186 45.2887 10.4359 44.7667 12.7648L44.5924 13.5424L42.6456 13.5811L40.6988 13.6199M59.3384 0.689049L46.639 13.5811H48.0929C49.8628 13.5811 50.0816 13.6261 50.326 14.0398M40.7622 13.7686L40.8049 13.7259L40.6988 13.6199M40.7622 13.7686L40.7018 13.7698L40.6988 13.6199M40.7622 13.7686L40.5518 13.9792M40.6988 13.6199L40.4457 13.8731C40.2309 14.0881 40.1927 14.1819 40.1934 14.493C40.1941 14.8466 40.2733 14.9739 42.4382 18.1012C43.8985 20.2105 44.7562 21.381 44.8935 21.452C45.1392 21.5791 45.4104 21.5913 45.683 21.4877C45.9205 21.3974 46.0012 21.2875 48.4685 17.6974C50.609 14.5826 50.6264 14.5483 50.326 14.0398M40.5518 13.9792L40.4458 13.8732L40.5518 13.9792L40.5518 13.9792ZM40.5518 13.9792C40.4466 14.0844 40.402 14.1439 40.3776 14.2036C40.3531 14.2638 40.343 14.3397 40.3434 14.4926L40.3434 14.4927C40.3435 14.5704 40.3475 14.6254 40.3805 14.7136C40.4163 14.8094 40.4872 14.9457 40.6316 15.1777C40.9196 15.6407 41.4778 16.4503 42.5616 18.0158C43.2914 19.0701 43.87 19.8888 44.283 20.4523C44.4896 20.7343 44.6538 20.9511 44.7743 21.1012C44.8347 21.1765 44.8828 21.2333 44.9189 21.2727C44.9371 21.2924 44.9508 21.3062 44.9607 21.3152C44.9641 21.3184 44.9665 21.3204 44.968 21.3216M44.968 21.3216C44.9661 21.3207 44.9643 21.3197 44.9625 21.3188C44.9672 21.3212 44.9698 21.3231 44.9698 21.3231C44.9698 21.3231 44.9692 21.3226 44.968 21.3216ZM44.968 21.3216C45.172 21.4253 45.3966 21.4361 45.6297 21.3475L45.6297 21.3475C45.672 21.3314 45.7029 21.3183 45.7657 21.2559C45.8361 21.1858 45.9396 21.0599 46.1187 20.8161C46.4752 20.3311 47.1103 19.4088 48.3448 17.6125C49.4191 16.0492 49.9503 15.2734 50.1789 14.8233C50.2926 14.5993 50.3186 14.4793 50.3138 14.3965C50.309 14.3147 50.2743 14.2472 50.1969 14.1161M50.1969 14.1161C50.1969 14.1161 50.1969 14.1161 50.1969 14.1161L50.326 14.0398M50.1969 14.1161L50.326 14.0398M50.1969 14.1161C50.1397 14.0193 50.0921 13.9584 50.0324 13.9133C49.9732 13.8685 49.8907 13.8309 49.7513 13.8023C49.4633 13.7431 48.984 13.7311 48.0929 13.7311H46.4871H46.3111L46.339 13.5574L46.3866 13.2599M46.5347 13.2836L46.3866 13.2599M46.5347 13.2836L46.3866 13.2598L46.3866 13.2599M46.3866 13.2599C46.6236 11.7778 47.5604 9.69717 48.6888 8.12855C51.4386 4.30603 56.5955 1.84678 61.0066 2.26555C64.8918 2.6344 68.1192 4.38159 71.0728 7.70085L71.4971 8.17769M69.8114 18.9191L69.8114 18.9191C69.8866 19.0298 69.9383 19.0971 69.9988 19.1459C70.0555 19.1917 70.1287 19.2278 70.2557 19.2546C70.5238 19.3112 70.979 19.3175 71.8895 19.3182L73.5255 19.3193L73.7139 19.3195L73.6715 19.5031L73.5633 19.9714C72.6112 24.0929 69.7691 27.5414 65.7686 29.439C62.0199 31.2171 58.3416 31.2843 54.5856 29.6416L54.6457 29.5042L54.5856 29.6416C52.486 28.7234 50.7585 27.4208 48.9506 25.3994L49.0624 25.2994L48.9506 25.3994C48.7182 25.1396 48.5983 25.0142 48.5067 24.9497C48.4654 24.9205 48.4338 24.907 48.4027 24.8993C48.3692 24.891 48.3291 24.8877 48.2656 24.8877C47.9904 24.8877 47.7723 24.9851 47.6321 25.1343C47.4927 25.2825 47.4203 25.4922 47.4535 25.7397L47.3048 25.7596L47.4535 25.7397C47.4621 25.8039 47.4987 25.9013 47.5736 26.0325C47.6469 26.1609 47.7504 26.3108 47.8808 26.4776C48.1415 26.8111 48.502 27.2031 48.9217 27.6125C49.7612 28.4316 50.8266 29.3103 51.7786 29.9193C53.5473 31.0508 55.818 31.9064 57.9028 32.2268C58.9691 32.3906 60.9119 32.3912 61.9795 32.2278C68.2539 31.2677 73.5204 26.5574 74.9591 20.6303C75.0924 20.081 75.2144 19.5835 75.2297 19.527L69.8114 18.9191ZM69.8114 18.9191C69.725 18.7917 69.6887 18.7284 69.6841 18.6467C69.6793 18.5604 69.7098 18.4289 69.8409 18.1773C70.1023 17.6752 70.707 16.7951 71.9241 15.0301C72.535 14.1443 73.1089 13.3261 73.5412 12.7217M69.8114 18.9191L73.5412 12.7217M73.5412 12.7217C73.7574 12.4194 73.9379 12.1712 74.0697 11.9948M73.5412 12.7217L74.0697 11.9948M74.0697 11.9948C74.1356 11.9065 74.1888 11.8372 74.2278 11.7884M74.0697 11.9948L74.2278 11.7884M74.2278 11.7884C74.2474 11.7639 74.2625 11.7457 74.2734 11.7333M74.2278 11.7884L74.2734 11.7333M74.2734 11.7333C74.2774 11.7288 74.2802 11.7258 74.282 11.7239M74.2734 11.7333L74.282 11.7239M74.282 11.7239C74.3849 11.655 74.5409 11.6219 74.7091 11.6373C74.8803 11.653 75.04 11.7168 75.1424 11.8121C75.1782 11.8454 75.2756 11.9664 75.4287 12.1724C75.5774 12.3722 75.7694 12.6394 75.9899 12.9517C76.4306 13.5761 76.983 14.3785 77.5249 15.1786C78.0669 15.9788 78.598 16.776 78.9961 17.39C79.1953 17.6972 79.3606 17.9577 79.4773 18.1495C79.5358 18.2456 79.5812 18.3231 79.6123 18.38C79.628 18.4086 79.6391 18.4303 79.6463 18.4457C79.6488 18.4512 79.6504 18.455 79.6514 18.4574C79.6691 18.5804 79.6412 18.7312 79.573 18.8741C79.5034 19.02 79.3996 19.1413 79.2867 19.208C79.2212 19.2467 79.1332 19.2782 78.8427 19.2966C78.5524 19.3149 78.0829 19.3193 77.2699 19.3193C76.5555 19.3193 76.0829 19.325 75.7859 19.3402C75.6385 19.3477 75.5278 19.3579 75.4504 19.3724C75.4125 19.3795 75.374 19.3891 75.3408 19.4043C75.3143 19.4164 75.2506 19.45 75.2297 19.5268L74.282 11.7239Z" fill="#C52031" stroke="#EAEAEA" stroke-width="0.3"/>
<path d="M55.6862 11.8513L55.6862 11.8513C55.7401 11.9796 55.7848 12.0659 55.8431 12.1302C55.8988 12.1916 55.9726 12.2389 56.0952 12.2755C56.2206 12.313 56.393 12.3382 56.6425 12.3565C56.8911 12.3747 57.21 12.3856 57.626 12.3965M55.6862 11.8513L62.3298 22.2769C62.4724 22.9264 61.867 23.4641 61.2974 23.2399L61.2974 23.2399C61.298 23.2402 61.298 23.2401 61.2971 23.2397C61.2951 23.2385 61.2884 23.2348 61.2758 23.2262C61.26 23.2155 61.2392 23.2003 61.2135 23.1804C61.1621 23.1408 61.0941 23.0851 61.0113 23.0152C60.8459 22.8754 60.6247 22.681 60.3661 22.4492C59.8491 21.9856 59.1844 21.3741 58.5213 20.7543C57.8583 20.1344 57.1973 19.5065 56.6877 19.0102C56.4329 18.762 56.2163 18.5471 56.0563 18.3828C55.9763 18.3005 55.911 18.2315 55.8623 18.1775C55.8117 18.1214 55.7844 18.0872 55.7752 18.0724L55.7752 18.0724C55.7055 17.9598 55.6648 17.7889 55.6623 17.6149C55.6597 17.4393 55.6962 17.2836 55.7576 17.196L55.7576 17.196C55.8256 17.099 55.8769 17.0346 55.9385 16.9863C55.9982 16.9394 56.0735 16.9033 56.1944 16.8754C56.4445 16.8177 56.8602 16.8008 57.6659 16.7802C58.3996 16.7613 58.7866 16.7503 59.033 16.7173C59.1586 16.7005 59.2516 16.6775 59.3378 16.6436C59.4228 16.6101 59.4977 16.5672 59.5854 16.5156M55.6862 11.8513C55.5442 11.5132 55.6687 11.1239 56.0097 10.8948C56.0097 10.8948 56.0097 10.8948 56.0097 10.8948L56.2505 10.7331L60.0739 10.7543L63.8884 10.7756M55.6862 11.8513L63.8884 10.7756M57.626 12.3965L57.6234 12.4965L57.626 12.3965ZM57.626 12.3965C58.3206 12.4147 58.7018 12.4272 58.9541 12.4593C59.2151 12.4925 59.3436 12.5474 59.5316 12.6443C59.763 12.7635 60.054 13.0074 60.2123 13.2148L60.4751 13.5592L60.5949 13.7163L60.3974 13.7199L58.2722 13.7586C57.6763 13.7695 57.2273 13.7785 56.8844 13.7944C56.5404 13.8104 56.3095 13.8332 56.1475 13.87C55.9876 13.9062 55.9041 13.954 55.8467 14.0141C55.7857 14.0779 55.7447 14.1645 55.6862 14.3038L55.5941 14.2651L55.6862 14.3038C55.5447 14.6408 55.6691 15.0314 56.0067 15.2581L56.0067 15.2582C56.0702 15.3008 56.1123 15.3271 56.1715 15.3472C56.2324 15.3679 56.3166 15.3838 56.4628 15.3949C56.757 15.4171 57.2733 15.418 58.2946 15.418C58.8672 15.418 59.3881 15.4233 59.7661 15.4319C59.955 15.4361 60.1089 15.4412 60.2161 15.4469C60.2694 15.4497 60.3127 15.4528 60.3434 15.4562C60.3582 15.4578 60.3731 15.4598 60.3857 15.4626C60.3912 15.4638 60.4016 15.4662 60.4126 15.4711C60.4177 15.4733 60.4289 15.4787 60.4404 15.4888C60.4513 15.4984 60.475 15.5239 60.475 15.565C60.475 15.6081 60.4564 15.6501 60.4401 15.681C60.4218 15.7155 60.3968 15.7533 60.368 15.792C60.3101 15.8699 60.2312 15.9598 60.1439 16.0497C59.9705 16.2281 59.7532 16.417 59.5854 16.5156M59.5854 16.5156L59.5347 16.4294L59.5854 16.5156C59.5854 16.5156 59.5854 16.5156 59.5854 16.5156ZM63.8884 10.7756L64.0961 10.9746C64.4981 11.3598 64.4303 11.961 63.9459 12.2564C63.7583 12.3708 63.6139 12.3959 62.7945 12.3962L61.8438 12.3965L61.6817 12.3965L61.7545 12.5414L61.9005 12.8319C61.9788 12.9876 62.0837 13.2411 62.1324 13.3917L62.224 13.6751L62.2456 13.7419L62.3157 13.7443L63.0814 13.7708L63.0848 13.6709L63.0814 13.7708C63.5203 13.786 63.782 13.8239 63.9556 13.9078C64.1188 13.9865 64.2135 14.1109 64.3001 14.3383C64.3611 14.4986 64.3743 14.6281 64.3454 14.751C64.3161 14.8758 64.2406 15.0059 64.1016 15.1615C63.9901 15.2864 63.9494 15.3272 63.851 15.3537C63.7351 15.3849 63.5484 15.3923 63.1424 15.4054L62.3362 15.4314L62.267 15.4337L62.2448 15.4992L62.1033 15.9154C61.7028 17.0936 60.5112 18.1256 59.2539 18.3794L58.7335 18.4844L58.5448 18.5224L58.6845 18.6549L60.4957 20.3737C61.1742 21.0176 61.6286 21.4606 61.9179 21.7641C62.0627 21.916 62.1645 22.0312 62.2318 22.1181C62.3022 22.2089 62.3254 22.2569 62.3298 22.2769L63.8884 10.7756ZM60.3387 15.6572C60.3407 15.6575 60.342 15.6577 60.3426 15.6579C60.3437 15.6581 60.3421 15.6578 60.3389 15.6568C60.3388 15.6569 60.3388 15.657 60.3387 15.6572Z" fill="#C52031" stroke="#EAEAEA" stroke-width="0.2"/>
<path d="M17.9585 53.5V44.824H19.4945L22.1105 51.988L24.7625 44.824H26.2925V53.5H25.1465V46.486L22.6325 53.5H21.5945L19.0985 46.552V53.5H17.9585ZM30.7614 53.62C30.1894 53.62 29.6894 53.498 29.2614 53.254C28.8374 53.006 28.5074 52.644 28.2714 52.168C28.0354 51.692 27.9174 51.11 27.9174 50.422C27.9174 49.774 28.0274 49.206 28.2474 48.718C28.4674 48.23 28.7894 47.852 29.2134 47.584C29.6374 47.312 30.1554 47.176 30.7674 47.176C31.3394 47.176 31.8354 47.302 32.2554 47.554C32.6754 47.802 33.0014 48.168 33.2334 48.652C33.4694 49.136 33.5874 49.726 33.5874 50.422C33.5874 51.054 33.4794 51.61 33.2634 52.09C33.0474 52.57 32.7294 52.946 32.3094 53.218C31.8934 53.486 31.3774 53.62 30.7614 53.62ZM30.7674 52.744C31.1354 52.744 31.4474 52.65 31.7034 52.462C31.9594 52.274 32.1534 52.004 32.2854 51.652C32.4214 51.3 32.4894 50.882 32.4894 50.398C32.4894 49.954 32.4294 49.556 32.3094 49.204C32.1934 48.848 32.0094 48.566 31.7574 48.358C31.5054 48.15 31.1754 48.046 30.7674 48.046C30.3914 48.046 30.0734 48.14 29.8134 48.328C29.5534 48.512 29.3554 48.78 29.2194 49.132C29.0874 49.484 29.0214 49.906 29.0214 50.398C29.0214 50.834 29.0794 51.23 29.1954 51.586C29.3154 51.942 29.5034 52.224 29.7594 52.432C30.0194 52.64 30.3554 52.744 30.7674 52.744ZM35.0625 53.5V47.296H36.1365V48.196C36.2365 48.024 36.3745 47.862 36.5505 47.71C36.7305 47.558 36.9465 47.436 37.1985 47.344C37.4545 47.252 37.7485 47.206 38.0805 47.206C38.4725 47.206 38.8325 47.284 39.1605 47.44C39.4925 47.596 39.7565 47.84 39.9525 48.172C40.1525 48.5 40.2525 48.924 40.2525 49.444V53.5H39.1425V49.552C39.1425 49.068 39.0145 48.71 38.7585 48.478C38.5065 48.242 38.1785 48.124 37.7745 48.124C37.4945 48.124 37.2325 48.17 36.9885 48.262C36.7445 48.35 36.5465 48.486 36.3945 48.67C36.2425 48.85 36.1665 49.078 36.1665 49.354V53.5H35.0625ZM44.6103 53.62C44.0343 53.62 43.5263 53.494 43.0863 53.242C42.6463 52.99 42.3023 52.628 42.0543 52.156C41.8063 51.684 41.6823 51.118 41.6823 50.458C41.6823 49.806 41.7943 49.234 42.0183 48.742C42.2423 48.25 42.5663 47.866 42.9903 47.59C43.4183 47.314 43.9323 47.176 44.5323 47.176C45.1163 47.176 45.6103 47.302 46.0143 47.554C46.4183 47.806 46.7243 48.162 46.9323 48.622C47.1443 49.078 47.2503 49.62 47.2503 50.248V50.656H42.8043C42.8043 51.048 42.8683 51.404 42.9963 51.724C43.1283 52.04 43.3263 52.292 43.5903 52.48C43.8543 52.668 44.1883 52.762 44.5923 52.762C44.9883 52.762 45.3283 52.67 45.6123 52.486C45.9003 52.302 46.0843 52.036 46.1643 51.688H47.2083C47.1363 52.108 46.9683 52.462 46.7043 52.75C46.4443 53.038 46.1303 53.256 45.7623 53.404C45.3983 53.548 45.0143 53.62 44.6103 53.62ZM42.8103 49.906H46.1823C46.1823 49.55 46.1223 49.23 46.0023 48.946C45.8823 48.658 45.6983 48.432 45.4503 48.268C45.2063 48.1 44.8983 48.016 44.5263 48.016C44.1383 48.016 43.8163 48.11 43.5603 48.298C43.3043 48.482 43.1143 48.72 42.9903 49.012C42.8663 49.3 42.8063 49.598 42.8103 49.906ZM49.3212 55.48C48.9572 55.48 48.7072 55.454 48.5712 55.402C48.4352 55.35 48.3672 55.324 48.3672 55.324V54.604L49.0032 54.616C49.2312 54.624 49.4212 54.608 49.5732 54.568C49.7252 54.528 49.8472 54.474 49.9392 54.406C50.0312 54.338 50.1012 54.262 50.1492 54.178C50.2012 54.094 50.2432 54.014 50.2752 53.938L50.4912 53.35L48.0672 47.296H49.1892L51.0192 52.084L52.8372 47.296H53.9232L51.3132 53.968C51.1492 54.36 50.9672 54.666 50.7672 54.886C50.5712 55.106 50.3512 55.26 50.1072 55.348C49.8672 55.436 49.6052 55.48 49.3212 55.48ZM60.1561 53.5V45.844H57.3541V44.824H63.9181V45.844H61.2721V53.5H60.1561ZM64.7227 53.5V47.296H65.7787V48.49C65.8827 48.194 66.0287 47.95 66.2167 47.758C66.4047 47.562 66.6187 47.416 66.8587 47.32C67.1027 47.224 67.3547 47.176 67.6147 47.176C67.7067 47.176 67.7967 47.182 67.8847 47.194C67.9727 47.206 68.0407 47.226 68.0887 47.254V48.328C68.0287 48.3 67.9507 48.282 67.8547 48.274C67.7627 48.262 67.6847 48.256 67.6207 48.256C67.3727 48.24 67.1407 48.256 66.9247 48.304C66.7087 48.348 66.5187 48.426 66.3547 48.538C66.1907 48.65 66.0607 48.798 65.9647 48.982C65.8727 49.162 65.8267 49.382 65.8267 49.642V53.5H64.7227ZM70.9393 53.62C70.5353 53.62 70.1793 53.55 69.8713 53.41C69.5673 53.266 69.3273 53.06 69.1513 52.792C68.9793 52.524 68.8933 52.2 68.8933 51.82C68.8933 51.132 69.1333 50.62 69.6133 50.284C70.0933 49.948 70.8633 49.768 71.9233 49.744L73.0273 49.714V49.228C73.0273 48.848 72.9133 48.548 72.6853 48.328C72.4573 48.104 72.1053 47.992 71.6293 47.992C71.2733 47.996 70.9593 48.08 70.6873 48.244C70.4153 48.408 70.2413 48.676 70.1653 49.048H69.1873C69.2113 48.644 69.3233 48.304 69.5233 48.028C69.7273 47.748 70.0133 47.536 70.3813 47.392C70.7493 47.248 71.1833 47.176 71.6833 47.176C72.2233 47.176 72.6713 47.252 73.0273 47.404C73.3873 47.556 73.6553 47.78 73.8313 48.076C74.0113 48.372 74.1013 48.736 74.1013 49.168V53.5H73.1533L73.0693 52.336C72.8333 52.82 72.5293 53.156 72.1573 53.344C71.7893 53.528 71.3833 53.62 70.9393 53.62ZM71.2693 52.822C71.4813 52.822 71.6893 52.784 71.8933 52.708C72.1013 52.632 72.2893 52.53 72.4573 52.402C72.6293 52.27 72.7673 52.124 72.8713 51.964C72.9753 51.8 73.0273 51.632 73.0273 51.46V50.398L72.1093 50.416C71.6333 50.424 71.2373 50.472 70.9213 50.56C70.6053 50.648 70.3673 50.786 70.2073 50.974C70.0473 51.162 69.9673 51.408 69.9673 51.712C69.9673 52.06 70.0893 52.332 70.3333 52.528C70.5773 52.724 70.8893 52.822 71.2693 52.822ZM75.8321 53.5V47.296H76.9061V48.196C77.0061 48.024 77.1441 47.862 77.3201 47.71C77.5001 47.558 77.7161 47.436 77.9681 47.344C78.2241 47.252 78.5181 47.206 78.8501 47.206C79.2421 47.206 79.6021 47.284 79.9301 47.44C80.2621 47.596 80.5261 47.84 80.7221 48.172C80.9221 48.5 81.0221 48.924 81.0221 49.444V53.5H79.9121V49.552C79.9121 49.068 79.7841 48.71 79.5281 48.478C79.2761 48.242 78.9481 48.124 78.5441 48.124C78.2641 48.124 78.0021 48.17 77.7581 48.262C77.5141 48.35 77.3161 48.486 77.1641 48.67C77.0121 48.85 76.9361 49.078 76.9361 49.354V53.5H75.8321ZM84.9313 53.62C84.4993 53.62 84.0973 53.554 83.7253 53.422C83.3573 53.286 83.0513 53.076 82.8073 52.792C82.5633 52.504 82.4113 52.138 82.3513 51.694H83.3593C83.4113 51.938 83.5113 52.142 83.6593 52.306C83.8073 52.466 83.9893 52.588 84.2053 52.672C84.4253 52.752 84.6653 52.792 84.9253 52.792C85.3453 52.792 85.6833 52.714 85.9393 52.558C86.1953 52.402 86.3233 52.162 86.3233 51.838C86.3233 51.61 86.2553 51.428 86.1193 51.292C85.9873 51.152 85.7793 51.05 85.4953 50.986L84.2113 50.668C83.7113 50.548 83.3113 50.36 83.0113 50.104C82.7153 49.848 82.5653 49.49 82.5613 49.03C82.5613 48.666 82.6493 48.346 82.8253 48.07C83.0013 47.794 83.2633 47.576 83.6113 47.416C83.9633 47.256 84.4013 47.176 84.9253 47.176C85.6013 47.176 86.1453 47.328 86.5573 47.632C86.9693 47.932 87.1853 48.374 87.2053 48.958H86.2213C86.1813 48.662 86.0493 48.428 85.8253 48.256C85.6013 48.08 85.2973 47.992 84.9133 47.992C84.5213 47.992 84.1993 48.072 83.9473 48.232C83.6993 48.388 83.5753 48.632 83.5753 48.964C83.5753 49.184 83.6633 49.358 83.8393 49.486C84.0193 49.61 84.2793 49.714 84.6193 49.798L85.8673 50.11C86.1513 50.186 86.3873 50.286 86.5753 50.41C86.7633 50.534 86.9113 50.672 87.0193 50.824C87.1273 50.976 87.2033 51.136 87.2473 51.304C87.2953 51.468 87.3193 51.626 87.3193 51.778C87.3193 52.158 87.2253 52.486 87.0373 52.762C86.8493 53.034 86.5773 53.246 86.2213 53.398C85.8653 53.546 85.4353 53.62 84.9313 53.62ZM89.5976 53.5V48.106H88.2836V47.296H89.5976V46.336C89.5976 45.844 89.7216 45.47 89.9696 45.214C90.2216 44.954 90.5976 44.824 91.0976 44.824H92.2676L92.2736 45.61H91.3496C91.0936 45.61 90.9196 45.678 90.8276 45.814C90.7356 45.95 90.6896 46.156 90.6896 46.432V47.296H92.2136V48.106H90.7076V53.5H89.5976ZM96.0556 53.62C95.4796 53.62 94.9716 53.494 94.5316 53.242C94.0916 52.99 93.7476 52.628 93.4996 52.156C93.2516 51.684 93.1276 51.118 93.1276 50.458C93.1276 49.806 93.2396 49.234 93.4636 48.742C93.6876 48.25 94.0116 47.866 94.4356 47.59C94.8636 47.314 95.3776 47.176 95.9776 47.176C96.5616 47.176 97.0556 47.302 97.4596 47.554C97.8636 47.806 98.1696 48.162 98.3776 48.622C98.5896 49.078 98.6956 49.62 98.6956 50.248V50.656H94.2496C94.2496 51.048 94.3136 51.404 94.4416 51.724C94.5736 52.04 94.7716 52.292 95.0356 52.48C95.2996 52.668 95.6336 52.762 96.0376 52.762C96.4336 52.762 96.7736 52.67 97.0576 52.486C97.3456 52.302 97.5296 52.036 97.6096 51.688H98.6536C98.5816 52.108 98.4136 52.462 98.1496 52.75C97.8896 53.038 97.5756 53.256 97.2076 53.404C96.8436 53.548 96.4596 53.62 96.0556 53.62ZM94.2556 49.906H97.6276C97.6276 49.55 97.5676 49.23 97.4476 48.946C97.3276 48.658 97.1436 48.432 96.8956 48.268C96.6516 48.1 96.3436 48.016 95.9716 48.016C95.5836 48.016 95.2616 48.11 95.0056 48.298C94.7496 48.482 94.5596 48.72 94.4356 49.012C94.3116 49.3 94.2516 49.598 94.2556 49.906ZM100.231 53.5V47.296H101.287V48.49C101.391 48.194 101.537 47.95 101.725 47.758C101.913 47.562 102.127 47.416 102.367 47.32C102.611 47.224 102.863 47.176 103.123 47.176C103.215 47.176 103.305 47.182 103.393 47.194C103.481 47.206 103.549 47.226 103.597 47.254V48.328C103.537 48.3 103.459 48.282 103.363 48.274C103.271 48.262 103.193 48.256 103.129 48.256C102.881 48.24 102.649 48.256 102.433 48.304C102.217 48.348 102.027 48.426 101.863 48.538C101.699 48.65 101.569 48.798 101.473 48.982C101.381 49.162 101.335 49.382 101.335 49.642V53.5H100.231Z" fill="black"/>
</svg>
