<svg width="120" height="57" viewBox="0 0 120 57" fill="none" xmlns="http://www.w3.org/2000/svg">
<path d="M1 57V0H-1V57H1Z" fill="black" mask="url(#path-1-inside-1_961_12359)"/>
<path fill-rule="evenodd" clip-rule="evenodd" d="M45.3292 2.04457C44.7585 2.21939 44.2446 2.64237 43.9694 3.16388L43.7752 3.53191L43.7561 13.2307L43.737 22.9295L43.4669 22.9784C42.718 23.1142 42.0517 23.6263 41.7228 24.3189C41.4476 24.8982 41.4523 25.7075 41.7341 26.2814C41.9678 26.7573 42.4522 27.2312 42.931 27.4525L43.2691 27.6087L55.2171 27.6278L67.1651 27.647V29.6552C67.1651 31.933 67.2157 32.2751 67.6461 32.9047C67.965 33.3711 68.6177 33.8225 69.1361 33.9352C69.3993 33.9923 70.5975 34.0105 73.0594 33.9944L76.6039 33.9713L77.0873 33.7333C77.6388 33.4617 78.0092 33.0788 78.2907 32.4891L78.4805 32.0915V24.1743V16.2572L78.2874 15.8453C78.0399 15.3172 77.5351 14.8142 77.0129 14.5751C76.6742 14.42 76.4642 14.381 75.826 14.3547L75.0505 14.3228L75.0303 8.99965L75.0099 3.67651L74.821 3.27885C74.5946 2.8023 74.2046 2.40051 73.7519 2.17746L73.4193 2.01355L59.4649 2.00133C51.7899 1.99461 45.4289 2.01405 45.3292 2.04457ZM73.4468 3.06577C73.5921 3.14747 73.7918 3.33213 73.8905 3.47616L74.07 3.73811L74.0895 9.03964L74.1089 14.3412H73.1697H72.2305L72.2103 9.82976C72.191 5.51032 72.1843 5.31193 72.0524 5.16624L71.9147 5.01411H59.3814C46.9444 5.01411 46.847 5.0152 46.7034 5.15872C46.5606 5.30151 46.5588 5.3997 46.5588 13.112C46.5588 20.8243 46.5606 20.9225 46.7034 21.0653C46.8467 21.2085 46.9444 21.2099 57.0066 21.2099H67.1651V22.0775V22.9452H65.536C63.8353 22.9452 63.5775 22.984 63.2376 23.2914C63.0395 23.4705 62.8269 23.9189 62.8269 24.1576C62.8269 24.2709 62.7808 24.4267 62.7243 24.504C62.6256 24.6391 62.4919 24.6449 59.1273 24.6624C56.4433 24.6763 55.5921 24.6596 55.4573 24.5901C55.3294 24.5242 55.2594 24.3998 55.1991 24.1315C55.0817 23.609 54.8489 23.2703 54.4866 23.0949C54.1834 22.9481 54.0837 22.9452 49.4281 22.9452H44.679V13.3615C44.679 3.01964 44.6577 3.59683 45.0517 3.22896C45.145 3.1419 45.3026 3.03822 45.4021 2.99853C45.5198 2.9516 50.3933 2.92492 59.3827 2.92189C73.1723 2.91733 73.1829 2.91748 73.4468 3.06577ZM71.2864 10.1476V14.3412H70.3529C68.9558 14.3412 68.2784 14.6074 67.696 15.3853C67.2289 16.0093 67.2068 16.1337 67.1796 18.2997L67.1548 20.27H57.3267H47.4988V13.112V5.95405H59.3926H71.2864V10.1476ZM56.2911 8.95736C56.1467 9.10182 56.1404 9.45183 56.2798 9.59123C56.3564 9.6678 56.6719 9.70981 57.4547 9.7477C58.5871 9.80243 58.987 9.90683 59.3419 10.2403C59.5375 10.4241 59.7519 10.7625 59.8247 11.0026L59.8758 11.1708L58.1771 11.1188L56.4784 11.0669L56.2906 11.2546C56.0656 11.4796 56.0514 11.6869 56.2474 11.8829C56.3838 12.0192 56.4884 12.0275 58.079 12.0275C59.007 12.0275 59.7872 12.0486 59.813 12.0743C59.9079 12.1693 59.4643 12.8411 59.1784 13.0353C58.7161 13.3495 58.4657 13.4012 57.4095 13.4012C56.3017 13.4012 56.1028 13.4664 56.1028 13.8298C56.1028 14.039 56.3543 14.3006 59.2208 17.0734C60.2191 18.039 60.3775 18.1156 60.6526 17.7658C60.735 17.661 60.8035 17.5227 60.8048 17.4585C60.8061 17.3943 60.1188 16.6717 59.2775 15.8527L57.7479 14.3637L58.2087 14.3182C58.8671 14.2531 59.1437 14.1587 59.6316 13.8329C60.1088 13.5142 60.5162 12.9842 60.6996 12.4432L60.8161 12.0998H61.4158C61.8831 12.0998 62.0479 12.0718 62.1619 11.9732C62.3887 11.7772 62.4163 11.5702 62.2445 11.3519C62.1015 11.1701 62.0596 11.1598 61.4594 11.1598H60.8254L60.7356 10.8526C60.6862 10.6835 60.5506 10.3744 60.4343 10.1657L60.2228 9.78609H61.1633C62.0075 9.78609 62.1187 9.77127 62.2485 9.64148C62.4301 9.45986 62.4322 9.27194 62.2549 9.05301L62.1168 8.88231L59.262 8.86184C56.7205 8.84362 56.3944 8.85411 56.2911 8.95736ZM76.7177 15.4831C77.1335 15.7003 77.4617 16.1276 77.5482 16.5645L77.5948 16.7995H72.8442H68.0935L68.1441 16.5645C68.2536 16.0563 68.5926 15.641 69.0811 15.417C69.3488 15.2942 69.63 15.2841 72.8507 15.2827L76.3311 15.2811L76.7177 15.4831ZM77.5767 23.3428V28.9463H72.8409H68.105V23.3428V17.7394H72.8409H77.5767V23.3428ZM70.6036 20.2138C70.4521 20.4301 70.4619 20.6024 70.6356 20.7761C70.7581 20.8986 70.877 20.9208 71.4129 20.9211C72.2262 20.9216 72.5557 21.017 72.8736 21.3439L73.1301 21.6076L71.913 21.6437C70.8154 21.6763 70.6859 21.6937 70.5935 21.8202C70.5372 21.8974 70.491 22.0295 70.491 22.1137C70.491 22.1979 70.5372 22.33 70.5935 22.4072C70.6858 22.5337 70.8154 22.5511 71.9088 22.5837L73.1218 22.6198L72.885 22.8892C72.5889 23.2261 72.3097 23.3058 71.4241 23.3063C70.6596 23.3068 70.491 23.3883 70.491 23.7577C70.491 24.0299 73.3177 26.7772 73.5978 26.7772C73.8877 26.7772 74.0579 26.6164 74.0579 26.3423C74.0579 26.1301 73.9529 26.0045 73.106 25.2044C72.5824 24.7097 72.154 24.2756 72.154 24.2396C72.154 24.2037 72.2435 24.174 72.3528 24.1736C72.8944 24.1717 73.6812 23.5621 73.9613 22.9271L74.113 22.5837H74.5322C75.0008 22.5837 75.1907 22.455 75.1907 22.1373C75.1907 21.8572 74.988 21.727 74.5131 21.7021L74.091 21.6799L73.961 21.3364L73.8309 20.993H74.3582C74.9742 20.993 75.2088 20.8634 75.2088 20.523C75.2088 20.3948 75.1467 20.2646 75.0471 20.1839C74.8995 20.0644 74.705 20.0531 72.8008 20.0531C70.7285 20.0531 70.7155 20.054 70.6036 20.2138ZM54.1661 24.0116C54.2266 24.0812 54.2941 24.2803 54.3161 24.454C54.3633 24.8276 54.6632 25.2378 55.0234 25.4214C55.25 25.537 55.5946 25.5479 59.035 25.5479L62.7986 25.5481L63.1253 25.3409C63.4715 25.1213 63.6487 24.8345 63.7342 24.3551C63.7625 24.196 63.818 24.0252 63.8575 23.9755C63.911 23.908 64.3392 23.8851 65.5471 23.8851H67.1651V25.295V26.7049L55.3617 26.7033C44.027 26.7018 43.5468 26.6965 43.2691 26.5678C42.7196 26.3135 42.4376 25.8794 42.4376 25.288C42.4376 24.8893 42.5699 24.564 42.8432 24.2908C43.2574 23.8768 43.0479 23.891 48.7709 23.8879C53.7161 23.8853 54.063 23.8933 54.1661 24.0116ZM77.5651 30.922C77.5414 31.9911 77.5335 32.0408 77.3411 32.3314C77.2314 32.497 77.0061 32.7222 76.8404 32.8319L76.539 33.0314L72.9485 33.0514L69.3581 33.0714L68.9677 32.8674C68.6826 32.7186 68.5184 32.5685 68.3592 32.3112C68.1461 31.9669 68.1407 31.9347 68.1179 30.8865L68.0946 29.8139H72.8422H77.5896L77.5651 30.922ZM71.5506 31.1753C71.4007 31.341 71.3981 31.5425 71.5435 31.75C71.652 31.9049 71.6987 31.9107 72.8338 31.9107C73.8829 31.9107 74.0245 31.8963 74.1311 31.7785C74.2822 31.6115 74.2853 31.3048 74.1372 31.1567C74.0432 31.0628 73.8201 31.0431 72.8469 31.0431C71.7988 31.0431 71.6572 31.0575 71.5506 31.1753Z" fill="#C52031"/>
<path d="M44.9233 52V43.324C44.9513 43.324 45.0353 43.326 45.1753 43.33C45.3193 43.33 45.4933 43.33 45.6973 43.33C45.9013 43.326 46.1133 43.326 46.3333 43.33C46.5533 43.33 46.7553 43.332 46.9393 43.336C48.0033 43.352 48.8653 43.526 49.5253 43.858C50.1893 44.186 50.6753 44.664 50.9833 45.292C51.2953 45.92 51.4513 46.692 51.4513 47.608C51.4513 48.568 51.2833 49.374 50.9473 50.026C50.6153 50.678 50.1073 51.17 49.4233 51.502C48.7433 51.834 47.8773 52 46.8253 52H44.9233ZM46.0633 51.046H46.8253C47.5413 51.046 48.1573 50.936 48.6733 50.716C49.1893 50.492 49.5853 50.13 49.8613 49.63C50.1413 49.13 50.2813 48.462 50.2813 47.626C50.2813 46.79 50.1453 46.128 49.8733 45.64C49.6053 45.152 49.2173 44.804 48.7093 44.596C48.2013 44.384 47.5893 44.278 46.8733 44.278H46.0633V51.046ZM53.2437 52V43.324H54.7797L57.3957 50.488L60.0477 43.324H61.5777V52H60.4317V44.986L57.9177 52H56.8797L54.3837 45.052V52H53.2437ZM65.8046 52V44.344H63.0026V43.324H69.5666V44.344H66.9206V52H65.8046ZM70.5956 52V51.322V50.968C70.5956 50.524 70.6776 50.14 70.8416 49.816C71.0096 49.492 71.2296 49.21 71.5016 48.97C71.7776 48.726 72.0776 48.508 72.4016 48.316C72.7296 48.124 73.0556 47.94 73.3796 47.764C73.7076 47.584 74.0076 47.398 74.2796 47.206C74.5516 47.01 74.7696 46.79 74.9336 46.546C75.1016 46.298 75.1856 46.006 75.1856 45.67C75.1856 45.23 75.0296 44.872 74.7176 44.596C74.4096 44.32 73.9916 44.182 73.4636 44.182C72.8956 44.182 72.4396 44.342 72.0956 44.662C71.7516 44.982 71.5576 45.408 71.5136 45.94H70.4096C70.4216 45.44 70.5456 44.984 70.7816 44.572C71.0176 44.156 71.3636 43.824 71.8196 43.576C72.2756 43.328 72.8376 43.204 73.5056 43.204C74.0856 43.204 74.5896 43.308 75.0176 43.516C75.4456 43.72 75.7756 44.008 76.0076 44.38C76.2436 44.748 76.3616 45.178 76.3616 45.67C76.3616 46.118 76.2796 46.502 76.1156 46.822C75.9516 47.142 75.7336 47.42 75.4616 47.656C75.1936 47.888 74.8996 48.096 74.5796 48.28C74.2596 48.464 73.9376 48.642 73.6136 48.814C73.2896 48.982 72.9936 49.16 72.7256 49.348C72.4576 49.532 72.2416 49.744 72.0776 49.984C71.9136 50.224 71.8316 50.51 71.8316 50.842V51.016H76.4096V52H70.5956Z" fill="black"/>
</svg>
