<svg width="120" height="57" viewBox="0 0 120 57" fill="none" xmlns="http://www.w3.org/2000/svg">
<path d="M52.7275 32.5C51.9275 32.5 51.2426 32.2152 50.6729 31.6455C50.1032 31.0758 49.8184 30.3909 49.8184 29.5909V3.40909C49.8184 2.60909 50.1032 1.92424 50.6729 1.35455C51.2426 0.784849 51.9275 0.5 52.7275 0.5H67.2729C68.0729 0.5 68.7578 0.784849 69.3274 1.35455C69.8971 1.92424 70.182 2.60909 70.182 3.40909V29.5909C70.182 30.3909 69.8971 31.0758 69.3274 31.6455C68.7578 32.2152 68.0729 32.5 67.2729 32.5H52.7275ZM52.7275 28.1364V29.5909H67.2729V28.1364H52.7275ZM52.7275 25.2273H67.2729V7.77273H52.7275V25.2273ZM52.7275 4.86364H67.2729V3.40909H52.7275V4.86364Z" fill="#C52031"/>
<path fill-rule="evenodd" clip-rule="evenodd" d="M51.8275 27.2364H68.1729V30.4909H51.8275V27.2364ZM51.8275 26.1273V6.87273H68.1729V26.1273H51.8275ZM51.8275 5.76364V2.50909H68.1729V5.76364H51.8275ZM51.3093 31.0091C51.7116 31.4113 52.168 31.6 52.7275 31.6H67.2729C67.8323 31.6 68.2888 31.4113 68.6911 31.0091C69.0933 30.6068 69.282 30.1503 69.282 29.5909V3.40909C69.282 2.84968 69.0933 2.3932 68.6911 1.99094C68.2888 1.58868 67.8323 1.4 67.2729 1.4H52.7275C52.168 1.4 51.7116 1.58868 51.3093 1.99094C50.907 2.3932 50.7184 2.84968 50.7184 3.40909V29.5909C50.7184 30.1503 50.907 30.6068 51.3093 31.0091ZM52.7275 29.5909V28.1364H67.2729V29.5909H52.7275ZM67.2729 25.2273H52.7275V7.77273H67.2729V25.2273ZM52.7275 3.40909V4.86364H67.2729V3.40909H52.7275ZM50.6729 31.6455C51.2426 32.2152 51.9275 32.5 52.7275 32.5H67.2729C68.0729 32.5 68.7578 32.2152 69.3274 31.6455C69.8971 31.0758 70.182 30.3909 70.182 29.5909V3.40909C70.182 2.60909 69.8971 1.92424 69.3274 1.35455C68.7578 0.784849 68.0729 0.5 67.2729 0.5H52.7275C51.9275 0.5 51.2426 0.784849 50.6729 1.35455C50.1032 1.92424 49.8184 2.60909 49.8184 3.40909V29.5909C49.8184 30.3909 50.1032 31.0758 50.6729 31.6455Z" fill="#EAEAEA"/>
<path d="M60.6307 22.3181L56.2832 17.7929V16.4999H58.5458C59.1169 16.4999 59.6098 16.3141 60.0246 15.9424C60.4394 15.5707 60.6899 15.11 60.7761 14.5606H55.6367V13.2676H60.5822C60.399 12.8905 60.127 12.5808 59.766 12.3383C59.4051 12.0959 58.9983 11.9747 58.5458 11.9747H55.6367V10.6818H63.3943V11.9747H61.2933C61.4441 12.1579 61.5788 12.3572 61.6973 12.5727C61.8158 12.7882 61.9074 13.0198 61.9721 13.2676H63.3943V14.5606H62.0852C61.999 15.4764 61.6219 16.2441 60.9539 16.8636C60.2859 17.4831 59.4832 17.7929 58.5458 17.7929H58.0771L62.4246 22.3181H60.6307Z" fill="#C52031"/>
<path d="M34.9077 53.5V44.824H38.2677C38.8917 44.824 39.4137 44.92 39.8337 45.112C40.2537 45.3 40.5677 45.572 40.7757 45.928C40.9837 46.28 41.0877 46.702 41.0877 47.194C41.0877 47.666 41.0037 48.058 40.8357 48.37C40.6717 48.682 40.4617 48.934 40.2057 49.126C39.9497 49.314 39.6837 49.46 39.4077 49.564L41.1117 53.5H39.9357L38.3517 49.762H36.0177V53.5H34.9077ZM36.0177 48.844H37.9077C38.5597 48.844 39.0637 48.712 39.4197 48.448C39.7757 48.18 39.9537 47.784 39.9537 47.26C39.9537 46.748 39.7937 46.366 39.4737 46.114C39.1577 45.858 38.7237 45.73 38.1717 45.73H36.0177V48.844ZM45.2236 53.62C44.6476 53.62 44.1396 53.494 43.6996 53.242C43.2596 52.99 42.9156 52.628 42.6676 52.156C42.4196 51.684 42.2956 51.118 42.2956 50.458C42.2956 49.806 42.4076 49.234 42.6316 48.742C42.8556 48.25 43.1796 47.866 43.6036 47.59C44.0316 47.314 44.5456 47.176 45.1456 47.176C45.7296 47.176 46.2236 47.302 46.6276 47.554C47.0316 47.806 47.3376 48.162 47.5456 48.622C47.7576 49.078 47.8636 49.62 47.8636 50.248V50.656H43.4176C43.4176 51.048 43.4816 51.404 43.6096 51.724C43.7416 52.04 43.9396 52.292 44.2036 52.48C44.4676 52.668 44.8016 52.762 45.2056 52.762C45.6016 52.762 45.9416 52.67 46.2256 52.486C46.5136 52.302 46.6976 52.036 46.7776 51.688H47.8216C47.7496 52.108 47.5816 52.462 47.3176 52.75C47.0576 53.038 46.7436 53.256 46.3756 53.404C46.0116 53.548 45.6276 53.62 45.2236 53.62ZM43.4236 49.906H46.7956C46.7956 49.55 46.7356 49.23 46.6156 48.946C46.4956 48.658 46.3116 48.432 46.0636 48.268C45.8196 48.1 45.5116 48.016 45.1396 48.016C44.7516 48.016 44.4296 48.11 44.1736 48.298C43.9176 48.482 43.7276 48.72 43.6036 49.012C43.4796 49.3 43.4196 49.598 43.4236 49.906ZM51.8945 53.62C51.3345 53.62 50.8385 53.498 50.4065 53.254C49.9785 53.01 49.6425 52.65 49.3985 52.174C49.1585 51.698 49.0385 51.114 49.0385 50.422C49.0385 49.774 49.1485 49.208 49.3685 48.724C49.5925 48.236 49.9165 47.856 50.3405 47.584C50.7685 47.312 51.2865 47.176 51.8945 47.176C52.3385 47.176 52.7365 47.262 53.0885 47.434C53.4445 47.602 53.7365 47.842 53.9645 48.154C54.1925 48.466 54.3325 48.834 54.3845 49.258H53.4005C53.3645 49.042 53.2805 48.844 53.1485 48.664C53.0205 48.484 52.8505 48.34 52.6385 48.232C52.4305 48.124 52.1845 48.07 51.9005 48.07C51.3685 48.07 50.9345 48.262 50.5985 48.646C50.2665 49.03 50.1005 49.618 50.1005 50.41C50.1005 51.126 50.2525 51.7 50.5565 52.132C50.8645 52.56 51.3165 52.774 51.9125 52.774C52.1965 52.774 52.4445 52.72 52.6565 52.612C52.8685 52.5 53.0385 52.354 53.1665 52.174C53.2945 51.99 53.3765 51.794 53.4125 51.586H54.3785C54.3265 52.002 54.1845 52.362 53.9525 52.666C53.7245 52.97 53.4325 53.206 53.0765 53.374C52.7245 53.538 52.3305 53.62 51.8945 53.62ZM55.8438 53.5V44.584H56.9238V48.208C57.0278 48.036 57.1678 47.876 57.3438 47.728C57.5198 47.576 57.7338 47.454 57.9858 47.362C58.2378 47.266 58.5298 47.218 58.8618 47.218C59.2658 47.218 59.6318 47.294 59.9598 47.446C60.2878 47.594 60.5478 47.806 60.7398 48.082C60.9318 48.358 61.0278 48.686 61.0278 49.066V53.5H59.9178V49.288C59.9178 48.916 59.7898 48.63 59.5338 48.43C59.2818 48.226 58.9518 48.124 58.5438 48.124C58.2678 48.124 58.0078 48.17 57.7638 48.262C57.5198 48.35 57.3218 48.486 57.1698 48.67C57.0218 48.85 56.9478 49.08 56.9478 49.36V53.5H55.8438ZM64.4744 53.62C64.0704 53.62 63.7144 53.55 63.4064 53.41C63.1024 53.266 62.8624 53.06 62.6864 52.792C62.5144 52.524 62.4284 52.2 62.4284 51.82C62.4284 51.132 62.6684 50.62 63.1484 50.284C63.6284 49.948 64.3984 49.768 65.4584 49.744L66.5624 49.714V49.228C66.5624 48.848 66.4484 48.548 66.2204 48.328C65.9924 48.104 65.6404 47.992 65.1644 47.992C64.8084 47.996 64.4944 48.08 64.2224 48.244C63.9504 48.408 63.7764 48.676 63.7004 49.048H62.7224C62.7464 48.644 62.8584 48.304 63.0584 48.028C63.2624 47.748 63.5484 47.536 63.9164 47.392C64.2844 47.248 64.7184 47.176 65.2184 47.176C65.7584 47.176 66.2064 47.252 66.5624 47.404C66.9224 47.556 67.1904 47.78 67.3664 48.076C67.5464 48.372 67.6364 48.736 67.6364 49.168V53.5H66.6884L66.6044 52.336C66.3684 52.82 66.0644 53.156 65.6924 53.344C65.3244 53.528 64.9184 53.62 64.4744 53.62ZM64.8044 52.822C65.0164 52.822 65.2244 52.784 65.4284 52.708C65.6364 52.632 65.8244 52.53 65.9924 52.402C66.1644 52.27 66.3024 52.124 66.4064 51.964C66.5104 51.8 66.5624 51.632 66.5624 51.46V50.398L65.6444 50.416C65.1684 50.424 64.7724 50.472 64.4564 50.56C64.1404 50.648 63.9024 50.786 63.7424 50.974C63.5824 51.162 63.5024 51.408 63.5024 51.712C63.5024 52.06 63.6244 52.332 63.8684 52.528C64.1124 52.724 64.4244 52.822 64.8044 52.822ZM69.3672 53.5V47.296H70.4232V48.49C70.5272 48.194 70.6732 47.95 70.8612 47.758C71.0492 47.562 71.2632 47.416 71.5032 47.32C71.7472 47.224 71.9992 47.176 72.2592 47.176C72.3512 47.176 72.4412 47.182 72.5292 47.194C72.6172 47.206 72.6852 47.226 72.7332 47.254V48.328C72.6732 48.3 72.5952 48.282 72.4992 48.274C72.4072 48.262 72.3292 48.256 72.2652 48.256C72.0172 48.24 71.7852 48.256 71.5692 48.304C71.3532 48.348 71.1632 48.426 70.9992 48.538C70.8352 48.65 70.7052 48.798 70.6092 48.982C70.5172 49.162 70.4712 49.382 70.4712 49.642V53.5H69.3672ZM76.4775 55.552C75.5055 55.552 74.7475 55.41 74.2035 55.126C73.6595 54.846 73.3875 54.444 73.3875 53.92C73.3875 53.696 73.4395 53.506 73.5435 53.35C73.6475 53.19 73.7715 53.058 73.9155 52.954C74.0595 52.85 74.1935 52.768 74.3175 52.708C74.4415 52.644 74.5235 52.598 74.5635 52.57C74.4915 52.53 74.4055 52.48 74.3055 52.42C74.2055 52.36 74.1155 52.28 74.0355 52.18C73.9595 52.08 73.9215 51.95 73.9215 51.79C73.9215 51.594 74.0135 51.414 74.1975 51.25C74.3815 51.086 74.6555 50.964 75.0195 50.884C74.6555 50.7 74.3715 50.456 74.1675 50.152C73.9635 49.848 73.8615 49.518 73.8615 49.162C73.8615 48.762 73.9695 48.414 74.1855 48.118C74.4015 47.822 74.7115 47.596 75.1155 47.44C75.5195 47.28 76.0015 47.2 76.5615 47.2C76.9655 47.2 77.3035 47.248 77.5755 47.344C77.8515 47.436 78.1075 47.568 78.3435 47.74C78.4075 47.712 78.5095 47.67 78.6495 47.614C78.7895 47.554 78.9415 47.49 79.1055 47.422C79.2735 47.354 79.4295 47.29 79.5735 47.23C79.7215 47.166 79.8395 47.118 79.9275 47.086L79.9215 48.112L78.8355 48.316C78.8995 48.444 78.9495 48.584 78.9855 48.736C79.0215 48.888 79.0395 49.03 79.0395 49.162C79.0395 49.526 78.9435 49.856 78.7515 50.152C78.5635 50.448 78.2775 50.684 77.8935 50.86C77.5095 51.036 77.0295 51.124 76.4535 51.124C76.4055 51.124 76.3435 51.124 76.2675 51.124C76.1955 51.12 76.1335 51.116 76.0815 51.112C75.6575 51.124 75.3655 51.172 75.2055 51.256C75.0495 51.336 74.9715 51.426 74.9715 51.526C74.9715 51.642 75.0615 51.722 75.2415 51.766C75.4215 51.81 75.7255 51.848 76.1535 51.88C76.3095 51.888 76.5015 51.898 76.7295 51.91C76.9615 51.922 77.2195 51.938 77.5035 51.958C78.1515 51.998 78.6515 52.164 79.0035 52.456C79.3555 52.748 79.5315 53.142 79.5315 53.638C79.5315 54.202 79.2795 54.662 78.7755 55.018C78.2755 55.374 77.5095 55.552 76.4775 55.552ZM76.6755 54.838C77.2475 54.838 77.6855 54.752 77.9895 54.58C78.2975 54.408 78.4515 54.148 78.4515 53.8C78.4515 53.552 78.3575 53.35 78.1695 53.194C77.9815 53.034 77.6975 52.942 77.3175 52.918L75.5775 52.804C75.4215 52.796 75.2595 52.836 75.0915 52.924C74.9235 53.008 74.7815 53.126 74.6655 53.278C74.5495 53.43 74.4915 53.602 74.4915 53.794C74.4915 54.122 74.6695 54.378 75.0255 54.562C75.3815 54.746 75.9315 54.838 76.6755 54.838ZM76.4895 50.41C76.9335 50.41 77.2915 50.306 77.5635 50.098C77.8395 49.89 77.9775 49.582 77.9775 49.174C77.9775 48.754 77.8395 48.434 77.5635 48.214C77.2915 47.994 76.9335 47.884 76.4895 47.884C76.0335 47.884 75.6655 47.996 75.3855 48.22C75.1095 48.44 74.9715 48.758 74.9715 49.174C74.9715 49.566 75.1035 49.87 75.3675 50.086C75.6355 50.302 76.0095 50.41 76.4895 50.41ZM83.7431 53.62C83.1671 53.62 82.6591 53.494 82.2191 53.242C81.7791 52.99 81.4351 52.628 81.1871 52.156C80.9391 51.684 80.8151 51.118 80.8151 50.458C80.8151 49.806 80.9271 49.234 81.1511 48.742C81.3751 48.25 81.6991 47.866 82.1231 47.59C82.5511 47.314 83.0651 47.176 83.6651 47.176C84.2491 47.176 84.7431 47.302 85.1471 47.554C85.5511 47.806 85.8571 48.162 86.0651 48.622C86.2771 49.078 86.3831 49.62 86.3831 50.248V50.656H81.9371C81.9371 51.048 82.0011 51.404 82.1291 51.724C82.2611 52.04 82.4591 52.292 82.7231 52.48C82.9871 52.668 83.3211 52.762 83.7251 52.762C84.1211 52.762 84.4611 52.67 84.7451 52.486C85.0331 52.302 85.2171 52.036 85.2971 51.688H86.3411C86.2691 52.108 86.1011 52.462 85.8371 52.75C85.5771 53.038 85.2631 53.256 84.8951 53.404C84.5311 53.548 84.1471 53.62 83.7431 53.62ZM81.9431 49.906H85.3151C85.3151 49.55 85.2551 49.23 85.1351 48.946C85.0151 48.658 84.8311 48.432 84.5831 48.268C84.3391 48.1 84.0311 48.016 83.6591 48.016C83.2711 48.016 82.9491 48.11 82.6931 48.298C82.4371 48.482 82.2471 48.72 82.1231 49.012C81.9991 49.3 81.9391 49.598 81.9431 49.906Z" fill="black"/>
</svg>
