<svg width="120" height="120" viewBox="0 0 120 120" fill="none" xmlns="http://www.w3.org/2000/svg">
<path fill-rule="evenodd" clip-rule="evenodd" d="M10 60C10 32.3858 32.3858 10 60 10C73.2608 10 85.9785 15.2678 95.3553 24.6447C104.732 34.0215 110 46.7392 110 60C110 87.6142 87.6142 110 60 110C32.3858 110 10 87.6142 10 60Z" fill="#CC7B00"/>
<path d="M74.7267 58.4476C74.4544 57.9831 73.9971 57.7271 73.4298 57.7271C72.3768 57.7309 71.1096 58.1562 70.1229 58.8362C69.2127 59.4634 67.893 60.626 66.7794 62.6081C66.5703 62.98 66.2273 63.2322 65.8603 63.292C65.859 63.2058 65.8596 63.1074 65.8596 63.0147C65.8596 62.8153 65.8603 62.5785 65.8521 62.3173V48.0768C65.8521 46.6576 64.7188 45.5034 63.3253 45.5034C61.9318 45.5034 60.7985 46.6576 60.7985 48.0768V58.0487C60.7985 58.2256 60.6564 58.3704 60.4827 58.3704C60.309 58.3704 60.1669 58.2256 60.1669 58.0487V43.5734C60.1669 42.1542 59.0336 41 57.6401 41C56.2466 41 55.1133 42.1542 55.1133 43.5734V58.0487C55.1133 58.2256 54.9712 58.3704 54.7975 58.3704C54.6238 58.3704 54.4817 58.2256 54.4817 58.0487V46.4685C54.4817 45.2268 53.4899 44.2167 52.2707 44.2167C51.0516 44.2167 50.0598 45.2268 50.0598 46.4685V59.3354C50.0598 59.5123 49.9177 59.6571 49.744 59.6571C49.5703 59.6571 49.4281 59.5123 49.4281 59.3354V51.2936C49.4281 50.0519 48.4364 49.0419 47.2109 49.0419C45.9917 49.0419 45 50.0519 45 51.2936L45.0013 68.7907C45.6127 77.7866 51.0307 79 56.2504 79C60.5749 79 64.4592 76.8152 66.3745 73.3231C66.6208 72.9178 67.2873 71.8511 68.0775 70.5863C70.0534 67.4255 71.7085 64.7698 71.9529 64.2976C72.4981 63.2463 73.1064 62.4248 73.7115 61.9217C74.2592 61.4662 74.594 60.8852 74.8663 60.3751C75.0065 60.11 75.1291 59.1353 74.7267 58.4476Z" fill="white"/>
</svg>
