<svg width="120" height="120" viewBox="0 0 120 120" fill="none" xmlns="http://www.w3.org/2000/svg">
<path fill-rule="evenodd" clip-rule="evenodd" d="M10 60C10 32.3858 32.3858 10 60 10C73.2608 10 85.9785 15.2678 95.3553 24.6447C104.732 34.0215 110 46.7392 110 60C110 87.6142 87.6142 110 60 110C32.3858 110 10 87.6142 10 60ZM58.65 78.05L81.5 48.05V47.9C82.5897 46.4709 82.8342 44.5691 82.1414 42.9109C81.4486 41.2527 79.9238 40.09 78.1414 39.8609C76.3589 39.6318 74.5897 40.3709 73.5 41.8L54.6 66.8L46.45 56.4C45.3514 54.9888 43.5834 54.2709 41.812 54.5167C40.0405 54.7625 38.5348 55.9347 37.862 57.5917C37.1891 59.2487 37.4514 61.1388 38.55 62.55L50.75 78.1C51.7041 79.3075 53.1611 80.0083 54.7 80C56.2475 79.9963 57.706 79.2762 58.65 78.05Z" fill="#8FCD34"/>
</svg>
