<svg width="62" height="50" viewBox="0 0 62 50" fill="none" xmlns="http://www.w3.org/2000/svg">
<path d="M30.6939 4.83957C28.0823 10.1513 25.5149 15.1237 22.9919 19.7567C33.8367 19.2993 43.7814 22.4568 51.6457 28.4768L53.918 24.2127C54.4344 22.1027 54.9951 19.8895 55.5853 17.5582C48.739 10.9186 40.1665 6.49211 30.6939 4.83957Z" fill="#F0EAD9"/>
<path d="M54.1393 20.8043C54.3901 19.8157 54.6557 18.7977 54.9213 17.7501C54.1541 17.0418 53.372 16.3484 52.5605 15.6844C47.3521 11.4202 41.3321 8.32173 34.781 6.59542C33.5711 6.27081 32.3464 6.00523 31.107 5.78391C30.4873 7.05282 29.8824 8.29223 29.2627 9.51688C28.3921 11.2579 27.5216 12.9548 26.6658 14.622C25.9281 16.0385 25.2051 17.4402 24.4673 18.7977C25.9281 18.7829 27.374 18.8419 28.8053 18.96C36.4925 19.5944 43.5748 22.1027 49.6096 26.1751C50.4063 26.721 51.1883 27.2817 51.9556 27.8866L52.6786 26.5144C52.8114 25.9833 52.9442 25.4373 53.0917 24.8914C53.4311 23.5635 53.7852 22.206 54.1393 20.8043ZM38.8828 19.6977C35.9614 18.7534 32.9071 18.0894 29.7496 17.7501C29.7496 17.7353 29.7643 17.7206 29.7643 17.7058C30.5611 16.1123 29.8529 14.5925 28.1265 14.445C28.8643 12.9843 29.6168 11.4793 30.3693 9.95952C31.9923 10.1956 33.8219 9.26604 34.5154 7.77581C37.2745 8.46928 39.9452 9.41359 42.5125 10.594C40.7714 10.6825 38.9861 12.0695 38.1156 14.1056C37.2155 16.2451 37.5844 18.3698 38.8828 19.6977ZM49.7129 24.9652C49.7129 24.9799 49.7129 24.9947 49.6981 24.9947C47.4259 23.4454 45.0208 22.1323 42.483 21.0404C44.2536 20.9076 45.8028 19.7715 46.4668 17.7796C47.1012 15.891 46.7766 13.6777 45.6995 12.2023C47.957 13.4564 50.0965 14.8876 52.1179 16.5107C51.749 17.8091 52.3097 19.5059 53.3278 20.3617C52.9884 21.6158 52.6786 22.8405 52.3687 24.0209C51.3211 23.1651 50.0965 23.6225 49.7129 24.9652Z" fill="#20BFCE"/>
<path d="M32.4349 2.27225C29.2627 7.22987 26.1051 11.9957 22.9771 16.5992C33.8957 17.1451 43.8847 21.3207 51.7343 28.3293L53.7409 24.5668C54.4934 22.6487 55.2754 20.6272 56.1164 18.4878C49.6981 10.9038 41.5387 5.3265 32.4349 2.27225Z" fill="#F0EAD9"/>
<path d="M32.7596 3.29031C32.0071 4.4707 31.2546 5.63633 30.5021 6.78721C29.4397 8.43975 28.3626 10.0628 27.3003 11.6563C26.3855 13.0285 25.4854 14.3859 24.5854 15.7286C26.0166 15.8614 27.4331 16.0385 28.82 16.2893C36.345 17.632 43.2798 20.7453 49.1964 25.3488C50.0965 26.0423 50.967 26.78 51.8228 27.5472C52.1917 26.6324 52.5605 25.6881 52.9442 24.7143C53.4016 23.5634 53.8737 22.3831 54.3606 21.1584C54.7 20.2879 55.0541 19.4026 55.4082 18.5025C54.6852 17.691 53.9475 16.8943 53.1802 16.127C48.2669 11.1694 42.5273 7.27412 36.2565 4.61825C35.1203 4.13134 33.9547 3.68869 32.7596 3.29031ZM49.4178 24.2569C49.4178 24.2717 49.403 24.2717 49.403 24.2864C47.1898 22.5306 44.829 20.9961 42.3502 19.6682C44.1798 19.7419 45.9061 18.8567 46.7914 17.0861C47.6324 15.3893 47.5144 13.2498 46.5848 11.6858C48.7243 13.2351 50.7752 14.9466 52.6786 16.8205C52.1917 17.9566 52.6196 19.6239 53.5786 20.6125C53.136 21.7043 52.6933 22.7667 52.2654 23.8143C51.2621 22.8257 49.9489 23.0618 49.4178 24.2569ZM31.5349 7.36265C33.0989 7.80529 35.0318 7.11181 35.8876 5.73962C38.5435 6.81672 41.096 8.1299 43.5453 9.63489C41.7895 9.45783 39.8419 10.5497 38.7353 12.4383C37.5696 14.4302 37.6729 16.5549 38.8238 17.9566C35.9761 16.732 32.9956 15.7877 29.9119 15.1384C29.9266 15.1237 29.9266 15.1089 29.9414 15.0942C30.9447 13.5744 30.4283 11.9661 28.761 11.612C29.6906 10.2251 30.6054 8.80862 31.5349 7.36265Z" fill="#15BECB"/>
<path d="M52.0293 27.7096C53.5048 24.9947 55.1131 22.0142 56.8247 18.7829C50.8047 10.6087 43.0879 4.17562 34.3973 0C30.8119 4.58875 27.2265 9.14799 23.6411 13.663C34.4268 15.1089 44.2978 20.0518 52.0293 27.7096Z" fill="#F0EAD9"/>
<path d="M34.6039 1.06235C33.7481 2.1542 32.8923 3.24606 32.0513 4.33792C30.8414 5.88718 29.6168 7.43643 28.4069 8.97093C27.374 10.2841 26.3264 11.5973 25.2936 12.9105C26.6805 13.1613 28.0527 13.4564 29.4102 13.8105C36.7138 15.7434 43.4568 19.3288 49.2259 24.2717C50.0965 25.0242 50.9522 25.8062 51.7933 26.6177C52.2359 25.8062 52.7081 24.9799 53.1655 24.1241C53.7261 23.1208 54.2868 22.0732 54.8623 21.0109C55.2754 20.2584 55.6885 19.4764 56.1164 18.6944C55.4377 17.8091 54.7442 16.9533 54.0212 16.1123C49.3882 10.6825 43.9584 6.18227 37.968 2.80342C36.8761 2.19847 35.7548 1.60828 34.6039 1.06235ZM49.5358 23.2684C49.5358 23.2831 49.521 23.2831 49.521 23.2979C47.3668 21.4093 45.0798 19.6977 42.6748 18.2075C44.5339 18.4288 46.3782 17.7648 47.4406 16.1713C48.4439 14.6515 48.4882 12.6006 47.6767 10.9628C49.7128 12.7187 51.6457 14.6368 53.4606 16.6877C52.8704 17.691 53.195 19.3288 54.1098 20.3764C53.5786 21.3355 53.0474 22.265 52.531 23.1798C51.5424 22.1322 50.185 22.206 49.5358 23.2684ZM33.0104 5.01664C34.5154 5.62159 36.5073 5.13468 37.4811 3.88052C40.0189 5.25272 42.4535 6.83148 44.7847 8.60206C43.0436 8.20368 40.9927 9.05946 39.6943 10.8153C38.3369 12.6596 38.2336 14.7696 39.2517 16.2451C36.4925 14.8138 33.6006 13.6335 30.6053 12.7334C30.6201 12.7187 30.6201 12.7039 30.6348 12.6891C31.7857 11.2284 31.4464 9.57588 29.8381 9.05946C30.9004 7.73153 31.9628 6.37408 33.0104 5.01664Z" fill="#15BECB"/>
<path d="M33.0252 23.1651C32.0366 22.1618 30.8415 21.6601 29.425 21.6601C28.0086 21.6601 26.8282 22.2355 25.8691 23.3864V21.9109H24.4084V40.8414H25.8691V30.1884C26.9315 31.354 28.1414 31.9295 29.5136 31.9295C30.8858 31.9295 32.0662 31.4278 33.04 30.4097C34.0138 29.4064 34.5007 28.1965 34.5007 26.78C34.5155 25.3783 34.0138 24.1684 33.0252 23.1651ZM31.9776 29.4802C31.2546 30.2031 30.4136 30.572 29.4398 30.572C28.4365 30.572 27.5659 30.2179 26.8577 29.4949C26.1495 28.7719 25.7954 27.8866 25.7954 26.839C25.7954 25.7767 26.1495 24.8914 26.843 24.1832C27.5364 23.4602 28.3922 23.1061 29.4103 23.1061C30.4284 23.1061 31.2989 23.4749 32.0071 24.1979C32.7154 24.9209 33.0695 25.8062 33.0695 26.839C33.0695 27.8719 32.6859 28.7424 31.9776 29.4802Z" fill="white"/>
<path d="M26.8577 29.4949C26.1495 28.7719 25.7953 27.8866 25.7953 26.839C25.7953 25.7767 26.1495 24.8914 26.8429 24.1832C27.5364 23.4602 28.3922 23.106 29.4103 23.106C30.4284 23.106 31.2989 23.4749 32.0071 24.1979C32.7154 24.9209 33.0695 25.8062 33.0695 26.839C33.0695 27.8719 32.7154 28.7571 31.9924 29.4801C31.2694 30.2031 30.4284 30.572 29.4545 30.572C28.4217 30.572 27.5659 30.2031 26.8577 29.4949Z" fill="white"/>
<path d="M57.2527 20.6715H21.0296V19.9928C21.0296 19.2255 21.6493 18.5911 22.4313 18.5911H55.8805C56.6477 18.5911 57.2822 19.2108 57.2822 19.9928V20.6715H57.2527Z" fill="#F0EAD9"/>
<path d="M33.0547 26.8243C33.0547 27.8571 32.7006 28.7424 31.9776 29.4654C31.2546 30.1884 30.4136 30.5572 29.4398 30.5572C28.4365 30.5572 27.5659 30.2031 26.8577 29.4801C26.1495 28.7572 25.7953 27.8719 25.7953 26.8243C25.7953 25.7619 26.1495 24.8766 26.8429 24.1684C27.5364 23.4454 28.3922 23.0913 29.4103 23.0913C30.4284 23.0913 31.2989 23.4602 32.0071 24.1832C32.7006 24.9209 33.0547 25.7914 33.0547 26.8243Z" fill="#F05757"/>
<path d="M45.0357 21.9109V31.6196H43.5897V30.1884C42.5273 31.354 41.3174 31.9295 39.9452 31.9295C38.573 31.9295 37.3927 31.4278 36.4041 30.4097C35.4303 29.3916 34.9286 28.1817 34.9286 26.78C34.9286 25.3783 35.4155 24.1684 36.4041 23.1651C37.3927 22.1618 38.5878 21.6601 40.0043 21.6601C41.4207 21.6601 42.6159 22.2355 43.5749 23.3864V21.9109H45.0357Z" fill="#D79C28"/>
<path d="M43.6635 26.8538C43.6635 27.8866 43.3093 28.7719 42.5864 29.4949C41.8634 30.2179 41.0223 30.5868 40.0485 30.5868C39.0452 30.5868 38.1747 30.2326 37.4664 29.5097C36.7582 28.7867 36.4041 27.9014 36.4041 26.8538C36.4041 25.7914 36.7582 24.9062 37.4517 24.1979C38.1452 23.4749 39.0009 23.1208 40.019 23.1208C41.0371 23.1208 41.9076 23.4897 42.6159 24.2127C43.3093 24.9504 43.6635 25.821 43.6635 26.8538Z" fill="#F05757"/>
<path d="M54.6263 21.9109L48.8719 39.5577H47.3374L49.2112 30.7786L45.2717 21.9109H46.8062L49.9933 29.0227L53.077 21.9109H54.6263Z" fill="#000228"/>
<path d="M43.5897 21.9109V23.3864C42.6306 22.2355 41.4355 21.6601 40.019 21.6601C38.6025 21.6601 37.3926 22.1618 36.4188 23.1651C35.4302 24.1684 34.9433 25.3783 34.9433 26.78C34.9433 28.1817 35.4302 29.3916 36.4188 30.4097C37.3926 31.4278 38.573 31.9295 39.96 31.9295C41.3322 31.9295 42.5568 31.354 43.6044 30.1884V31.6196H45.0504V21.9109H43.5897ZM42.5863 29.4949C41.8781 30.2031 41.0223 30.5573 40.0338 30.5573C39.0304 30.5573 38.1746 30.1884 37.4664 29.4506C36.7582 28.7129 36.4041 27.8276 36.4041 26.8243C36.4041 25.821 36.7582 24.9357 37.4517 24.1979C38.1451 23.4602 39.0157 23.0913 40.019 23.0913C41.0371 23.0913 41.8929 23.4454 42.5863 24.1684C43.2798 24.8914 43.6339 25.7767 43.6339 26.839C43.6634 27.9014 43.3093 28.7867 42.5863 29.4949Z" fill="white"/>
<path d="M53.077 21.9109L49.9932 29.008L46.8062 21.9109H45.2717L49.1374 30.6458L47.3374 36.1936H48.8719L54.6262 21.9109H53.077Z" fill="white"/>
<path d="M16.9423 30.5381V17.7476C16.9423 17.2988 16.7791 16.9826 16.4527 16.799C16.1263 16.6154 15.5755 16.4726 14.8003 16.3706C14.5759 16.3502 14.4637 16.1768 14.4637 15.8504C14.4637 15.728 14.4841 15.5648 14.5249 15.3608C15.0349 15.4016 15.5551 15.4424 16.0855 15.4832C16.6159 15.5036 17.1157 15.5138 17.5849 15.5138C18.0337 15.5138 18.5028 15.5036 18.9924 15.4832C19.482 15.4424 19.9614 15.4016 20.4306 15.3608C20.4714 15.5648 20.4918 15.728 20.4918 15.8504C20.4918 16.1768 20.3898 16.3502 20.1858 16.3706C19.4922 16.4726 19.0128 16.6154 18.7476 16.799C18.5028 16.9826 18.3804 17.2784 18.3804 17.6864V35.7094C18.3397 35.7298 18.2683 35.74 18.1663 35.74C18.0643 35.7604 17.9827 35.7706 17.9215 35.7706C17.7787 35.7706 17.6461 35.7298 17.5237 35.6482C17.4013 35.587 17.2585 35.4442 17.0953 35.2198L4.67193 18.8491V33.2614C4.67193 33.6694 4.81472 33.955 5.10032 34.1182C5.38591 34.2814 5.9367 34.4344 6.75268 34.5772C6.95668 34.618 7.05868 34.7812 7.05868 35.0668C7.05868 35.1892 7.03828 35.3524 6.99748 35.5564C6.48749 35.5156 5.9673 35.4748 5.43691 35.434C4.92692 35.4136 4.44753 35.4034 3.99874 35.4034C3.59075 35.4034 3.11136 35.4136 2.56057 35.434C2.00978 35.4748 1.50999 35.5156 1.0612 35.5564C1.0204 35.3524 1 35.1892 1 35.0668C1 34.7812 1.1122 34.618 1.33659 34.5772C2.07098 34.4344 2.56057 34.2814 2.80536 34.1182C3.07056 33.955 3.20316 33.6694 3.20316 33.2614V17.5334C3.20316 17.207 3.08076 16.9622 2.83596 16.799C2.61157 16.6154 2.13218 16.4726 1.39779 16.3706C1.1734 16.3298 1.0612 16.1564 1.0612 15.8504C1.0612 15.7484 1.0714 15.6566 1.0918 15.575C1.0918 15.5138 1.102 15.4424 1.1224 15.3608C1.53039 15.4016 1.91798 15.4322 2.28517 15.4526C2.61157 15.473 2.95836 15.4934 3.32555 15.5138C3.69275 15.5138 4.01914 15.5138 4.30473 15.5138C4.89632 15.5138 5.28391 15.5342 5.46751 15.575C5.67151 15.6158 5.8347 15.7178 5.9571 15.881L16.9423 30.5381Z" fill="black" stroke="black" stroke-width="0.25" stroke-miterlimit="10"/>
<path d="M40.1323 41.4894H40.6423V46.5745H40.1323V41.4894Z" fill="black"/>
<path d="M41.7229 42.8138H42.2116V43.4866C42.5988 42.972 43.0686 42.7146 43.621 42.7146C43.9043 42.7146 44.1592 42.7925 44.3859 42.9483C44.6125 43.0994 44.773 43.3001 44.8675 43.5503C44.9619 43.7959 45.0091 44.1594 45.0091 44.641V46.5745H44.5275V44.7827C44.5275 44.3436 44.5063 44.0461 44.4638 43.8903C44.426 43.7345 44.3646 43.6023 44.2796 43.4937C44.1994 43.3851 44.0955 43.3025 43.968 43.2458C43.8405 43.1891 43.6847 43.1608 43.5006 43.1608C43.3212 43.1608 43.1441 43.2057 42.9694 43.2954C42.7947 43.3851 42.646 43.5102 42.5232 43.6707C42.4005 43.8313 42.3178 43.9965 42.2753 44.1665C42.2328 44.3365 42.2116 44.6788 42.2116 45.1934V46.5745H41.7229V42.8138Z" fill="black"/>
<path d="M49.7992 41.3619V46.5745H49.3247V45.93C48.8951 46.4447 48.4017 46.702 47.8445 46.702C47.2921 46.702 46.827 46.506 46.4493 46.1141C46.0716 45.7223 45.8827 45.2525 45.8827 44.7048C45.8827 44.1571 46.0739 43.6896 46.4564 43.3025C46.8388 42.9106 47.2968 42.7146 47.8304 42.7146C48.4442 42.7146 48.9423 42.9767 49.3247 43.5008V41.3619H49.7992ZM49.3531 44.7189C49.3531 44.2893 49.2114 43.9257 48.9281 43.6282C48.6448 43.3308 48.2907 43.1821 47.8658 43.1821C47.4408 43.1821 47.0844 43.3355 46.7963 43.6424C46.513 43.9446 46.3714 44.3034 46.3714 44.7189C46.3714 45.1297 46.5178 45.4885 46.8105 45.7954C47.1032 46.1023 47.4479 46.2558 47.8445 46.2558C48.2459 46.2558 48.5976 46.1118 48.8998 45.8238C49.202 45.531 49.3531 45.1628 49.3531 44.7189Z" fill="black"/>
<path d="M50.6673 41.7656C50.6673 41.657 50.7051 41.5626 50.7806 41.4823C50.8609 41.402 50.9553 41.3619 51.0639 41.3619C51.1772 41.3619 51.2717 41.402 51.3472 41.4823C51.4275 41.5579 51.4676 41.6523 51.4676 41.7656C51.4676 41.8742 51.4275 41.9686 51.3472 42.0489C51.2717 42.1244 51.1772 42.1622 51.0639 42.1622C50.9553 42.1622 50.8609 42.1221 50.7806 42.0418C50.7051 41.9615 50.6673 41.8695 50.6673 41.7656ZM50.8231 42.8138H51.3118V46.5745H50.8231V42.8138Z" fill="black"/>
<path d="M56.0583 42.8138V46.5745H55.5838V45.93C55.1542 46.4447 54.6631 46.702 54.1107 46.702C53.5583 46.702 53.0909 46.506 52.7084 46.1141C52.3307 45.7175 52.1418 45.2477 52.1418 44.7048C52.1418 44.1571 52.3331 43.6896 52.7155 43.3025C53.0979 42.9106 53.5559 42.7146 54.0895 42.7146C54.7033 42.7146 55.2014 42.9767 55.5838 43.5008V42.8138H56.0583ZM55.6122 44.7118C55.6122 44.2822 55.4682 43.921 55.1801 43.6282C54.8921 43.3308 54.538 43.1821 54.1178 43.1821C53.7023 43.1821 53.3505 43.3355 53.0625 43.6424C52.7745 43.9446 52.6305 44.3034 52.6305 44.7189C52.6305 45.1344 52.7769 45.4956 53.0696 45.8025C53.3623 46.1047 53.7117 46.2558 54.1178 46.2558C54.5286 46.2558 54.8803 46.1094 55.1731 45.8167C55.4658 45.5239 55.6122 45.1557 55.6122 44.7118Z" fill="black"/>
<path d="M40.1323 41.4894H40.6423V46.5745H40.1323V41.4894Z" stroke="black" stroke-width="0.3" stroke-miterlimit="10"/>
<path d="M41.7229 42.8138H42.2116V43.4866C42.5988 42.972 43.0686 42.7146 43.621 42.7146C43.9043 42.7146 44.1592 42.7925 44.3859 42.9483C44.6125 43.0994 44.773 43.3001 44.8675 43.5503C44.9619 43.7959 45.0091 44.1594 45.0091 44.641V46.5745H44.5275V44.7827C44.5275 44.3436 44.5063 44.0461 44.4638 43.8903C44.426 43.7345 44.3646 43.6023 44.2796 43.4937C44.1994 43.3851 44.0955 43.3025 43.968 43.2458C43.8405 43.1891 43.6847 43.1608 43.5006 43.1608C43.3212 43.1608 43.1441 43.2057 42.9694 43.2954C42.7947 43.3851 42.646 43.5102 42.5232 43.6707C42.4005 43.8313 42.3178 43.9965 42.2753 44.1665C42.2328 44.3365 42.2116 44.6788 42.2116 45.1934V46.5745H41.7229V42.8138Z" stroke="black" stroke-width="0.3" stroke-miterlimit="10"/>
<path d="M49.7992 41.3619V46.5745H49.3247V45.93C48.8951 46.4447 48.4017 46.702 47.8445 46.702C47.2921 46.702 46.827 46.506 46.4493 46.1141C46.0716 45.7223 45.8827 45.2525 45.8827 44.7048C45.8827 44.1571 46.0739 43.6896 46.4564 43.3025C46.8388 42.9106 47.2968 42.7146 47.8304 42.7146C48.4442 42.7146 48.9423 42.9767 49.3247 43.5008V41.3619H49.7992ZM49.3531 44.7189C49.3531 44.2893 49.2114 43.9257 48.9281 43.6282C48.6448 43.3308 48.2907 43.1821 47.8658 43.1821C47.4408 43.1821 47.0844 43.3355 46.7963 43.6424C46.513 43.9446 46.3714 44.3034 46.3714 44.7189C46.3714 45.1297 46.5178 45.4885 46.8105 45.7954C47.1032 46.1023 47.4479 46.2558 47.8445 46.2558C48.2459 46.2558 48.5976 46.1118 48.8998 45.8238C49.202 45.531 49.3531 45.1628 49.3531 44.7189Z" stroke="black" stroke-width="0.3" stroke-miterlimit="10"/>
<path d="M50.6673 41.7656C50.6673 41.657 50.7051 41.5626 50.7806 41.4823C50.8609 41.402 50.9553 41.3619 51.0639 41.3619C51.1772 41.3619 51.2717 41.402 51.3472 41.4823C51.4275 41.5579 51.4676 41.6523 51.4676 41.7656C51.4676 41.8742 51.4275 41.9686 51.3472 42.0489C51.2717 42.1244 51.1772 42.1622 51.0639 42.1622C50.9553 42.1622 50.8609 42.1221 50.7806 42.0418C50.7051 41.9615 50.6673 41.8695 50.6673 41.7656ZM50.8231 42.8138H51.3118V46.5745H50.8231V42.8138Z" stroke="black" stroke-width="0.3" stroke-miterlimit="10"/>
<path d="M56.0583 42.8138V46.5745H55.5838V45.93C55.1542 46.4447 54.6631 46.702 54.1107 46.702C53.5583 46.702 53.0909 46.506 52.7084 46.1141C52.3307 45.7175 52.1418 45.2477 52.1418 44.7048C52.1418 44.1571 52.3331 43.6896 52.7155 43.3025C53.0979 42.9106 53.5559 42.7146 54.0895 42.7146C54.7033 42.7146 55.2014 42.9767 55.5838 43.5008V42.8138H56.0583ZM55.6122 44.7118C55.6122 44.2822 55.4682 43.921 55.1801 43.6282C54.8921 43.3308 54.538 43.1821 54.1178 43.1821C53.7023 43.1821 53.3505 43.3355 53.0625 43.6424C52.7745 43.9446 52.6305 44.3034 52.6305 44.7189C52.6305 45.1344 52.7769 45.4956 53.0696 45.8025C53.3623 46.1047 53.7117 46.2558 54.1178 46.2558C54.5286 46.2558 54.8803 46.1094 55.1731 45.8167C55.4658 45.5239 55.6122 45.1557 55.6122 44.7118Z" stroke="black" stroke-width="0.3" stroke-miterlimit="10"/>
<path d="M41.5978 25.6734C41.5683 25.6586 41.5535 25.6439 41.5093 25.6439H40.8748C40.8305 25.4373 40.7568 25.2603 40.6387 25.1127H41.5093C41.5388 25.1127 41.5683 25.098 41.5978 25.0832C41.6125 25.0537 41.6273 25.0389 41.6273 24.9947V24.611C41.6273 24.5815 41.6125 24.552 41.5978 24.5225C41.5683 24.493 41.5535 24.493 41.5093 24.493H38.4255C38.396 24.493 38.3665 24.5078 38.337 24.5225C38.3075 24.552 38.3075 24.5668 38.3075 24.611V25.098C38.3075 25.1275 38.3222 25.157 38.337 25.1865C38.3665 25.216 38.3812 25.216 38.4255 25.216H38.9567C39.4731 25.216 39.8125 25.3488 39.9452 25.6291H38.4107C38.3812 25.6291 38.3517 25.6439 38.3222 25.6586C38.2927 25.6882 38.2927 25.7029 38.2927 25.7472V26.1308C38.2927 26.1603 38.3075 26.1898 38.3222 26.2193C38.3517 26.2488 38.3665 26.2488 38.4107 26.2488H39.9895C39.9305 26.4554 39.8125 26.603 39.6059 26.7062C39.4141 26.8095 39.1485 26.8685 38.8239 26.8685H38.4107C38.3812 26.8685 38.3517 26.8833 38.3222 26.898C38.2927 26.9276 38.2927 26.9423 38.2927 26.9866V27.4587C38.2927 27.4882 38.3075 27.5177 38.3222 27.5473C38.7944 28.0489 39.4141 28.7572 40.1666 29.6572C40.1961 29.6867 40.2256 29.7015 40.2551 29.7015H40.9781C41.0371 29.7015 41.0666 29.672 41.0814 29.6277C41.1109 29.5834 41.0961 29.5392 41.0666 29.4949C40.3436 28.6096 39.7829 27.9456 39.3698 27.503C39.7829 27.4587 40.1371 27.3112 40.3879 27.0899C40.6535 26.8685 40.8158 26.5734 40.86 26.2193H41.4798C41.5093 26.2193 41.5388 26.2046 41.5683 26.1898C41.5978 26.1751 41.5978 26.1456 41.5978 26.1013V25.7177C41.6273 25.7177 41.6273 25.7029 41.5978 25.6734Z" fill="#EEEEF0"/>
<path d="M45.6406 13.2646C45.6258 13.2351 45.6111 13.2056 45.5816 13.1908L45.0209 12.8957C45.0799 12.6891 45.0947 12.4973 45.0652 12.3203L45.8176 12.7334C45.8472 12.7482 45.8767 12.7482 45.9062 12.7482C45.9357 12.7334 45.9652 12.7186 45.98 12.6891L46.157 12.3498C46.1718 12.3203 46.1718 12.2908 46.1718 12.2612C46.157 12.2317 46.1423 12.2022 46.1127 12.1875L43.3979 10.712C43.3683 10.6972 43.3388 10.6972 43.3093 10.6972C43.2798 10.712 43.2503 10.7267 43.2356 10.7563L42.9995 11.1841C42.9847 11.2137 42.9847 11.2432 42.9847 11.2727C42.9995 11.3022 43.0142 11.3317 43.0437 11.3464L43.5159 11.5973C43.9733 11.8481 44.1946 12.1285 44.1946 12.4383L42.8519 11.7153C42.8224 11.7006 42.7929 11.7006 42.7634 11.7006C42.7339 11.7153 42.7044 11.7301 42.6896 11.7596L42.5126 12.0989C42.4978 12.1285 42.4978 12.158 42.4978 12.1875C42.5126 12.217 42.5273 12.2465 42.5568 12.2612L43.9438 13.0137C43.7962 13.1613 43.6192 13.2351 43.3831 13.2351C43.1618 13.2351 42.8962 13.1613 42.6159 12.999L42.247 12.8072C42.2175 12.7924 42.188 12.7924 42.1585 12.7924C42.1289 12.8072 42.0994 12.8219 42.0847 12.8514L41.8634 13.2646C41.8486 13.2941 41.8486 13.3236 41.8486 13.3531C42.0257 14.0171 42.2322 14.9319 42.4683 16.0975C42.4683 16.127 42.4978 16.1565 42.5273 16.186L43.1618 16.5254C43.206 16.5549 43.2503 16.5549 43.2946 16.5254C43.3388 16.4959 43.3536 16.4516 43.3388 16.4074C43.1323 15.286 42.9405 14.4302 42.7929 13.8548C43.1913 14.0171 43.5454 14.0613 43.8848 13.9876C44.2241 13.9138 44.5045 13.7367 44.7258 13.4564L45.2717 13.7515C45.3012 13.7662 45.3307 13.7662 45.3602 13.7662C45.3898 13.7515 45.4193 13.7367 45.434 13.7072L45.6111 13.3679C45.6406 13.3383 45.6406 13.3088 45.6406 13.2646Z" fill="#F0EAD9"/>
<path d="M9.97005 47.8156H10.1962V49.9845H9.97005V48.9837H8.6129V49.9845H8.38361V47.8156H8.6129V48.7823H9.97005V47.8156Z" fill="black"/>
<path d="M11.4278 48.3423C11.8492 48.3423 12.0878 48.553 12.0878 48.9744V49.9845H11.8771V49.7304C11.778 49.8978 11.5858 50 11.3163 50C10.9476 50 10.7214 49.8079 10.7214 49.5259C10.7214 49.275 10.8825 49.0643 11.3504 49.0643H11.8678V48.9651C11.8678 48.6862 11.7098 48.5344 11.4061 48.5344C11.1954 48.5344 10.9971 48.6088 10.8639 48.7265L10.7647 48.5623C10.929 48.4229 11.1706 48.3423 11.4278 48.3423ZM11.3504 49.8265C11.5982 49.8265 11.7811 49.7088 11.8678 49.495V49.2285H11.3566C11.0405 49.2285 10.9383 49.3524 10.9383 49.5197C10.9383 49.7088 11.0901 49.8265 11.3504 49.8265Z" fill="black"/>
<path d="M13.1222 50C12.8527 50 12.5924 49.9133 12.4591 49.7986L12.5583 49.6251C12.6884 49.7273 12.9084 49.8079 13.1377 49.8079C13.4476 49.8079 13.5746 49.7026 13.5746 49.5414C13.5746 49.1169 12.518 49.4516 12.518 48.8071C12.518 48.5406 12.7473 48.3423 13.1625 48.3423C13.3732 48.3423 13.6025 48.4012 13.7388 48.4941L13.6428 48.6708C13.5002 48.5716 13.3298 48.5313 13.1625 48.5313C12.8681 48.5313 12.738 48.646 12.738 48.8009C12.738 49.2409 13.7946 48.9093 13.7946 49.5352C13.7946 49.8172 13.5467 50 13.1222 50Z" fill="black"/>
<path d="M14.6382 50C14.3686 50 14.1084 49.9133 13.9751 49.7986L14.0743 49.6251C14.2044 49.7273 14.4244 49.8079 14.6537 49.8079C14.9635 49.8079 15.0906 49.7026 15.0906 49.5414C15.0906 49.1169 14.034 49.4516 14.034 48.8071C14.034 48.5406 14.2633 48.3423 14.6785 48.3423C14.8892 48.3423 15.1185 48.4012 15.2548 48.4941L15.1587 48.6708C15.0162 48.5716 14.8458 48.5313 14.6785 48.5313C14.3841 48.5313 14.254 48.646 14.254 48.8009C14.254 49.2409 15.3106 48.9093 15.3106 49.5352C15.3106 49.8172 15.0627 50 14.6382 50Z" fill="black"/>
<path d="M15.7173 49.9845V47.6854H15.9373V49.9845H15.7173Z" fill="black"/>
<path d="M17.9716 49.1696C17.9716 49.1882 17.9685 49.213 17.9685 49.2378H16.6052C16.63 49.5786 16.8902 49.8048 17.2466 49.8048C17.4449 49.8048 17.6215 49.7335 17.7454 49.591L17.8694 49.7335C17.7237 49.9071 17.4975 50 17.2404 50C16.7322 50 16.3852 49.653 16.3852 49.1696C16.3852 48.6862 16.7229 48.3423 17.1815 48.3423C17.6401 48.3423 17.9716 48.68 17.9716 49.1696ZM17.1815 48.5313C16.8654 48.5313 16.6331 48.7544 16.6052 49.0736H17.7609C17.733 48.7544 17.5006 48.5313 17.1815 48.5313Z" fill="black"/>
<path d="M20.7641 48.0139H19.5061V48.866H20.6278V49.0643H19.5061V49.9845H19.2768V47.8156H20.7641V48.0139Z" fill="black"/>
<path d="M21.3716 48.6739C21.4738 48.457 21.6814 48.3423 21.982 48.3423V48.5561C21.9634 48.5561 21.9448 48.553 21.9293 48.553C21.5885 48.553 21.3809 48.7699 21.3809 49.1541V49.9845H21.1609V48.3547H21.3716V48.6739Z" fill="black"/>
<path d="M23.7874 49.1696C23.7874 49.1882 23.7843 49.213 23.7843 49.2378H22.4209C22.4457 49.5786 22.706 49.8048 23.0623 49.8048C23.2606 49.8048 23.4373 49.7335 23.5612 49.591L23.6851 49.7335C23.5395 49.9071 23.3133 50 23.0561 50C22.548 50 22.2009 49.653 22.2009 49.1696C22.2009 48.6862 22.5387 48.3423 22.9973 48.3423C23.4558 48.3423 23.7874 48.68 23.7874 49.1696ZM22.9973 48.5313C22.6812 48.5313 22.4488 48.7544 22.4209 49.0736H23.5767C23.5488 48.7544 23.3164 48.5313 22.9973 48.5313Z" fill="black"/>
<path d="M25.6574 49.1696C25.6574 49.1882 25.6543 49.213 25.6543 49.2378H24.2909C24.3157 49.5786 24.576 49.8048 24.9323 49.8048C25.1306 49.8048 25.3073 49.7335 25.4312 49.591L25.5551 49.7335C25.4095 49.9071 25.1833 50 24.9261 50C24.418 50 24.0709 49.653 24.0709 49.1696C24.0709 48.6862 24.4087 48.3423 24.8673 48.3423C25.3258 48.3423 25.6574 48.68 25.6574 49.1696ZM24.8673 48.5313C24.5512 48.5313 24.3188 48.7544 24.2909 49.0736H25.4467C25.4188 48.7544 25.1864 48.5313 24.8673 48.5313Z" fill="black"/>
<path d="M27.1268 48.6739C27.2291 48.457 27.4367 48.3423 27.7372 48.3423V48.5561C27.7186 48.5561 27.7 48.553 27.6845 48.553C27.3437 48.553 27.1361 48.7699 27.1361 49.1541V49.9845H26.9161V48.3547H27.1268V48.6739Z" fill="black"/>
<path d="M28.7026 48.3423C29.124 48.3423 29.3626 48.553 29.3626 48.9744V49.9845H29.1519V49.7304C29.0528 49.8978 28.8607 50 28.5911 50C28.2224 50 27.9962 49.8079 27.9962 49.5259C27.9962 49.275 28.1573 49.0643 28.6252 49.0643H29.1426V48.9651C29.1426 48.6862 28.9846 48.5344 28.681 48.5344C28.4703 48.5344 28.2719 48.6088 28.1387 48.7265L28.0396 48.5623C28.2038 48.4229 28.4455 48.3423 28.7026 48.3423ZM28.6252 49.8265C28.8731 49.8265 29.0559 49.7088 29.1426 49.495V49.2285H28.6314C28.3153 49.2285 28.2131 49.3524 28.2131 49.5197C28.2131 49.7088 28.3649 49.8265 28.6252 49.8265Z" fill="black"/>
<path d="M30.7906 48.3423C31.1872 48.3423 31.4598 48.5716 31.4598 49.0395V49.9845H31.2398V49.0612C31.2398 48.7172 31.0601 48.5406 30.7503 48.5406C30.4001 48.5406 30.1801 48.7575 30.1801 49.1293V49.9845H29.9602V48.3547H30.1709V48.6553C30.2886 48.457 30.5086 48.3423 30.7906 48.3423Z" fill="black"/>
<path d="M32.494 50C32.2244 50 31.9641 49.9133 31.8309 49.7986L31.9301 49.6251C32.0602 49.7273 32.2802 49.8079 32.5095 49.8079C32.8193 49.8079 32.9464 49.7026 32.9464 49.5414C32.9464 49.1169 31.8898 49.4516 31.8898 48.8071C31.8898 48.5406 32.1191 48.3423 32.5343 48.3423C32.745 48.3423 32.9743 48.4012 33.1106 48.4941L33.0145 48.6708C32.872 48.5716 32.7016 48.5313 32.5343 48.5313C32.2399 48.5313 32.1098 48.646 32.1098 48.8009C32.1098 49.2409 33.1664 48.9093 33.1664 49.5352C33.1664 49.8172 32.9185 50 32.494 50Z" fill="black"/>
<path d="M34.1432 48.3423C34.5646 48.3423 34.8032 48.553 34.8032 48.9744V49.9845H34.5925V49.7304C34.4933 49.8978 34.3012 50 34.0316 50C33.6629 50 33.4367 49.8079 33.4367 49.5259C33.4367 49.275 33.5979 49.0643 34.0657 49.0643H34.5832V48.9651C34.5832 48.6862 34.4252 48.5344 34.1215 48.5344C33.9108 48.5344 33.7125 48.6088 33.5793 48.7265L33.4801 48.5623C33.6443 48.4229 33.886 48.3423 34.1432 48.3423ZM34.0657 49.8265C34.3136 49.8265 34.4964 49.7088 34.5832 49.495V49.2285H34.0719C33.7559 49.2285 33.6536 49.3524 33.6536 49.5197C33.6536 49.7088 33.8055 49.8265 34.0657 49.8265Z" fill="black"/>
<path d="M36.0822 50C35.5958 50 35.2425 49.6561 35.2425 49.1696C35.2425 48.6831 35.5958 48.3423 36.0822 48.3423C36.358 48.3423 36.5904 48.4508 36.7205 48.6646L36.5563 48.7761C36.4448 48.6119 36.2712 48.5344 36.0822 48.5344C35.7259 48.5344 35.4656 48.7885 35.4656 49.1696C35.4656 49.5538 35.7259 49.8048 36.0822 49.8048C36.2712 49.8048 36.4448 49.7304 36.5563 49.5662L36.7205 49.6778C36.5904 49.8885 36.358 50 36.0822 50Z" fill="black"/>
<path d="M37.9517 49.7273L38.0291 49.8854C37.9424 49.9628 37.8122 50 37.6852 50C37.3785 50 37.208 49.8265 37.208 49.5259V48.5406H36.9168V48.3547H37.208V47.9984H37.428V48.3547H37.9238V48.5406H37.428V49.5135C37.428 49.7057 37.5272 49.811 37.71 49.811C37.7999 49.811 37.8897 49.7831 37.9517 49.7273Z" fill="black"/>
<path d="M38.5412 47.9984C38.4513 47.9984 38.38 47.9271 38.38 47.8404C38.38 47.7567 38.4513 47.6854 38.5412 47.6854C38.631 47.6854 38.7023 47.7536 38.7023 47.8373C38.7023 47.9271 38.6341 47.9984 38.5412 47.9984ZM38.4296 49.9845V48.3547H38.6496V49.9845H38.4296Z" fill="black"/>
<path d="M39.9279 50C39.4508 50 39.0975 49.653 39.0975 49.1696C39.0975 48.6862 39.4508 48.3423 39.9279 48.3423C40.4051 48.3423 40.7552 48.6862 40.7552 49.1696C40.7552 49.653 40.4051 50 39.9279 50ZM39.9279 49.8048C40.275 49.8048 40.5321 49.5507 40.5321 49.1696C40.5321 48.7885 40.275 48.5344 39.9279 48.5344C39.5809 48.5344 39.3206 48.7885 39.3206 49.1696C39.3206 49.5507 39.5809 49.8048 39.9279 49.8048Z" fill="black"/>
<path d="M42.0348 48.3423C42.4314 48.3423 42.704 48.5716 42.704 49.0395V49.9845H42.4841V49.0612C42.4841 48.7172 42.3043 48.5406 41.9945 48.5406C41.6444 48.5406 41.4244 48.7575 41.4244 49.1293V49.9845H41.2044V48.3547H41.4151V48.6553C41.5328 48.457 41.7528 48.3423 42.0348 48.3423Z" fill="black"/>
<g filter="url(#filter0_d_646_7846)">
<path d="M20.7935 21.2175C20.7935 19.7507 21.9825 18.5616 23.4493 18.5616H54.7001C56.1669 18.5616 57.3559 19.7507 57.3559 21.2175H20.7935Z" fill="#D9D9D9"/>
</g>
<path d="M47.662 23.8733L47.8981 24.3897L48.326 25.3488L48.4735 25.6734L48.8719 26.5439L49.9785 29.0228L50.554 27.6948L50.672 27.4145L50.8343 27.0456L50.9376 26.7948L50.9671 26.721C49.9047 25.7177 48.7981 24.7586 47.662 23.8733ZM56.7657 18.5616H21.3837C21.0591 18.5616 20.7935 18.8272 20.7935 19.1518V40.2659C20.7935 40.5905 21.0591 40.8561 21.3837 40.8561H24.3789V21.9109H25.8396V23.3864C26.7987 22.2355 27.9938 21.6601 29.3955 21.6601C30.812 21.6601 32.0071 22.1618 32.9957 23.1651C33.9843 24.1684 34.4712 25.3783 34.4712 26.7948C34.4712 28.2112 33.9843 29.4211 33.0105 30.4245C32.0366 31.4278 30.8563 31.9442 29.4841 31.9442C28.1119 31.9442 26.8872 31.3688 25.8396 30.2031V40.8561H25.8691V43.63C25.8691 43.63 27.6397 40.9447 31.2546 40.8561H56.7657C57.0903 40.8561 57.3559 40.5905 57.3559 40.2659V19.137C57.3559 18.8124 57.1051 18.5616 56.7657 18.5616ZM47.3079 36.1936L49.1817 30.7786L46.7325 25.2603L46.216 24.1094L46.2013 24.0946L45.6554 22.87L45.493 22.5011L45.3455 22.1618L45.2422 21.9109H46.7767L47.0571 22.5159L47.0718 22.5601L47.5587 23.6372L47.662 23.8586L47.8981 24.375L48.326 25.334L48.4735 25.6587L48.8719 26.5292L49.9785 29.008L50.554 27.6801L50.672 27.3997L50.8343 27.0309L50.9376 26.78L50.9671 26.7062L51.2327 26.1013L52.1917 23.8881L52.236 23.77L52.5016 23.1651L52.5754 23.0028L52.5901 22.9733L52.6786 22.7667L53.0475 21.9109H54.5968L54.2574 22.752L53.018 25.821L52.959 25.9538L48.8424 36.1936H47.3079ZM45.0061 31.6196H43.5602V30.1884C42.4978 31.354 41.2879 31.9295 39.9157 31.9295C38.5435 31.9295 37.3631 31.4278 36.3746 30.4097C35.4007 29.3916 34.8991 28.1817 34.8991 26.78C34.8991 25.3783 35.386 24.1684 36.3746 23.1651C37.068 22.4716 37.85 22.0142 38.7501 21.7929C39.1337 21.7044 39.5469 21.6601 39.9747 21.6601C41.3912 21.6601 42.5863 22.2355 43.5454 23.3864V21.9109H44.9914V31.6196H45.0061Z" fill="#F05757"/>
<defs>
<filter id="filter0_d_646_7846" x="16.7935" y="12.5616" width="44.5625" height="10.6559" filterUnits="userSpaceOnUse" color-interpolation-filters="sRGB">
<feFlood flood-opacity="0" result="BackgroundImageFix"/>
<feColorMatrix in="SourceAlpha" type="matrix" values="0 0 0 0 0 0 0 0 0 0 0 0 0 0 0 0 0 0 127 0" result="hardAlpha"/>
<feOffset dy="-2"/>
<feGaussianBlur stdDeviation="2"/>
<feComposite in2="hardAlpha" operator="out"/>
<feColorMatrix type="matrix" values="0 0 0 0 0 0 0 0 0 0 0 0 0 0 0 0 0 0 0.75 0"/>
<feBlend mode="normal" in2="BackgroundImageFix" result="effect1_dropShadow_646_7846"/>
<feBlend mode="normal" in="SourceGraphic" in2="effect1_dropShadow_646_7846" result="shape"/>
</filter>
</defs>
</svg>
