<?xml version="1.0" encoding="UTF-8"?>
<svg id="Layer_1" data-name="Layer 1" xmlns="http://www.w3.org/2000/svg" viewBox="0 0 22 20.62">
  <defs>
    <style>
      .cls-1 {
        fill: #003966;
        fill-rule: evenodd;
        stroke-width: 0px;
      }
    </style>
  </defs>
  <path class="cls-1" d="m11,14.61v-3.19c0-1.03.79-1.87,1.77-1.87h6.48v-1.98c0-.94-.56-1.73-1.32-1.98h0s-2.28-.02-2.28-.02l-.03-.08H5.39l-.19.07H1.59s0-.03,0-.03c-.88.17-1.58.96-1.58,1.98v10.98c0,1.15.89,2.15,1.92,2.15h15.48c1.03,0,1.85-.93,1.85-2.08v-2.01h-6.48c-.97,0-1.77-.89-1.77-1.93h0Z"/>
  <path class="cls-1" d="m20.68,11.06h-6.91c-.73,0-1.32.65-1.32,1.44v1.13c0,.8.59,1.44,1.32,1.44h6.91c.73,0,1.32-.65,1.32-1.44v-1.13c0-.8-.59-1.44-1.32-1.44h0Zm-4.09,2.7h-2.85v-1.4h2.85v1.4h0Z"/>
  <path class="cls-1" d="m5.4,5.48l9.15-3.13,1.08,3.13h1.77c.19,0,.36.04.53.1l-1.92-5.58L1.42,4.86l.16.66c.11-.02.22-.03.33-.03h3.48Z"/>
</svg>