<svg width="82" height="60" viewBox="0 0 82 60" fill="none" xmlns="http://www.w3.org/2000/svg">
<path fill-rule="evenodd" clip-rule="evenodd" d="M32.1909 0.292041C31.5383 0.618557 30.9704 1.1826 30.6699 1.80289L30.4845 2.18557V16V29.8144L30.7165 30.2548C31.0621 30.911 31.5421 31.3834 32.196 31.7105L32.7747 32H41H49.2252L49.8039 31.7105C50.4578 31.3834 50.9379 30.911 51.2834 30.2548L51.5154 29.8144V16V2.18557L51.2834 1.74515C50.9379 1.08899 50.4578 0.616578 49.8039 0.289485L49.2252 0H41H32.7747L32.1909 0.292041ZM33 1.4165C32.5881 1.53353 32.2028 1.85196 31.9889 2.25221L31.8041 2.59794L31.7818 14.1237L31.7595 25.6495H41H50.2405L50.2181 14.1237L50.1958 2.59794L50.011 2.25221C49.7899 1.83852 49.4085 1.53344 48.9587 1.41064C48.5237 1.29179 33.4193 1.29732 33 1.4165ZM37.8659 2.4485C37.3478 2.64404 37.1905 3.30986 37.5884 3.62285C37.7997 3.78911 37.8933 3.79381 41 3.79381C44.1066 3.79381 44.2002 3.78911 44.4115 3.62285C44.7128 3.3859 44.7149 2.91381 44.416 2.63291L44.2033 2.43299L41.0965 2.4174C39.3878 2.40882 37.934 2.42285 37.8659 2.4485ZM40.6144 5.62887C40.3285 5.92594 40.0927 6.25996 40.0927 6.36817C40.0927 6.38384 40.501 6.3967 41 6.3967C41.4989 6.3967 41.9072 6.38384 41.9072 6.36817C41.9072 6.20569 41.1352 5.27835 41 5.27835C40.9735 5.27835 40.8 5.43604 40.6144 5.62887ZM37.8847 6.45583C37.7663 6.96511 37.7527 7.42268 37.856 7.42268C37.8958 7.42268 38.1358 7.29781 38.3893 7.14515C38.6428 6.99249 38.9642 6.82045 39.1035 6.76272C39.2428 6.70507 39.3444 6.6165 39.3293 6.56602C39.2918 6.44058 38.6322 6.1294 38.2765 6.06928L37.986 6.02021L37.8847 6.45583ZM43.4617 6.13509C43.0557 6.24445 42.6494 6.47192 42.6494 6.58985C42.6494 6.62862 42.77 6.70878 42.9175 6.76783C43.0649 6.82697 43.3811 6.99843 43.6201 7.14895C43.8592 7.29955 44.0911 7.42268 44.1355 7.42268C44.2464 7.42268 44.2371 6.98012 44.1153 6.456C44.0047 5.98062 44.0155 5.9859 43.4617 6.13509ZM39.7845 6.88775C39.1131 7.03365 38.4378 7.39975 37.8245 7.95051C37.2467 8.46936 37.2569 8.63588 37.8406 8.21649C39.8385 6.7812 42.1557 7.04858 43.0586 8.81847C43.283 9.25839 43.4742 10.0115 43.4742 10.4558C43.4742 10.8673 43.5897 11.134 43.7678 11.134C43.9716 11.134 44.0409 10.7889 43.9678 10.1372C43.7714 8.38656 42.6953 7.14285 41.1258 6.8527C40.5349 6.74351 40.4367 6.74606 39.7845 6.88775ZM42.3195 6.90911C42.3195 6.94416 42.4522 7.04429 42.6145 7.13163C43.0362 7.35868 43.7678 8.18021 44.0549 8.74895C44.3484 9.33039 44.5435 10.1071 44.5451 10.701L44.5464 11.134H45.0412H45.536V10.8214C45.536 9.48322 44.4546 7.86012 43.091 7.15159C42.5031 6.84619 42.3195 6.78845 42.3195 6.90911ZM39.6071 7.79555C38.9402 7.98227 38.2549 8.38012 37.6583 8.92676C37.2837 9.27002 37.1237 9.47621 37.1237 9.61559C37.1237 9.91555 37.2909 9.86128 37.9168 9.3581C38.2291 9.10713 38.76 8.76437 39.0965 8.59637C39.6505 8.31983 39.7718 8.2908 40.3749 8.29064C41.6852 8.29014 42.3009 8.9167 42.5006 10.4536C42.5883 11.129 42.5907 11.134 42.828 11.134C42.9595 11.134 43.0869 11.0821 43.1112 11.0188C43.1929 10.8061 42.9784 9.62111 42.7798 9.1873C42.5453 8.67505 42.0389 8.16091 41.5224 7.91093C41.0409 7.67786 40.207 7.62755 39.6071 7.79555ZM36.1752 8.02557C35.9938 8.07357 35.8391 8.1153 35.8315 8.11835C35.7737 8.14153 36.0828 9.07274 36.201 9.23192C36.4165 9.52223 36.524 9.52668 36.5853 9.24775C36.6149 9.11274 36.7853 8.79365 36.9639 8.53872C37.1425 8.28371 37.2886 8.03967 37.2886 7.99637C37.2886 7.89476 36.6016 7.91282 36.1752 8.02557ZM44.7113 7.9906C44.7113 8.03076 44.8568 8.28148 45.0346 8.54779C45.2123 8.81402 45.3838 9.13534 45.4155 9.26177C45.4818 9.52577 45.5868 9.51761 45.799 9.23192C45.9163 9.07381 46.2282 8.13583 46.1685 8.12033C45.3263 7.90136 44.7113 7.8466 44.7113 7.9906ZM39.632 8.8052C39.4012 8.88775 39.0274 9.0739 38.8014 9.21897C38.2746 9.55703 36.9587 10.8896 36.9587 11.0852C36.9587 11.112 37.0881 11.134 37.2462 11.134C37.4965 11.134 37.6225 11.0453 38.2207 10.447C39.2785 9.38928 40.1237 9.04107 40.8734 9.35431C41.2337 9.50491 41.5897 10.1443 41.3132 10.1443C41.2586 10.1443 41.0978 10.0317 40.9557 9.89394C40.5895 9.53905 40.2167 9.49814 39.6622 9.752C39.2452 9.94293 38.1134 10.8995 38.1134 11.061C38.1134 11.1012 38.2658 11.134 38.452 11.134C38.7106 11.134 38.8272 11.0875 38.9453 10.9374C39.1382 10.6922 39.8108 10.2646 40.1151 10.1936C40.4362 10.1187 40.7525 10.4402 40.7525 10.8416C40.7525 11.1208 40.7656 11.134 41.0412 11.134C41.324 11.134 41.3299 11.1272 41.3299 10.7973C41.3299 10.3675 41.5249 10.396 41.5616 10.8311C41.5858 11.1164 41.6038 11.134 41.8709 11.134C42.1506 11.134 42.1546 11.129 42.1546 10.776C42.1546 10.0294 41.7967 9.26689 41.2801 8.91299C40.9036 8.65501 40.1836 8.60792 39.632 8.8052ZM36.7203 10.0279C36.5283 10.272 36.4998 10.4358 36.6349 10.5193C36.7658 10.6002 37.1344 10.2178 37.1065 10.0301C37.0697 9.78351 36.9132 9.7826 36.7203 10.0279ZM35.7938 10.3717C35.5875 10.5086 35.0618 11.0328 35.0618 11.1015C35.0618 11.1194 35.3216 11.134 35.6391 11.134H36.2165V10.8109C36.2165 10.6332 36.239 10.429 36.2665 10.3573C36.3351 10.1786 36.0725 10.1866 35.7938 10.3717ZM45.7334 10.3573C45.761 10.429 45.7835 10.6332 45.7835 10.8109V11.134H46.3608H46.9381V11.413C46.9381 11.6204 46.9794 11.7029 47.0989 11.7342C47.1873 11.7573 47.3356 11.9008 47.4285 12.053C47.5907 12.3191 47.5973 12.4517 47.5976 15.4474C47.5978 18.0524 47.5776 18.604 47.4747 18.8032C47.2038 19.3271 47.5715 19.299 41 19.299C34.4284 19.299 34.7962 19.3271 34.5252 18.8032C34.4223 18.604 34.4021 18.0524 34.4024 15.4474C34.4026 12.4743 34.4103 12.3174 34.5677 12.0591C34.6586 11.9101 34.7883 11.767 34.8561 11.7409C34.9519 11.7042 34.9793 11.5395 34.9793 11.0015C34.9793 10.2138 34.9562 10.1937 34.3781 10.4831C33.902 10.7215 33.5214 11.0976 33.2607 11.5876L33.0412 12V15.4639V18.9278L33.2609 19.3441C33.5396 19.8721 33.9291 20.2614 34.402 20.4846C34.7702 20.6584 34.8233 20.6598 41 20.6598H47.2268L47.6024 20.4746C48.0913 20.2337 48.4664 19.8607 48.739 19.3441L48.9587 18.9278V15.4639V12L48.7642 11.6289C48.5 11.1245 48.1279 10.746 47.6625 10.5081C47.08 10.2104 46.9381 10.236 46.9381 10.6392C46.9381 11.0167 46.8364 11.0598 46.6428 10.7644C46.3897 10.3781 45.6069 10.0276 45.7334 10.3573ZM39.5729 10.7835C39.4085 10.9082 39.2726 11.0361 39.271 11.0676C39.2693 11.0992 39.5278 11.1226 39.8453 11.1196C40.3818 11.1145 40.4226 11.1014 40.4226 10.9344C40.4226 10.511 40.0251 10.4404 39.5729 10.7835ZM36.6451 12.1089C36.5454 12.4183 36.4639 12.6967 36.4639 12.7275C36.4639 12.8396 36.8003 12.78 36.8464 12.6598C36.8725 12.5918 36.9602 12.5361 37.0412 12.5361C37.1222 12.5361 37.2099 12.5918 37.236 12.6598C37.2621 12.7278 37.3748 12.7835 37.4866 12.7835H37.6897L37.4817 12.1649C37.2912 11.5983 37.255 11.5464 37.0499 11.5464C36.8462 11.5464 36.81 11.5966 36.6451 12.1089ZM37.9647 12.1089C37.7435 12.7956 37.7436 12.7835 37.9562 12.7835C38.0574 12.7835 38.146 12.7176 38.1704 12.6242C38.2157 12.4511 38.4331 12.4798 38.5505 12.6742C38.615 12.7811 38.9381 12.8313 38.9381 12.7344C38.9381 12.7075 38.8602 12.4291 38.7652 12.1159C38.6067 11.5945 38.5733 11.5464 38.369 11.5464C38.166 11.5464 38.1295 11.5971 37.9647 12.1089ZM39.1855 12.1649V12.7835H39.5604C40.0219 12.7835 40.3402 12.5157 40.3402 12.1274C40.3402 11.7428 40.0893 11.5464 39.5979 11.5464H39.1855V12.1649ZM40.5051 12.1649C40.5051 12.7697 40.5097 12.7835 40.7113 12.7835C40.8854 12.7835 40.9175 12.745 40.9175 12.5361C40.9175 12.332 40.9511 12.2887 41.1094 12.2887C41.2757 12.2887 41.2965 12.3216 41.265 12.5361C41.2325 12.7571 41.2516 12.7835 41.4442 12.7835C41.6574 12.7835 41.6598 12.7769 41.6598 12.1649C41.6598 11.5528 41.6575 11.5464 41.4439 11.5464C41.2583 11.5464 41.2336 11.5752 41.2676 11.7526C41.3006 11.9254 41.2755 11.9588 41.1122 11.9588C40.9595 11.9588 40.9175 11.9143 40.9175 11.7526C40.9175 11.5876 40.8762 11.5464 40.7113 11.5464C40.5097 11.5464 40.5051 11.5602 40.5051 12.1649ZM42.0555 12.0207C41.9784 12.2852 41.8909 12.565 41.8612 12.6426C41.819 12.7522 41.8526 12.7835 42.0124 12.7835C42.1422 12.7835 42.2324 12.7278 42.2574 12.6323C42.2791 12.5491 42.3572 12.4811 42.4307 12.4811C42.5044 12.4811 42.5862 12.5491 42.6126 12.6323C42.6423 12.7258 42.7393 12.7835 42.8668 12.7835C43.0934 12.7835 43.0965 12.8295 42.8156 12C42.695 11.6435 42.6434 11.5844 42.4359 11.5637C42.2089 11.5411 42.1883 11.5659 42.0555 12.0207ZM43.3525 12.0575C43.2736 12.3386 43.1906 12.617 43.1679 12.676C43.1408 12.7466 43.1972 12.7835 43.332 12.7835C43.4618 12.7835 43.552 12.7278 43.577 12.6323C43.5987 12.5491 43.6767 12.4811 43.7503 12.4811C43.824 12.4811 43.9058 12.5491 43.9322 12.6323C43.9621 12.7266 44.0589 12.7835 44.1896 12.7835C44.3566 12.7835 44.3871 12.7542 44.3401 12.6392C44.3077 12.5598 44.2075 12.2814 44.1175 12.0206C43.9712 11.5965 43.9297 11.5464 43.7249 11.5464C43.5146 11.5464 43.4842 11.5882 43.3525 12.0575ZM44.5464 12.1649C44.5464 12.7285 44.561 12.7835 44.7113 12.7835C44.8323 12.7835 44.8762 12.7285 44.8762 12.5773C44.8762 12.3173 45.1021 12.2995 45.1385 12.5567C45.1555 12.676 45.2312 12.7517 45.3505 12.7687C45.5575 12.798 45.5754 12.7329 45.4505 12.4043C45.3915 12.2489 45.3915 12.1528 45.4505 12.0938C45.6985 11.8458 45.4038 11.5464 44.9116 11.5464H44.5464V12.1649ZM39.5154 12.1649C39.5154 12.5655 39.5277 12.5795 39.7683 12.4507C39.966 12.3449 39.9865 11.9165 39.7973 11.8439C39.5534 11.7503 39.5154 11.7935 39.5154 12.1649ZM44.8762 11.9107C44.8762 11.9824 44.935 12.0412 45.0068 12.0412C45.1525 12.0412 45.1271 11.8637 44.9742 11.8127C44.9203 11.7947 44.8762 11.8388 44.8762 11.9107ZM42.3722 12.0825C42.3461 12.1505 42.3607 12.2062 42.4046 12.2062C42.4485 12.2062 42.4845 12.1505 42.4845 12.0825C42.4845 12.0144 42.4699 11.9588 42.4521 11.9588C42.4343 11.9588 42.3983 12.0144 42.3722 12.0825ZM43.6918 12.0825C43.6657 12.1505 43.6803 12.2062 43.7242 12.2062C43.7681 12.2062 43.8041 12.1505 43.8041 12.0825C43.8041 12.0144 43.7895 11.9588 43.7717 11.9588C43.7539 11.9588 43.7179 12.0144 43.6918 12.0825ZM36.9587 12.1237C36.9587 12.1691 36.9958 12.2062 37.0412 12.2062C37.0866 12.2062 37.1237 12.1691 37.1237 12.1237C37.1237 12.0784 37.0866 12.0412 37.0412 12.0412C36.9958 12.0412 36.9587 12.0784 36.9587 12.1237ZM38.2783 12.1237C38.2783 12.1691 38.3177 12.2062 38.3657 12.2062C38.4137 12.2062 38.4301 12.1691 38.402 12.1237C38.374 12.0784 38.3347 12.0412 38.3147 12.0412C38.2946 12.0412 38.2783 12.0784 38.2783 12.1237ZM36.081 13.0303C35.6625 13.1991 35.6391 13.3301 35.6391 15.5091C35.6391 17.5071 35.642 17.5409 35.8247 17.7115C36.1064 17.9744 36.3819 18.0082 36.6907 17.8175C36.9535 17.6551 36.9587 17.6402 36.9587 17.0489V16.4459L37.4915 16.3546C38.6118 16.1627 39.1924 15.3332 38.9839 14.222C38.9017 13.7838 38.2681 13.172 37.7652 13.0454C37.3229 12.9339 36.3413 12.9251 36.081 13.0303ZM40.6185 13.1062C40.4517 13.208 40.3158 13.3896 40.233 13.6214C40.1628 13.8183 40.0254 14.1835 39.9279 14.433C39.8303 14.6825 39.7189 14.9794 39.6802 15.0928C39.6416 15.2062 39.4588 15.6886 39.274 16.1647C38.8278 17.3146 38.8293 17.6289 39.2821 17.863C39.6802 18.0688 40.1959 17.7886 40.3012 17.3092C40.353 17.0732 40.356 17.0722 40.988 17.0722H41.6228L41.7856 17.4227C42.0064 17.898 42.3196 18.0492 42.7038 17.866C43.0075 17.7212 43.1781 17.3994 43.0976 17.1231C43.0513 16.9645 42.9426 16.6722 42.3575 15.134C41.6516 13.2783 41.6466 13.2679 41.3833 13.1074C41.0587 12.9094 40.9416 12.9093 40.6185 13.1062ZM43.1031 13.0417C42.5668 13.3414 42.6016 13.7001 43.266 14.7236L43.8 15.5464L43.8021 16.3795C43.8044 17.3599 43.8991 17.6915 44.2247 17.86C44.5233 18.0144 44.8273 17.9438 45.0425 17.6703C45.1834 17.4912 45.2061 17.3348 45.2063 16.5456L45.2065 15.6289L45.7835 14.7629C46.3835 13.8623 46.4574 13.6181 46.2287 13.2915C45.8748 12.7862 45.3534 12.9128 44.9018 13.6139C44.729 13.8821 44.5636 14.1019 44.5343 14.1024C44.505 14.1028 44.3654 13.9229 44.2241 13.7027C44.0828 13.4824 43.9026 13.244 43.8238 13.173C43.6229 12.9919 43.2979 12.9328 43.1031 13.0417ZM36.9587 14.6804C36.9587 14.9902 36.9735 15.0103 37.2003 15.0103C37.4088 15.0103 37.701 14.8353 37.701 14.7104C37.701 14.5111 37.4973 14.3505 37.2445 14.3505C36.9661 14.3505 36.9587 14.359 36.9587 14.6804ZM40.9587 15.5876C40.9307 15.633 40.9471 15.6701 40.9951 15.6701C41.0431 15.6701 41.0824 15.633 41.0824 15.5876C41.0824 15.5423 41.0661 15.5052 41.0461 15.5052C41.026 15.5052 40.9868 15.5423 40.9587 15.5876ZM31.7793 28.2268C31.8108 29.2244 31.8434 29.4543 31.995 29.7478C32.2077 30.1594 32.5885 30.4657 33.0412 30.5894C33.5033 30.7156 48.4966 30.7156 48.9587 30.5894C49.4114 30.4657 49.7922 30.1594 50.0049 29.7478C50.1565 29.4543 50.1892 29.2244 50.2207 28.2268L50.2579 27.0515H41H31.7421L31.7793 28.2268ZM40.1071 28.397C39.8456 28.6755 39.8637 29.1335 40.1451 29.3548C40.3224 29.4943 40.4799 29.5258 41 29.5258C41.7992 29.5258 42.0721 29.36 42.0721 28.8744C42.0721 28.3532 41.8338 28.2062 40.9884 28.2062C40.3613 28.2062 40.2673 28.2266 40.1071 28.397Z" fill="#1ABC9C"/>
<path d="M0.703516 56L4.58102 45.155H6.89852L10.776 56H8.59352L7.70852 53.4875H3.80102L2.90102 56H0.703516ZM4.29602 51.575H7.17602L5.74352 47.2625L4.29602 51.575ZM14.4295 56.15C13.9395 56.15 13.4945 56.0575 13.0945 55.8725C12.6995 55.6875 12.387 55.42 12.157 55.07C11.927 54.715 11.812 54.285 11.812 53.78C11.812 52.93 12.1295 52.285 12.7645 51.845C13.3995 51.4 14.402 51.17 15.772 51.155L16.747 51.14V50.675C16.747 50.32 16.642 50.0475 16.432 49.8575C16.227 49.6625 15.9045 49.5675 15.4645 49.5725C15.1495 49.5775 14.847 49.6525 14.557 49.7975C14.272 49.9425 14.0745 50.195 13.9645 50.555H12.142C12.172 49.995 12.3345 49.535 12.6295 49.175C12.9295 48.81 13.332 48.54 13.837 48.365C14.342 48.185 14.9195 48.095 15.5695 48.095C16.3595 48.095 16.9945 48.195 17.4745 48.395C17.9545 48.59 18.302 48.8725 18.517 49.2425C18.737 49.6075 18.847 50.0425 18.847 50.5475V56H17.017L16.837 54.665C16.572 55.225 16.2395 55.6125 15.8395 55.8275C15.4445 56.0425 14.9745 56.15 14.4295 56.15ZM15.172 54.71C15.367 54.71 15.557 54.675 15.742 54.605C15.932 54.53 16.102 54.4325 16.252 54.3125C16.402 54.1875 16.5195 54.0475 16.6045 53.8925C16.6945 53.7375 16.742 53.5775 16.747 53.4125V52.265L15.9595 52.28C15.5945 52.285 15.2545 52.33 14.9395 52.415C14.6245 52.495 14.3695 52.6275 14.1745 52.8125C13.9845 52.9975 13.8895 53.2475 13.8895 53.5625C13.8895 53.9225 14.012 54.205 14.257 54.41C14.507 54.61 14.812 54.71 15.172 54.71ZM23.5555 56.15C22.5155 56.15 21.7055 55.7925 21.1255 55.0775C20.5455 54.3575 20.2555 53.3575 20.2555 52.0775C20.2555 51.2675 20.373 50.565 20.608 49.97C20.843 49.375 21.1905 48.915 21.6505 48.59C22.1105 48.26 22.673 48.095 23.338 48.095C23.618 48.095 23.878 48.1275 24.118 48.1925C24.363 48.2525 24.5855 48.3375 24.7855 48.4475C24.9855 48.5575 25.1605 48.685 25.3105 48.83C25.4605 48.975 25.583 49.13 25.678 49.295V44.855H27.8755V56H26.2855L26.038 54.41C25.963 54.625 25.863 54.835 25.738 55.04C25.618 55.245 25.4605 55.4325 25.2655 55.6025C25.0705 55.7675 24.8305 55.9 24.5455 56C24.2655 56.1 23.9355 56.15 23.5555 56.15ZM24.0355 54.575C24.5855 54.575 24.9955 54.3825 25.2655 53.9975C25.5405 53.6125 25.678 52.9625 25.678 52.0475C25.673 51.5175 25.6105 51.0775 25.4905 50.7275C25.3705 50.3775 25.1905 50.1175 24.9505 49.9475C24.7155 49.7725 24.4155 49.685 24.0505 49.685C23.5755 49.685 23.1805 49.8675 22.8655 50.2325C22.5505 50.5925 22.393 51.1975 22.393 52.0475C22.393 52.9125 22.5405 53.55 22.8355 53.96C23.1305 54.37 23.5305 54.575 24.0355 54.575ZM29.793 56V44.855H31.968V49.3625C32.093 49.1825 32.2505 49.005 32.4405 48.83C32.6305 48.65 32.868 48.5 33.153 48.38C33.438 48.26 33.7855 48.2 34.1955 48.2C34.6905 48.2 35.1405 48.2975 35.5455 48.4925C35.9555 48.6825 36.283 48.96 36.528 49.325C36.778 49.69 36.903 50.135 36.903 50.66V56H34.7055V50.9825C34.7055 50.6325 34.578 50.365 34.323 50.18C34.073 49.99 33.768 49.895 33.408 49.895C33.173 49.895 32.9455 49.9375 32.7255 50.0225C32.5055 50.1075 32.3255 50.2375 32.1855 50.4125C32.0505 50.5825 31.983 50.795 31.983 51.05V56H29.793ZM40.9285 56.15C40.4385 56.15 39.9935 56.0575 39.5935 55.8725C39.1985 55.6875 38.886 55.42 38.656 55.07C38.426 54.715 38.311 54.285 38.311 53.78C38.311 52.93 38.6285 52.285 39.2635 51.845C39.8985 51.4 40.901 51.17 42.271 51.155L43.246 51.14V50.675C43.246 50.32 43.141 50.0475 42.931 49.8575C42.726 49.6625 42.4035 49.5675 41.9635 49.5725C41.6485 49.5775 41.346 49.6525 41.056 49.7975C40.771 49.9425 40.5735 50.195 40.4635 50.555H38.641C38.671 49.995 38.8335 49.535 39.1285 49.175C39.4285 48.81 39.831 48.54 40.336 48.365C40.841 48.185 41.4185 48.095 42.0685 48.095C42.8585 48.095 43.4935 48.195 43.9735 48.395C44.4535 48.59 44.801 48.8725 45.016 49.2425C45.236 49.6075 45.346 50.0425 45.346 50.5475V56H43.516L43.336 54.665C43.071 55.225 42.7385 55.6125 42.3385 55.8275C41.9435 56.0425 41.4735 56.15 40.9285 56.15ZM41.671 54.71C41.866 54.71 42.056 54.675 42.241 54.605C42.431 54.53 42.601 54.4325 42.751 54.3125C42.901 54.1875 43.0185 54.0475 43.1035 53.8925C43.1935 53.7375 43.241 53.5775 43.246 53.4125V52.265L42.4585 52.28C42.0935 52.285 41.7535 52.33 41.4385 52.415C41.1235 52.495 40.8685 52.6275 40.6735 52.8125C40.4835 52.9975 40.3885 53.2475 40.3885 53.5625C40.3885 53.9225 40.511 54.205 40.756 54.41C41.006 54.61 41.311 54.71 41.671 54.71ZM47.1221 56V48.245H49.2296V50.0825C49.3546 49.6875 49.5296 49.3425 49.7546 49.0475C49.9846 48.7475 50.2621 48.515 50.5871 48.35C50.9121 48.18 51.2796 48.095 51.6896 48.095C51.7596 48.095 51.8246 48.1 51.8846 48.11C51.9496 48.115 51.9971 48.125 52.0271 48.14V50.225C51.9821 50.205 51.9271 50.1925 51.8621 50.1875C51.8021 50.1825 51.7471 50.1775 51.6971 50.1725C51.2671 50.1375 50.8996 50.15 50.5946 50.21C50.2896 50.27 50.0421 50.3725 49.8521 50.5175C49.6621 50.6625 49.5246 50.84 49.4396 51.05C49.3546 51.26 49.3121 51.495 49.3121 51.755V56H47.1221ZM56.965 56V45.155H60.955C61.745 45.155 62.4525 45.2925 63.0775 45.5675C63.7025 45.8375 64.195 46.2375 64.555 46.7675C64.92 47.2975 65.1025 47.945 65.1025 48.71C65.1025 49.43 64.9425 50.045 64.6225 50.555C64.3025 51.065 63.8525 51.455 63.2725 51.725C62.6975 51.995 62.02 52.13 61.24 52.13H59.17V56H56.965ZM59.1475 50.435H61.18C61.73 50.435 62.18 50.26 62.53 49.91C62.88 49.555 63.055 49.1175 63.055 48.5975C63.055 48.0575 62.87 47.63 62.5 47.315C62.13 46.995 61.68 46.835 61.15 46.835H59.1475V50.435ZM68.5701 56.15C68.0801 56.15 67.6351 56.0575 67.2351 55.8725C66.8401 55.6875 66.5276 55.42 66.2976 55.07C66.0676 54.715 65.9526 54.285 65.9526 53.78C65.9526 52.93 66.2701 52.285 66.9051 51.845C67.5401 51.4 68.5426 51.17 69.9126 51.155L70.8876 51.14V50.675C70.8876 50.32 70.7826 50.0475 70.5726 49.8575C70.3676 49.6625 70.0451 49.5675 69.6051 49.5725C69.2901 49.5775 68.9876 49.6525 68.6976 49.7975C68.4126 49.9425 68.2151 50.195 68.1051 50.555H66.2826C66.3126 49.995 66.4751 49.535 66.7701 49.175C67.0701 48.81 67.4726 48.54 67.9776 48.365C68.4826 48.185 69.0601 48.095 69.7101 48.095C70.5001 48.095 71.1351 48.195 71.6151 48.395C72.0951 48.59 72.4426 48.8725 72.6576 49.2425C72.8776 49.6075 72.9876 50.0425 72.9876 50.5475V56H71.1576L70.9776 54.665C70.7126 55.225 70.3801 55.6125 69.9801 55.8275C69.5851 56.0425 69.1151 56.15 68.5701 56.15ZM69.3126 54.71C69.5076 54.71 69.6976 54.675 69.8826 54.605C70.0726 54.53 70.2426 54.4325 70.3926 54.3125C70.5426 54.1875 70.6601 54.0475 70.7451 53.8925C70.8351 53.7375 70.8826 53.5775 70.8876 53.4125V52.265L70.1001 52.28C69.7351 52.285 69.3951 52.33 69.0801 52.415C68.7651 52.495 68.5101 52.6275 68.3151 52.8125C68.1251 52.9975 68.0301 53.2475 68.0301 53.5625C68.0301 53.9225 68.1526 54.205 68.3976 54.41C68.6476 54.61 68.9526 54.71 69.3126 54.71ZM75.7004 58.475C75.1704 58.475 74.7954 58.43 74.5754 58.34C74.3554 58.255 74.2454 58.2125 74.2454 58.2125V56.8175L75.0179 56.8475C75.3529 56.8675 75.6229 56.85 75.8279 56.795C76.0329 56.745 76.1879 56.6775 76.2929 56.5925C76.3979 56.5075 76.4729 56.4175 76.5179 56.3225C76.5679 56.2325 76.6029 56.16 76.6229 56.105L76.7654 55.6775L73.7504 48.245H75.9179L77.7779 53.3L79.6529 48.245H81.7979L78.6554 56.045C78.3854 56.705 78.0979 57.21 77.7929 57.56C77.4929 57.91 77.1679 58.15 76.8179 58.28C76.4729 58.41 76.1004 58.475 75.7004 58.475Z" fill="#1ABC9C"/>
</svg>
