<svg width="41" height="60" viewBox="0 0 41 60" fill="none" xmlns="http://www.w3.org/2000/svg">
<path fill-rule="evenodd" clip-rule="evenodd" d="M19.0536 0.0350509C17.8709 0.180331 16.6255 0.484082 15.6202 0.872351C14.79 1.19304 14.6805 1.27862 14.6805 1.60694C14.6805 1.88669 14.8183 2.08554 15.0529 2.14443C15.148 2.16831 15.472 2.07967 15.9679 1.89413C17.5619 1.29788 18.883 1.05126 20.4842 1.0512C22.1756 1.05101 23.4391 1.28469 24.9936 1.885C26.6827 2.53739 28.1217 3.50684 29.532 4.94252C30.1573 5.57915 30.2859 5.68198 30.4569 5.68198C30.7307 5.68198 30.9623 5.44237 30.9623 5.15906C30.9623 4.881 30.6938 4.53912 29.8267 3.71282C27.7578 1.74147 25.0802 0.452263 22.2965 0.0873743C21.6454 0.00198144 19.5923 -0.031088 19.0536 0.0350509ZM12.9839 2.23339C11.7879 3.00986 9.86459 4.87863 9.73657 5.38861C9.64155 5.76725 9.99481 6.12414 10.3713 6.02962C10.4624 6.00674 10.6247 5.88653 10.7319 5.7625C11.7396 4.59651 12.3789 3.99501 13.3201 3.32724C13.9273 2.8964 14.0213 2.79007 14.0213 2.53432C14.0213 2.29434 13.9591 2.18463 13.7667 2.08517C13.5029 1.9487 13.3891 1.97027 12.9839 2.23339ZM18.7841 2.08804C16.6156 2.41855 14.5438 3.38807 12.856 4.86212C11.5507 6.00211 10.4395 7.59213 9.7697 9.2783C9.47182 10.0281 9.55065 10.3966 10.0251 10.4726C10.3581 10.5258 10.5222 10.3366 10.8456 9.52648C11.3338 8.30341 12.0086 7.27263 12.9891 6.25235C14.6434 4.53099 16.7949 3.43501 19.1404 3.11882C19.8116 3.0283 21.1675 3.02799 21.8424 3.11813C23.5949 3.35231 25.3623 4.08402 26.8052 5.17288C27.3058 5.55064 28.2034 6.42314 28.6473 6.9635C29.3514 7.82056 30.0128 8.99937 30.3888 10.0671C30.64 10.7803 30.9876 11.4626 31.1622 11.5848C31.3554 11.7201 31.6015 11.7081 31.7978 11.5537C32.0399 11.3633 32.0184 11.0605 31.7197 10.4559C31.5862 10.1854 31.428 9.80941 31.3681 9.62031C31.1873 9.04938 30.6186 7.90351 30.1959 7.25863C28.4712 4.62739 25.8671 2.85439 22.7352 2.17919C21.9219 2.00384 19.6765 1.95201 18.7841 2.08804ZM18.9286 4.09134C16.165 4.55831 13.7106 6.24523 12.3082 8.6416C11.7145 9.656 11.37 10.5735 11.1349 11.7667C10.9564 12.6721 10.9429 14.2322 11.1059 15.1122C11.3274 16.3076 12.0844 18.4709 12.3726 18.7316C12.5704 18.9107 12.9119 18.9189 13.082 18.7488C13.3079 18.5229 13.296 18.3681 12.994 17.6047C12.5982 16.6039 12.3574 15.8468 12.1975 15.1005C12.0067 14.2103 12.0075 12.7938 12.1991 11.8903C12.5678 10.1523 13.3163 8.76182 14.551 7.52162C17.6424 4.41628 22.5019 4.20017 25.9223 7.01595C26.2592 7.29326 26.3985 7.36984 26.566 7.36984C26.8548 7.36984 27.0865 7.13773 27.0865 6.84823C27.0865 6.60593 27.012 6.50753 26.5239 6.10532C25.2433 5.0501 23.5753 4.32001 21.8547 4.06164C21.2457 3.97019 19.5433 3.9875 18.9286 4.09134ZM20.1403 6.11289C20.0289 6.20309 19.9941 6.29399 19.9941 6.49465C19.9941 6.8396 20.1574 6.97425 20.6337 7.02214C21.9036 7.14973 22.5929 7.32233 23.3357 7.69884C24.954 8.51908 26.037 9.78691 26.7124 11.652C27.1084 12.7454 27.7866 13.9508 28.5994 15.0059C29.1263 15.6898 30.988 17.6094 31.2058 17.6932C31.3958 17.7663 31.7529 17.6549 31.838 17.4961C31.8721 17.4323 31.9 17.291 31.9 17.182C31.9 17.0108 31.765 16.8445 30.9063 15.9586C29.1461 14.1426 28.2453 12.7951 27.6416 11.075C26.8758 8.89291 25.1791 7.17317 23.0378 6.4087C21.9478 6.01962 20.445 5.86615 20.1403 6.11289ZM17.6703 6.51535C15.316 7.47023 13.6079 9.56105 13.1046 12.1036C12.9569 12.8505 12.9595 14.2173 13.1102 14.9339C13.4077 16.349 14.1975 18.293 15.2046 20.0891C15.7069 20.985 16.6239 22.4126 16.8283 22.617C17.0133 22.8019 17.3936 22.795 17.5736 22.6034C17.7903 22.3727 17.7534 22.0812 17.4533 21.6528C16.2921 19.9952 15.1786 17.8477 14.569 16.0904C14.0847 14.6944 13.9553 13.8353 14.0779 12.8285C14.3497 10.5967 15.6629 8.70455 17.6158 7.73135C17.8565 7.61139 18.194 7.46292 18.3659 7.40134C18.76 7.26019 18.8973 7.10772 18.8973 6.81122C18.8973 6.51072 18.6928 6.30668 18.3932 6.30818C18.275 6.30874 17.9497 6.40195 17.6703 6.51535ZM27.5686 7.93321C27.2725 8.16613 27.2866 8.37817 27.6363 8.95248C28.0604 9.649 28.2135 9.96826 28.5258 10.8081C28.6729 11.2035 28.8771 11.6957 28.9797 11.902C29.3924 12.7325 30.208 13.8871 30.9113 14.637C31.2138 14.9596 31.2743 14.9964 31.5008 14.9964C31.8265 14.9964 32.0251 14.8015 32.0251 14.4817C32.0251 14.3007 31.9662 14.1908 31.7257 13.9231C30.6148 12.6863 29.9921 11.6897 29.5252 10.4017C29.0904 9.20197 28.3673 7.92608 28.0784 7.84875C27.8368 7.78405 27.7372 7.80062 27.5686 7.93321ZM19.927 7.99578C17.5645 8.24571 15.6541 9.94413 15.1063 12.2818C14.9383 12.999 14.9536 14.0984 15.1419 14.8402C15.5931 16.6171 16.9315 19.3312 18.3274 21.2999C18.8659 22.0594 19.6016 22.9902 20.227 23.7029C20.9329 24.5074 22.7859 26.3772 22.9731 26.474C23.3731 26.6809 23.7733 26.4564 23.7733 26.0252C23.7733 25.8106 23.6877 25.7088 22.4427 24.4439C19.75 21.7078 18.1712 19.4805 16.9425 16.6843C16.2699 15.1538 15.9706 13.9759 16.0498 13.1718C16.4262 9.3525 20.9465 7.65959 23.617 10.3378C24.2127 10.9351 24.4547 11.3283 24.7813 12.2289C25.1541 13.2568 25.6064 14.1444 25.8031 14.234C26.0065 14.3267 26.1012 14.3278 26.2953 14.2394C26.4574 14.1655 26.5864 13.9451 26.5864 13.742C26.5864 13.6742 26.4631 13.3731 26.3124 13.0729C26.1616 12.7728 25.9493 12.274 25.8404 11.9646C25.3039 10.4389 24.5554 9.47622 23.3255 8.73019C22.3768 8.15469 21.0781 7.87407 19.927 7.99578ZM19.6195 10.0658C19.0936 10.189 18.4541 10.5592 18.0291 10.9865C17.3215 11.6977 16.9983 12.4834 16.9968 13.4961C16.9958 14.1995 17.1861 14.9292 17.4118 15.0873C17.6052 15.2227 17.934 15.2096 18.0831 15.0605C18.2717 14.8718 18.296 14.6618 18.1711 14.2962C18.0967 14.0781 18.0596 13.7942 18.0626 13.4649C18.0688 12.7755 18.2388 12.3529 18.7144 11.8445C19.6708 10.8221 21.1183 10.7601 22.1841 11.6959C22.4808 11.9564 22.6663 12.2907 22.995 13.157C23.5321 14.5727 24.2998 15.9418 25.3058 17.2782C26.4457 18.7924 28.5239 20.8573 30.5154 22.4544C30.9338 22.79 31.0804 22.8731 31.254 22.8731C31.546 22.8731 31.6865 22.7875 31.7652 22.5618C31.8756 22.2451 31.7571 22.0568 31.1327 21.5569C29.6204 20.3459 27.3648 18.1483 26.4524 16.9969C25.3035 15.5471 24.4243 14.0023 23.895 12.5036C23.7812 12.1812 23.5856 11.7593 23.4603 11.5659C23.007 10.8659 22.2215 10.2982 21.4164 10.0885C21.022 9.98576 20.0152 9.97301 19.6195 10.0658ZM9.27578 11.4801C8.90327 11.7856 8.86989 14.1391 9.21402 15.8365C9.66649 18.0685 11.293 21.6053 13.0911 24.2676C14.4024 26.209 16.495 28.6923 16.8934 28.7798C17.2215 28.8519 17.5166 28.6116 17.52 28.2697C17.5222 28.0519 17.4342 27.9283 16.7484 27.1865C13.5665 23.7447 10.7768 18.6372 10.1758 15.1527C10.0555 14.4557 10.0245 13.2165 10.1042 12.2956C10.156 11.6969 10.1546 11.6867 9.99762 11.5298C9.80727 11.3394 9.4752 11.3165 9.27578 11.4801ZM19.7382 12.178C19.3482 12.4017 19.1053 12.7419 19.0095 13.1986C18.9474 13.4947 18.9529 13.6079 19.0454 13.9439C19.4329 15.3511 20.5707 17.57 21.7298 19.1793C23.0649 21.0327 25.6046 23.6373 27.8054 25.4101C29.1723 26.5111 29.6128 26.8114 29.861 26.8114C30.2658 26.8114 30.5232 26.4087 30.3386 26.0639C30.3051 26.0012 29.9014 25.6661 29.4418 25.3193C27.2601 23.6738 24.75 21.275 23.2591 19.4109C22.0503 17.8995 20.7092 15.5536 20.2099 14.0771L19.9941 13.439L20.1239 13.2644C20.2711 13.0665 20.6097 12.9995 20.7837 13.1339C20.8414 13.1784 20.9916 13.4961 21.1176 13.8399C21.8939 15.9587 23.208 18.0556 24.983 20.0079C25.7028 20.7996 25.8655 20.8952 26.1992 20.7226C26.4099 20.6137 26.4614 20.5132 26.4614 20.2105C26.4614 20.0302 26.389 19.9193 26.0056 19.5123C24.2241 17.6214 22.8903 15.5398 22.1139 13.4389C21.6988 12.3158 21.3373 11.9952 20.4873 11.9964C20.1241 11.9969 20.0027 12.0263 19.7382 12.178ZM26.7399 15.0874C26.4776 15.3496 26.5282 15.5929 26.9633 16.161C27.7624 17.2043 29.3201 18.8012 30.7435 20.0362C31.2582 20.4827 31.35 20.5238 31.6287 20.4318C31.8742 20.3507 31.9625 20.2137 31.9625 19.9135C31.9625 19.6754 32.0245 19.7432 30.7435 18.5781C29.8353 17.752 28.5748 16.4454 28.0617 15.798C27.424 14.9935 27.3584 14.9339 27.111 14.9339C26.9632 14.9339 26.844 14.9832 26.7399 15.0874ZM18.1131 16.1501C17.8837 16.3794 17.9183 16.6041 18.3005 17.3661C19.0921 18.9445 20.0637 20.4088 21.2692 21.84C22.9619 23.8498 25.4891 26.2139 27.7371 27.8906C28.4174 28.398 28.5057 28.446 28.7005 28.4144C29.0178 28.3629 29.1495 28.214 29.1495 27.9066C29.1495 27.6062 29.1351 27.5902 28.3055 26.965C25.5429 24.8831 22.5324 21.903 20.9824 19.716C20.3891 18.8787 19.8011 17.9198 19.3293 17.0198C19.1153 16.6118 18.8835 16.2147 18.8142 16.1373C18.6396 15.9426 18.3146 15.9486 18.1131 16.1501ZM13.3024 19.567C12.8688 19.8131 12.9094 20.0846 13.5465 21.2005C14.946 23.6518 16.3703 25.5127 18.5535 27.7425C20.3377 29.5647 22.5212 31.5323 22.933 31.6888C23.3659 31.8534 23.7889 31.3837 23.5742 30.977C23.529 30.8913 23.1122 30.5004 22.6481 30.1084C19.0293 27.0518 16.2939 23.8869 14.5034 20.6849C14.244 20.2209 13.9801 19.7778 13.9171 19.7003C13.7813 19.5333 13.4777 19.4675 13.3024 19.567ZM9.14682 20.5585C8.84326 20.8621 8.93803 21.1421 9.9713 22.9953C11.5103 25.7553 13.1629 27.943 15.6854 30.5594C16.171 31.0631 16.462 31.3167 16.5853 31.3438C16.9652 31.4273 17.3241 31.0733 17.2321 30.7059C17.2058 30.601 16.8477 30.1804 16.3381 29.6558C15.8704 29.1744 15.2739 28.5415 15.0124 28.2492C13.2778 26.3109 11.4748 23.6606 10.3345 21.3728C10.1545 21.0118 9.94911 20.6531 9.87797 20.5757C9.709 20.3921 9.32242 20.3829 9.14682 20.5585ZM27.173 21.2122C26.9207 21.3223 26.8068 21.6164 26.9163 21.8753C27.0292 22.1423 28.612 23.5404 29.9795 24.5809C30.4335 24.9264 30.5692 24.9985 30.7657 24.9985C31.0725 24.9985 31.2749 24.7967 31.2749 24.4907C31.2749 24.2229 31.2248 24.1593 30.7123 23.7773C30.1257 23.3402 29.0322 22.4316 28.2888 21.7635C27.9349 21.4455 27.6203 21.1852 27.5898 21.1852C27.5593 21.1852 27.4969 21.1722 27.4511 21.1562C27.4053 21.1403 27.2802 21.1655 27.173 21.2122ZM18.1471 23.3291C17.9434 23.4321 17.8191 23.6961 17.873 23.911C17.8963 24.0038 18.17 24.3779 18.4812 24.7423C19.2224 25.6102 21.5942 27.983 22.5898 28.8525C23.4987 29.6463 24.8675 30.7582 25.0663 30.8644C25.5213 31.1072 25.9888 30.6573 25.7981 30.1603C25.7771 30.1055 25.5168 29.8688 25.2198 29.6343C23.5098 28.2839 21.6297 26.5581 20.2536 25.0757C19.7196 24.5003 19.1685 23.8903 19.029 23.7201C18.6548 23.2634 18.4535 23.1741 18.1471 23.3291ZM10.1026 25.8116C9.74863 25.9543 9.74501 26.375 10.0933 26.893C10.7498 27.8691 12.318 29.8313 12.4965 29.8997C12.8421 30.0324 13.2336 29.7796 13.2336 29.4238C13.2336 29.1858 13.2476 29.207 12.3894 28.1469C12.0592 27.739 11.5413 27.0583 11.2385 26.6341C10.6246 25.7742 10.4712 25.6631 10.1026 25.8116ZM24.4093 27.0186C24.2775 27.159 24.2321 27.4437 24.3095 27.6453C24.3519 27.756 25.3356 28.5784 26.299 29.3087C26.9278 29.7852 26.9981 29.8225 27.2055 29.7893C27.4895 29.7438 27.6491 29.5513 27.6491 29.2542C27.6491 28.9881 27.5789 28.9114 26.7985 28.3252C26.5196 28.1158 25.9995 27.7036 25.6426 27.4092C25.0947 26.9574 24.9586 26.8739 24.7694 26.8739C24.6159 26.8739 24.5024 26.9196 24.4093 27.0186ZM18.0955 29.3941C18.0078 29.4875 17.9596 29.6188 17.9596 29.7645C17.9596 29.9671 18.0186 30.0472 18.5379 30.5493C18.8559 30.8568 19.3411 31.309 19.616 31.5542C20.0667 31.9561 20.1417 32 20.3772 32C20.5852 32 20.6651 31.9663 20.7681 31.8353C20.8394 31.7447 20.8977 31.5884 20.8977 31.4878C20.8977 31.2742 20.755 31.1188 19.5375 30.0066C18.7812 29.3157 18.6877 29.2494 18.47 29.2494C18.3015 29.2494 18.1915 29.2919 18.0955 29.3941Z" fill="#F39C12"/>
<path d="M0.733789 56L4.61129 45.155H6.92879L10.8063 56H8.62379L7.73879 53.4875H3.83129L2.93129 56H0.733789ZM4.32629 51.575H7.20629L5.77379 47.2625L4.32629 51.575ZM12.4347 56V45.155H19.8822L19.8747 47H14.6322V49.6325H19.1847V51.44H14.6172V54.1325L19.9572 54.14V56H12.4347ZM22.0002 56V45.155H25.9902C26.7802 45.155 27.4877 45.2925 28.1127 45.5675C28.7377 45.8375 29.2302 46.2375 29.5902 46.7675C29.9552 47.2975 30.1377 47.945 30.1377 48.71C30.1377 49.43 29.9777 50.045 29.6577 50.555C29.3377 51.065 28.8877 51.455 28.3077 51.725C27.7327 51.995 27.0552 52.13 26.2752 52.13H24.2052V56H22.0002ZM24.1827 50.435H26.2152C26.7652 50.435 27.2152 50.26 27.5652 49.91C27.9152 49.555 28.0902 49.1175 28.0902 48.5975C28.0902 48.0575 27.9052 47.63 27.5352 47.315C27.1652 46.995 26.7152 46.835 26.1852 46.835H24.1827V50.435ZM35.8943 56.15C35.3543 56.15 34.8268 56.0825 34.3118 55.9475C33.7968 55.8125 33.3268 55.61 32.9018 55.34C32.4768 55.07 32.1268 54.7325 31.8518 54.3275C31.5818 53.9225 31.4193 53.4475 31.3643 52.9025H33.6068C33.6818 53.2325 33.8243 53.51 34.0343 53.735C34.2493 53.96 34.5243 54.1325 34.8593 54.2525C35.1993 54.3725 35.5868 54.4325 36.0218 54.4325C36.3668 54.4325 36.6943 54.3825 37.0043 54.2825C37.3143 54.1825 37.5668 54.03 37.7618 53.825C37.9568 53.62 38.0543 53.3625 38.0543 53.0525C38.0543 52.6825 37.9193 52.405 37.6493 52.22C37.3793 52.03 37.0118 51.88 36.5468 51.77L34.5143 51.3275C33.9393 51.2075 33.4368 51.0225 33.0068 50.7725C32.5818 50.5175 32.2543 50.1875 32.0243 49.7825C31.7943 49.3725 31.6793 48.875 31.6793 48.29C31.6793 47.615 31.8643 47.0325 32.2343 46.5425C32.6093 46.0525 33.1168 45.6775 33.7568 45.4175C34.4018 45.1525 35.1243 45.02 35.9243 45.02C36.8293 45.02 37.5918 45.1675 38.2118 45.4625C38.8368 45.7525 39.3143 46.1475 39.6443 46.6475C39.9743 47.1425 40.1418 47.695 40.1468 48.305H37.9568C37.9168 47.93 37.8018 47.63 37.6118 47.405C37.4218 47.175 37.1768 47.01 36.8768 46.91C36.5818 46.805 36.2443 46.7525 35.8643 46.7525C35.2093 46.7525 34.7318 46.885 34.4318 47.15C34.1318 47.415 33.9818 47.7225 33.9818 48.0725C33.9818 48.4025 34.0943 48.67 34.3193 48.875C34.5493 49.075 34.9168 49.2275 35.4218 49.3325L37.3043 49.7375C38.0043 49.8725 38.5718 50.0875 39.0068 50.3825C39.4418 50.6725 39.7593 51.025 39.9593 51.44C40.1593 51.855 40.2593 52.32 40.2593 52.835C40.2593 53.49 40.0718 54.0675 39.6968 54.5675C39.3268 55.0625 38.8143 55.45 38.1593 55.73C37.5043 56.01 36.7493 56.15 35.8943 56.15Z" fill="#F39C12"/>
</svg>
