<svg width="91" height="60" viewBox="0 0 91 60" fill="none" xmlns="http://www.w3.org/2000/svg">
<path fill-rule="evenodd" clip-rule="evenodd" d="M35.7626 0.126278C35.6307 0.20791 35.545 0.325732 35.5014 0.485433C35.4175 0.792272 35.4118 31.1084 35.4957 31.4757C35.5827 31.857 35.915 32.0709 36.2771 31.9786C36.3712 31.9546 36.6406 31.7186 36.908 31.4257C37.1647 31.1446 37.5148 30.7634 37.686 30.5788L37.9973 30.2429L38.7017 31.0245C39.8462 32.2945 39.9108 32.2957 41.0077 31.0681C41.408 30.6201 41.754 30.2613 41.7766 30.2708C41.7994 30.2803 42.1546 30.6585 42.5662 31.1113C43.6401 32.2926 43.6684 32.2925 44.7388 31.1089C45.1471 30.6575 45.5006 30.2806 45.5243 30.2715C45.548 30.2624 45.8917 30.6177 46.2882 31.061C47.3872 32.2901 47.4238 32.2906 48.5112 31.0908C48.9203 30.6394 49.2735 30.2671 49.2959 30.2634C49.3184 30.2598 49.6595 30.6154 50.054 31.0538C51.166 32.2895 51.2285 32.2899 52.3241 31.0697C52.7255 30.6226 53.0718 30.2594 53.0935 30.2625C53.1153 30.2656 53.4378 30.6146 53.8102 31.038C54.1826 31.4614 54.5787 31.8546 54.6903 31.9118C54.9427 32.041 55.1915 31.9937 55.4062 31.7757L55.5646 31.6149V16.0055V0.396176L55.4388 0.233787C55.2806 0.0295823 54.9381 -0.045174 54.7079 0.0742111C54.6164 0.121653 54.2145 0.519936 53.8148 0.959223C53.262 1.5669 53.0695 1.74204 53.0095 1.69153C52.9662 1.65503 52.6321 1.28994 52.267 0.880217C51.9019 0.470494 51.5236 0.101776 51.4263 0.060835C51.0763 -0.0863649 50.8625 0.0522717 50.0585 0.947722L49.323 1.76685L48.9228 1.33869C47.5786 -0.0993035 47.6544 -0.0389234 47.2821 0.03202C47.1143 0.0639602 46.9281 0.2341 46.3179 0.912907C45.902 1.37563 45.5469 1.74723 45.5289 1.73866C45.5108 1.73016 45.1557 1.35138 44.7397 0.896968C43.7266 -0.209563 43.6063 -0.23244 42.8869 0.544251C42.6685 0.780146 42.3244 1.15149 42.1223 1.36951L41.7549 1.76592L41.2598 1.21324C39.9327 -0.268193 39.8688 -0.286569 39.0725 0.585567C38.8158 0.866653 38.466 1.24743 38.2951 1.43176L37.9845 1.76685L37.2557 0.963724C36.8549 0.521936 36.4683 0.12634 36.3967 0.084587C36.2067 -0.0262974 35.9855 -0.0117337 35.7626 0.126278ZM40.6444 2.50467C41.4498 3.4003 41.6198 3.51 41.9714 3.3608C42.0921 3.30961 42.4695 2.95214 42.8822 2.49829C43.2698 2.07194 43.6041 1.71541 43.6251 1.70591C43.646 1.69641 44.0147 2.06694 44.4444 2.52942C45.306 3.45662 45.4431 3.53844 45.7995 3.33799C45.9118 3.27492 46.3164 2.87763 46.6989 2.45522C47.0813 2.03275 47.414 1.69522 47.4383 1.70516C47.4626 1.71504 47.8055 2.07976 48.2004 2.5156C49.2841 3.71164 49.3388 3.71127 50.4248 2.50173C50.8246 2.05632 51.1701 1.69191 51.1926 1.69191C51.2151 1.69191 51.5493 2.046 51.9353 2.47879C52.3213 2.91158 52.7175 3.3078 52.8157 3.35936C53.1373 3.52831 53.3545 3.42906 53.8359 2.89301L54.2691 2.41072L54.2705 15.9905L54.2719 29.5703L53.7946 29.0697C53.0842 28.3247 52.9903 28.3468 51.961 29.5017C51.5602 29.9514 51.2162 30.3193 51.1966 30.3193C51.1769 30.3193 50.8452 29.966 50.4594 29.5343C49.3373 28.2785 49.3087 28.2775 48.2317 29.4623C47.8189 29.9165 47.4618 30.2961 47.4383 30.3059C47.4147 30.3157 47.0694 29.959 46.6707 29.5132C46.2722 29.0675 45.8684 28.6701 45.7733 28.6301C45.4806 28.507 45.2607 28.6076 44.8389 29.0578C44.6236 29.2875 44.2673 29.6683 44.047 29.9038L43.6467 30.3323L42.9476 29.5601C41.789 28.2803 41.7395 28.2792 40.6412 29.5075C40.2398 29.9564 39.8941 30.3157 39.873 30.3059C39.8519 30.2961 39.4957 29.9176 39.0813 29.4648C38.062 28.3508 37.966 28.3328 37.2371 29.1197L36.7916 29.6005L36.7921 16.0056L36.7927 2.41072L37.2259 2.89301C37.7089 3.43074 37.9242 3.52844 38.2496 3.35755C38.3497 3.30498 38.7473 2.90876 39.1331 2.47698C39.5188 2.04519 39.8523 1.69191 39.8741 1.69191C39.8958 1.69191 40.2425 2.05769 40.6444 2.50467ZM43.3388 6.69108C42.9902 6.83409 42.8312 7.37383 43.0459 7.6851C43.215 7.93012 43.4956 8.00494 44.2462 8.00494C44.8884 8.00494 44.9545 8.01663 45.2177 8.17683L45.5001 8.34872L44.4167 8.37997C43.3084 8.41198 43.2358 8.42823 43.0245 8.6925C42.9832 8.74407 42.9486 8.90796 42.9475 9.05672C42.9459 9.2738 42.9811 9.36324 43.1255 9.50988L43.3054 9.69258H44.3617C45.4847 9.69258 45.5408 9.71115 45.1995 9.97005C45.0518 10.0821 44.9134 10.1029 44.1361 10.1301C43.2497 10.1611 43.2414 10.1627 43.094 10.3368C42.8627 10.6099 42.8858 11.0033 43.1489 11.2688C43.7589 11.8845 45.9923 13.9853 46.1058 14.0501C46.5361 14.2958 47.0397 13.9364 47.0271 13.3928C47.0222 13.1791 46.9529 13.0944 46.1114 12.2732C45.3634 11.5432 45.2223 11.3784 45.3199 11.3483C45.9596 11.1516 46.6008 10.5957 46.8269 10.0415L46.9694 9.69258H47.3534C47.6744 9.69258 47.7679 9.66665 47.9224 9.53463C48.1544 9.3363 48.2127 9.08578 48.0938 8.79688C47.9777 8.51461 47.7207 8.37997 47.2982 8.37997C47.0025 8.37997 46.9587 8.36272 46.8951 8.22077C46.8557 8.1332 46.8236 8.05188 46.8236 8.04007C46.8236 8.02826 47.03 8.00801 47.2823 7.99507C47.685 7.97444 47.7631 7.95006 47.922 7.79555C48.1517 7.57203 48.2072 7.30545 48.0805 7.0343C47.8977 6.64308 47.8101 6.62939 45.5216 6.63376C44.3925 6.63595 43.4103 6.66177 43.3388 6.69108ZM42.3283 19.0499C42.086 19.2194 42.0263 19.3315 42.0242 19.6201C42.0226 19.8372 42.0577 19.9266 42.2021 20.0733L42.3821 20.256H45.5125C48.978 20.256 48.839 20.2721 49.0127 19.85C49.132 19.56 49.0298 19.2236 48.7742 19.0654C48.5868 18.9493 48.4402 18.9438 45.5292 18.9436C42.7573 18.9434 42.4667 18.9531 42.3283 19.0499ZM39.4615 21.9061C39.1703 22.2018 39.1703 22.498 39.4615 22.7937L39.6707 23.0062H45.497C51.8255 23.0062 51.5765 23.0198 51.7361 22.6642C51.8688 22.3685 51.8273 22.1365 51.6004 21.9061L51.3911 21.6936H45.5309H39.6707L39.4615 21.9061ZM39.4615 24.7188C39.1703 25.0145 39.1703 25.3108 39.4615 25.6064L39.6707 25.8189H45.497C51.8255 25.8189 51.5765 25.8326 51.7361 25.4769C51.8296 25.2686 51.8296 25.0566 51.7361 24.8484C51.5765 24.4927 51.8255 24.5063 45.497 24.5063H39.6707L39.4615 24.7188Z" fill="#F1C40F"/>
<path d="M1.67301 56V45.155H5.60301C7.02301 45.155 8.07551 45.4 8.76051 45.89C9.45051 46.375 9.79551 47.0775 9.79551 47.9975C9.79551 48.5375 9.65801 49.0075 9.38301 49.4075C9.10801 49.8025 8.61801 50.1475 7.91301 50.4425C8.36801 50.5575 8.73551 50.7125 9.01551 50.9075C9.29551 51.1025 9.51051 51.32 9.66051 51.56C9.81051 51.795 9.91301 52.0425 9.96801 52.3025C10.023 52.5575 10.0505 52.81 10.0505 53.06C10.0505 54.06 9.71051 54.8 9.03051 55.28C8.35051 55.76 7.26801 56 5.78301 56H1.67301ZM3.85551 54.305H5.82801C6.48801 54.305 6.98551 54.1725 7.32051 53.9075C7.66051 53.6425 7.83051 53.2875 7.83051 52.8425C7.83051 52.5225 7.74801 52.255 7.58301 52.04C7.41801 51.82 7.19301 51.655 6.90801 51.545C6.62801 51.435 6.30801 51.38 5.94801 51.38H3.85551V54.305ZM3.85551 49.64H5.94801C6.17301 49.64 6.38801 49.615 6.59301 49.565C6.80301 49.51 6.98801 49.4275 7.14801 49.3175C7.31301 49.2075 7.44301 49.0675 7.53801 48.8975C7.63301 48.7225 7.68051 48.5175 7.68051 48.2825C7.68051 47.8125 7.50301 47.4575 7.14801 47.2175C6.79801 46.9725 6.34801 46.85 5.79801 46.85H3.85551V49.64ZM11.6866 56V48.245H13.7791V56H11.6866ZM11.6641 47.135V45.1625H13.7941V47.135H11.6641ZM18.182 56.135C17.612 56.135 17.1595 56.0675 16.8245 55.9325C16.4895 55.7975 16.242 55.62 16.082 55.4C15.922 55.175 15.8195 54.9275 15.7745 54.6575C15.7295 54.3825 15.707 54.105 15.707 53.825V44.855H17.852V53.555C17.852 53.84 17.912 54.0725 18.032 54.2525C18.157 54.4275 18.3895 54.535 18.7295 54.575L19.097 54.5975V55.9475C18.947 55.9975 18.7945 56.04 18.6395 56.075C18.4845 56.115 18.332 56.135 18.182 56.135ZM22.8988 56.135C22.3288 56.135 21.8763 56.0675 21.5413 55.9325C21.2063 55.7975 20.9588 55.62 20.7988 55.4C20.6388 55.175 20.5363 54.9275 20.4913 54.6575C20.4463 54.3825 20.4238 54.105 20.4238 53.825V44.855H22.5688V53.555C22.5688 53.84 22.6288 54.0725 22.7488 54.2525C22.8738 54.4275 23.1063 54.535 23.4463 54.575L23.8138 54.5975V55.9475C23.6638 55.9975 23.5113 56.04 23.3563 56.075C23.2013 56.115 23.0488 56.135 22.8988 56.135ZM29.0216 56V45.155H33.0116C33.8016 45.155 34.5091 45.2925 35.1341 45.5675C35.7591 45.8375 36.2516 46.2375 36.6116 46.7675C36.9766 47.2975 37.1591 47.945 37.1591 48.71C37.1591 49.43 36.9991 50.045 36.6791 50.555C36.3591 51.065 35.9091 51.455 35.3291 51.725C34.7541 51.995 34.0766 52.13 33.2966 52.13H31.2266V56H29.0216ZM31.2041 50.435H33.2366C33.7866 50.435 34.2366 50.26 34.5866 49.91C34.9366 49.555 35.1116 49.1175 35.1116 48.5975C35.1116 48.0575 34.9266 47.63 34.5566 47.315C34.1866 46.995 33.7366 46.835 33.2066 46.835H31.2041V50.435ZM40.6267 56.15C40.1367 56.15 39.6917 56.0575 39.2917 55.8725C38.8967 55.6875 38.5842 55.42 38.3542 55.07C38.1242 54.715 38.0092 54.285 38.0092 53.78C38.0092 52.93 38.3267 52.285 38.9617 51.845C39.5967 51.4 40.5992 51.17 41.9692 51.155L42.9442 51.14V50.675C42.9442 50.32 42.8392 50.0475 42.6292 49.8575C42.4242 49.6625 42.1017 49.5675 41.6617 49.5725C41.3467 49.5775 41.0442 49.6525 40.7542 49.7975C40.4692 49.9425 40.2717 50.195 40.1617 50.555H38.3392C38.3692 49.995 38.5317 49.535 38.8267 49.175C39.1267 48.81 39.5292 48.54 40.0342 48.365C40.5392 48.185 41.1167 48.095 41.7667 48.095C42.5567 48.095 43.1917 48.195 43.6717 48.395C44.1517 48.59 44.4992 48.8725 44.7142 49.2425C44.9342 49.6075 45.0442 50.0425 45.0442 50.5475V56H43.2142L43.0342 54.665C42.7692 55.225 42.4367 55.6125 42.0367 55.8275C41.6417 56.0425 41.1717 56.15 40.6267 56.15ZM41.3692 54.71C41.5642 54.71 41.7542 54.675 41.9392 54.605C42.1292 54.53 42.2992 54.4325 42.4492 54.3125C42.5992 54.1875 42.7167 54.0475 42.8017 53.8925C42.8917 53.7375 42.9392 53.5775 42.9442 53.4125V52.265L42.1567 52.28C41.7917 52.285 41.4517 52.33 41.1367 52.415C40.8217 52.495 40.5667 52.6275 40.3717 52.8125C40.1817 52.9975 40.0867 53.2475 40.0867 53.5625C40.0867 53.9225 40.2092 54.205 40.4542 54.41C40.7042 54.61 41.0092 54.71 41.3692 54.71ZM47.757 58.475C47.227 58.475 46.852 58.43 46.632 58.34C46.412 58.255 46.302 58.2125 46.302 58.2125V56.8175L47.0745 56.8475C47.4095 56.8675 47.6795 56.85 47.8845 56.795C48.0895 56.745 48.2445 56.6775 48.3495 56.5925C48.4545 56.5075 48.5295 56.4175 48.5745 56.3225C48.6245 56.2325 48.6595 56.16 48.6795 56.105L48.822 55.6775L45.807 48.245H47.9745L49.8345 53.3L51.7095 48.245H53.8545L50.712 56.045C50.442 56.705 50.1545 57.21 49.8495 57.56C49.5495 57.91 49.2245 58.15 48.8745 58.28C48.5295 58.41 48.157 58.475 47.757 58.475ZM54.9941 56V48.245H57.1391V49.34C57.3741 49 57.6891 48.7075 58.0841 48.4625C58.4841 48.2175 58.9866 48.095 59.5916 48.095C59.8566 48.095 60.1266 48.1425 60.4016 48.2375C60.6766 48.3325 60.9341 48.4725 61.1741 48.6575C61.4191 48.8375 61.6166 49.065 61.7666 49.34C62.0166 48.985 62.3441 48.69 62.7491 48.455C63.1591 48.215 63.6141 48.095 64.1141 48.095C64.4041 48.095 64.6966 48.1425 64.9916 48.2375C65.2916 48.3325 65.5666 48.4875 65.8166 48.7025C66.0666 48.9175 66.2666 49.205 66.4166 49.565C66.5716 49.92 66.6491 50.36 66.6491 50.885V56H64.4591V51.155C64.4591 50.845 64.3966 50.5975 64.2716 50.4125C64.1516 50.2225 63.9966 50.0875 63.8066 50.0075C63.6216 49.9225 63.4241 49.88 63.2141 49.88C63.0191 49.88 62.8216 49.92 62.6216 50C62.4216 50.075 62.2516 50.1975 62.1116 50.3675C61.9716 50.5375 61.9016 50.76 61.9016 51.035V56H59.7191V50.96C59.7191 50.725 59.6566 50.5275 59.5316 50.3675C59.4066 50.2075 59.2491 50.0875 59.0591 50.0075C58.8741 49.9225 58.6841 49.88 58.4891 49.88C58.2891 49.88 58.0891 49.9225 57.8891 50.0075C57.6891 50.0875 57.5216 50.215 57.3866 50.39C57.2516 50.56 57.1841 50.775 57.1841 51.035V56H54.9941ZM71.9893 56.15C71.2193 56.15 70.5418 55.99 69.9568 55.67C69.3768 55.345 68.9243 54.8875 68.5993 54.2975C68.2743 53.7075 68.1118 53.0125 68.1118 52.2125C68.1118 51.4375 68.2593 50.74 68.5543 50.12C68.8543 49.495 69.2843 49.0025 69.8443 48.6425C70.4043 48.2775 71.0818 48.095 71.8768 48.095C72.6668 48.095 73.3293 48.2625 73.8643 48.5975C74.3993 48.9275 74.8043 49.39 75.0793 49.985C75.3543 50.575 75.4918 51.2575 75.4918 52.0325V52.625H70.2793C70.2793 53.02 70.3443 53.365 70.4743 53.66C70.6043 53.95 70.7918 54.175 71.0368 54.335C71.2868 54.49 71.5868 54.5675 71.9368 54.5675C72.3118 54.5675 72.6393 54.4875 72.9193 54.3275C73.1993 54.1675 73.3968 53.905 73.5118 53.54H75.4843C75.3943 54.09 75.1743 54.56 74.8243 54.95C74.4743 55.34 74.0493 55.6375 73.5493 55.8425C73.0493 56.0475 72.5293 56.15 71.9893 56.15ZM70.2793 51.32H73.4443C73.4443 51.01 73.3843 50.725 73.2643 50.465C73.1493 50.205 72.9743 50 72.7393 49.85C72.5093 49.7 72.2193 49.625 71.8693 49.625C71.5343 49.625 71.2468 49.7075 71.0068 49.8725C70.7718 50.0325 70.5893 50.2425 70.4593 50.5025C70.3343 50.7625 70.2743 51.035 70.2793 51.32ZM77.0693 56V48.245H79.2218V49.34C79.3418 49.15 79.4968 48.9675 79.6868 48.7925C79.8818 48.6125 80.1268 48.465 80.4218 48.35C80.7168 48.235 81.0668 48.1775 81.4718 48.1775C81.9468 48.1775 82.3893 48.27 82.7993 48.455C83.2143 48.64 83.5493 48.9325 83.8043 49.3325C84.0593 49.7275 84.1868 50.245 84.1868 50.885V56H81.9968V51.155C81.9968 50.735 81.8718 50.42 81.6218 50.21C81.3718 50 81.0668 49.895 80.7068 49.895C80.4668 49.895 80.2343 49.9375 80.0093 50.0225C79.7893 50.1075 79.6093 50.235 79.4693 50.405C79.3293 50.575 79.2593 50.785 79.2593 51.035V56H77.0693ZM89.0423 56.0825C88.3573 56.0825 87.8273 55.995 87.4523 55.82C87.0823 55.645 86.8248 55.4 86.6798 55.085C86.5398 54.77 86.4698 54.405 86.4698 53.99V49.7675H85.2098V48.245H86.5373L87.0923 45.905H88.6523V48.2375H90.3773V49.7675H88.6523L88.6673 53.9C88.6673 54.09 88.6898 54.2325 88.7348 54.3275C88.7848 54.4175 88.8598 54.4775 88.9598 54.5075C89.0648 54.5325 89.1973 54.545 89.3573 54.545H90.3998V55.895C90.2948 55.94 90.1373 55.9825 89.9273 56.0225C89.7173 56.0625 89.4223 56.0825 89.0423 56.0825Z" fill="#F1C40F"/>
</svg>
