<svg width="41" height="60" viewBox="0 0 41 60" fill="none" xmlns="http://www.w3.org/2000/svg">
<path fill-rule="evenodd" clip-rule="evenodd" d="M5.82925 0.0445665C5.25849 0.219394 4.74456 0.642365 4.46938 1.16388L4.27517 1.53191L4.25609 11.2307L4.237 20.9295L3.96688 20.9784C3.21804 21.1142 2.5517 21.6263 2.22279 22.3189C1.94761 22.8982 1.95231 23.7075 2.23407 24.2814C2.46782 24.7573 2.95218 25.2312 3.43097 25.4525L3.76906 25.6087L15.7171 25.6278L27.6651 25.647V27.6552C27.6651 29.933 27.7157 30.2751 28.1461 30.9047C28.465 31.3711 29.1177 31.8225 29.6361 31.9352C29.8993 31.9923 31.0975 32.0105 33.5594 31.9944L37.1039 31.9713L37.5873 31.7333C38.1388 31.4617 38.5092 31.0788 38.7907 30.4891L38.9805 30.0915V22.1743V14.2572L38.7874 13.8453C38.5399 13.3172 38.0351 12.8142 37.5129 12.5751C37.1742 12.42 36.9642 12.381 36.326 12.3547L35.5505 12.3228L35.5303 6.99965L35.5099 1.67651L35.321 1.27885C35.0946 0.802299 34.7046 0.400513 34.2519 0.177459L33.9193 0.0135486L19.9649 0.00132956C12.2899 -0.00539459 5.92888 0.0140548 5.82925 0.0445665ZM33.9468 1.06577C34.0921 1.14747 34.2918 1.33213 34.3905 1.47616L34.57 1.73811L34.5895 7.03964L34.6089 12.3412H33.6697H32.7305L32.7103 7.82976C32.691 3.51032 32.6843 3.31193 32.5524 3.16624L32.4147 3.01411H19.8814C7.44442 3.01411 7.34696 3.0152 7.20343 3.15872C7.06064 3.30151 7.05883 3.3997 7.05883 11.112C7.05883 18.8243 7.06064 18.9225 7.20343 19.0653C7.34667 19.2085 7.44442 19.2099 17.5066 19.2099H27.6651V20.0775V20.9452H26.036C24.3353 20.9452 24.0775 20.984 23.7376 21.2914C23.5395 21.4705 23.3269 21.9189 23.3269 22.1576C23.3269 22.2709 23.2808 22.4267 23.2243 22.504C23.1256 22.6391 22.9919 22.6449 19.6273 22.6624C16.9433 22.6763 16.0921 22.6596 15.9573 22.5901C15.8294 22.5242 15.7594 22.3998 15.6991 22.1315C15.5817 21.609 15.3489 21.2703 14.9866 21.0949C14.6834 20.9481 14.5837 20.9452 9.92809 20.9452H5.17896V11.3615C5.17896 1.01964 5.1577 1.59683 5.55168 1.22896C5.64502 1.1419 5.80264 1.03822 5.90206 0.998528C6.01977 0.951604 10.8933 0.924924 19.8827 0.921888C33.6723 0.917332 33.6829 0.917477 33.9468 1.06577ZM31.7864 8.1476V12.3412H30.8529C29.4558 12.3412 28.7784 12.6074 28.196 13.3853C27.7289 14.0093 27.7068 14.1337 27.6796 16.2997L27.6548 18.27H17.8267H7.99876V11.112V3.95405H19.8926H31.7864V8.1476ZM16.7911 6.95736C16.6467 7.10182 16.6404 7.45183 16.7798 7.59123C16.8564 7.6678 17.1719 7.70981 17.9547 7.7477C19.0871 7.80243 19.487 7.90683 19.8419 8.24029C20.0375 8.42409 20.2519 8.76254 20.3247 9.00258L20.3758 9.17076L18.6771 9.11877L16.9784 9.06686L16.7906 9.25463C16.5656 9.47964 16.5514 9.68686 16.7474 9.88287C16.8838 10.0192 16.9884 10.0275 18.579 10.0275C19.507 10.0275 20.2872 10.0486 20.313 10.0743C20.4079 10.1693 19.9643 10.8411 19.6784 11.0353C19.2161 11.3495 18.9657 11.4012 17.9095 11.4012C16.8017 11.4012 16.6028 11.4664 16.6028 11.8298C16.6028 12.039 16.8543 12.3006 19.7208 15.0734C20.7191 16.039 20.8775 16.1156 21.1526 15.7658C21.235 15.661 21.3035 15.5227 21.3048 15.4585C21.3061 15.3943 20.6188 14.6717 19.7775 13.8527L18.2479 12.3637L18.7087 12.3182C19.3671 12.2531 19.6437 12.1587 20.1316 11.8329C20.6088 11.5142 21.0162 10.9842 21.1996 10.4432L21.3161 10.0998H21.9158C22.3831 10.0998 22.5479 10.0718 22.6619 9.97325C22.8887 9.77716 22.9163 9.57023 22.7445 9.35195C22.6015 9.17011 22.5596 9.15984 21.9594 9.15984H21.3254L21.2356 8.85255C21.1862 8.68351 21.0506 8.37442 20.9343 8.16568L20.7228 7.78609H21.6633C22.5075 7.78609 22.6187 7.77127 22.7485 7.64148C22.9301 7.45986 22.9322 7.27194 22.7549 7.05301L22.6168 6.88231L19.762 6.86184C17.2205 6.84362 16.8944 6.85411 16.7911 6.95736ZM37.2177 13.4831C37.6335 13.7003 37.9617 14.1276 38.0482 14.5645L38.0948 14.7995H33.3442H28.5935L28.6441 14.5645C28.7536 14.0563 29.0926 13.641 29.5811 13.417C29.8488 13.2942 30.13 13.2841 33.3507 13.2827L36.8311 13.2811L37.2177 13.4831ZM38.0767 21.3428V26.9463H33.3409H28.605V21.3428V15.7394H33.3409H38.0767V21.3428ZM31.1036 18.2138C30.9521 18.4301 30.9619 18.6024 31.1356 18.7761C31.2581 18.8986 31.377 18.9208 31.9129 18.9211C32.7262 18.9216 33.0557 19.017 33.3736 19.3439L33.6301 19.6076L32.413 19.6437C31.3154 19.6763 31.1859 19.6937 31.0935 19.8202C31.0372 19.8974 30.991 20.0295 30.991 20.1137C30.991 20.1979 31.0372 20.33 31.0935 20.4072C31.1858 20.5337 31.3154 20.5511 32.4088 20.5837L33.6218 20.6198L33.385 20.8892C33.0889 21.2261 32.8097 21.3058 31.9241 21.3063C31.1596 21.3068 30.991 21.3883 30.991 21.7577C30.991 22.0299 33.8177 24.7772 34.0978 24.7772C34.3877 24.7772 34.5579 24.6164 34.5579 24.3423C34.5579 24.1301 34.4529 24.0045 33.606 23.2044C33.0824 22.7097 32.654 22.2756 32.654 22.2396C32.654 22.2037 32.7435 22.174 32.8528 22.1736C33.3944 22.1717 34.1812 21.5621 34.4613 20.9271L34.613 20.5837H35.0322C35.5008 20.5837 35.6907 20.455 35.6907 20.1373C35.6907 19.8572 35.488 19.727 35.0131 19.7021L34.591 19.6799L34.461 19.3364L34.3309 18.993H34.8582C35.4742 18.993 35.7088 18.8634 35.7088 18.523C35.7088 18.3948 35.6467 18.2646 35.5471 18.1839C35.3995 18.0644 35.205 18.0531 33.3008 18.0531C31.2285 18.0531 31.2155 18.054 31.1036 18.2138ZM14.6661 22.0116C14.7266 22.0812 14.7941 22.2803 14.8161 22.454C14.8633 22.8276 15.1632 23.2378 15.5234 23.4214C15.75 23.537 16.0946 23.5479 19.535 23.5479L23.2986 23.5481L23.6253 23.3409C23.9715 23.1213 24.1487 22.8345 24.2342 22.3551C24.2625 22.196 24.318 22.0252 24.3575 21.9755C24.411 21.908 24.8392 21.8851 26.0471 21.8851H27.6651V23.295V24.7049L15.8617 24.7033C4.52701 24.7018 4.04677 24.6965 3.76906 24.5678C3.21956 24.3135 2.93757 23.8794 2.93757 23.288C2.93757 22.8893 3.06989 22.564 3.34319 22.2908C3.75742 21.8768 3.54788 21.891 9.27093 21.8879C14.2161 21.8853 14.563 21.8933 14.6661 22.0116ZM38.0651 28.922C38.0414 29.9911 38.0335 30.0408 37.8411 30.3314C37.7314 30.497 37.5061 30.7222 37.3404 30.8319L37.039 31.0314L33.4485 31.0514L29.8581 31.0714L29.4677 30.8674C29.1826 30.7186 29.0184 30.5685 28.8592 30.3112C28.6461 29.9669 28.6407 29.9347 28.6179 28.8865L28.5946 27.8139H33.3422H38.0896L38.0651 28.922ZM32.0506 29.1753C31.9007 29.341 31.8981 29.5425 32.0435 29.75C32.152 29.9049 32.1987 29.9107 33.3338 29.9107C34.3829 29.9107 34.5245 29.8963 34.6311 29.7785C34.7822 29.6115 34.7853 29.3048 34.6372 29.1567C34.5432 29.0628 34.3201 29.0431 33.3469 29.0431C32.2988 29.0431 32.1572 29.0575 32.0506 29.1753Z" fill="#2ECC71"/>
<path d="M1.99039 56V45.155C2.04539 45.155 2.19789 45.155 2.44789 45.155C2.70289 45.155 3.00039 45.155 3.34039 45.155C3.68539 45.155 4.02789 45.1575 4.36789 45.1625C4.71289 45.1625 5.00039 45.165 5.23039 45.17C6.54539 45.2 7.61789 45.435 8.44789 45.875C9.27789 46.315 9.88539 46.93 10.2704 47.72C10.6604 48.51 10.8554 49.445 10.8554 50.525C10.8554 51.65 10.6504 52.6225 10.2404 53.4425C9.83039 54.2575 9.20289 54.8875 8.35789 55.3325C7.51789 55.7775 6.45039 56 5.15539 56H1.99039ZM4.19539 54.23H5.20039C5.82039 54.23 6.38289 54.11 6.88789 53.87C7.39789 53.63 7.80539 53.2375 8.11039 52.6925C8.41539 52.1475 8.56789 51.42 8.56789 50.51C8.56789 49.665 8.43289 48.98 8.16289 48.455C7.89289 47.925 7.50789 47.5375 7.00789 47.2925C6.50789 47.0475 5.91539 46.925 5.23039 46.925H4.19539V54.23ZM12.7863 56V45.155H15.9663L18.4488 52.8875L20.9538 45.155H24.1263V56H21.9138V47.705L19.3038 56H17.5863L14.9913 47.7425V56H12.7863ZM28.9033 56V47.105H25.6258V45.155H34.3033V47.105H31.1008V56H28.9033ZM37.164 56V47.8775H35.229V46.64C35.849 46.64 36.349 46.5825 36.729 46.4675C37.114 46.3475 37.4015 46.1775 37.5915 45.9575C37.7815 45.7325 37.894 45.465 37.929 45.155H39.384V56H37.164Z" fill="#2ECC71"/>
</svg>
