<svg width="44" height="57" viewBox="0 0 44 57" fill="none" xmlns="http://www.w3.org/2000/svg">
<path fill-rule="evenodd" clip-rule="evenodd" d="M7.32925 0.0445665C6.75849 0.219394 6.24456 0.642365 5.96938 1.16388L5.77517 1.53191L5.75609 11.2307L5.737 20.9295L5.46688 20.9784C4.71804 21.1142 4.0517 21.6263 3.72279 22.3189C3.44761 22.8982 3.45231 23.7075 3.73407 24.2814C3.96782 24.7573 4.45218 25.2312 4.93097 25.4525L5.26906 25.6087L17.2171 25.6278L29.1651 25.647V27.6552C29.1651 29.933 29.2157 30.2751 29.6461 30.9047C29.965 31.3711 30.6177 31.8225 31.1361 31.9352C31.3993 31.9923 32.5975 32.0105 35.0594 31.9944L38.6039 31.9713L39.0873 31.7333C39.6388 31.4617 40.0092 31.0788 40.2907 30.4891L40.4805 30.0915V22.1743V14.2572L40.2874 13.8453C40.0399 13.3172 39.5351 12.8142 39.0129 12.5751C38.6742 12.42 38.4642 12.381 37.826 12.3547L37.0505 12.3228L37.0303 6.99965L37.0099 1.67651L36.821 1.27885C36.5946 0.802299 36.2046 0.400513 35.7519 0.177459L35.4193 0.0135486L21.4649 0.00132956C13.7899 -0.00539459 7.42888 0.0140548 7.32925 0.0445665ZM35.4468 1.06577C35.5921 1.14747 35.7918 1.33213 35.8905 1.47616L36.07 1.73811L36.0895 7.03964L36.1089 12.3412H35.1697H34.2305L34.2103 7.82976C34.191 3.51032 34.1843 3.31193 34.0524 3.16624L33.9147 3.01411H21.3814C8.94442 3.01411 8.84696 3.0152 8.70343 3.15872C8.56064 3.30151 8.55883 3.3997 8.55883 11.112C8.55883 18.8243 8.56064 18.9225 8.70343 19.0653C8.84667 19.2085 8.94442 19.2099 19.0066 19.2099H29.1651V20.0775V20.9452H27.536C25.8353 20.9452 25.5775 20.984 25.2376 21.2914C25.0395 21.4705 24.8269 21.9189 24.8269 22.1576C24.8269 22.2709 24.7808 22.4267 24.7243 22.504C24.6256 22.6391 24.4919 22.6449 21.1273 22.6624C18.4433 22.6763 17.5921 22.6596 17.4573 22.5901C17.3294 22.5242 17.2594 22.3998 17.1991 22.1315C17.0817 21.609 16.8489 21.2703 16.4866 21.0949C16.1834 20.9481 16.0837 20.9452 11.4281 20.9452H6.67896V11.3615C6.67896 1.01964 6.6577 1.59683 7.05168 1.22896C7.14502 1.1419 7.30264 1.03822 7.40206 0.998528C7.51977 0.951604 12.3933 0.924924 21.3827 0.921888C35.1723 0.917332 35.1829 0.917477 35.4468 1.06577ZM33.2864 8.1476V12.3412H32.3529C30.9558 12.3412 30.2784 12.6074 29.696 13.3853C29.2289 14.0093 29.2068 14.1337 29.1796 16.2997L29.1548 18.27H19.3267H9.49876V11.112V3.95405H21.3926H33.2864V8.1476ZM18.2911 6.95736C18.1467 7.10182 18.1404 7.45183 18.2798 7.59123C18.3564 7.6678 18.6719 7.70981 19.4547 7.7477C20.5871 7.80243 20.987 7.90683 21.3419 8.24029C21.5375 8.42409 21.7519 8.76254 21.8247 9.00258L21.8758 9.17076L20.1771 9.11877L18.4784 9.06686L18.2906 9.25463C18.0656 9.47964 18.0514 9.68686 18.2474 9.88287C18.3838 10.0192 18.4884 10.0275 20.079 10.0275C21.007 10.0275 21.7872 10.0486 21.813 10.0743C21.9079 10.1693 21.4643 10.8411 21.1784 11.0353C20.7161 11.3495 20.4657 11.4012 19.4095 11.4012C18.3017 11.4012 18.1028 11.4664 18.1028 11.8298C18.1028 12.039 18.3543 12.3006 21.2208 15.0734C22.2191 16.039 22.3775 16.1156 22.6526 15.7658C22.735 15.661 22.8035 15.5227 22.8048 15.4585C22.8061 15.3943 22.1188 14.6717 21.2775 13.8527L19.7479 12.3637L20.2087 12.3182C20.8671 12.2531 21.1437 12.1587 21.6316 11.8329C22.1088 11.5142 22.5162 10.9842 22.6996 10.4432L22.8161 10.0998H23.4158C23.8831 10.0998 24.0479 10.0718 24.1619 9.97325C24.3887 9.77716 24.4163 9.57023 24.2445 9.35195C24.1015 9.17011 24.0596 9.15984 23.4594 9.15984H22.8254L22.7356 8.85255C22.6862 8.68351 22.5506 8.37442 22.4343 8.16568L22.2228 7.78609H23.1633C24.0075 7.78609 24.1187 7.77127 24.2485 7.64148C24.4301 7.45986 24.4322 7.27194 24.2549 7.05301L24.1168 6.88231L21.262 6.86184C18.7205 6.84362 18.3944 6.85411 18.2911 6.95736ZM38.7177 13.4831C39.1335 13.7003 39.4617 14.1276 39.5482 14.5645L39.5948 14.7995H34.8442H30.0935L30.1441 14.5645C30.2536 14.0563 30.5926 13.641 31.0811 13.417C31.3488 13.2942 31.63 13.2841 34.8507 13.2827L38.3311 13.2811L38.7177 13.4831ZM39.5767 21.3428V26.9463H34.8409H30.105V21.3428V15.7394H34.8409H39.5767V21.3428ZM32.6036 18.2138C32.4521 18.4301 32.4619 18.6024 32.6356 18.7761C32.7581 18.8986 32.877 18.9208 33.4129 18.9211C34.2262 18.9216 34.5557 19.017 34.8736 19.3439L35.1301 19.6076L33.913 19.6437C32.8154 19.6763 32.6859 19.6937 32.5935 19.8202C32.5372 19.8974 32.491 20.0295 32.491 20.1137C32.491 20.1979 32.5372 20.33 32.5935 20.4072C32.6858 20.5337 32.8154 20.5511 33.9088 20.5837L35.1218 20.6198L34.885 20.8892C34.5889 21.2261 34.3097 21.3058 33.4241 21.3063C32.6596 21.3068 32.491 21.3883 32.491 21.7577C32.491 22.0299 35.3177 24.7772 35.5978 24.7772C35.8877 24.7772 36.0579 24.6164 36.0579 24.3423C36.0579 24.1301 35.9529 24.0045 35.106 23.2044C34.5824 22.7097 34.154 22.2756 34.154 22.2396C34.154 22.2037 34.2435 22.174 34.3528 22.1736C34.8944 22.1717 35.6812 21.5621 35.9613 20.9271L36.113 20.5837H36.5322C37.0008 20.5837 37.1907 20.455 37.1907 20.1373C37.1907 19.8572 36.988 19.727 36.5131 19.7021L36.091 19.6799L35.961 19.3364L35.8309 18.993H36.3582C36.9742 18.993 37.2088 18.8634 37.2088 18.523C37.2088 18.3948 37.1467 18.2646 37.0471 18.1839C36.8995 18.0644 36.705 18.0531 34.8008 18.0531C32.7285 18.0531 32.7155 18.054 32.6036 18.2138ZM16.1661 22.0116C16.2266 22.0812 16.2941 22.2803 16.3161 22.454C16.3633 22.8276 16.6632 23.2378 17.0234 23.4214C17.25 23.537 17.5946 23.5479 21.035 23.5479L24.7986 23.5481L25.1253 23.3409C25.4715 23.1213 25.6487 22.8345 25.7342 22.3551C25.7625 22.196 25.818 22.0252 25.8575 21.9755C25.911 21.908 26.3392 21.8851 27.5471 21.8851H29.1651V23.295V24.7049L17.3617 24.7033C6.02701 24.7018 5.54677 24.6965 5.26906 24.5678C4.71956 24.3135 4.43757 23.8794 4.43757 23.288C4.43757 22.8893 4.56989 22.564 4.84319 22.2908C5.25742 21.8768 5.04788 21.891 10.7709 21.8879C15.7161 21.8853 16.063 21.8933 16.1661 22.0116ZM39.5651 28.922C39.5414 29.9911 39.5335 30.0408 39.3411 30.3314C39.2314 30.497 39.0061 30.7222 38.8404 30.8319L38.539 31.0314L34.9485 31.0514L31.3581 31.0714L30.9677 30.8674C30.6826 30.7186 30.5184 30.5685 30.3592 30.3112C30.1461 29.9669 30.1407 29.9347 30.1179 28.8865L30.0946 27.8139H34.8422H39.5896L39.5651 28.922ZM33.5506 29.1753C33.4007 29.341 33.3981 29.5425 33.5435 29.75C33.652 29.9049 33.6987 29.9107 34.8338 29.9107C35.8829 29.9107 36.0245 29.8963 36.1311 29.7785C36.2822 29.6115 36.2853 29.3048 36.1372 29.1567C36.0432 29.0628 35.8201 29.0431 34.8469 29.0431C33.7988 29.0431 33.6572 29.0575 33.5506 29.1753Z" fill="#9B59B6"/>
<path d="M1.88492 53V42.155C1.93992 42.155 2.09242 42.155 2.34242 42.155C2.59742 42.155 2.89492 42.155 3.23492 42.155C3.57992 42.155 3.92242 42.1575 4.26242 42.1625C4.60742 42.1625 4.89492 42.165 5.12492 42.17C6.43992 42.2 7.51242 42.435 8.34242 42.875C9.17242 43.315 9.77992 43.93 10.1649 44.72C10.5549 45.51 10.7499 46.445 10.7499 47.525C10.7499 48.65 10.5449 49.6225 10.1349 50.4425C9.72492 51.2575 9.09742 51.8875 8.25242 52.3325C7.41242 52.7775 6.34492 53 5.04992 53H1.88492ZM4.08992 51.23H5.09492C5.71492 51.23 6.27742 51.11 6.78242 50.87C7.29242 50.63 7.69992 50.2375 8.00492 49.6925C8.30992 49.1475 8.46242 48.42 8.46242 47.51C8.46242 46.665 8.32742 45.98 8.05742 45.455C7.78742 44.925 7.40242 44.5375 6.90242 44.2925C6.40242 44.0475 5.80992 43.925 5.12492 43.925H4.08992V51.23ZM12.6808 53V42.155H15.8608L18.3433 49.8875L20.8483 42.155H24.0208V53H21.8083V44.705L19.1983 53H17.4808L14.8858 44.7425V53H12.6808ZM28.7979 53V44.105H25.5204V42.155H34.1979V44.105H30.9954V53H28.7979ZM35.326 53V51.92V51.365C35.326 50.815 35.4285 50.34 35.6335 49.94C35.8385 49.535 36.1085 49.185 36.4435 48.89C36.7835 48.59 37.1535 48.3275 37.5535 48.1025C37.9585 47.8775 38.3635 47.665 38.7685 47.465C39.1735 47.265 39.5435 47.065 39.8785 46.865C40.2185 46.66 40.491 46.4325 40.696 46.1825C40.901 45.9325 41.0035 45.6375 41.0035 45.2975C41.0035 44.8625 40.851 44.5075 40.546 44.2325C40.246 43.9575 39.8335 43.82 39.3085 43.82C38.7635 43.82 38.301 43.9775 37.921 44.2925C37.541 44.6075 37.306 45.0825 37.216 45.7175H35.1235C35.1335 45.0275 35.2935 44.4025 35.6035 43.8425C35.9185 43.2775 36.3885 42.83 37.0135 42.5C37.6385 42.17 38.4235 42.005 39.3685 42.005C40.1785 42.005 40.876 42.1425 41.461 42.4175C42.051 42.6925 42.506 43.075 42.826 43.565C43.146 44.055 43.306 44.6275 43.306 45.2825C43.306 45.8275 43.206 46.2975 43.006 46.6925C42.806 47.0875 42.541 47.425 42.211 47.705C41.881 47.985 41.5185 48.23 41.1235 48.44C40.7285 48.65 40.3335 48.845 39.9385 49.025C39.5485 49.205 39.1885 49.39 38.8585 49.58C38.5285 49.765 38.2635 49.975 38.0635 50.21C37.8635 50.445 37.7635 50.7275 37.7635 51.0575V51.155H43.291V53H35.326Z" fill="#9B59B6"/>
</svg>
