<svg width="78" height="60" viewBox="0 0 78 60" fill="none" xmlns="http://www.w3.org/2000/svg">
<path fill-rule="evenodd" clip-rule="evenodd" d="M24.049 0.049734C23.3384 0.221063 22.7124 0.739489 22.3873 1.42567L22.1783 1.86667V9.68147V17.4963L22.3873 17.9373C22.6468 18.485 23.0429 18.879 23.6022 19.1455L24.0327 19.3506H27.7083H31.3839L31.8244 19.1419C32.3834 18.8771 32.7647 18.4958 33.0296 17.9367L33.2383 17.4963V9.68147V1.86667L33.0296 1.4262C32.7647 0.867175 32.3834 0.485839 31.8244 0.220997L31.3839 0.0123155L27.8408 0.00105703C25.892 -0.00516832 24.1858 0.0167529 24.049 0.049734ZM24.0411 0.871149C23.9001 0.921415 23.6766 1.04831 23.5444 1.15301C23.2845 1.35904 22.94 1.96144 22.94 2.20966V2.36338H27.7157H32.4914L32.446 2.11503C32.3439 1.5568 31.9188 1.07367 31.3545 0.874592C30.9512 0.732337 24.4392 0.72929 24.0411 0.871149ZM22.94 8.82052V14.4829H27.7083H32.4767V8.82052V3.1581H27.7083H22.94V8.82052ZM27.0129 5.18856C26.2504 5.35135 25.3484 5.88858 24.8874 6.45462C24.2983 7.17769 24.041 7.89698 24.041 8.82052C24.041 10.9584 25.7843 12.5935 27.9401 12.4776C29.5031 12.3936 30.7987 11.3524 31.258 9.81108C31.4145 9.28603 31.4144 8.35587 31.2579 7.82711C30.8844 6.56502 29.8655 5.57606 28.5989 5.24611C28.243 5.15339 27.3323 5.12035 27.0129 5.18856ZM26.7793 6.09044C26.0128 6.35177 25.4254 6.88225 25.089 7.61724C24.3626 9.20377 25.1819 11.056 26.8378 11.5706C28.3176 12.0305 29.8583 11.2695 30.4296 9.79664C30.6367 9.26278 30.6367 8.37825 30.4296 7.8444C29.8496 6.34906 28.2605 5.58546 26.7793 6.09044ZM26.2513 6.73437C26.1785 6.80722 26.1189 6.92642 26.1189 6.99927C26.1189 7.28273 26.3431 7.39664 26.9009 7.39664C27.2531 7.39664 27.4591 7.42763 27.5466 7.49386C27.6625 7.58154 27.6117 7.59134 27.0295 7.5932C26.4738 7.59505 26.3653 7.6138 26.2513 7.72777C26.1785 7.80062 26.1189 7.91983 26.1189 7.99268C26.1189 8.06553 26.1785 8.18474 26.2513 8.25759C26.3653 8.37157 26.4738 8.39037 27.0295 8.39223L27.6752 8.39448L27.5188 8.52468C27.3944 8.62833 27.2626 8.65495 26.8731 8.65495C26.472 8.65495 26.3599 8.67886 26.2513 8.78741C25.971 9.06768 26.0045 9.11821 27.2361 10.2718C28.103 11.0838 28.2514 11.1583 28.503 10.9067C28.7413 10.6684 28.6646 10.5159 27.9856 9.87969L27.5013 9.42584L27.7514 9.30418C28.072 9.14821 28.3365 8.89357 28.47 8.61237C28.5597 8.42336 28.6098 8.39004 28.8042 8.39004C28.9446 8.39004 29.084 8.33892 29.1653 8.25759C29.4366 7.98626 29.2716 7.66075 28.8325 7.60101C28.4504 7.54909 28.3981 7.39664 28.7624 7.39664C29.0631 7.39664 29.2978 7.22246 29.2978 6.99927C29.2978 6.92642 29.2382 6.80722 29.1653 6.73437C29.0417 6.61072 28.9446 6.60191 27.7083 6.60191C26.472 6.60191 26.375 6.61072 26.2513 6.73437ZM22.94 16.2262C22.94 17.3622 23.0253 17.6845 23.4349 18.094C23.9324 18.5915 23.9107 18.589 27.7083 18.589C31.5134 18.589 31.4674 18.5944 31.9747 18.0871C32.3965 17.6653 32.4767 17.3682 32.4767 16.2262V15.2777H27.7083H22.94V16.2262ZM26.4548 16.7105C26.3793 16.8064 26.3175 16.9067 26.3175 16.9333C26.3175 16.96 26.3793 17.0602 26.4548 17.1562L26.592 17.3307H27.7029C28.6948 17.3307 28.8254 17.3177 28.9232 17.2096C29.068 17.0496 29.0625 16.7821 28.9117 16.6456C28.8093 16.5529 28.6213 16.536 27.6914 16.536H26.592L26.4548 16.7105Z" fill="#FF6B81"/>
<path fill-rule="evenodd" clip-rule="evenodd" d="M46.6324 12.6991C45.9219 12.8704 45.2958 13.3888 44.9707 14.075L44.7618 14.516V22.3308V30.1456L44.9707 30.5866C45.2303 31.1344 45.6264 31.5283 46.1857 31.7949L46.6161 32H50.2917H53.9673L54.4078 31.7913C54.9668 31.5265 55.3482 31.1451 55.613 30.5861L55.8217 30.1456V22.3308V14.516L55.613 14.0756C55.3482 13.5165 54.9668 13.1352 54.4078 12.8704L53.9673 12.6617L50.4242 12.6504C48.4755 12.6442 46.7692 12.6661 46.6324 12.6991ZM46.6245 13.5205C46.4836 13.5708 46.26 13.6977 46.1278 13.8024C45.868 14.0084 45.5234 14.6108 45.5234 14.859V15.0127H50.2991H55.0749L55.0294 14.7644C54.9273 14.2062 54.5022 13.723 53.9379 13.5239C53.5347 13.3817 47.0226 13.3786 46.6245 13.5205ZM45.5234 21.4699V27.1323H50.2917H55.0601V21.4699V15.8075H50.2917H45.5234V21.4699ZM49.5964 17.8379C48.8339 18.0007 47.9319 18.5379 47.4708 19.104C46.8818 19.827 46.6245 20.5463 46.6245 21.4699C46.6245 23.6077 48.3678 25.2428 50.5235 25.1269C52.0866 25.043 53.3821 24.0018 53.8414 22.4604C53.9979 21.9354 53.9979 21.0052 53.8414 20.4765C53.4679 19.2144 52.449 18.2254 51.1824 17.8955C50.8264 17.8027 49.9158 17.7697 49.5964 17.8379ZM49.3628 18.7398C48.5962 19.0011 48.0088 19.5316 47.6724 20.2666C46.946 21.8531 47.7654 23.7054 49.4212 24.22C50.901 24.6798 52.4417 23.9189 53.013 22.446C53.2201 21.9121 53.2201 21.0276 53.013 20.4938C52.4331 18.9984 50.8439 18.2348 49.3628 18.7398ZM48.8347 19.3837C48.7619 19.4566 48.7023 19.5758 48.7023 19.6486C48.7023 19.9321 48.9265 20.046 49.4844 20.046C49.8366 20.046 50.0425 20.077 50.1301 20.1432C50.246 20.2309 50.1951 20.2407 49.6129 20.2426C49.0572 20.2444 48.9487 20.2631 48.8347 20.3771C48.7619 20.45 48.7023 20.5692 48.7023 20.642C48.7023 20.7149 48.7619 20.8341 48.8347 20.9069C48.9487 21.0209 49.0573 21.0397 49.6129 21.0416L50.2586 21.0438L50.1023 21.174C49.9778 21.2777 49.846 21.3043 49.4566 21.3043C49.0555 21.3043 48.9433 21.3282 48.8347 21.4368C48.5545 21.717 48.5879 21.7676 49.8195 22.9212C50.6865 23.7332 50.8349 23.8076 51.0865 23.556C51.3248 23.3177 51.248 23.1653 50.569 22.529L50.0848 22.0752L50.3348 21.9535C50.6555 21.7976 50.92 21.5429 51.0534 21.2617C51.1431 21.0727 51.1932 21.0394 51.3876 21.0394C51.528 21.0394 51.6674 20.9883 51.7487 20.9069C52.0201 20.6356 51.855 20.3101 51.4159 20.2504C51.0339 20.1984 50.9816 20.046 51.3459 20.046C51.6465 20.046 51.8812 19.8718 51.8812 19.6486C51.8812 19.5758 51.8216 19.4566 51.7487 19.3837C51.6251 19.2601 51.528 19.2513 50.2917 19.2513C49.0555 19.2513 48.9584 19.2601 48.8347 19.3837ZM45.5234 28.8755C45.5234 30.0116 45.6088 30.3338 46.0184 30.7434C46.5158 31.2409 46.4941 31.2384 50.2917 31.2384C54.0969 31.2384 54.0508 31.2438 54.5582 30.7364C54.98 30.3146 55.0601 30.0175 55.0601 28.8755V27.927H50.2917H45.5234V28.8755ZM49.0383 29.3598C48.9628 29.4558 48.901 29.5561 48.901 29.5827C48.901 29.6093 48.9628 29.7096 49.0383 29.8055L49.1755 29.9801H50.2863C51.2783 29.9801 51.4088 29.9671 51.5067 29.8589C51.6514 29.699 51.646 29.4314 51.4952 29.2949C51.3927 29.2022 51.2047 29.1853 50.2748 29.1853H49.1755L49.0383 29.3598Z" fill="#FF6B81"/>
<path fill-rule="evenodd" clip-rule="evenodd" d="M37.76 0.0787875C37.6393 0.172698 36.0013 2.66337 35.9225 2.87284C35.8942 2.94788 35.894 3.07066 35.922 3.14557C35.9833 3.30941 38.7131 5.09549 38.9023 5.09549C39.0328 5.09549 39.298 4.88058 39.298 4.77482C39.298 4.74409 39.2125 4.3154 39.1079 3.82208L38.9178 2.92516L39.29 2.88384C39.8214 2.82483 41.0134 2.95212 41.7484 3.14649C45.0631 4.02281 47.454 6.84183 47.7666 10.2425C47.8289 10.9205 47.9082 11.0725 48.1995 11.0725C48.5455 11.0725 48.5921 10.9598 48.5481 10.229C48.3912 7.62185 46.8387 5.01681 44.5544 3.52783C43.0811 2.56747 41.5241 2.10977 39.6676 2.0913L38.7458 2.08216L38.5356 1.12862C38.3858 0.448533 38.2904 0.149386 38.2031 0.0855427C38.0503 -0.0261824 37.8979 -0.0285004 37.76 0.0787875ZM37.3112 2.13799C37.0745 2.50588 36.8807 2.83026 36.8807 2.85874C36.8807 2.90973 38.2505 3.84718 38.2808 3.81691C38.3076 3.79002 37.824 1.55439 37.7818 1.51068C37.7598 1.4877 37.548 1.77003 37.3112 2.13799ZM27.8337 21.0633C27.7066 21.1903 27.6982 21.2485 27.7402 21.709C27.9991 24.551 29.4812 27.0339 31.8103 28.5276C33.2505 29.4512 35.0924 29.9649 36.798 29.9187C37.2261 29.907 37.5763 29.904 37.5762 29.9118C37.5753 30.066 37.9994 31.8357 38.0528 31.9C38.0973 31.9538 38.2231 31.9823 38.3627 31.9705C38.5901 31.9512 38.6269 31.9059 39.5071 30.5598C40.433 29.1439 40.5317 28.9178 40.308 28.726C40.2443 28.6713 39.6079 28.2495 38.8939 27.7885C37.4836 26.8781 37.2489 26.7903 37.1 27.117C37.0388 27.2516 37.0581 27.4475 37.2008 28.1373C37.298 28.6068 37.3775 29.0236 37.3775 29.0635C37.3775 29.1727 36.0662 29.1537 35.3262 29.0337C34.9812 28.9777 34.4324 28.8426 34.1066 28.7335C31.0318 27.7033 28.9202 25.0842 28.5597 21.8537C28.5126 21.431 28.4428 21.1098 28.3828 21.0397C28.249 20.883 28.0034 20.8936 27.8337 21.0633ZM38.0397 28.2495C38.0397 28.2762 38.1489 28.8147 38.2824 29.4461L38.5252 30.594L38.9778 29.9146C39.2266 29.541 39.4303 29.2011 39.4304 29.1593C39.4304 29.1175 39.1548 28.9063 38.8179 28.69C38.0483 28.1957 38.0397 28.1909 38.0397 28.2495Z" fill="#FF6B81"/>
<path d="M1.94449 56V45.155H4.12699V56H1.94449ZM6.28125 56V48.245H8.43375V49.34C8.55375 49.15 8.70875 48.9675 8.89875 48.7925C9.09375 48.6125 9.33875 48.465 9.63375 48.35C9.92875 48.235 10.2788 48.1775 10.6838 48.1775C11.1588 48.1775 11.6013 48.27 12.0113 48.455C12.4263 48.64 12.7613 48.9325 13.0163 49.3325C13.2713 49.7275 13.3988 50.245 13.3988 50.885V56H11.2088V51.155C11.2088 50.735 11.0838 50.42 10.8338 50.21C10.5838 50 10.2788 49.895 9.91875 49.895C9.67875 49.895 9.44625 49.9375 9.22125 50.0225C9.00125 50.1075 8.82125 50.235 8.68125 50.405C8.54125 50.575 8.47125 50.785 8.47125 51.035V56H6.28125ZM18.1054 56.15C17.0654 56.15 16.2554 55.7925 15.6754 55.0775C15.0954 54.3575 14.8054 53.3575 14.8054 52.0775C14.8054 51.2675 14.9229 50.565 15.1579 49.97C15.3929 49.375 15.7404 48.915 16.2004 48.59C16.6604 48.26 17.2229 48.095 17.8879 48.095C18.1679 48.095 18.4279 48.1275 18.6679 48.1925C18.9129 48.2525 19.1354 48.3375 19.3354 48.4475C19.5354 48.5575 19.7104 48.685 19.8604 48.83C20.0104 48.975 20.1329 49.13 20.2279 49.295V44.855H22.4254V56H20.8354L20.5879 54.41C20.5129 54.625 20.4129 54.835 20.2879 55.04C20.1679 55.245 20.0104 55.4325 19.8154 55.6025C19.6204 55.7675 19.3804 55.9 19.0954 56C18.8154 56.1 18.4854 56.15 18.1054 56.15ZM18.5854 54.575C19.1354 54.575 19.5454 54.3825 19.8154 53.9975C20.0904 53.6125 20.2279 52.9625 20.2279 52.0475C20.2229 51.5175 20.1604 51.0775 20.0404 50.7275C19.9204 50.3775 19.7404 50.1175 19.5004 49.9475C19.2654 49.7725 18.9654 49.685 18.6004 49.685C18.1254 49.685 17.7304 49.8675 17.4154 50.2325C17.1004 50.5925 16.9429 51.1975 16.9429 52.0475C16.9429 52.9125 17.0904 53.55 17.3854 53.96C17.6804 54.37 18.0804 54.575 18.5854 54.575ZM27.6813 56.15C26.9213 56.15 26.2588 55.9875 25.6938 55.6625C25.1338 55.3375 24.6988 54.8775 24.3888 54.2825C24.0838 53.6875 23.9313 52.9825 23.9313 52.1675C23.9313 51.3525 24.0838 50.64 24.3888 50.03C24.6988 49.42 25.1338 48.945 25.6938 48.605C26.2588 48.265 26.9238 48.095 27.6888 48.095C28.4538 48.095 29.1163 48.2625 29.6763 48.5975C30.2363 48.9275 30.6688 49.3975 30.9738 50.0075C31.2788 50.6175 31.4313 51.3375 31.4313 52.1675C31.4313 52.9475 31.2813 53.6375 30.9813 54.2375C30.6863 54.8325 30.2588 55.3 29.6988 55.64C29.1438 55.98 28.4713 56.15 27.6813 56.15ZM27.6888 54.5225C28.0738 54.5225 28.3838 54.41 28.6188 54.185C28.8538 53.96 29.0238 53.665 29.1288 53.3C29.2338 52.93 29.2863 52.5275 29.2863 52.0925C29.2863 51.6825 29.2388 51.295 29.1438 50.93C29.0488 50.565 28.8838 50.27 28.6488 50.045C28.4138 49.82 28.0938 49.7075 27.6888 49.7075C27.3038 49.7075 26.9913 49.815 26.7513 50.03C26.5163 50.24 26.3438 50.5275 26.2338 50.8925C26.1238 51.2525 26.0688 51.6525 26.0688 52.0925C26.0688 52.4975 26.1188 52.8875 26.2188 53.2625C26.3188 53.6325 26.4863 53.935 26.7213 54.17C26.9563 54.405 27.2788 54.5225 27.6888 54.5225ZM36.5441 56V45.155H38.7116L43.6616 52.3325V45.155H45.8516V56H43.8791L38.7266 48.5375V56H36.5441ZM51.3574 56.15C50.5874 56.15 49.9099 55.99 49.3249 55.67C48.7449 55.345 48.2924 54.8875 47.9674 54.2975C47.6424 53.7075 47.4799 53.0125 47.4799 52.2125C47.4799 51.4375 47.6274 50.74 47.9224 50.12C48.2224 49.495 48.6524 49.0025 49.2124 48.6425C49.7724 48.2775 50.4499 48.095 51.2449 48.095C52.0349 48.095 52.6974 48.2625 53.2324 48.5975C53.7674 48.9275 54.1724 49.39 54.4474 49.985C54.7224 50.575 54.8599 51.2575 54.8599 52.0325V52.625H49.6474C49.6474 53.02 49.7124 53.365 49.8424 53.66C49.9724 53.95 50.1599 54.175 50.4049 54.335C50.6549 54.49 50.9549 54.5675 51.3049 54.5675C51.6799 54.5675 52.0074 54.4875 52.2874 54.3275C52.5674 54.1675 52.7649 53.905 52.8799 53.54H54.8524C54.7624 54.09 54.5424 54.56 54.1924 54.95C53.8424 55.34 53.4174 55.6375 52.9174 55.8425C52.4174 56.0475 51.8974 56.15 51.3574 56.15ZM49.6474 51.32H52.8124C52.8124 51.01 52.7524 50.725 52.6324 50.465C52.5174 50.205 52.3424 50 52.1074 49.85C51.8774 49.7 51.5874 49.625 51.2374 49.625C50.9024 49.625 50.6149 49.7075 50.3749 49.8725C50.1399 50.0325 49.9574 50.2425 49.8274 50.5025C49.7024 50.7625 49.6424 51.035 49.6474 51.32ZM56.4375 58.415V48.245H58.635L58.6425 49.3625C58.7575 49.1775 58.8975 49.01 59.0625 48.86C59.2325 48.705 59.42 48.57 59.625 48.455C59.83 48.34 60.0525 48.2525 60.2925 48.1925C60.5325 48.1275 60.785 48.095 61.05 48.095C61.625 48.095 62.1375 48.2375 62.5875 48.5225C63.0375 48.8025 63.39 49.2375 63.645 49.8275C63.905 50.4125 64.035 51.1575 64.035 52.0625C64.035 53.0025 63.895 53.775 63.615 54.38C63.34 54.98 62.96 55.425 62.475 55.715C61.99 56.005 61.4425 56.15 60.8325 56.15C60.5825 56.15 60.3475 56.115 60.1275 56.045C59.9075 55.98 59.7025 55.8875 59.5125 55.7675C59.3275 55.6475 59.16 55.51 59.01 55.355C58.865 55.195 58.7375 55.0225 58.6275 54.8375V58.415H56.4375ZM60.3075 54.545C60.7825 54.545 61.18 54.3475 61.5 53.9525C61.825 53.5575 61.9875 52.9325 61.9875 52.0775C61.9875 51.3275 61.8325 50.7425 61.5225 50.3225C61.2175 49.8975 60.8125 49.685 60.3075 49.685C59.7425 49.685 59.32 49.915 59.04 50.375C58.765 50.83 58.6275 51.3975 58.6275 52.0775C58.6275 52.5125 58.6875 52.9175 58.8075 53.2925C58.9325 53.6675 59.1175 53.97 59.3625 54.2C59.6125 54.43 59.9275 54.545 60.3075 54.545ZM67.8074 56.15C67.3174 56.15 66.8724 56.0575 66.4724 55.8725C66.0774 55.6875 65.7649 55.42 65.5349 55.07C65.3049 54.715 65.1899 54.285 65.1899 53.78C65.1899 52.93 65.5074 52.285 66.1424 51.845C66.7774 51.4 67.7799 51.17 69.1499 51.155L70.1249 51.14V50.675C70.1249 50.32 70.0199 50.0475 69.8099 49.8575C69.6049 49.6625 69.2824 49.5675 68.8424 49.5725C68.5274 49.5775 68.2249 49.6525 67.9349 49.7975C67.6499 49.9425 67.4524 50.195 67.3424 50.555H65.5199C65.5499 49.995 65.7124 49.535 66.0074 49.175C66.3074 48.81 66.7099 48.54 67.2149 48.365C67.7199 48.185 68.2974 48.095 68.9474 48.095C69.7374 48.095 70.3724 48.195 70.8524 48.395C71.3324 48.59 71.6799 48.8725 71.8949 49.2425C72.1149 49.6075 72.2249 50.0425 72.2249 50.5475V56H70.3949L70.2149 54.665C69.9499 55.225 69.6174 55.6125 69.2174 55.8275C68.8224 56.0425 68.3524 56.15 67.8074 56.15ZM68.5499 54.71C68.7449 54.71 68.9349 54.675 69.1199 54.605C69.3099 54.53 69.4799 54.4325 69.6299 54.3125C69.7799 54.1875 69.8974 54.0475 69.9824 53.8925C70.0724 53.7375 70.1199 53.5775 70.1249 53.4125V52.265L69.3374 52.28C68.9724 52.285 68.6324 52.33 68.3174 52.415C68.0024 52.495 67.7474 52.6275 67.5524 52.8125C67.3624 52.9975 67.2674 53.2475 67.2674 53.5625C67.2674 53.9225 67.3899 54.205 67.6349 54.41C67.8849 54.61 68.1899 54.71 68.5499 54.71ZM76.476 56.135C75.906 56.135 75.4535 56.0675 75.1185 55.9325C74.7835 55.7975 74.536 55.62 74.376 55.4C74.216 55.175 74.1135 54.9275 74.0685 54.6575C74.0235 54.3825 74.001 54.105 74.001 53.825V44.855H76.146V53.555C76.146 53.84 76.206 54.0725 76.326 54.2525C76.451 54.4275 76.6835 54.535 77.0235 54.575L77.391 54.5975V55.9475C77.241 55.9975 77.0885 56.04 76.9335 56.075C76.7785 56.115 76.626 56.135 76.476 56.135Z" fill="#FF6B81"/>
</svg>
