<svg width="47" height="60" viewBox="0 0 47 60" fill="none" xmlns="http://www.w3.org/2000/svg">
<path fill-rule="evenodd" clip-rule="evenodd" d="M8.12204 0.072502C7.80831 0.156058 7.374 0.537728 7.22873 0.857612C7.11533 1.10732 7.11072 1.65194 7.10976 15.0114C7.10899 24.5132 7.12993 28.9818 7.17584 29.1472C7.25991 29.4501 7.56545 29.8033 7.88367 29.9656C8.09041 30.0711 8.26271 30.0899 9.0217 30.0899C9.98833 30.0899 10.0734 30.0628 10.1576 29.7277C10.1851 29.618 10.1575 29.5122 10.071 29.396C9.94703 29.2297 9.92321 29.2248 9.09687 29.1935C8.35382 29.1654 8.23864 29.1463 8.15905 29.0372C8.08151 28.9309 8.06839 26.9051 8.06839 15.0348V1.15656L8.21072 1.05693C8.33852 0.967355 9.89568 0.957239 23.5134 0.957239C38.5884 0.957239 38.6744 0.957943 38.8018 1.08529C38.926 1.20957 38.9298 1.2987 38.9298 4.08506C38.9298 5.92516 38.954 7.02599 38.997 7.14956C39.0618 7.33525 39.2798 7.48808 39.48 7.48808C39.5328 7.48808 39.6466 7.41733 39.733 7.33089L39.8902 7.17377V4.15946C39.8902 0.806837 39.8989 0.881558 39.4561 0.427088C39.0036 -0.0371777 40.2594 -0.00388322 23.4714 0.00341595C13.8771 0.00764179 8.27091 0.0328688 8.12204 0.072502ZM10.4694 2.79241C10.1882 2.94063 9.99268 3.13521 9.85496 3.40374C9.73791 3.63194 9.73311 3.86282 9.73311 9.24949C9.73311 15.4405 9.70584 15.0212 10.1387 15.4773C10.5412 15.9013 9.68234 15.8757 23.4991 15.8757C37.3159 15.8757 36.457 15.9013 36.8595 15.4773C37.2924 15.0212 37.2651 15.4405 37.2651 9.24885C37.2651 4.21011 37.2546 3.6192 37.1616 3.43512C37.0154 3.1459 36.8226 2.94902 36.5473 2.80784C36.3161 2.68926 35.9679 2.68605 23.4857 2.68855C11.9193 2.69086 10.6427 2.70104 10.4694 2.79241ZM36.236 3.75109C36.3679 3.91872 36.3687 3.95406 36.3687 9.2895C36.3687 14.5738 36.3667 14.6612 36.2406 14.7873C36.1135 14.9144 36.0272 14.9153 23.4991 14.9153C10.971 14.9153 10.8847 14.9144 10.7576 14.7873C10.6315 14.6612 10.6295 14.5738 10.6295 9.2895C10.6295 3.95406 10.6303 3.91872 10.7622 3.75109L10.8949 3.58238H23.4991H36.1033L36.236 3.75109ZM16.4432 6.6326C16.1524 6.7533 16.199 6.63401 15.3375 9.46532C14.8251 11.1498 14.6827 11.6946 14.7314 11.7857C14.8247 11.9599 15.1323 12.0981 15.4269 12.0981C15.7389 12.0981 15.8144 11.9992 15.9779 11.3759L16.0918 10.9419L16.8924 10.9597L17.6929 10.9776L17.8268 11.4582C18.0105 12.1176 18.0106 12.1177 18.4177 12.084C18.7737 12.0545 19.0812 11.8592 19.0812 11.6627C19.0812 11.505 17.6671 6.95255 17.5716 6.80298C17.4792 6.65815 17.1237 6.52613 16.8402 6.53131C16.7522 6.53291 16.5735 6.5785 16.4432 6.6326ZM21.1017 6.73402C20.9686 6.92399 20.9751 7.3136 21.1141 7.47995C21.2102 7.59501 21.308 7.61646 21.8024 7.63112L22.3786 7.64815L22.3944 9.76107C22.4097 11.8247 22.4133 11.8766 22.5455 11.986C22.6327 12.0582 22.7898 12.0981 22.9869 12.0981C23.184 12.0981 23.341 12.0582 23.4282 11.986C23.5605 11.8766 23.564 11.8247 23.5794 9.76107L23.5951 7.64815L24.1714 7.63112C24.6658 7.61646 24.7636 7.59501 24.8597 7.47995C24.9987 7.3136 25.0052 6.92399 24.8721 6.73402C24.7731 6.59271 24.7594 6.59169 22.9869 6.59169C21.2143 6.59169 21.2006 6.59271 21.1017 6.73402ZM27.9121 6.77884L27.7249 6.966V9.40399C27.7249 11.7566 27.7294 11.8465 27.853 11.97C28.0451 12.1622 28.6402 12.1355 28.8774 11.9242C28.8951 11.9084 28.9239 11.2309 28.9415 10.4184L28.9735 8.94119L29.3413 9.61624C29.7082 10.2899 29.7838 10.3693 30.0573 10.3693C30.2485 10.3693 30.3684 10.2278 30.7764 9.5202L31.1176 8.92871L31.118 10.3853C31.1184 11.7563 31.126 11.8495 31.2465 11.97C31.4298 12.1533 31.9987 12.1503 32.1977 11.9649L32.3406 11.8317L32.3218 9.36615L32.3029 6.90062L32.1233 6.74613C31.986 6.62806 31.8693 6.59169 31.6281 6.59169C31.2117 6.59169 31.0387 6.75387 30.5694 7.58412C30.3703 7.93627 30.1652 8.29169 30.1136 8.37391C30.0222 8.5197 30.0076 8.50241 29.5212 7.67005C28.9754 6.73588 28.8232 6.59259 28.3763 6.59201C28.1552 6.59175 28.0615 6.62947 27.9121 6.77884ZM17.1612 9.03198C17.3005 9.53864 17.4149 9.97479 17.4154 10.0012C17.416 10.0276 17.1685 10.0492 16.8654 10.0492C16.42 10.0492 16.3209 10.032 16.3486 9.95981C16.3675 9.91064 16.4918 9.46526 16.6249 8.97001C16.758 8.47481 16.8761 8.07893 16.8875 8.0902C16.8987 8.10153 17.0219 8.52533 17.1612 9.03198ZM39.113 9.59536L38.9618 9.71772L38.9298 19.3542C38.9122 24.6543 38.8834 29.0037 38.8658 29.0194C38.6818 29.1842 38.3194 29.1935 32.0902 29.1935C26.0271 29.1935 25.618 29.2005 25.4938 29.3056C25.2896 29.4784 25.2615 29.7139 25.421 29.9166L25.5573 30.0899H32.2141C38.6772 30.0899 38.878 30.0863 39.1145 29.9656C39.4328 29.8033 39.7383 29.4501 39.8224 29.1472C39.8678 28.9835 39.8897 25.8191 39.8899 19.3464L39.8902 9.78726L39.733 9.63013C39.5445 9.44157 39.3185 9.42889 39.113 9.59536ZM10.6295 18.4475C10.3078 18.5397 10.0086 18.7881 9.8538 19.0916C9.67145 19.4489 9.70366 20.0532 9.92199 20.3719C10.2106 20.7931 10.4472 20.8992 11.1528 20.9239C11.686 20.9426 11.7823 20.9621 11.7839 21.052C11.7849 21.1103 11.5494 23.3766 11.2604 26.0882C10.9369 29.1229 10.7532 31.0905 10.7824 31.2061C10.851 31.4773 11.259 31.8576 11.5718 31.9419C11.7604 31.9926 13.5827 32.0083 17.8762 31.996C23.6311 31.9796 23.9266 31.9731 24.1567 31.8588C24.4904 31.6929 24.6695 31.4179 24.7001 31.0242C24.714 30.8449 24.4927 28.536 24.2083 25.8933C23.9239 23.2506 23.6912 21.0567 23.6912 21.0179C23.6912 20.9746 23.886 20.9387 24.1977 20.9245C24.6507 20.9039 24.7303 20.8805 24.95 20.7036C25.6958 20.103 25.6598 19.0825 24.8758 18.5969L24.5657 18.4048L17.7096 18.394C13.2811 18.387 10.7743 18.406 10.6295 18.4475ZM28.3951 18.5007C27.9123 18.7398 27.885 18.8458 27.885 20.4857C27.885 22.6273 27.8565 22.5988 29.9969 22.5984C31.5701 22.5981 31.6854 22.5708 31.9511 22.135C32.0681 21.9431 32.0784 21.8103 32.0786 20.4792C32.0788 19.081 32.0739 19.0247 31.9335 18.8145C31.6625 18.4088 31.5057 18.373 29.9979 18.3729C28.7831 18.3729 28.6284 18.3852 28.3951 18.5007ZM33.6475 18.4632C33.5419 18.5102 33.3834 18.6266 33.2954 18.7218L33.1353 18.8951L33.1161 20.4501L33.097 22.0051L33.2678 22.2081C33.5821 22.5816 33.6658 22.5987 35.1835 22.5987C36.4197 22.5987 36.5913 22.5857 36.8065 22.4759C37.251 22.2491 37.2769 22.1296 37.2536 20.4108C37.2331 18.8959 37.233 18.895 37.073 18.7218C36.7785 18.4028 36.6128 18.3726 35.1702 18.3753C34.2048 18.3772 33.7869 18.4012 33.6475 18.4632ZM11.9734 19.4453C11.973 19.5069 11.9548 19.6654 11.933 19.7974L11.8933 20.0375H11.3894C10.971 20.0375 10.8639 20.0158 10.7576 19.9095C10.6018 19.7537 10.5947 19.6059 10.7355 19.4503C10.8229 19.3537 10.9404 19.3332 11.4078 19.3332C11.9047 19.3332 11.974 19.3469 11.9734 19.4453ZM18.1853 19.4453C18.1856 19.5069 18.315 22.0784 18.4729 25.1598C18.6308 28.2411 18.7602 30.827 18.7605 30.9063L18.761 31.0503H15.2448C12.7814 31.0503 11.7218 31.0296 11.7056 30.9811C11.6894 30.9326 12.8917 19.5192 12.9308 19.3492C12.9328 19.3405 14.1158 19.3332 15.5596 19.3332C18.0169 19.3332 18.1849 19.3404 18.1853 19.4453ZM20.7043 24.8556C20.9433 27.893 21.1552 30.5293 21.1753 30.7142L21.2117 31.0503H20.4666C20.0568 31.0503 19.7195 31.0431 19.7172 31.0343C19.7149 31.0256 19.5778 28.3892 19.4127 25.1758L19.1123 19.3332H19.691H20.2697L20.7043 24.8556ZM23.1911 25.1278C23.5325 28.2971 23.8 30.9263 23.7856 30.9703C23.7664 31.0286 23.5423 31.0503 22.9581 31.0503C22.1787 31.0503 22.1562 31.0464 22.1274 30.9063C22.1112 30.827 21.9088 28.3131 21.6778 25.3198C21.4467 22.3265 21.2414 19.754 21.2216 19.6031L21.1856 19.3288L21.878 19.347L22.5703 19.3652L23.1911 25.1278ZM24.4918 19.4847C24.565 19.5965 24.575 19.678 24.5301 19.7961C24.4542 19.9959 24.3471 20.0375 23.91 20.0375C23.5875 20.0375 23.5631 20.0268 23.5631 19.8855C23.5631 19.8019 23.5451 19.6434 23.5231 19.5333L23.4831 19.3332H23.9378C24.3453 19.3332 24.4029 19.349 24.4918 19.4847ZM31.1824 20.4857V21.6382H29.9979H28.8134V20.4857V19.3332H29.9979H31.1824V20.4857ZM36.3687 20.4857V21.6382H35.1842H33.9997V20.4857V19.3332H35.1842H36.3687V20.4857ZM28.3305 23.6143C27.8999 23.8768 27.885 23.943 27.885 25.5873C27.885 26.9862 27.8926 27.0814 28.017 27.248C28.0896 27.3453 28.2286 27.4842 28.3258 27.5568C28.4923 27.6811 28.588 27.6889 29.9546 27.6889C31.2985 27.6889 31.4232 27.6792 31.6306 27.5586C32.0546 27.3122 32.0844 27.1719 32.0645 25.5119C32.0395 23.4252 32.1124 23.4949 29.9562 23.4953C28.6754 23.4955 28.5049 23.508 28.3305 23.6143ZM33.5688 23.59C33.455 23.6394 33.3038 23.7752 33.2328 23.8916C33.1133 24.0877 33.1037 24.2121 33.1037 25.5759C33.1037 27.7336 33.0597 27.6889 35.1842 27.6889C37.3087 27.6889 37.2646 27.7336 37.2646 25.5759C37.2646 23.4283 37.3296 23.4938 35.2034 23.4975C34.1229 23.4995 33.7252 23.5219 33.5688 23.59ZM31.1679 25.592L31.1853 26.7605H29.9994H28.8134V25.5745V24.3886L29.9819 24.406L31.1504 24.4234L31.1679 25.592ZM36.3687 25.5759V26.7605H35.1842H33.9997V25.5759V24.3914H35.1842H36.3687V25.5759Z" fill="#E74C3C"/>
<path d="M1.89746 56V48.245H4.04246V49.34C4.27746 49 4.59246 48.7075 4.98746 48.4625C5.38746 48.2175 5.88996 48.095 6.49496 48.095C6.75996 48.095 7.02996 48.1425 7.30496 48.2375C7.57996 48.3325 7.83746 48.4725 8.07746 48.6575C8.32246 48.8375 8.51996 49.065 8.66996 49.34C8.91996 48.985 9.24746 48.69 9.65246 48.455C10.0625 48.215 10.5175 48.095 11.0175 48.095C11.3075 48.095 11.6 48.1425 11.895 48.2375C12.195 48.3325 12.47 48.4875 12.72 48.7025C12.97 48.9175 13.17 49.205 13.32 49.565C13.475 49.92 13.5525 50.36 13.5525 50.885V56H11.3625V51.155C11.3625 50.845 11.3 50.5975 11.175 50.4125C11.055 50.2225 10.9 50.0875 10.71 50.0075C10.525 49.9225 10.3275 49.88 10.1175 49.88C9.92246 49.88 9.72496 49.92 9.52496 50C9.32496 50.075 9.15496 50.1975 9.01496 50.3675C8.87496 50.5375 8.80496 50.76 8.80496 51.035V56H6.62246V50.96C6.62246 50.725 6.55996 50.5275 6.43496 50.3675C6.30996 50.2075 6.15246 50.0875 5.96246 50.0075C5.77746 49.9225 5.58746 49.88 5.39246 49.88C5.19246 49.88 4.99246 49.9225 4.79246 50.0075C4.59246 50.0875 4.42496 50.215 4.28996 50.39C4.15496 50.56 4.08746 50.775 4.08746 51.035V56H1.89746ZM14.8051 56L18.6826 45.155H21.0001L24.8776 56H22.6951L21.8101 53.4875H17.9026L17.0026 56H14.8051ZM18.3976 51.575H21.2776L19.8451 47.2625L18.3976 51.575ZM27.5498 56V47.105H24.2723V45.155H32.9498V47.105H29.7473V56H27.5498ZM34.4455 56V45.155H37.6255L40.108 52.8875L42.613 45.155H45.7855V56H43.573V47.705L40.963 56H39.2455L36.6505 47.7425V56H34.4455Z" fill="#E74C3C"/>
</svg>
