<svg width="113" height="60" viewBox="0 0 113 60" fill="none" xmlns="http://www.w3.org/2000/svg">
<path fill-rule="evenodd" clip-rule="evenodd" d="M55.8292 0.0393303C52.5939 0.237902 49.3573 1.502 46.8032 3.56473C45.783 4.38877 45.1984 4.94822 44.522 5.74832C42.9546 7.60186 41.7887 9.93591 41.2667 12.2648L41.0924 13.0424L39.1456 13.0811L37.1988 13.1199L36.9457 13.3731C36.7309 13.5881 36.6927 13.6819 36.6934 13.993C36.6941 14.3466 36.7733 14.4739 38.9382 17.6012C40.3985 19.7105 41.2562 20.881 41.3935 20.952C41.6392 21.0791 41.9104 21.0913 42.183 20.9877C42.4205 20.8974 42.5012 20.7875 44.9685 17.1974C47.109 14.0826 47.1264 14.0483 46.826 13.5398C46.5816 13.1261 46.3628 13.0811 44.5929 13.0811H42.9871L43.0347 12.7836C43.2671 11.3304 44.1918 9.27132 45.3106 7.71614C48.0317 3.93344 53.1385 1.50154 57.4924 1.91488C61.3345 2.27963 64.5285 4.00526 67.4607 7.30056L67.9357 7.83429L68.3471 7.7947C68.8894 7.74264 69.1941 7.43475 69.1933 6.93991C69.1928 6.54865 69.1142 6.42182 68.2879 5.4777C66.0223 2.88891 62.7029 0.974623 59.3157 0.303524C58.5451 0.150819 56.8927 -0.022728 56.449 0.0024518C56.3212 0.00965709 56.0423 0.0263143 55.8292 0.0393303ZM52.4541 10.3118C52.0781 10.5645 51.9316 11.003 52.0942 11.39C52.3119 11.9085 52.4602 11.9529 54.1236 11.9965C55.5175 12.033 55.6238 12.0465 55.986 12.2332C56.2042 12.3456 56.4837 12.5798 56.633 12.7755L56.8958 13.1199L54.7706 13.1586C52.3887 13.202 52.3245 13.2166 52.0942 13.7651C51.9322 14.1507 52.0781 14.5907 52.4511 14.8412C52.7089 15.0144 52.7571 15.018 54.7948 15.018C55.939 15.018 56.8752 15.0392 56.8752 15.065C56.8752 15.203 56.3478 15.7455 56.0349 15.9294C55.6831 16.1363 55.6373 16.1424 54.1635 16.1802C52.5624 16.2212 52.4501 16.2471 52.1759 16.6386C52.0186 16.8631 52.0259 17.3595 52.1904 17.625C52.4242 18.0027 57.4673 22.7175 57.761 22.833C58.4154 23.0905 59.085 22.472 58.9277 21.7555C58.8889 21.5791 58.4217 21.0889 57.0647 19.8012L55.2535 18.0824L55.7738 17.9774C57.0649 17.7168 58.2858 16.6606 58.6982 15.4476L58.8396 15.0314L59.6459 15.0053C60.4439 14.9795 60.4543 14.9767 60.6764 14.7281C60.9657 14.4041 61.0256 14.1491 60.8938 13.8027C60.7106 13.3215 60.4613 13.2011 59.585 13.1709L58.8193 13.1444L58.7278 12.8609C58.6773 12.7051 58.5704 12.4468 58.4901 12.287L58.344 11.9965L59.2947 11.9962C60.107 11.9959 60.2822 11.9735 60.4982 11.8418C61.0372 11.5131 61.116 10.8342 60.6655 10.4024L60.429 10.1758L56.5747 10.1543L52.7205 10.1329L52.4541 10.3118ZM70.6893 11.1056C70.5981 11.1695 69.5231 12.6722 68.3006 14.445C65.8739 17.9641 65.851 18.0079 66.1873 18.5033C66.488 18.9463 66.5856 18.9669 68.3894 18.9682L70.0253 18.9693L69.9172 19.4376C68.9759 23.5121 66.1657 26.9244 62.2043 28.8035C58.4942 30.5633 54.8613 30.6292 51.1457 29.0042C49.0692 28.096 47.3586 26.8078 45.5624 24.7994C45.1057 24.2888 45.0332 24.2377 44.7656 24.2377C44.1435 24.2377 43.7271 24.6806 43.8048 25.2596C43.9046 26.0036 46.273 28.3144 48.1978 29.5457C49.9842 30.6885 52.2747 31.5515 54.38 31.8751C55.4614 32.0412 57.4196 32.0417 58.5022 31.8761C64.8336 30.9073 70.1511 26.1549 71.6049 20.1657C71.7387 19.6142 71.86 19.1195 71.8745 19.0662C71.8945 18.9921 72.3402 18.9693 73.7699 18.9693C75.3928 18.9693 75.6687 18.9519 75.863 18.8372C76.1512 18.6669 76.3507 18.2488 76.2982 17.9251C76.2534 17.6485 72.1301 11.5611 71.7446 11.2023C71.48 10.956 70.9696 10.9092 70.6893 11.1056Z" fill="#3498DB"/>
<path d="M1.97867 56V45.155H5.15867L7.64117 52.8875L10.1462 45.155H13.3187V56H11.1062V47.705L8.49617 56H6.77867L4.18367 47.7425V56H1.97867ZM18.6481 56.15C17.8881 56.15 17.2256 55.9875 16.6606 55.6625C16.1006 55.3375 15.6656 54.8775 15.3556 54.2825C15.0506 53.6875 14.8981 52.9825 14.8981 52.1675C14.8981 51.3525 15.0506 50.64 15.3556 50.03C15.6656 49.42 16.1006 48.945 16.6606 48.605C17.2256 48.265 17.8906 48.095 18.6556 48.095C19.4206 48.095 20.0831 48.2625 20.6431 48.5975C21.2031 48.9275 21.6356 49.3975 21.9406 50.0075C22.2456 50.6175 22.3981 51.3375 22.3981 52.1675C22.3981 52.9475 22.2481 53.6375 21.9481 54.2375C21.6531 54.8325 21.2256 55.3 20.6656 55.64C20.1106 55.98 19.4381 56.15 18.6481 56.15ZM18.6556 54.5225C19.0406 54.5225 19.3506 54.41 19.5856 54.185C19.8206 53.96 19.9906 53.665 20.0956 53.3C20.2006 52.93 20.2531 52.5275 20.2531 52.0925C20.2531 51.6825 20.2056 51.295 20.1106 50.93C20.0156 50.565 19.8506 50.27 19.6156 50.045C19.3806 49.82 19.0606 49.7075 18.6556 49.7075C18.2706 49.7075 17.9581 49.815 17.7181 50.03C17.4831 50.24 17.3106 50.5275 17.2006 50.8925C17.0906 51.2525 17.0356 51.6525 17.0356 52.0925C17.0356 52.4975 17.0856 52.8875 17.1856 53.2625C17.2856 53.6325 17.4531 53.935 17.6881 54.17C17.9231 54.405 18.2456 54.5225 18.6556 54.5225ZM23.8936 56V48.245H26.0461V49.34C26.1661 49.15 26.3211 48.9675 26.5111 48.7925C26.7061 48.6125 26.9511 48.465 27.2461 48.35C27.5411 48.235 27.8911 48.1775 28.2961 48.1775C28.7711 48.1775 29.2136 48.27 29.6236 48.455C30.0386 48.64 30.3736 48.9325 30.6286 49.3325C30.8836 49.7275 31.0111 50.245 31.0111 50.885V56H28.8211V51.155C28.8211 50.735 28.6961 50.42 28.4461 50.21C28.1961 50 27.8911 49.895 27.5311 49.895C27.2911 49.895 27.0586 49.9375 26.8336 50.0225C26.6136 50.1075 26.4336 50.235 26.2936 50.405C26.1536 50.575 26.0836 50.785 26.0836 51.035V56H23.8936ZM36.3477 56.15C35.5777 56.15 34.9002 55.99 34.3152 55.67C33.7352 55.345 33.2827 54.8875 32.9577 54.2975C32.6327 53.7075 32.4702 53.0125 32.4702 52.2125C32.4702 51.4375 32.6177 50.74 32.9127 50.12C33.2127 49.495 33.6427 49.0025 34.2027 48.6425C34.7627 48.2775 35.4402 48.095 36.2352 48.095C37.0252 48.095 37.6877 48.2625 38.2227 48.5975C38.7577 48.9275 39.1627 49.39 39.4377 49.985C39.7127 50.575 39.8502 51.2575 39.8502 52.0325V52.625H34.6377C34.6377 53.02 34.7027 53.365 34.8327 53.66C34.9627 53.95 35.1502 54.175 35.3952 54.335C35.6452 54.49 35.9452 54.5675 36.2952 54.5675C36.6702 54.5675 36.9977 54.4875 37.2777 54.3275C37.5577 54.1675 37.7552 53.905 37.8702 53.54H39.8427C39.7527 54.09 39.5327 54.56 39.1827 54.95C38.8327 55.34 38.4077 55.6375 37.9077 55.8425C37.4077 56.0475 36.8877 56.15 36.3477 56.15ZM34.6377 51.32H37.8027C37.8027 51.01 37.7427 50.725 37.6227 50.465C37.5077 50.205 37.3327 50 37.0977 49.85C36.8677 49.7 36.5777 49.625 36.2277 49.625C35.8927 49.625 35.6052 49.7075 35.3652 49.8725C35.1302 50.0325 34.9477 50.2425 34.8177 50.5025C34.6927 50.7625 34.6327 51.035 34.6377 51.32ZM42.4377 58.475C41.9077 58.475 41.5327 58.43 41.3127 58.34C41.0927 58.255 40.9827 58.2125 40.9827 58.2125V56.8175L41.7552 56.8475C42.0902 56.8675 42.3602 56.85 42.5652 56.795C42.7702 56.745 42.9252 56.6775 43.0302 56.5925C43.1352 56.5075 43.2102 56.4175 43.2552 56.3225C43.3052 56.2325 43.3402 56.16 43.3602 56.105L43.5027 55.6775L40.4877 48.245H42.6552L44.5152 53.3L46.3902 48.245H48.5352L45.3927 56.045C45.1227 56.705 44.8352 57.21 44.5302 57.56C44.2302 57.91 43.9052 58.15 43.5552 58.28C43.2102 58.41 42.8377 58.475 42.4377 58.475ZM55.5811 56V47.105H52.3036V45.155H60.9811V47.105H57.7786V56H55.5811ZM61.9648 56V48.245H64.0723V50.0825C64.1973 49.6875 64.3723 49.3425 64.5973 49.0475C64.8273 48.7475 65.1048 48.515 65.4298 48.35C65.7548 48.18 66.1223 48.095 66.5323 48.095C66.6023 48.095 66.6673 48.1 66.7273 48.11C66.7923 48.115 66.8398 48.125 66.8698 48.14V50.225C66.8248 50.205 66.7698 50.1925 66.7048 50.1875C66.6448 50.1825 66.5898 50.1775 66.5398 50.1725C66.1098 50.1375 65.7423 50.15 65.4373 50.21C65.1323 50.27 64.8848 50.3725 64.6948 50.5175C64.5048 50.6625 64.3673 50.84 64.2823 51.05C64.1973 51.26 64.1548 51.495 64.1548 51.755V56H61.9648ZM70.2879 56.15C69.7979 56.15 69.3529 56.0575 68.9529 55.8725C68.5579 55.6875 68.2454 55.42 68.0154 55.07C67.7854 54.715 67.6704 54.285 67.6704 53.78C67.6704 52.93 67.9879 52.285 68.6229 51.845C69.2579 51.4 70.2604 51.17 71.6304 51.155L72.6054 51.14V50.675C72.6054 50.32 72.5004 50.0475 72.2904 49.8575C72.0854 49.6625 71.7629 49.5675 71.3229 49.5725C71.0079 49.5775 70.7054 49.6525 70.4154 49.7975C70.1304 49.9425 69.9329 50.195 69.8229 50.555H68.0004C68.0304 49.995 68.1929 49.535 68.4879 49.175C68.7879 48.81 69.1904 48.54 69.6954 48.365C70.2004 48.185 70.7779 48.095 71.4279 48.095C72.2179 48.095 72.8529 48.195 73.3329 48.395C73.8129 48.59 74.1604 48.8725 74.3754 49.2425C74.5954 49.6075 74.7054 50.0425 74.7054 50.5475V56H72.8754L72.6954 54.665C72.4304 55.225 72.0979 55.6125 71.6979 55.8275C71.3029 56.0425 70.8329 56.15 70.2879 56.15ZM71.0304 54.71C71.2254 54.71 71.4154 54.675 71.6004 54.605C71.7904 54.53 71.9604 54.4325 72.1104 54.3125C72.2604 54.1875 72.3779 54.0475 72.4629 53.8925C72.5529 53.7375 72.6004 53.5775 72.6054 53.4125V52.265L71.8179 52.28C71.4529 52.285 71.1129 52.33 70.7979 52.415C70.4829 52.495 70.2279 52.6275 70.0329 52.8125C69.8429 52.9975 69.7479 53.2475 69.7479 53.5625C69.7479 53.9225 69.8704 54.205 70.1154 54.41C70.3654 54.61 70.6704 54.71 71.0304 54.71ZM76.4814 56V48.245H78.6339V49.34C78.7539 49.15 78.9089 48.9675 79.0989 48.7925C79.2939 48.6125 79.5389 48.465 79.8339 48.35C80.1289 48.235 80.4789 48.1775 80.8839 48.1775C81.3589 48.1775 81.8014 48.27 82.2114 48.455C82.6264 48.64 82.9614 48.9325 83.2164 49.3325C83.4714 49.7275 83.5989 50.245 83.5989 50.885V56H81.4089V51.155C81.4089 50.735 81.2839 50.42 81.0339 50.21C80.7839 50 80.4789 49.895 80.1189 49.895C79.8789 49.895 79.6464 49.9375 79.4214 50.0225C79.2014 50.1075 79.0214 50.235 78.8814 50.405C78.7414 50.575 78.6714 50.785 78.6714 51.035V56H76.4814ZM88.4198 56.15C87.8798 56.15 87.3598 56.0625 86.8598 55.8875C86.3648 55.7075 85.9423 55.4275 85.5923 55.0475C85.2473 54.6625 85.0298 54.165 84.9398 53.555H86.8298C86.8998 53.83 87.0198 54.0475 87.1898 54.2075C87.3648 54.3675 87.5623 54.4825 87.7823 54.5525C88.0023 54.6175 88.2123 54.65 88.4123 54.65C88.8323 54.65 89.1698 54.585 89.4248 54.455C89.6848 54.32 89.8148 54.115 89.8148 53.84C89.8148 53.63 89.7373 53.4625 89.5823 53.3375C89.4323 53.2125 89.1823 53.1175 88.8323 53.0525L87.4673 52.7675C86.7823 52.6225 86.2298 52.3775 85.8098 52.0325C85.3948 51.6825 85.1848 51.1875 85.1798 50.5475C85.1748 50.0825 85.2948 49.665 85.5398 49.295C85.7898 48.925 86.1573 48.6325 86.6423 48.4175C87.1323 48.2025 87.7298 48.095 88.4348 48.095C89.3898 48.095 90.1523 48.305 90.7223 48.725C91.2973 49.145 91.5898 49.7375 91.5998 50.5025H89.7698C89.7148 50.2025 89.5648 49.9725 89.3198 49.8125C89.0798 49.6475 88.7748 49.565 88.4048 49.565C88.0298 49.565 87.7198 49.6325 87.4748 49.7675C87.2298 49.9025 87.1073 50.1075 87.1073 50.3825C87.1073 50.5875 87.2073 50.75 87.4073 50.87C87.6073 50.985 87.9173 51.085 88.3373 51.17L89.5973 51.455C90.0323 51.56 90.3848 51.705 90.6548 51.89C90.9298 52.07 91.1423 52.2675 91.2923 52.4825C91.4423 52.6975 91.5448 52.915 91.5998 53.135C91.6598 53.35 91.6898 53.545 91.6898 53.72C91.6898 54.235 91.5523 54.675 91.2773 55.04C91.0023 55.4 90.6198 55.675 90.1298 55.865C89.6398 56.055 89.0698 56.15 88.4198 56.15ZM94.08 56V49.7675H92.6475V48.245H94.08V47.1275C94.08 46.5025 94.265 46.0175 94.635 45.6725C95.005 45.3275 95.525 45.155 96.195 45.155H97.9725L97.9875 46.61H96.96C96.685 46.61 96.495 46.68 96.39 46.82C96.285 46.955 96.2325 47.18 96.2325 47.495V48.245H97.9125V49.7675H96.2775V56H94.08ZM102.676 56.15C101.906 56.15 101.228 55.99 100.643 55.67C100.063 55.345 99.6108 54.8875 99.2858 54.2975C98.9608 53.7075 98.7983 53.0125 98.7983 52.2125C98.7983 51.4375 98.9458 50.74 99.2408 50.12C99.5408 49.495 99.9708 49.0025 100.531 48.6425C101.091 48.2775 101.768 48.095 102.563 48.095C103.353 48.095 104.016 48.2625 104.551 48.5975C105.086 48.9275 105.491 49.39 105.766 49.985C106.041 50.575 106.178 51.2575 106.178 52.0325V52.625H100.966C100.966 53.02 101.031 53.365 101.161 53.66C101.291 53.95 101.478 54.175 101.723 54.335C101.973 54.49 102.273 54.5675 102.623 54.5675C102.998 54.5675 103.326 54.4875 103.606 54.3275C103.886 54.1675 104.083 53.905 104.198 53.54H106.171C106.081 54.09 105.861 54.56 105.511 54.95C105.161 55.34 104.736 55.6375 104.236 55.8425C103.736 56.0475 103.216 56.15 102.676 56.15ZM100.966 51.32H104.131C104.131 51.01 104.071 50.725 103.951 50.465C103.836 50.205 103.661 50 103.426 49.85C103.196 49.7 102.906 49.625 102.556 49.625C102.221 49.625 101.933 49.7075 101.693 49.8725C101.458 50.0325 101.276 50.2425 101.146 50.5025C101.021 50.7625 100.961 51.035 100.966 51.32ZM107.756 56V48.245H109.863V50.0825C109.988 49.6875 110.163 49.3425 110.388 49.0475C110.618 48.7475 110.896 48.515 111.221 48.35C111.546 48.18 111.913 48.095 112.323 48.095C112.393 48.095 112.458 48.1 112.518 48.11C112.583 48.115 112.631 48.125 112.661 48.14V50.225C112.616 50.205 112.561 50.1925 112.496 50.1875C112.436 50.1825 112.381 50.1775 112.331 50.1725C111.901 50.1375 111.533 50.15 111.228 50.21C110.923 50.27 110.676 50.3725 110.486 50.5175C110.296 50.6625 110.158 50.84 110.073 51.05C109.988 51.26 109.946 51.495 109.946 51.755V56H107.756Z" fill="#3498DB"/>
</svg>
