<svg width="69" height="60" viewBox="0 0 69 60" fill="none" xmlns="http://www.w3.org/2000/svg">
<path d="M27.2273 32C26.4273 32 25.7425 31.7152 25.1728 31.1455C24.6031 30.5758 24.3182 29.8909 24.3182 29.0909V2.90909C24.3182 2.10909 24.6031 1.42424 25.1728 0.854546C25.7425 0.284849 26.4273 0 27.2273 0H41.7728C42.5728 0 43.2576 0.284849 43.8273 0.854546C44.397 1.42424 44.6819 2.10909 44.6819 2.90909V29.0909C44.6819 29.8909 44.397 30.5758 43.8273 31.1455C43.2576 31.7152 42.5728 32 41.7728 32H27.2273ZM27.2273 27.6364V29.0909H41.7728V27.6364H27.2273ZM27.2273 24.7273H41.7728V7.27273H27.2273V24.7273ZM27.2273 4.36364H41.7728V2.90909H27.2273V4.36364Z" fill="#3333CC"/>
<path d="M35.1304 21.8182L30.7829 17.2929V16H33.0456C33.6166 16 34.1095 15.8141 34.5244 15.4424C34.9392 15.0707 35.1897 14.6101 35.2759 14.0606H30.1365V12.7677H35.0819C34.8988 12.3906 34.6267 12.0808 34.2658 11.8384C33.9048 11.596 33.4981 11.4748 33.0456 11.4748H30.1365V10.1818H37.894V11.4748H35.793C35.9439 11.6579 36.0786 11.8572 36.1971 12.0727C36.3156 12.2882 36.4072 12.5199 36.4718 12.7677H37.894V14.0606H36.585C36.4988 14.9764 36.1217 15.7441 35.4536 16.3636C34.7856 16.9832 33.9829 17.2929 33.0456 17.2929H32.5769L36.9244 21.8182H35.1304Z" fill="#3333CC"/>
<path d="M1.96793 56V45.155H6.54293C7.40793 45.155 8.11543 45.2925 8.66543 45.5675C9.21543 45.8425 9.62043 46.225 9.88043 46.715C10.1404 47.2 10.2704 47.76 10.2704 48.395C10.2704 48.965 10.1804 49.4475 10.0004 49.8425C9.82543 50.2325 9.59293 50.5575 9.30293 50.8175C9.01793 51.0775 8.70543 51.29 8.36543 51.455L10.3829 56H8.11043L6.34793 51.8225H4.15043V56H1.96793ZM4.15043 50.135H6.15293C6.73793 50.135 7.20043 49.9775 7.54043 49.6625C7.88543 49.3475 8.05793 48.9425 8.05793 48.4475C8.05793 47.9475 7.89293 47.5525 7.56293 47.2625C7.23293 46.9725 6.81543 46.8275 6.31043 46.8275H4.15043V50.135ZM15.4189 56.15C14.6489 56.15 13.9714 55.99 13.3864 55.67C12.8064 55.345 12.3539 54.8875 12.0289 54.2975C11.7039 53.7075 11.5414 53.0125 11.5414 52.2125C11.5414 51.4375 11.6889 50.74 11.9839 50.12C12.2839 49.495 12.7139 49.0025 13.2739 48.6425C13.8339 48.2775 14.5114 48.095 15.3064 48.095C16.0964 48.095 16.7589 48.2625 17.2939 48.5975C17.8289 48.9275 18.2339 49.39 18.5089 49.985C18.7839 50.575 18.9214 51.2575 18.9214 52.0325V52.625H13.7089C13.7089 53.02 13.7739 53.365 13.9039 53.66C14.0339 53.95 14.2214 54.175 14.4664 54.335C14.7164 54.49 15.0164 54.5675 15.3664 54.5675C15.7414 54.5675 16.0689 54.4875 16.3489 54.3275C16.6289 54.1675 16.8264 53.905 16.9414 53.54H18.9139C18.8239 54.09 18.6039 54.56 18.2539 54.95C17.9039 55.34 17.4789 55.6375 16.9789 55.8425C16.4789 56.0475 15.9589 56.15 15.4189 56.15ZM13.7089 51.32H16.8739C16.8739 51.01 16.8139 50.725 16.6939 50.465C16.5789 50.205 16.4039 50 16.1689 49.85C15.9389 49.7 15.6489 49.625 15.2989 49.625C14.9639 49.625 14.6764 49.7075 14.4364 49.8725C14.2014 50.0325 14.0189 50.2425 13.8889 50.5025C13.7639 50.7625 13.7039 51.035 13.7089 51.32ZM23.874 56.15C23.154 56.15 22.5115 55.99 21.9465 55.67C21.3815 55.35 20.9365 54.8925 20.6115 54.2975C20.2915 53.6975 20.1315 52.9825 20.1315 52.1525C20.1315 51.3525 20.2865 50.6475 20.5965 50.0375C20.9065 49.4275 21.3415 48.9525 21.9015 48.6125C22.4665 48.2675 23.124 48.095 23.874 48.095C24.524 48.095 25.084 48.2275 25.554 48.4925C26.029 48.7575 26.4015 49.115 26.6715 49.565C26.9465 50.015 27.104 50.5175 27.144 51.0725H25.3215C25.2865 50.8675 25.214 50.665 25.104 50.465C24.994 50.26 24.839 50.0925 24.639 49.9625C24.439 49.8275 24.189 49.76 23.889 49.76C23.379 49.76 22.964 49.9575 22.644 50.3525C22.329 50.7425 22.1715 51.3375 22.1715 52.1375C22.1715 52.8925 22.3265 53.4925 22.6365 53.9375C22.9465 54.3775 23.379 54.5975 23.934 54.5975C24.229 54.5975 24.474 54.525 24.669 54.38C24.869 54.235 25.024 54.0625 25.134 53.8625C25.244 53.6575 25.314 53.4675 25.344 53.2925H27.1215C27.0865 53.8275 26.9315 54.3125 26.6565 54.7475C26.3815 55.1775 26.0065 55.52 25.5315 55.775C25.0615 56.025 24.509 56.15 23.874 56.15ZM28.6582 56V44.855H30.8332V49.3625C30.9582 49.1825 31.1157 49.005 31.3057 48.83C31.4957 48.65 31.7332 48.5 32.0182 48.38C32.3032 48.26 32.6507 48.2 33.0607 48.2C33.5557 48.2 34.0057 48.2975 34.4107 48.4925C34.8207 48.6825 35.1482 48.96 35.3932 49.325C35.6432 49.69 35.7682 50.135 35.7682 50.66V56H33.5707V50.9825C33.5707 50.6325 33.4432 50.365 33.1882 50.18C32.9382 49.99 32.6332 49.895 32.2732 49.895C32.0382 49.895 31.8107 49.9375 31.5907 50.0225C31.3707 50.1075 31.1907 50.2375 31.0507 50.4125C30.9157 50.5825 30.8482 50.795 30.8482 51.05V56H28.6582ZM39.7937 56.15C39.3037 56.15 38.8587 56.0575 38.4587 55.8725C38.0637 55.6875 37.7512 55.42 37.5212 55.07C37.2912 54.715 37.1762 54.285 37.1762 53.78C37.1762 52.93 37.4937 52.285 38.1287 51.845C38.7637 51.4 39.7662 51.17 41.1362 51.155L42.1112 51.14V50.675C42.1112 50.32 42.0062 50.0475 41.7962 49.8575C41.5912 49.6625 41.2687 49.5675 40.8287 49.5725C40.5137 49.5775 40.2112 49.6525 39.9212 49.7975C39.6362 49.9425 39.4387 50.195 39.3287 50.555H37.5062C37.5362 49.995 37.6987 49.535 37.9937 49.175C38.2937 48.81 38.6962 48.54 39.2012 48.365C39.7062 48.185 40.2837 48.095 40.9337 48.095C41.7237 48.095 42.3587 48.195 42.8387 48.395C43.3187 48.59 43.6662 48.8725 43.8812 49.2425C44.1012 49.6075 44.2112 50.0425 44.2112 50.5475V56H42.3812L42.2012 54.665C41.9362 55.225 41.6037 55.6125 41.2037 55.8275C40.8087 56.0425 40.3387 56.15 39.7937 56.15ZM40.5362 54.71C40.7312 54.71 40.9212 54.675 41.1062 54.605C41.2962 54.53 41.4662 54.4325 41.6162 54.3125C41.7662 54.1875 41.8837 54.0475 41.9687 53.8925C42.0587 53.7375 42.1062 53.5775 42.1112 53.4125V52.265L41.3237 52.28C40.9587 52.285 40.6187 52.33 40.3037 52.415C39.9887 52.495 39.7337 52.6275 39.5387 52.8125C39.3487 52.9975 39.2537 53.2475 39.2537 53.5625C39.2537 53.9225 39.3762 54.205 39.6212 54.41C39.8712 54.61 40.1762 54.71 40.5362 54.71ZM45.9873 56V48.245H48.0948V50.0825C48.2198 49.6875 48.3948 49.3425 48.6198 49.0475C48.8498 48.7475 49.1273 48.515 49.4523 48.35C49.7773 48.18 50.1448 48.095 50.5548 48.095C50.6248 48.095 50.6898 48.1 50.7498 48.11C50.8148 48.115 50.8623 48.125 50.8923 48.14V50.225C50.8473 50.205 50.7923 50.1925 50.7273 50.1875C50.6673 50.1825 50.6123 50.1775 50.5623 50.1725C50.1323 50.1375 49.7648 50.15 49.4598 50.21C49.1548 50.27 48.9073 50.3725 48.7173 50.5175C48.5273 50.6625 48.3898 50.84 48.3048 51.05C48.2198 51.26 48.1773 51.495 48.1773 51.755V56H45.9873ZM55.6518 58.565C54.2718 58.565 53.2218 58.39 52.5018 58.04C51.7868 57.69 51.4293 57.23 51.4293 56.66C51.4293 56.395 51.4968 56.1725 51.6318 55.9925C51.7718 55.8125 51.9343 55.67 52.1193 55.565C52.3093 55.455 52.4818 55.3725 52.6368 55.3175C52.7968 55.2575 52.8968 55.2175 52.9368 55.1975C52.8568 55.1525 52.7393 55.0875 52.5843 55.0025C52.4343 54.9125 52.2968 54.7925 52.1718 54.6425C52.0468 54.4875 51.9843 54.2875 51.9843 54.0425C51.9843 53.7675 52.1143 53.5125 52.3743 53.2775C52.6393 53.0425 53.0393 52.88 53.5743 52.79C53.0643 52.55 52.6743 52.225 52.4043 51.815C52.1393 51.405 52.0068 50.985 52.0068 50.555C52.0068 50.045 52.1668 49.6075 52.4868 49.2425C52.8068 48.8775 53.2443 48.6 53.7993 48.41C54.3543 48.22 54.9818 48.125 55.6818 48.125C56.2118 48.125 56.6468 48.1825 56.9868 48.2975C57.3318 48.4075 57.6493 48.5525 57.9393 48.7325C58.0543 48.6875 58.2043 48.63 58.3893 48.56C58.5793 48.485 58.7843 48.405 59.0043 48.32C59.2293 48.23 59.4468 48.1425 59.6568 48.0575C59.8668 47.9675 60.0543 47.8875 60.2193 47.8175L60.2043 49.5125L58.8693 49.73C58.9193 49.865 58.9593 50.01 58.9893 50.165C59.0193 50.32 59.0343 50.4475 59.0343 50.5475C59.0343 50.9975 58.9018 51.4175 58.6368 51.8075C58.3768 52.1975 57.9868 52.5125 57.4668 52.7525C56.9468 52.9925 56.2993 53.1125 55.5243 53.1125C55.4343 53.1125 55.3093 53.11 55.1493 53.105C54.9893 53.1 54.8593 53.0925 54.7593 53.0825C54.4693 53.0975 54.2668 53.135 54.1518 53.195C54.0418 53.255 53.9868 53.325 53.9868 53.405C53.9868 53.525 54.0993 53.605 54.3243 53.645C54.5493 53.68 54.8893 53.7125 55.3443 53.7425C55.5093 53.7525 55.7343 53.765 56.0193 53.78C56.3043 53.795 56.6168 53.815 56.9568 53.84C57.9068 53.905 58.6143 54.14 59.0793 54.545C59.5493 54.945 59.7843 55.45 59.7843 56.06C59.7843 56.785 59.4393 57.3825 58.7493 57.8525C58.0643 58.3275 57.0318 58.565 55.6518 58.565ZM56.0043 57.3425C56.6093 57.3425 57.0418 57.2675 57.3018 57.1175C57.5668 56.9675 57.6993 56.7525 57.6993 56.4725C57.6993 56.2375 57.5968 56.0475 57.3918 55.9025C57.1918 55.7525 56.9018 55.665 56.5218 55.64L54.7443 55.52C54.5093 55.51 54.3043 55.545 54.1293 55.625C53.9543 55.705 53.8168 55.815 53.7168 55.955C53.6218 56.095 53.5743 56.245 53.5743 56.405C53.5743 56.73 53.7718 56.9675 54.1668 57.1175C54.5618 57.2675 55.1743 57.3425 56.0043 57.3425ZM55.5918 51.89C56.0068 51.89 56.3393 51.7775 56.5893 51.5525C56.8393 51.3225 56.9643 51.0125 56.9643 50.6225C56.9643 50.2175 56.8393 49.8925 56.5893 49.6475C56.3393 49.4025 56.0068 49.28 55.5918 49.28C55.1768 49.28 54.8418 49.4025 54.5868 49.6475C54.3318 49.8925 54.2043 50.2175 54.2043 50.6225C54.2043 51.0075 54.3268 51.315 54.5718 51.545C54.8218 51.775 55.1618 51.89 55.5918 51.89ZM64.8574 56.15C64.0874 56.15 63.4099 55.99 62.8249 55.67C62.2449 55.345 61.7924 54.8875 61.4674 54.2975C61.1424 53.7075 60.9799 53.0125 60.9799 52.2125C60.9799 51.4375 61.1274 50.74 61.4224 50.12C61.7224 49.495 62.1524 49.0025 62.7124 48.6425C63.2724 48.2775 63.9499 48.095 64.7449 48.095C65.5349 48.095 66.1974 48.2625 66.7324 48.5975C67.2674 48.9275 67.6724 49.39 67.9474 49.985C68.2224 50.575 68.3599 51.2575 68.3599 52.0325V52.625H63.1474C63.1474 53.02 63.2124 53.365 63.3424 53.66C63.4724 53.95 63.6599 54.175 63.9049 54.335C64.1549 54.49 64.4549 54.5675 64.8049 54.5675C65.1799 54.5675 65.5074 54.4875 65.7874 54.3275C66.0674 54.1675 66.2649 53.905 66.3799 53.54H68.3524C68.2624 54.09 68.0424 54.56 67.6924 54.95C67.3424 55.34 66.9174 55.6375 66.4174 55.8425C65.9174 56.0475 65.3974 56.15 64.8574 56.15ZM63.1474 51.32H66.3124C66.3124 51.01 66.2524 50.725 66.1324 50.465C66.0174 50.205 65.8424 50 65.6074 49.85C65.3774 49.7 65.0874 49.625 64.7374 49.625C64.4024 49.625 64.1149 49.7075 63.8749 49.8725C63.6399 50.0325 63.4574 50.2425 63.3274 50.5025C63.2024 50.7625 63.1424 51.035 63.1474 51.32Z" fill="#3333CC"/>
</svg>
