<svg id="Group_4" data-name="Group 4" xmlns="http://www.w3.org/2000/svg" xmlns:xlink="http://www.w3.org/1999/xlink" width="176" height="176" viewBox="0 0 176 176">
  <defs>
    <clipPath id="clip-path">
      <rect id="Rectangle_2" data-name="Rectangle 2" width="176" height="176" fill="none"/>
    </clipPath>
  </defs>
  <g id="Group_3" data-name="Group 3" clip-path="url(#clip-path)">
    <path id="Path_11" data-name="Path 11" d="M175.951,87.975A87.975,87.975,0,1,1,87.975,0a87.974,87.974,0,0,1,87.975,87.975" fill="#fff"/>
    <path id="Path_12" data-name="Path 12" d="M175.951,87.975A87.975,87.975,0,1,1,87.975,0a87.974,87.974,0,0,1,87.975,87.975" fill="#fff"/>
    <path id="Path_13" data-name="Path 13" d="M105.2,142.093c0-11.358,21.572-56.454,21.572-60.127,0-.343-.3-1.007-.6-1.007-3.427,0-36.479,33.074-44.529,40.42-22.117,21.382-31.61,34.407-40.5,34.407-5.468,0-8.322-5-8.322-9.343,0-8.023,6.312-23.718,8.894-31.077h-.572C39.431,117.042,30.505,126.4,29.067,126.4c-1.416,0-1.416-13.368-1.416-19.042,0-7.016,3.154-10.363,9.466-16.033,3.453-3,31.038-31.4,34.491-47.779,1.144-4.676,2.586-6.677,4-6.677h24.426C93.993,52.574,80.5,84.645,80.5,86.3c0,.682.572,1.007,1.443,1.007,3.154,0,53.722-52.442,68.383-52.442a21.7,21.7,0,0,1,8.85,1.584,87.921,87.921,0,1,0,2.186,99.993c-12.941,9.471-30.127,19.341-39.488,19.341-10.064,0-16.676-4-16.676-13.693" fill="#096"/>
    <path id="Path_14" data-name="Path 14" d="M59.117,10.544c.013.29.066.55.066.849C59.183,22.746,31.3,76.2,31.3,84.549c0,1.672.3,3.33,1.443,3.33,7.161,0,32.168-23.6,36.4-27.211.268-2.806.431-5.648.431-8.529A87.576,87.576,0,0,0,59.117,10.544" transform="translate(106.378 35.837)" fill="#096"/>
  </g>
</svg>
