<svg width="27" height="22" viewBox="0 0 27 22" fill="none" xmlns="http://www.w3.org/2000/svg">
<path d="M13.6455 2.06104C12.5333 4.32312 11.44 6.44068 10.3655 8.41371C14.9839 8.21892 19.219 9.5636 22.5681 12.1273L23.5358 10.3113C23.7557 9.4128 23.9945 8.47026 24.2459 7.47746C21.3303 4.64986 17.6795 2.76479 13.6455 2.06104Z" fill="#F0EAD9"/>
<path d="M23.6301 8.8598C23.737 8.4388 23.8501 8.00523 23.9632 7.5591C23.6364 7.25749 23.3034 6.96216 22.9578 6.6794C20.7397 4.86345 18.176 3.54391 15.3861 2.80873C14.8709 2.67049 14.3493 2.55739 13.8215 2.46313C13.5576 3.00352 13.3 3.53134 13.0361 4.05288C12.6653 4.79434 12.2946 5.51694 11.9301 6.22699C11.616 6.83021 11.3081 7.42715 10.9939 8.00523C11.616 7.99895 12.2318 8.02408 12.8413 8.07435C16.115 8.34455 19.1311 9.41275 21.7011 11.147C22.0404 11.3795 22.3734 11.6183 22.7002 11.8759L23.0081 11.2915C23.0646 11.0653 23.1212 10.8328 23.184 10.6003C23.3285 10.0348 23.4793 9.45674 23.6301 8.8598ZM17.1329 8.38853C15.8888 7.98638 14.5881 7.70362 13.2434 7.5591C13.2434 7.55282 13.2497 7.54653 13.2497 7.54025C13.589 6.86163 13.2874 6.21442 12.5522 6.15158C12.8664 5.52951 13.1869 4.88859 13.5073 4.24138C14.1985 4.34192 14.9777 3.94605 15.273 3.31142C16.448 3.60674 17.5854 4.00889 18.6787 4.51158C17.9372 4.54928 17.1769 5.13993 16.8062 6.00706C16.4229 6.91818 16.58 7.82301 17.1329 8.38853ZM21.7451 10.6318C21.7451 10.638 21.7451 10.6443 21.7388 10.6443C20.7711 9.98456 19.7469 9.42532 18.6661 8.96034C19.4201 8.90378 20.0799 8.41995 20.3627 7.57167C20.6329 6.76737 20.4946 5.82484 20.0359 5.19648C20.9973 5.73059 21.9084 6.34009 22.7693 7.03128C22.6122 7.58424 22.851 8.30684 23.2845 8.67129C23.14 9.20539 23.0081 9.72693 22.8761 10.2296C22.43 9.86517 21.9084 10.06 21.7451 10.6318Z" fill="#20BFCE"/>
<path d="M14.3871 0.967651C13.0362 3.07893 11.6915 5.10852 10.3594 7.06899C15.0092 7.30148 19.2632 9.07973 22.606 12.0644L23.4606 10.4621C23.7811 9.64525 24.1141 8.7844 24.4722 7.87328C21.7389 4.64353 18.2641 2.26835 14.3871 0.967651Z" fill="#F0EAD9"/>
<path d="M14.5253 1.40125C14.2048 1.90393 13.8844 2.40033 13.5639 2.89045C13.1115 3.59421 12.6528 4.2854 12.2004 4.96402C11.8108 5.54839 11.4275 6.12648 11.0442 6.69828C11.6537 6.75484 12.2569 6.83024 12.8476 6.93706C16.0522 7.50886 19.0055 8.83469 21.5252 10.7952C21.9085 11.0905 22.2792 11.4047 22.6436 11.7314C22.8007 11.3418 22.9578 10.9397 23.1212 10.525C23.316 10.0349 23.5171 9.53217 23.7244 9.01063C23.8689 8.6399 24.0197 8.26289 24.1705 7.87959C23.8626 7.534 23.5485 7.19469 23.2217 6.86794C21.1293 4.75667 18.685 3.09781 16.0145 1.96677C15.5306 1.75941 15.0342 1.5709 14.5253 1.40125ZM21.6194 10.3302C21.6194 10.3365 21.6131 10.3365 21.6131 10.3427C20.6706 9.595 19.6652 8.94151 18.6096 8.37599C19.3888 8.40741 20.1239 8.0304 20.5009 7.27637C20.8591 6.55376 20.8088 5.64265 20.413 4.97659C21.3241 5.63636 22.1975 6.36526 23.0081 7.16327C22.8007 7.6471 22.9829 8.35714 23.3914 8.77814C23.2029 9.24313 23.0144 9.69554 22.8321 10.1417C22.4049 9.72068 21.8456 9.82121 21.6194 10.3302ZM14.0037 3.13551C14.6698 3.32401 15.4929 3.02869 15.8574 2.44432C16.9884 2.90302 18.0755 3.46225 19.1186 4.10318C18.3708 4.02777 17.5414 4.49276 17.0701 5.29705C16.5737 6.14533 16.6177 7.05016 17.1078 7.6471C15.8951 7.12557 14.6258 6.72342 13.3126 6.44694C13.3188 6.44066 13.3188 6.43438 13.3251 6.42809C13.7524 5.78089 13.5325 5.09598 12.8224 4.94517C13.2183 4.35452 13.6079 3.7513 14.0037 3.13551Z" fill="#15BECB"/>
<path d="M22.7317 11.8005C23.36 10.6443 24.0449 9.37507 24.7738 7.99897C22.2101 4.51788 18.9238 1.77825 15.2228 0C13.6959 1.95419 12.169 3.89581 10.6421 5.81858C15.2354 6.43436 19.4391 8.53936 22.7317 11.8005Z" fill="#F0EAD9"/>
<path d="M15.3109 0.452454C14.9464 0.917437 14.582 1.38242 14.2238 1.8474C13.7086 2.50718 13.187 3.16695 12.6718 3.82044C12.2319 4.37968 11.7858 4.93891 11.3459 5.49815C11.9366 5.60497 12.521 5.73064 13.0991 5.88145C16.2094 6.70459 19.081 8.2315 21.5379 10.3365C21.9086 10.657 22.2731 10.99 22.6312 11.3356C22.8197 10.99 23.0208 10.6381 23.2156 10.2737C23.4544 9.84637 23.6931 9.40024 23.9382 8.94783C24.1141 8.62736 24.2901 8.29433 24.4723 7.96131C24.1833 7.58429 23.8879 7.21985 23.58 6.86168C21.607 4.54933 19.2946 2.63285 16.7435 1.19391C16.2785 0.936287 15.801 0.684945 15.3109 0.452454ZM21.6698 9.90921C21.6698 9.91549 21.6636 9.91549 21.6636 9.92178C20.7462 9.11748 19.7722 8.38859 18.748 7.75395C19.5397 7.8482 20.3252 7.56544 20.7776 6.88682C21.2048 6.23961 21.2237 5.3662 20.8781 4.66872C21.7452 5.41646 22.5684 6.23333 23.3413 7.10674C23.0899 7.53402 23.2282 8.2315 23.6177 8.67763C23.3915 9.08606 23.1653 9.48193 22.9454 9.87151C22.5244 9.42537 21.9463 9.45679 21.6698 9.90921ZM14.6322 2.13645C15.2732 2.39407 16.1215 2.18672 16.5362 1.65261C17.6169 2.23698 18.6537 2.90932 19.6465 3.66335C18.9051 3.4937 18.0317 3.85814 17.4787 4.60589C16.9006 5.39133 16.8566 6.28988 17.2902 6.91824C16.1152 6.30873 14.8836 5.80605 13.608 5.42275C13.6143 5.41646 13.6143 5.41018 13.6206 5.4039C14.1107 4.78182 13.9662 4.07807 13.2813 3.85814C13.7337 3.29262 14.1861 2.71453 14.6322 2.13645Z" fill="#15BECB"/>
<path d="M14.6383 9.86517C14.2173 9.43788 13.7084 9.22424 13.1052 9.22424C12.5019 9.22424 11.9993 9.4693 11.5908 9.95942V9.33106H10.9688V17.3929H11.5908V12.8561C12.0432 13.3525 12.5585 13.5976 13.1429 13.5976C13.7272 13.5976 14.2299 13.384 14.6446 12.9504C15.0593 12.5231 15.2667 12.0079 15.2667 11.4046C15.273 10.8077 15.0593 10.2924 14.6383 9.86517ZM14.1922 12.5545C13.8843 12.8624 13.5262 13.0195 13.1114 13.0195C12.6842 13.0195 12.3134 12.8687 12.0118 12.5608C11.7102 12.2529 11.5594 11.8759 11.5594 11.4298C11.5594 10.9774 11.7102 10.6003 12.0055 10.2987C12.3009 9.99084 12.6653 9.84003 13.0989 9.84003C13.5324 9.84003 13.9032 9.99712 14.2048 10.305C14.5064 10.6129 14.6572 10.9899 14.6572 11.4298C14.6572 11.8696 14.4938 12.2404 14.1922 12.5545Z" fill="white"/>
<path d="M12.012 12.5609C11.7104 12.253 11.5596 11.876 11.5596 11.4298C11.5596 10.9774 11.7104 10.6004 12.0057 10.2988C12.301 9.99089 12.6655 9.84009 13.099 9.84009C13.5326 9.84009 13.9033 9.99718 14.2049 10.3051C14.5066 10.613 14.6574 10.99 14.6574 11.4298C14.6574 11.8697 14.5066 12.2467 14.1987 12.5546C13.8908 12.8625 13.5326 13.0196 13.1179 13.0196C12.678 13.0196 12.3136 12.8625 12.012 12.5609Z" fill="white"/>
<path d="M24.9559 8.80328H9.52979V8.51424C9.52979 8.18749 9.79369 7.9173 10.1267 7.9173H24.3716C24.6983 7.9173 24.9685 8.18121 24.9685 8.51424V8.80328H24.9559Z" fill="#F0EAD9"/>
<path d="M14.6511 11.4235C14.6511 11.8634 14.5003 12.2404 14.1924 12.5483C13.8845 12.8562 13.5263 13.0133 13.1116 13.0133C12.6843 13.0133 12.3136 12.8625 12.012 12.5546C11.7104 12.2467 11.5596 11.8697 11.5596 11.4235C11.5596 10.9711 11.7104 10.5941 12.0057 10.2925C12.301 9.98461 12.6655 9.8338 13.099 9.8338C13.5326 9.8338 13.9033 9.99089 14.2049 10.2988C14.5003 10.613 14.6511 10.9837 14.6511 11.4235Z" fill="#F05757"/>
<path d="M19.7532 9.33106V13.4656H19.1374V12.8561C18.685 13.3525 18.1698 13.5976 17.5854 13.5976C17.001 13.5976 16.4983 13.384 16.0773 12.9504C15.6626 12.5168 15.449 12.0016 15.449 11.4046C15.449 10.8077 15.6563 10.2924 16.0773 9.86517C16.4983 9.43788 17.0073 9.22424 17.6105 9.22424C18.2137 9.22424 18.7227 9.4693 19.1311 9.95942V9.33106H19.7532Z" fill="#D79C28"/>
<path d="M19.1689 11.4361C19.1689 11.8759 19.0181 12.2529 18.7102 12.5608C18.4023 12.8687 18.0441 13.0258 17.6294 13.0258C17.2022 13.0258 16.8314 12.875 16.5298 12.5671C16.2282 12.2592 16.0774 11.8822 16.0774 11.4361C16.0774 10.9836 16.2282 10.6066 16.5235 10.305C16.8189 9.99712 17.1833 9.84631 17.6169 9.84631C18.0504 9.84631 18.4212 10.0034 18.7228 10.3113C19.0181 10.6255 19.1689 10.9962 19.1689 11.4361Z" fill="#F05757"/>
<path d="M23.8375 9.33105L21.3869 16.8462H20.7335L21.5315 13.1075L19.8538 9.33105H20.5072L21.8645 12.3597L23.1778 9.33105H23.8375Z" fill="#000228"/>
<path d="M19.1375 9.33106V9.95942C18.7291 9.4693 18.2201 9.22424 17.6169 9.22424C17.0136 9.22424 16.4984 9.43788 16.0837 9.86517C15.6627 10.2924 15.4553 10.8077 15.4553 11.4046C15.4553 12.0016 15.6627 12.5168 16.0837 12.9504C16.4984 13.384 17.0011 13.5976 17.5917 13.5976C18.1761 13.5976 18.6976 13.3525 19.1438 12.8561V13.4656H19.7596V9.33106H19.1375ZM18.7102 12.5608C18.4086 12.8624 18.0441 13.0132 17.6231 13.0132C17.1959 13.0132 16.8314 12.8561 16.5298 12.542C16.2282 12.2278 16.0774 11.8508 16.0774 11.4235C16.0774 10.9962 16.2282 10.6192 16.5235 10.305C16.8189 9.99084 17.1896 9.83375 17.6169 9.83375C18.0504 9.83375 18.4149 9.98455 18.7102 10.2924C19.0055 10.6003 19.1563 10.9774 19.1563 11.4298C19.1689 11.8822 19.0181 12.2592 18.7102 12.5608Z" fill="white"/>
<path d="M23.1778 9.33112L21.8645 12.3535L20.5072 9.33112H19.8538L21.5 13.051L20.7335 15.4136H21.3869L23.8375 9.33112H23.1778Z" fill="white"/>
<path d="M7.78925 13.0051V7.55806C7.78925 7.36693 7.71975 7.23228 7.58076 7.15409C7.44176 7.0759 7.20719 7.01509 6.87707 6.97166C6.78151 6.96297 6.73373 6.88912 6.73373 6.75012C6.73373 6.698 6.74241 6.6285 6.75979 6.54163C6.97698 6.559 7.19851 6.57638 7.42438 6.59375C7.65025 6.60244 7.8631 6.60678 8.06291 6.60678C8.25403 6.60678 8.45384 6.60244 8.66234 6.59375C8.87084 6.57638 9.075 6.559 9.27481 6.54163C9.29218 6.6285 9.30087 6.698 9.30087 6.75012C9.30087 6.88912 9.25744 6.96297 9.17056 6.97166C8.87519 7.01509 8.67103 7.0759 8.55809 7.15409C8.45384 7.23228 8.40172 7.35825 8.40172 7.532V15.2074C8.38435 15.2161 8.35394 15.2204 8.3105 15.2204C8.26706 15.2291 8.23231 15.2334 8.20625 15.2334C8.14544 15.2334 8.08897 15.2161 8.03685 15.1813C7.98472 15.1552 7.92391 15.0944 7.85441 14.9989L2.56374 8.02718V14.1649C2.56374 14.3386 2.62456 14.4602 2.74618 14.5297C2.8678 14.5992 3.10237 14.6644 3.44987 14.7252C3.53674 14.7426 3.58018 14.8121 3.58018 14.9337C3.58018 14.9858 3.57149 15.0553 3.55411 15.1422C3.33693 15.1248 3.1154 15.1075 2.88952 15.0901C2.67234 15.0814 2.46818 15.0771 2.27706 15.0771C2.10331 15.0771 1.89915 15.0814 1.66459 15.0901C1.43003 15.1075 1.21719 15.1248 1.02606 15.1422C1.00869 15.0553 1 14.9858 1 14.9337C1 14.8121 1.04778 14.7426 1.14334 14.7252C1.45609 14.6644 1.66459 14.5992 1.76884 14.5297C1.88178 14.4602 1.93825 14.3386 1.93825 14.1649V7.46684C1.93825 7.32784 1.88612 7.22359 1.78187 7.15409C1.68631 7.0759 1.48215 7.01509 1.16941 6.97166C1.07384 6.95428 1.02606 6.88044 1.02606 6.75012C1.02606 6.70669 1.03041 6.66759 1.03909 6.63284C1.03909 6.60678 1.04344 6.57638 1.05212 6.54163C1.22587 6.559 1.39094 6.57203 1.54731 6.58072C1.68631 6.58941 1.834 6.59809 1.99037 6.60678C2.14675 6.60678 2.28574 6.60678 2.40737 6.60678C2.65931 6.60678 2.82437 6.61547 2.90255 6.63284C2.98943 6.65022 3.05893 6.69366 3.11105 6.76316L7.78925 13.0051Z" fill="black" stroke="black" stroke-width="0.1" stroke-miterlimit="10"/>
<path d="M17.665 17.6689H17.8822V19.8344H17.665V17.6689Z" fill="black"/>
<path d="M18.3424 18.2329H18.5505V18.5194C18.7154 18.3002 18.9155 18.1906 19.1507 18.1906C19.2714 18.1906 19.38 18.2238 19.4765 18.2902C19.573 18.3545 19.6414 18.44 19.6816 18.5465C19.7218 18.6511 19.7419 18.8059 19.7419 19.011V19.8344H19.5368V19.0713C19.5368 18.8843 19.5277 18.7577 19.5096 18.6913C19.4936 18.625 19.4674 18.5687 19.4312 18.5224C19.397 18.4762 19.3528 18.441 19.2985 18.4168C19.2442 18.3927 19.1779 18.3807 19.0995 18.3807C19.023 18.3807 18.9476 18.3998 18.8732 18.438C18.7989 18.4762 18.7355 18.5294 18.6832 18.5978C18.631 18.6662 18.5958 18.7366 18.5777 18.8089C18.5596 18.8813 18.5505 19.0271 18.5505 19.2463V19.8344H18.3424V18.2329Z" fill="black"/>
<path d="M21.7818 17.6146V19.8344H21.5798V19.56C21.3968 19.7791 21.1867 19.8887 20.9494 19.8887C20.7141 19.8887 20.5161 19.8053 20.3552 19.6384C20.1944 19.4715 20.1139 19.2714 20.1139 19.0382C20.1139 18.8049 20.1954 18.6059 20.3582 18.441C20.5211 18.2741 20.7161 18.1906 20.9434 18.1906C21.2048 18.1906 21.4169 18.3022 21.5798 18.5254V17.6146H21.7818ZM21.5918 19.0442C21.5918 18.8612 21.5315 18.7064 21.4109 18.5797C21.2902 18.453 21.1394 18.3897 20.9584 18.3897C20.7775 18.3897 20.6257 18.4551 20.503 18.5857C20.3824 18.7144 20.322 18.8673 20.322 19.0442C20.322 19.2191 20.3844 19.3719 20.509 19.5026C20.6337 19.6333 20.7805 19.6987 20.9494 19.6987C21.1203 19.6987 21.2701 19.6374 21.3988 19.5147C21.5275 19.39 21.5918 19.2332 21.5918 19.0442Z" fill="black"/>
<path d="M22.1515 17.7865C22.1515 17.7402 22.1676 17.7 22.1998 17.6658C22.234 17.6317 22.2742 17.6146 22.3204 17.6146C22.3687 17.6146 22.4089 17.6317 22.4411 17.6658C22.4753 17.698 22.4923 17.7382 22.4923 17.7865C22.4923 17.8327 22.4753 17.8729 22.4411 17.9071C22.4089 17.9393 22.3687 17.9554 22.3204 17.9554C22.2742 17.9554 22.234 17.9383 22.1998 17.9041C22.1676 17.8699 22.1515 17.8307 22.1515 17.7865ZM22.2179 18.2329H22.426V19.8344H22.2179V18.2329Z" fill="black"/>
<path d="M24.4474 18.2329V19.8344H24.2453V19.56C24.0623 19.7791 23.8532 19.8887 23.6179 19.8887C23.3827 19.8887 23.1836 19.8053 23.0208 19.6384C22.8599 19.4695 22.7795 19.2694 22.7795 19.0382C22.7795 18.8049 22.8609 18.6059 23.0238 18.441C23.1866 18.2741 23.3817 18.1906 23.6089 18.1906C23.8703 18.1906 24.0824 18.3022 24.2453 18.5254V18.2329H24.4474ZM24.2574 19.0412C24.2574 18.8582 24.196 18.7044 24.0734 18.5797C23.9507 18.453 23.7999 18.3897 23.621 18.3897C23.444 18.3897 23.2942 18.4551 23.1716 18.5857C23.0489 18.7144 22.9876 18.8673 22.9876 19.0442C22.9876 19.2211 23.0499 19.375 23.1746 19.5057C23.2992 19.6344 23.448 19.6987 23.621 19.6987C23.7959 19.6987 23.9457 19.6364 24.0704 19.5117C24.195 19.387 24.2574 19.2302 24.2574 19.0412Z" fill="black"/>
<path d="M17.665 17.6689H17.8822V19.8344H17.665V17.6689Z" stroke="black" stroke-width="0.1" stroke-miterlimit="10"/>
<path d="M18.3424 18.2329H18.5505V18.5194C18.7154 18.3002 18.9155 18.1906 19.1507 18.1906C19.2714 18.1906 19.38 18.2238 19.4765 18.2902C19.573 18.3545 19.6414 18.44 19.6816 18.5465C19.7218 18.6511 19.7419 18.8059 19.7419 19.011V19.8344H19.5368V19.0713C19.5368 18.8843 19.5277 18.7577 19.5096 18.6913C19.4936 18.625 19.4674 18.5687 19.4312 18.5224C19.397 18.4762 19.3528 18.441 19.2985 18.4168C19.2442 18.3927 19.1779 18.3807 19.0995 18.3807C19.023 18.3807 18.9476 18.3998 18.8732 18.438C18.7989 18.4762 18.7355 18.5294 18.6832 18.5978C18.631 18.6662 18.5958 18.7366 18.5777 18.8089C18.5596 18.8813 18.5505 19.0271 18.5505 19.2463V19.8344H18.3424V18.2329Z" stroke="black" stroke-width="0.1" stroke-miterlimit="10"/>
<path d="M21.7818 17.6146V19.8344H21.5798V19.56C21.3968 19.7791 21.1867 19.8887 20.9494 19.8887C20.7141 19.8887 20.5161 19.8053 20.3552 19.6384C20.1944 19.4715 20.1139 19.2714 20.1139 19.0382C20.1139 18.8049 20.1954 18.6059 20.3582 18.441C20.5211 18.2741 20.7161 18.1906 20.9434 18.1906C21.2048 18.1906 21.4169 18.3022 21.5798 18.5254V17.6146H21.7818ZM21.5918 19.0442C21.5918 18.8612 21.5315 18.7064 21.4109 18.5797C21.2902 18.453 21.1394 18.3897 20.9584 18.3897C20.7775 18.3897 20.6257 18.4551 20.503 18.5857C20.3824 18.7144 20.322 18.8673 20.322 19.0442C20.322 19.2191 20.3844 19.3719 20.509 19.5026C20.6337 19.6333 20.7805 19.6987 20.9494 19.6987C21.1203 19.6987 21.2701 19.6374 21.3988 19.5147C21.5275 19.39 21.5918 19.2332 21.5918 19.0442Z" stroke="black" stroke-width="0.1" stroke-miterlimit="10"/>
<path d="M22.1515 17.7865C22.1515 17.7402 22.1676 17.7 22.1998 17.6658C22.234 17.6317 22.2742 17.6146 22.3204 17.6146C22.3687 17.6146 22.4089 17.6317 22.4411 17.6658C22.4753 17.698 22.4923 17.7382 22.4923 17.7865C22.4923 17.8327 22.4753 17.8729 22.4411 17.9071C22.4089 17.9393 22.3687 17.9554 22.3204 17.9554C22.2742 17.9554 22.234 17.9383 22.1998 17.9041C22.1676 17.8699 22.1515 17.8307 22.1515 17.7865ZM22.2179 18.2329H22.426V19.8344H22.2179V18.2329Z" stroke="black" stroke-width="0.1" stroke-miterlimit="10"/>
<path d="M24.4474 18.2329V19.8344H24.2453V19.56C24.0623 19.7791 23.8532 19.8887 23.6179 19.8887C23.3827 19.8887 23.1836 19.8053 23.0208 19.6384C22.8599 19.4695 22.7795 19.2694 22.7795 19.0382C22.7795 18.8049 22.8609 18.6059 23.0238 18.441C23.1866 18.2741 23.3817 18.1906 23.6089 18.1906C23.8703 18.1906 24.0824 18.3022 24.2453 18.5254V18.2329H24.4474ZM24.2574 19.0412C24.2574 18.8582 24.196 18.7044 24.0734 18.5797C23.9507 18.453 23.7999 18.3897 23.621 18.3897C23.444 18.3897 23.2942 18.4551 23.1716 18.5857C23.0489 18.7144 22.9876 18.8673 22.9876 19.0442C22.9876 19.2211 23.0499 19.375 23.1746 19.5057C23.2992 19.6344 23.448 19.6987 23.621 19.6987C23.7959 19.6987 23.9457 19.6364 24.0704 19.5117C24.195 19.387 24.2574 19.2302 24.2574 19.0412Z" stroke="black" stroke-width="0.1" stroke-miterlimit="10"/>
<path d="M18.2891 10.9334C18.2765 10.9271 18.2703 10.9208 18.2514 10.9208H17.9812C17.9624 10.8329 17.9309 10.7575 17.8807 10.6946H18.2514C18.264 10.6946 18.2765 10.6884 18.2891 10.6821C18.2954 10.6695 18.3017 10.6632 18.3017 10.6444V10.481C18.3017 10.4684 18.2954 10.4559 18.2891 10.4433C18.2765 10.4307 18.2703 10.4307 18.2514 10.4307H16.9381C16.9256 10.4307 16.913 10.437 16.9004 10.4433C16.8879 10.4559 16.8879 10.4621 16.8879 10.481V10.6883C16.8879 10.7009 16.8942 10.7135 16.9004 10.7261C16.913 10.7386 16.9193 10.7386 16.9381 10.7386H17.1644C17.3843 10.7386 17.5288 10.7952 17.5853 10.9146H16.9319C16.9193 10.9146 16.9067 10.9208 16.8942 10.9271C16.8816 10.9397 16.8816 10.946 16.8816 10.9648V11.1282C16.8816 11.1408 16.8879 11.1533 16.8942 11.1659C16.9067 11.1785 16.913 11.1785 16.9319 11.1785H17.6042C17.5791 11.2664 17.5288 11.3293 17.4408 11.3733C17.3591 11.4172 17.246 11.4424 17.1078 11.4424H16.9319C16.9193 11.4424 16.9067 11.4487 16.8942 11.4549C16.8816 11.4675 16.8816 11.4738 16.8816 11.4926V11.6937C16.8816 11.7063 16.8879 11.7189 16.8942 11.7314C17.0952 11.9451 17.3591 12.2467 17.6796 12.63C17.6922 12.6425 17.7047 12.6488 17.7173 12.6488H18.0252C18.0503 12.6488 18.0629 12.6363 18.0692 12.6174C18.0818 12.5986 18.0755 12.5797 18.0629 12.5609C17.755 12.1838 17.5162 11.9011 17.3403 11.7126C17.5162 11.6937 17.667 11.6309 17.7739 11.5366C17.887 11.4424 17.9561 11.3167 17.9749 11.1659H18.2388C18.2514 11.1659 18.264 11.1596 18.2765 11.1533C18.2891 11.1471 18.2891 11.1345 18.2891 11.1156V10.9523C18.3017 10.9523 18.3017 10.946 18.2891 10.9334Z" fill="#EEEEF0"/>
<path d="M20.0109 5.64894C20.0046 5.63638 19.9983 5.62381 19.9857 5.61752L19.747 5.49185C19.7721 5.40388 19.7784 5.3222 19.7658 5.24679L20.0863 5.42273C20.0988 5.42902 20.1114 5.42902 20.124 5.42902C20.1365 5.42273 20.1491 5.41645 20.1554 5.40388L20.2308 5.25936C20.2371 5.24679 20.2371 5.23423 20.2371 5.22166C20.2308 5.20909 20.2245 5.19653 20.2119 5.19024L19.0558 4.56189C19.0432 4.5556 19.0306 4.5556 19.0181 4.5556C19.0055 4.56189 18.9929 4.56817 18.9866 4.58074L18.8861 4.76296C18.8798 4.77553 18.8798 4.7881 18.8798 4.80066C18.8861 4.81323 18.8924 4.8258 18.905 4.83208L19.106 4.9389C19.3008 5.04572 19.3951 5.16511 19.3951 5.29706L18.8233 4.98917C18.8107 4.98289 18.7981 4.98289 18.7856 4.98289C18.773 4.98917 18.7604 4.99545 18.7542 5.00802L18.6788 5.15254C18.6725 5.16511 18.6725 5.17768 18.6725 5.19024C18.6788 5.20281 18.685 5.21538 18.6976 5.22166L19.2883 5.54212C19.2254 5.60496 19.15 5.63637 19.0495 5.63637C18.9552 5.63637 18.8421 5.60496 18.7227 5.53584L18.5657 5.45415C18.5531 5.44787 18.5405 5.44787 18.5279 5.44787C18.5154 5.45415 18.5028 5.46044 18.4965 5.473L18.4023 5.64894C18.396 5.66151 18.396 5.67408 18.396 5.68664C18.4714 5.9694 18.5594 6.35898 18.6599 6.85539C18.6599 6.86795 18.6725 6.88052 18.685 6.89309L18.9552 7.03761C18.9741 7.05018 18.9929 7.05018 19.0118 7.03761C19.0306 7.02504 19.0369 7.00619 19.0306 6.98734C18.9427 6.50979 18.861 6.14534 18.7981 5.90029C18.9678 5.9694 19.1186 5.98825 19.2631 5.95684C19.4076 5.92542 19.527 5.85002 19.6213 5.73063L19.8538 5.8563C19.8663 5.86258 19.8789 5.86258 19.8915 5.86258C19.904 5.8563 19.9166 5.85002 19.9229 5.83745L19.9983 5.69293C20.0109 5.68036 20.0109 5.66779 20.0109 5.64894Z" fill="#F0EAD9"/>
<path d="M4.8199 20.363H4.91622V21.2867H4.8199V20.8604H4.24193V21.2867H4.14429V20.363H4.24193V20.7747H4.8199V20.363Z" fill="black"/>
<path d="M5.44071 20.5873C5.62017 20.5873 5.72177 20.677 5.72177 20.8565V21.2867H5.63205V21.1785C5.58982 21.2497 5.50801 21.2933 5.39321 21.2933C5.23618 21.2933 5.13985 21.2114 5.13985 21.0914C5.13985 20.9845 5.20847 20.8948 5.40772 20.8948H5.62809V20.8525C5.62809 20.7338 5.56079 20.6691 5.43147 20.6691C5.34175 20.6691 5.25729 20.7008 5.20055 20.7509L5.15833 20.681C5.22826 20.6216 5.33119 20.5873 5.44071 20.5873ZM5.40772 21.2194C5.51329 21.2194 5.59114 21.1692 5.62809 21.0782V20.9647H5.41036C5.27577 20.9647 5.23222 21.0175 5.23222 21.0887C5.23222 21.1692 5.29688 21.2194 5.40772 21.2194Z" fill="black"/>
<path d="M6.1623 21.2933C6.0475 21.2933 5.93665 21.2563 5.87991 21.2075L5.92214 21.1336C5.97756 21.1771 6.07125 21.2114 6.1689 21.2114C6.30085 21.2114 6.35495 21.1666 6.35495 21.098C6.35495 20.9172 5.90499 21.0597 5.90499 20.7852C5.90499 20.6718 6.00263 20.5873 6.17945 20.5873C6.26918 20.5873 6.36683 20.6124 6.42489 20.652L6.38398 20.7272C6.32328 20.6849 6.25071 20.6678 6.17945 20.6678C6.05409 20.6678 5.99867 20.7166 5.99867 20.7826C5.99867 20.97 6.44864 20.8288 6.44864 21.0953C6.44864 21.2154 6.34308 21.2933 6.1623 21.2933Z" fill="black"/>
<path d="M6.8079 21.2933C6.6931 21.2933 6.58225 21.2563 6.52551 21.2075L6.56774 21.1336C6.62316 21.1771 6.71685 21.2114 6.81449 21.2114C6.94645 21.2114 7.00055 21.1666 7.00055 21.098C7.00055 20.9172 6.55058 21.0597 6.55058 20.7852C6.55058 20.6718 6.64823 20.5873 6.82505 20.5873C6.91478 20.5873 7.01243 20.6124 7.07049 20.652L7.02958 20.7272C6.96888 20.6849 6.89631 20.6678 6.82505 20.6678C6.69969 20.6678 6.64427 20.7166 6.64427 20.7826C6.64427 20.97 7.09424 20.8288 7.09424 21.0953C7.09424 21.2154 6.98867 21.2933 6.8079 21.2933Z" fill="black"/>
<path d="M7.26744 21.2867V20.3076H7.36113V21.2867H7.26744Z" fill="black"/>
<path d="M8.22748 20.9396C8.22748 20.9475 8.22616 20.9581 8.22616 20.9686H7.64556C7.65612 21.1138 7.76696 21.2101 7.91871 21.2101C8.00316 21.2101 8.07837 21.1798 8.13115 21.1191L8.18394 21.1798C8.12192 21.2537 8.02559 21.2933 7.91607 21.2933C7.69966 21.2933 7.55187 21.1455 7.55187 20.9396C7.55187 20.7338 7.6957 20.5873 7.891 20.5873C8.08629 20.5873 8.22748 20.7311 8.22748 20.9396ZM7.891 20.6678C7.7564 20.6678 7.65744 20.7628 7.64556 20.8987H8.13775C8.12588 20.7628 8.02691 20.6678 7.891 20.6678Z" fill="black"/>
<path d="M9.4167 20.4474H8.88097V20.8103H9.35864V20.8948H8.88097V21.2867H8.78332V20.363H9.4167V20.4474Z" fill="black"/>
<path d="M9.6754 20.7285C9.71894 20.6361 9.80735 20.5873 9.93535 20.5873V20.6783C9.92743 20.6783 9.91951 20.677 9.91291 20.677C9.76776 20.677 9.67935 20.7694 9.67935 20.933V21.2867H9.58567V20.5926H9.6754V20.7285Z" fill="black"/>
<path d="M10.7042 20.9396C10.7042 20.9475 10.7029 20.9581 10.7029 20.9686H10.1223C10.1328 21.1138 10.2437 21.2101 10.3954 21.2101C10.4799 21.2101 10.5551 21.1798 10.6079 21.1191L10.6607 21.1798C10.5986 21.2537 10.5023 21.2933 10.3928 21.2933C10.1764 21.2933 10.0286 21.1455 10.0286 20.9396C10.0286 20.7338 10.1724 20.5873 10.3677 20.5873C10.563 20.5873 10.7042 20.7311 10.7042 20.9396ZM10.3677 20.6678C10.2331 20.6678 10.1342 20.7628 10.1223 20.8987H10.6145C10.6026 20.7628 10.5036 20.6678 10.3677 20.6678Z" fill="black"/>
<path d="M11.5006 20.9396C11.5006 20.9475 11.4993 20.9581 11.4993 20.9686H10.9187C10.9292 21.1138 11.0401 21.2101 11.1918 21.2101C11.2763 21.2101 11.3515 21.1798 11.4043 21.1191L11.457 21.1798C11.395 21.2537 11.2987 21.2933 11.1892 21.2933C10.9728 21.2933 10.825 21.1455 10.825 20.9396C10.825 20.7338 10.9688 20.5873 11.1641 20.5873C11.3594 20.5873 11.5006 20.7311 11.5006 20.9396ZM11.1641 20.6678C11.0295 20.6678 10.9305 20.7628 10.9187 20.8987H11.4108C11.399 20.7628 11.3 20.6678 11.1641 20.6678Z" fill="black"/>
<path d="M12.1264 20.7285C12.1699 20.6361 12.2583 20.5873 12.3863 20.5873V20.6783C12.3784 20.6783 12.3705 20.677 12.3639 20.677C12.2187 20.677 12.1303 20.7694 12.1303 20.933V21.2867H12.0366V20.5926H12.1264V20.7285Z" fill="black"/>
<path d="M12.7974 20.5873C12.9769 20.5873 13.0785 20.677 13.0785 20.8565V21.2867H12.9888V21.1785C12.9466 21.2497 12.8647 21.2933 12.7499 21.2933C12.5929 21.2933 12.4966 21.2114 12.4966 21.0914C12.4966 20.9845 12.5652 20.8948 12.7645 20.8948H12.9848V20.8525C12.9848 20.7338 12.9175 20.6691 12.7882 20.6691C12.6985 20.6691 12.614 20.7008 12.5573 20.7509L12.5151 20.681C12.585 20.6216 12.6879 20.5873 12.7974 20.5873ZM12.7645 21.2194C12.87 21.2194 12.9479 21.1692 12.9848 21.0782V20.9647H12.7671C12.6325 20.9647 12.589 21.0175 12.589 21.0887C12.589 21.1692 12.6536 21.2194 12.7645 21.2194Z" fill="black"/>
<path d="M13.6866 20.5873C13.8555 20.5873 13.9716 20.6849 13.9716 20.8842V21.2867H13.8779V20.8934C13.8779 20.747 13.8014 20.6718 13.6695 20.6718C13.5204 20.6718 13.4267 20.7641 13.4267 20.9225V21.2867H13.333V20.5926H13.4227V20.7206C13.4728 20.6361 13.5665 20.5873 13.6866 20.5873Z" fill="black"/>
<path d="M14.412 21.2933C14.2972 21.2933 14.1864 21.2563 14.1297 21.2075L14.1719 21.1336C14.2273 21.1771 14.321 21.2114 14.4186 21.2114C14.5506 21.2114 14.6047 21.1666 14.6047 21.098C14.6047 20.9172 14.1547 21.0597 14.1547 20.7852C14.1547 20.6718 14.2524 20.5873 14.4292 20.5873C14.5189 20.5873 14.6166 20.6124 14.6746 20.652L14.6337 20.7272C14.573 20.6849 14.5005 20.6678 14.4292 20.6678C14.3038 20.6678 14.2484 20.7166 14.2484 20.7826C14.2484 20.97 14.6984 20.8288 14.6984 21.0953C14.6984 21.2154 14.5928 21.2933 14.412 21.2933Z" fill="black"/>
<path d="M15.1144 20.5873C15.2938 20.5873 15.3954 20.677 15.3954 20.8565V21.2867H15.3057V21.1785C15.2635 21.2497 15.1817 21.2933 15.0669 21.2933C14.9099 21.2933 14.8135 21.2114 14.8135 21.0914C14.8135 20.9845 14.8821 20.8948 15.0814 20.8948H15.3018V20.8525C15.3018 20.7338 15.2345 20.6691 15.1051 20.6691C15.0154 20.6691 14.931 20.7008 14.8742 20.7509L14.832 20.681C14.9019 20.6216 15.0049 20.5873 15.1144 20.5873ZM15.0814 21.2194C15.187 21.2194 15.2648 21.1692 15.3018 21.0782V20.9647H15.084C14.9494 20.9647 14.9059 21.0175 14.9059 21.0887C14.9059 21.1692 14.9706 21.2194 15.0814 21.2194Z" fill="black"/>
<path d="M15.9402 21.2933C15.733 21.2933 15.5826 21.1468 15.5826 20.9396C15.5826 20.7325 15.733 20.5873 15.9402 20.5873C16.0576 20.5873 16.1566 20.6335 16.212 20.7245L16.142 20.772C16.0945 20.7021 16.0206 20.6691 15.9402 20.6691C15.7884 20.6691 15.6776 20.7773 15.6776 20.9396C15.6776 21.1032 15.7884 21.2101 15.9402 21.2101C16.0206 21.2101 16.0945 21.1785 16.142 21.1085L16.212 21.156C16.1566 21.2458 16.0576 21.2933 15.9402 21.2933Z" fill="black"/>
<path d="M16.7363 21.1771L16.7693 21.2444C16.7323 21.2774 16.6769 21.2933 16.6228 21.2933C16.4922 21.2933 16.4196 21.2194 16.4196 21.0914V20.6718H16.2956V20.5926H16.4196V20.4408H16.5133V20.5926H16.7244V20.6718H16.5133V21.0861C16.5133 21.1679 16.5555 21.2128 16.6334 21.2128C16.6716 21.2128 16.7099 21.2009 16.7363 21.1771Z" fill="black"/>
<path d="M16.9873 20.4408C16.9491 20.4408 16.9187 20.4105 16.9187 20.3735C16.9187 20.3379 16.9491 20.3076 16.9873 20.3076C17.0256 20.3076 17.0559 20.3366 17.0559 20.3722C17.0559 20.4105 17.0269 20.4408 16.9873 20.4408ZM16.9398 21.2867V20.5926H17.0335V21.2867H16.9398Z" fill="black"/>
<path d="M17.5779 21.2933C17.3747 21.2933 17.2243 21.1455 17.2243 20.9396C17.2243 20.7338 17.3747 20.5873 17.5779 20.5873C17.7811 20.5873 17.9302 20.7338 17.9302 20.9396C17.9302 21.1455 17.7811 21.2933 17.5779 21.2933ZM17.5779 21.2101C17.7257 21.2101 17.8352 21.1019 17.8352 20.9396C17.8352 20.7773 17.7257 20.6691 17.5779 20.6691C17.4301 20.6691 17.3193 20.7773 17.3193 20.9396C17.3193 21.1019 17.4301 21.2101 17.5779 21.2101Z" fill="black"/>
<path d="M18.4751 20.5873C18.644 20.5873 18.7601 20.6849 18.7601 20.8842V21.2867H18.6665V20.8934C18.6665 20.747 18.5899 20.6718 18.458 20.6718C18.3089 20.6718 18.2152 20.7641 18.2152 20.9225V21.2867H18.1215V20.5926H18.2112V20.7206C18.2614 20.6361 18.355 20.5873 18.4751 20.5873Z" fill="black"/>
<g filter="url(#filter0_d_704_7509)">
<path d="M9.42944 9.03576C9.42944 8.41111 9.93583 7.90472 10.5605 7.90472H23.8691C24.4937 7.90472 25.0001 8.41111 25.0001 9.03576V9.03576H9.42944V9.03576Z" fill="#D9D9D9"/>
</g>
<path d="M20.8718 10.1668L20.9723 10.3867L21.1546 10.7952L21.2174 10.9334L21.3871 11.3041L21.8583 12.3598L22.1034 11.7942L22.1536 11.6749L22.2228 11.5178L22.2668 11.4109L22.2793 11.3795C21.8269 10.9522 21.3556 10.5438 20.8718 10.1668ZM24.7488 7.90472H9.68079C9.54255 7.90472 9.42944 8.01783 9.42944 8.15607V17.1478C9.42944 17.2861 9.54255 17.3992 9.68079 17.3992H10.9563V9.33109H11.5784V9.95945C11.9869 9.46933 12.4958 9.22427 13.0928 9.22427C13.696 9.22427 14.2049 9.43791 14.6259 9.8652C15.0469 10.2925 15.2543 10.8077 15.2543 11.4109C15.2543 12.0142 15.0469 12.5294 14.6322 12.9567C14.2175 13.384 13.7148 13.6039 13.1305 13.6039C12.5461 13.6039 12.0246 13.3589 11.5784 12.8625V17.3992H11.591V18.5805C11.591 18.5805 12.345 17.4369 13.8845 17.3992H24.7488C24.887 17.3992 25.0001 17.2861 25.0001 17.1478V8.14978C25.0001 8.01154 24.8933 7.90472 24.7488 7.90472ZM20.721 15.4136L21.519 13.1075L20.4759 10.7575L20.256 10.2673L20.2497 10.2611L20.0172 9.73952L19.9481 9.58243L19.8853 9.43791L19.8413 9.33109H20.4948L20.6142 9.58872L20.6205 9.60757L20.8278 10.0663L20.8718 10.1605L20.9723 10.3804L21.1546 10.7889L21.2174 10.9271L21.3871 11.2978L21.8583 12.3535L22.1034 11.788L22.1536 11.6686L22.2228 11.5115L22.2668 11.4047L22.2793 11.3732L22.3924 11.1156L22.8009 10.1731L22.8197 10.1228L22.9328 9.8652L22.9642 9.79608L22.9705 9.78351L23.0082 9.69554L23.1653 9.33109H23.8251L23.6806 9.68925L23.1527 10.9962L23.1276 11.0528L21.3745 15.4136H20.721ZM19.7408 13.4657H19.125V12.8562C18.6726 13.3526 18.1573 13.5976 17.5729 13.5976C16.9886 13.5976 16.4859 13.384 16.0649 12.9504C15.6502 12.5169 15.4365 12.0016 15.4365 11.4047C15.4365 10.8077 15.6439 10.2925 16.0649 9.8652C16.3602 9.56987 16.6932 9.37508 17.0765 9.28082C17.2399 9.24312 17.4158 9.22427 17.5981 9.22427C18.2013 9.22427 18.7103 9.46933 19.1187 9.95945V9.33109H19.7345V13.4657H19.7408Z" fill="#F05757"/>
<defs>
<filter id="filter0_d_704_7509" x="7.42944" y="5.90472" width="19.5706" height="5.13104" filterUnits="userSpaceOnUse" color-interpolation-filters="sRGB">
<feFlood flood-opacity="0" result="BackgroundImageFix"/>
<feColorMatrix in="SourceAlpha" type="matrix" values="0 0 0 0 0 0 0 0 0 0 0 0 0 0 0 0 0 0 127 0" result="hardAlpha"/>
<feOffset/>
<feGaussianBlur stdDeviation="1"/>
<feComposite in2="hardAlpha" operator="out"/>
<feColorMatrix type="matrix" values="0 0 0 0 0 0 0 0 0 0 0 0 0 0 0 0 0 0 0.5 0"/>
<feBlend mode="normal" in2="BackgroundImageFix" result="effect1_dropShadow_704_7509"/>
<feBlend mode="normal" in="SourceGraphic" in2="effect1_dropShadow_704_7509" result="shape"/>
</filter>
</defs>
</svg>
